<svg xmlns="http://www.w3.org/2000/svg" width="100.42" height="61.713" viewBox="0 0 100.42 61.713">
  <defs>
    <style>
      .cls-1 {
        fill: #222221;
      }

      .cls-2 {
        fill: #7f7f7f;
      }

      .cls-3 {
        fill: #dca1a1;
      }
    </style>
  </defs>
  <g id="Group_14" data-name="Group 14" transform="translate(-152.887 -346.071)">
    <path id="Path_170" data-name="Path 170" class="cls-1" d="M253.263,406.94c.245.588-.631,1.177-.984.622-1.679-2.626-3.575-5.165-6.708-6.1-4.355-1.313-7.065,1.3-9.795,4.3a.769.769,0,0,1-1.34-.681A15.772,15.772,0,0,0,231.06,397c-2.944-3.383-7.964-4.811-11.117-.765a.724.724,0,0,1-1.243-.722c-2.369-2.674-4.182-5.174-8.046-5.44-3.341,3.937-7.917,6.085-12.98,3.225-4.221-2.376-5.784-6.631-5.488-10.978l-.029-.021a9.263,9.263,0,0,0-9.175-1.283.4.4,0,0,1-.561-.416.791.791,0,0,1-.993-.831c.65-4.755,1.075-8.816-4.627-10.769a14.827,14.827,0,0,0-11.085.966c-.295.668-1.454.511-1.324-.3.64-3.559,1.445-6.76-1.835-9.352-2.472-1.935-5.4-3.51-8.514-2.658a.16.16,0,0,1,.063.066,2.228,2.228,0,0,0,.084.255c-.132-.093-.482-.03-.65-.041a.527.527,0,0,1-.347-.068.081.081,0,0,1-.073-.052.435.435,0,0,1-.118-.673c7.017-8.077,17.93-12.535,28.665-10.638,11.517,2.033,16.371,12.478,17.991,23.038a11.776,11.776,0,0,1,2.54-1.215,7.915,7.915,0,0,1-1.456-5.559c.313-2.78,2.608-4.518,3.707-6.921a.753.753,0,0,1,1.454.3c-.038,1.267,1.4,2.585,2,3.664a11.826,11.826,0,0,1,1.281,3.069,7.876,7.876,0,0,1-.45,5.247,8.221,8.221,0,0,1,2.806,1.493,7.3,7.3,0,0,1,4.114-3.7c2.474-.777,4.868.709,7.337.189.545-.121,1.184.527.893,1.067-1.154,2.233-4.05,10.118-7.719,8.544a18.027,18.027,0,0,1-.322,3.323c7.369-3.316,19.224-7.026,25.835-.666,6.829,6.578,9.868,19.076,11.615,28.083a.863.863,0,0,1-.05.445C253.235,406.92,253.249,406.929,253.263,406.94Zm-8.65-7.289a10.824,10.824,0,0,1,6.417,3.769,73.125,73.125,0,0,0-6.681-17.689c-6.7-12.273-17.832-8.687-28.642-5.184a1.4,1.4,0,0,1-.225.038,25.612,25.612,0,0,1-3.616,7.884,10.232,10.232,0,0,1,7.558,6.04c2.419-2.878,6.563-3.073,9.815-1.092a13.934,13.934,0,0,1,6.24,10.281C237.8,400.927,240.756,399,244.613,399.652Zm-28.64-25.4c2.369,1.928,4.695-3.621,5.877-6.426-1.183,0-2.329-.3-3.544-.411-2.681-.266-4.425,1.247-6.015,3.2-.02.029-.036.018-.045.034a.645.645,0,0,1-1.04.232A8.446,8.446,0,0,0,208.191,369c-.5.214-1.265-.322-.983-.911a8.128,8.128,0,0,0-.673-7.637c-.5-.877-1.175-1.66-1.633-2.506a17.441,17.441,0,0,0-2.431,3.832c-.775,2.192.264,4.107.62,6.219a.614.614,0,0,1-.057.268.323.323,0,0,1,0,.463,28.66,28.66,0,0,0-3.126,2.794l.057.325a.409.409,0,0,1-.686.35c-4.864,5.3-8.436,12.993-2.04,18.631,9.134,8.068,17.857-8.228,17.287-15.7a.867.867,0,0,1,.9-.941A.45.45,0,0,1,215.973,374.25Zm-23.567,6.381a16.959,16.959,0,0,1,6.3-10.486c-2.656-11.047-6.842-21.569-20.038-22.461-9.122-.611-17.275,3.226-23.842,9.23,2.921-.945,6.085.381,8.605,2.154,3.18,2.237,3.868,5.808,2.855,9.3a14.912,14.912,0,0,1,13.545.02c4.37,2.417,4.589,7.367,3.178,11.678A9.272,9.272,0,0,1,192.407,380.631Z" transform="translate(0 0)"/>
    <path id="Path_171" data-name="Path 171" class="cls-2" d="M225.066,389.714a10.824,10.824,0,0,0-6.417-3.769c-3.857-.654-6.813,1.276-9.134,4.046a13.934,13.934,0,0,0-6.24-10.281c-3.251-1.981-7.4-1.786-9.815,1.091a10.232,10.232,0,0,0-7.558-6.04,25.611,25.611,0,0,0,3.616-7.884,1.394,1.394,0,0,0,.225-.037c10.81-3.5,21.939-7.089,28.642,5.184A73.125,73.125,0,0,1,225.066,389.714Z" transform="translate(25.964 13.707)"/>
    <path id="Path_172" data-name="Path 172" class="cls-2" d="M203.843,362.6c-1.183,2.8-3.509,8.353-5.877,6.426a.45.45,0,0,0-.54-.073.867.867,0,0,0-.9.941c.57,7.476-8.153,23.772-17.287,15.7-6.4-5.638-2.824-13.334,2.04-18.631a.409.409,0,0,0,.686-.35l-.057-.325a28.659,28.659,0,0,1,3.126-2.794.323.323,0,0,0,0-.463.614.614,0,0,0,.057-.268c-.356-2.112-1.4-4.027-.62-6.219a17.445,17.445,0,0,1,2.431-3.832c.457.847,1.133,1.629,1.633,2.506a8.128,8.128,0,0,1,.673,7.637c-.282.589.481,1.125.983.911a8.447,8.447,0,0,1,3.016,1.879.645.645,0,0,0,1.04-.232c.009-.016.025-.005.045-.034,1.59-1.949,3.333-3.462,6.015-3.2C201.513,362.3,202.66,362.6,203.843,362.6Zm-7.053,6.169a9.8,9.8,0,0,0,4.922-3.855.563.563,0,0,0-.148-.784c-2-1.118-5.5-.713-6.265,1.836a.347.347,0,0,0,.134.4.332.332,0,0,0-.305.529,12.065,12.065,0,0,1,1.027,1.622A.488.488,0,0,0,196.79,368.767Zm-3.178,6.417a.317.317,0,0,0,.6.2,1.6,1.6,0,1,0-2.935-1.276c-.211.486.49.738.775.391C192.62,373.851,193.876,374.121,193.612,375.184Zm-5.42.481a.659.659,0,0,0,.082-.927,3.716,3.716,0,0,0-1.917-1.042.684.684,0,0,0-.457-.038.369.369,0,0,1-.1-.007.527.527,0,0,0-.479.65,2.186,2.186,0,0,0,.061,2.122.755.755,0,0,0,.99.368A8.66,8.66,0,0,0,188.192,375.665Zm-3.918-4.99a1.447,1.447,0,0,0-.52-2.249,1.561,1.561,0,0,0-2.124,1.025c-.088.311.329.559.511.272.7-1.086,1.856-.272,1.71.807A.234.234,0,0,0,184.274,370.675Zm2.365-7.691c1.251.682,2.01-.709,2.187-1.769a8.654,8.654,0,0,0-1.133-5.4c-.18-.368-.827-.538-1.047-.1-1.092,2.081-1.6,4.9-.456,7.064A.423.423,0,0,0,186.639,362.984Z" transform="translate(18.008 5.226)"/>
    <path id="Path_173" data-name="Path 173" class="cls-1" d="M193.228,360.147A9.8,9.8,0,0,1,188.306,364a.488.488,0,0,1-.636-.25,12.065,12.065,0,0,0-1.027-1.622.332.332,0,0,1,.305-.529.347.347,0,0,1-.134-.4c.765-2.549,4.27-2.955,6.265-1.836A.563.563,0,0,1,193.228,360.147Zm-4.886,2.807a7.591,7.591,0,0,0,3.571-2.9c-1.719-.641-3.292.289-4.555,1.526a.259.259,0,0,1-.191.084A3.315,3.315,0,0,1,188.342,362.954Z" transform="translate(26.492 9.991)"/>
    <path id="Path_174" data-name="Path 174" class="cls-1" d="M187.409,366.4a.317.317,0,0,1-.6-.2c.264-1.063-.991-1.333-1.56-.681-.286.347-.986.095-.775-.391A1.6,1.6,0,1,1,187.409,366.4Z" transform="translate(24.811 14.214)"/>
    <path id="Path_175" data-name="Path 175" class="cls-3" d="M191.652,359.584a7.591,7.591,0,0,1-3.571,2.9,3.314,3.314,0,0,0-1.175-1.288.258.258,0,0,0,.191-.084C188.359,359.873,189.933,358.943,191.652,359.584Z" transform="translate(26.753 10.463)"/>
    <path id="Path_176" data-name="Path 176" class="cls-1" d="M184.186,365.528a.659.659,0,0,1-.082.927,8.66,8.66,0,0,1-1.824,1.127.755.755,0,0,1-.99-.368,2.186,2.186,0,0,1-.061-2.122.527.527,0,0,1,.479-.65.368.368,0,0,0,.1.007.685.685,0,0,1,.457.038A3.716,3.716,0,0,1,184.186,365.528Z" transform="translate(22.096 14.435)"/>
    <path id="Path_177" data-name="Path 177" class="cls-1" d="M181.186,361.57a1.447,1.447,0,0,1,.52,2.249.234.234,0,0,1-.423-.145c.146-1.079-1.011-1.894-1.71-.807-.182.288-.6.039-.511-.272A1.561,1.561,0,0,1,181.186,361.57Z" transform="translate(20.576 12.082)"/>
    <path id="Path_178" data-name="Path 178" class="cls-1" d="M184.531,360.009c-.177,1.059-.936,2.451-2.187,1.769a.423.423,0,0,1-.448-.2c-1.149-2.167-.636-4.982.456-7.064.22-.436.866-.266,1.047.1A8.654,8.654,0,0,1,184.531,360.009Zm-1.715,1.006c1.409.861.795-2,.756-2.228-.075-.361-.125-.723-.227-1.081a8.312,8.312,0,0,0-.434-1.313,11.683,11.683,0,0,0-.293,4.591C182.682,360.986,182.743,360.963,182.816,361.014Z" transform="translate(22.303 6.433)"/>
    <path id="Path_179" data-name="Path 179" class="cls-3" d="M183.008,357.844c.039.223.654,3.089-.756,2.228-.073-.052-.134-.029-.2-.03a11.683,11.683,0,0,1,.293-4.591,8.311,8.311,0,0,1,.434,1.313C182.883,357.12,182.933,357.483,183.008,357.844Z" transform="translate(22.866 7.376)"/>
    <path id="Path_180" data-name="Path 180" class="cls-2" d="M197.853,369.463a16.959,16.959,0,0,0-6.3,10.486,9.272,9.272,0,0,0-9.4-.563c1.411-4.311,1.192-9.261-3.178-11.678a14.912,14.912,0,0,0-13.545-.02c1.013-3.494.325-7.065-2.855-9.3-2.521-1.774-5.684-3.1-8.605-2.154,6.567-6,14.72-9.841,23.842-9.23C191.011,347.893,195.2,358.416,197.853,369.463Z" transform="translate(0.854 0.682)"/>
  </g>
</svg>
