<svg xmlns="http://www.w3.org/2000/svg" width="64.932" height="100" viewBox="0 0 64.932 100">
  <defs>
    <style>
      .cls-1 {
        fill: #222221;
      }

      .cls-2 {
        fill: #7c4a3a;
      }

      .cls-3 {
        fill: #f0c9bb;
      }
    </style>
  </defs>
  <g id="Group_2" data-name="Group 2" transform="translate(-168.892 -31.235)">
    <path id="Path_12" data-name="Path 12" class="cls-1" d="M231.919,35.559c4.136,5.656.972,11.433-4.1,14.962.141.689.3,1.358.4,2.068,3.974,25.239-2.23,51.17-3.384,76.391a.787.787,0,0,1-.427.71c-1.358,2.312-4.562,1.7-6.489.285-2.8-2.088-3.77-5.292-4.217-8.6a48.748,48.748,0,0,1-23.131-.1,9.9,9.9,0,0,1,.505,4.1,6.118,6.118,0,0,1-1.8,4.358,5.912,5.912,0,0,1-7.6.04.619.619,0,0,1-.669-.445c-6.123-18.876-16.28-57.5-6.509-80.244a8.873,8.873,0,0,1-3.75-13.685c3.911-5.07,12.021-5.191,15.894-.224a31.6,31.6,0,0,1,11.617-3.628c7.317-.891,13.725.141,18.773,3.081a.363.363,0,0,1,.081-.323C221.093,30.186,228.634,31.078,231.919,35.559ZM227.337,48.6c3.487-3.2,6.163-6.913,3.062-11.657-3.022-4.643-8.456-3.732-12.794-1.987a20.23,20.23,0,0,1,2.676,2.027c2.98-2.414,7.32-2.373,9.67.972a5.733,5.733,0,0,1-3.224,8.8C226.953,47.358,227.155,47.967,227.337,48.6Zm-1.2-3.345a4.238,4.238,0,0,0,2.048-6.994c-1.9-2.129-4.926-2.027-7.2-.669A22.54,22.54,0,0,1,226.14,45.25Zm1.015,31.465c.344-8.718.629-18.146-1.379-26.721C222.958,37.91,213.611,32.8,201.711,33.166c-27.817.813-31.1,26.761-28.079,52.834a46.29,46.29,0,0,0,6.527,5.921c3.61,2.656,11.882,5.9,12.387-1.886-1.3-3.386-5.959-3.406-8.716-5.25a10.813,10.813,0,0,1-4.522-6.042c-.243-.831,1.035-1.4,1.419-.588a13.208,13.208,0,0,0,3.224,4.643c1.581,1.318,3.406,1.783,5.252,2.555a9.653,9.653,0,0,1,2.025,1.114c0-.02,0-.02.022-.02,1.52-2.515,6.446-2.919,9.062-3.305A16.9,16.9,0,0,1,211.6,84.987a.554.554,0,0,1,.325.528c1.278-.649,2.717-1.116,3.932-1.866,2.575-1.6,3.792-3.934,5.353-6.406a.58.58,0,0,1,1.055.445c-.467,2.575-2.414,4.866-4.461,6.428a15.568,15.568,0,0,1-3.263,1.823,18.392,18.392,0,0,0-2.494,1.136c-1.318.811-2.149,3.853-.831,4.926a.257.257,0,0,1,.081.141c5.068,4.116,12.529-.445,15.306-5.919C226.829,83.06,227.034,79.877,227.155,76.715Zm-4.015,51.617c.568-13,2.169-25.931,3.224-38.906a12.057,12.057,0,0,1-6.388,5.312,10.169,10.169,0,0,1-1.54.427,47.5,47.5,0,0,1-1.094,23.355.591.591,0,0,1,.182-.04c1.136-.366,1.641,1.439.487,1.785-.995.3-1.987.566-2.982.811a18.89,18.89,0,0,0,2.333,5.454c.891,1.318,4.1,4.237,5.575,1.985A1.824,1.824,0,0,1,223.14,128.332Zm-7.764-9.873a65.412,65.412,0,0,0,1.844-23.133c-3.343.305-6.77-.912-8.433-4.035a.544.544,0,0,1,.02-.629,4.3,4.3,0,0,1,1.136-3.81,6.458,6.458,0,0,1,.972-.75,18.035,18.035,0,0,0-9.771-1.7c-2.169.182-7.825.447-9.266,2.414-.04.061-.081.061-.121.081a4.449,4.449,0,0,1,1.54,2.757c.022.04.042.04.063.081.912,4.378-2.961,7.115-6.976,6.853a.633.633,0,0,1,.04.608c-3.384,7.1.1,15.488,2.211,22.4.02.02,0,.04,0,.061,9.1,1.54,17.8,1.7,26.761-.629A.892.892,0,0,1,215.376,118.459Zm-26.66,7.865c.465-1.722-.2-3.851.528-5.454-.954-.283-1.886-.568-2.82-.932a.325.325,0,0,1,.164-.629c.485.081.952.162,1.439.243-3.812-6.04-6.022-16.422-2.676-22.99a.44.44,0,0,1,.081-.1c-4.522-.79-8.534-4.461-11.516-8.191,1.947,15.064,5.82,29.945,8.11,39.777a.507.507,0,0,1,.162.1C184.479,130.46,187.865,129.407,188.716,126.325Zm-4.34-89.773c.245-.162.467-.323.712-.487-3.244-3.972-9.895-3.467-12.935.548-3.022,4.015-1.035,8.9,2.838,11.314.243-.507.485-.995.75-1.48a5.95,5.95,0,0,1-1.866-8.759C176.227,34.625,181.517,33.774,184.376,36.552ZM183.2,37.4c-2.333-1.886-6.264-1.136-8.049,1.134a4.69,4.69,0,0,0,1.217,6.812A27.358,27.358,0,0,1,183.2,37.4Z" transform="translate(0 0)"/>
    <path id="Path_13" data-name="Path 13" class="cls-2" d="M205.785,35.777c3.1,4.744.424,8.454-3.062,11.657-.182-.629-.384-1.237-.608-1.846a5.733,5.733,0,0,0,3.224-8.8c-2.351-3.345-6.691-3.386-9.67-.972a20.23,20.23,0,0,0-2.676-2.027C197.329,32.046,202.763,31.134,205.785,35.777Z" transform="translate(24.615 1.161)"/>
    <path id="Path_14" data-name="Path 14" class="cls-3" d="M201.862,35.542a4.238,4.238,0,0,1-2.048,6.994,22.54,22.54,0,0,0-5.149-7.663C196.936,33.515,199.958,33.414,201.862,35.542Z" transform="translate(26.326 2.714)"/>
    <path id="Path_15" data-name="Path 15" class="cls-2" d="M223.843,49.027c2.007,8.575,1.722,18,1.379,26.721-.121,3.161-.325,6.345-.548,9.509-2.777,5.474-10.238,10.034-15.306,5.919a.257.257,0,0,0-.081-.141c-1.318-1.073-.487-4.116.831-4.926a18.392,18.392,0,0,1,2.494-1.136,15.568,15.568,0,0,0,3.263-1.823c2.048-1.563,3.994-3.853,4.461-6.428a.58.58,0,0,0-1.055-.445c-1.561,2.472-2.777,4.8-5.353,6.406-1.215.75-2.654,1.217-3.932,1.866a.554.554,0,0,0-.325-.528,16.9,16.9,0,0,0-11.292-1.846c-2.616.386-7.542.79-9.062,3.305-.022,0-.022,0-.022.02a9.653,9.653,0,0,0-2.025-1.114c-1.846-.772-3.671-1.237-5.252-2.555a13.208,13.208,0,0,1-3.224-4.643c-.384-.811-1.662-.243-1.419.588a10.813,10.813,0,0,0,4.522,6.042c2.757,1.844,7.421,1.864,8.716,5.25-.505,7.786-8.777,4.542-12.387,1.886a46.292,46.292,0,0,1-6.527-5.921c-3.022-26.072.263-52.021,28.079-52.834C211.679,31.835,221.026,36.943,223.843,49.027Zm-4.906,5.353c.081.851,1.419.871,1.338,0a3.259,3.259,0,0,0-3.022-3.083,2.989,2.989,0,0,0-3.141,2.8c0,.467.73.73.952.265.366-.811.912-1.664,1.886-1.744A1.936,1.936,0,0,1,218.938,54.38ZM200.142,76.3c5.638-.265,14.538-2.818,13.3-10.077-1.136-6.752-9.042-14.152-16.1-13.016a3.719,3.719,0,0,0-3.588,1.379,14.138,14.138,0,0,0-9.123,11.577C183.6,74.612,193.391,76.62,200.142,76.3ZM181.329,54.522c.081.548,1.033.427.972-.142a2.589,2.589,0,0,0-2.472-2.434A2.5,2.5,0,0,0,177.4,54.4a.467.467,0,0,0,.912.121A1.517,1.517,0,0,1,181.329,54.522Z" transform="translate(1.933 0.967)"/>
    <path id="Path_16" data-name="Path 16" class="cls-2" d="M203.051,60.022C202,73,200.395,85.932,199.827,98.928a1.823,1.823,0,0,0-.2.182c-1.48,2.252-4.684-.667-5.575-1.985a18.89,18.89,0,0,1-2.333-5.454c.995-.245,1.987-.507,2.982-.811,1.154-.346.649-2.151-.487-1.785a.591.591,0,0,0-.182.04,47.5,47.5,0,0,0,1.094-23.355,10.171,10.171,0,0,0,1.54-.427A12.057,12.057,0,0,0,203.051,60.022Z" transform="translate(23.313 29.404)"/>
    <path id="Path_17" data-name="Path 17" class="cls-1" d="M198.382,44.722c.081.871-1.257.851-1.338,0a1.936,1.936,0,0,0-1.987-1.765c-.974.081-1.52.934-1.886,1.744-.222.465-.952.2-.952-.265a2.989,2.989,0,0,1,3.141-2.8A3.259,3.259,0,0,1,198.382,44.722Z" transform="translate(23.826 10.625)"/>
    <path id="Path_18" data-name="Path 18" class="cls-3" d="M209.075,68.506a65.412,65.412,0,0,1-1.844,23.133.892.892,0,0,0,.02.568c-8.961,2.331-17.659,2.169-26.761.629,0-.02.02-.04,0-.061-2.108-6.915-5.6-15.308-2.211-22.4a.633.633,0,0,0-.04-.608c4.015.263,7.888-2.474,6.976-6.853-.02-.04-.04-.04-.063-.081a4.449,4.449,0,0,0-1.54-2.757c.04-.02.081-.02.121-.081,1.441-1.967,7.1-2.232,9.266-2.414a18.035,18.035,0,0,1,9.771,1.7,6.458,6.458,0,0,0-.972.75,4.3,4.3,0,0,0-1.136,3.81.544.544,0,0,0-.02.629C202.306,67.594,205.732,68.811,209.075,68.506Z" transform="translate(8.144 26.82)"/>
    <path id="Path_19" data-name="Path 19" class="cls-1" d="M206.483,55.656c1.237,7.259-7.663,9.812-13.3,10.077-6.751.323-16.543-1.684-15.508-10.137A14.138,14.138,0,0,1,186.8,44.018a3.719,3.719,0,0,1,3.588-1.379C197.442,41.5,205.347,48.9,206.483,55.656Zm-15,8.191c6.224.2,14.983-2.129,12.306-10.178a15.5,15.5,0,0,0-7.441-8.211,6.883,6.883,0,0,1-2.7,4.257,3.747,3.747,0,0,1-1.318.507c.608,3.184.871,6.426,1.54,9.59a.645.645,0,0,1-.02.346,7.062,7.062,0,0,0,4.845-2.232.811.811,0,0,1,1.136,1.156c-3.02,3.081-9.224,3.833-12.084.061-.222-.3.184-.629.467-.487a11.72,11.72,0,0,0,4.3,1.459,45.432,45.432,0,0,1-1.094-9.792,6.4,6.4,0,0,1-3.285-1.136,3.765,3.765,0,0,1-2.048-3.242,12.962,12.962,0,0,0-6.285,8.171C177.9,61.475,185.762,63.644,191.481,63.846Z" transform="translate(8.893 11.531)"/>
    <path id="Path_20" data-name="Path 20" class="cls-3" d="M202.82,52.186c2.676,8.049-6.082,10.38-12.306,10.178-5.719-.2-13.584-2.371-11.678-9.731a12.962,12.962,0,0,1,6.285-8.171,3.765,3.765,0,0,0,2.048,3.242,6.4,6.4,0,0,0,3.285,1.136,45.431,45.431,0,0,0,1.094,9.792,11.721,11.721,0,0,1-4.3-1.459c-.283-.142-.689.184-.467.487,2.86,3.772,9.064,3.02,12.084-.061a.811.811,0,0,0-1.136-1.156,7.062,7.062,0,0,1-4.845,2.232.645.645,0,0,0,.02-.346c-.669-3.164-.932-6.406-1.54-9.59a3.747,3.747,0,0,0,1.318-.507,6.883,6.883,0,0,0,2.7-4.257A15.5,15.5,0,0,1,202.82,52.186Z" transform="translate(9.859 13.013)"/>
    <path id="Path_21" data-name="Path 21" class="cls-2" d="M186.705,92.05c-.73,1.6-.063,3.732-.528,5.454-.851,3.083-4.237,4.136-6.529,1.825a.507.507,0,0,0-.162-.1c-2.29-9.832-6.163-24.714-8.11-39.777,2.982,3.73,6.994,7.4,11.516,8.191a.441.441,0,0,0-.081.1c-3.345,6.568-1.136,16.95,2.676,22.99-.487-.081-.954-.162-1.439-.243a.325.325,0,0,0-.164.629C184.819,91.482,185.751,91.767,186.705,92.05Z" transform="translate(2.538 28.82)"/>
    <path id="Path_22" data-name="Path 22" class="cls-2" d="M184.182,35.006c-.245.164-.467.325-.712.487-2.858-2.777-8.148-1.926-10.5,1.136a5.95,5.95,0,0,0,1.866,8.759c-.265.485-.507.972-.75,1.48-3.873-2.414-5.86-7.3-2.838-11.314C174.287,31.539,180.938,31.033,184.182,35.006Z" transform="translate(0.905 1.059)"/>
    <path id="Path_23" data-name="Path 23" class="cls-1" d="M178.962,44.393c.061.568-.891.689-.972.142a1.517,1.517,0,0,0-3.022,0,.467.467,0,0,1-.912-.121,2.5,2.5,0,0,1,2.434-2.454A2.589,2.589,0,0,1,178.962,44.393Z" transform="translate(5.272 10.954)"/>
    <path id="Path_24" data-name="Path 24" class="cls-3" d="M172.483,35.962c1.785-2.27,5.717-3.02,8.049-1.134a27.358,27.358,0,0,0-6.832,7.946A4.69,4.69,0,0,1,172.483,35.962Z" transform="translate(2.669 2.577)"/>
  </g>
</svg>
