<svg xmlns="http://www.w3.org/2000/svg" width="100" height="83.842" viewBox="0 0 100 83.842">
  <defs>
    <style>
      .cls-1 {
        fill: #222221;
      }

      .cls-2 {
        fill: #a78777;
      }

      .cls-3 {
        fill: #f9ece8;
      }

      .cls-4 {
        fill: #7c4a3a;
      }

      .cls-5 {
        fill: #c1aa9e;
      }
    </style>
  </defs>
  <g id="Group_39" data-name="Group 39" transform="translate(-417.675 -346.122)">
    <path id="Path_399" data-name="Path 399" class="cls-1" d="M512.914,372.373c2.985,1.741,5.337,4.954,4.636,8.548a5.24,5.24,0,0,1-6.354,4.162c-.047,4.273-.7,8.413-3.123,11.035-2.352,2.557-6.377,3.506-10.4,3.89a.7.7,0,0,1,.2.408,54.347,54.347,0,0,1-1.966,21.732,1.148,1.148,0,0,1-1.9.5,6.051,6.051,0,0,1-4.613-.341c0,2.512-.7,5.067-3.574,5.5-3.436.5-4.115-3.166-3.822-5.835a7.991,7.991,0,0,1-.994.248,7.193,7.193,0,0,1-.882,4.931,3.671,3.671,0,0,1-3.6,1.605c-3.03-.566-4.343-4.093-4.546-6.988a7.953,7.953,0,0,1-11.285-3.461,1.515,1.515,0,0,1-.135-.271c-.338-.791.951-1.29,1.335-.566,2.85,5.044,8.526,4.5,11.421-.068a.883.883,0,0,1,1.245-.2.835.835,0,0,1,1.583-.023,4.34,4.34,0,0,0,4.568,3.053c2.034-.248,2.8-1.7,3.732-3.3a1,1,0,0,1,1.538-.113.656.656,0,0,1,.859.431,5.808,5.808,0,0,0,1.2,1.853.73.73,0,0,1,1.132.5,2.487,2.487,0,0,1,.045.408,6.273,6.273,0,0,0,4.41.677.912.912,0,0,1,.248,0,108.854,108.854,0,0,0,2.758-20.262.744.744,0,0,1,.16-.318c-2.737.205-5.382.16-7.486.183-6.762.09-14.812-.791-20.219-5.315-3.03-2.557-4.16-6.129-4.476-9.951-2.963,1.763-6.559-.927-7.08-4-.609-3.729,2.014-6.873,5.2-8.39a.574.574,0,0,1-.316-.473,21.546,21.546,0,0,1,.068-5.427c-29.128-3.664-47.7,22.163-40.639,48.668a11.6,11.6,0,0,0,2.825,4.115c2.512,2.126,6.2,2.217,7.779-1.042a.735.735,0,0,1,.861-.383c-.273-.679.631-1.245,1.017-.566,2.985,4.909,8.526,4.909,12.077.7a.761.761,0,0,1,1.085-.068c.09-.408.656-.724.994-.316,2.985,3.684,7.531,3.912,10.767.406a.9.9,0,0,1,1.333.135.714.714,0,0,1,.023.906,7.849,7.849,0,0,1-12.753-.318.78.78,0,0,1-.115.3,7.69,7.69,0,0,1-5.675,3.594c.408,1.72.679,3.619-.271,5.179a3.684,3.684,0,0,1-3.3,1.831c-4.025-.338-2.352-5.721-1.989-8.072.023-.045.045-.068.068-.113a7.7,7.7,0,0,1-1.946-1.605,22.6,22.6,0,0,1-.271,6.309c-.248,1.312-.543,3.256-2.1,3.551-1.628.316-3.527-1.63-4.388-2.783a3.962,3.962,0,0,1-.474-4.433,7.583,7.583,0,0,1-1.177-.316,8.174,8.174,0,0,1-3.98-3.348.489.489,0,0,1-.521-.225c-14.2-28.745,11.4-57.873,41.2-54.254a20.5,20.5,0,0,1,.814-2.577c-5.245-2.489-4.273-11.083-2.419-15.448.273-.631,1.2-.5,1.515,0a18.513,18.513,0,0,0,7.486,6.469,29.356,29.356,0,0,1,18.929-6.6c7.667.09,13.84,2.828,18.161,7.441a12.678,12.678,0,0,0,5.878-6.129c.431-.972,1.766-.386,1.833.474.248,4.591.225,9.3-2.85,12.981-.045.023-.068.047-.113.07a31.773,31.773,0,0,1,2.262,9.768,1.016,1.016,0,0,1-1.132,1.132C513.163,372.238,513.027,372.283,512.914,372.373Zm-1.741,10.562c3.143,1.175,4.974-2.1,4.3-4.839-.566-2.194-2.262-3.619-3.89-5.021-.293.113-.566.225-.859.318C510.721,375.97,511.081,379.428,511.174,382.935Zm.023-23.746c1.7-2.329,2.056-5.2,2.056-8.052a13.21,13.21,0,0,1-5.019,3.619A24.235,24.235,0,0,1,511.2,359.189Zm-7.373,8.841c1.583,3.258,5.179,4.568,8.12,2.194-2.918-29.444-46.973-28.064-48.24,1.651a4.458,4.458,0,0,0,5.948-1.7.826.826,0,0,1,.769-.361.537.537,0,0,1,.656.158,5.533,5.533,0,0,0,4.388,2.014c1.808-.115,2.9-1.2,4.093-2.419a.856.856,0,0,1,1.2-.047.631.631,0,0,1,.972-.023c3.076,3.892,7.6,2.782,9.748-1.242a.893.893,0,0,1,1.039-.453.783.783,0,0,1,1.222.408,3.631,3.631,0,0,0,6.988-.113,1.115,1.115,0,0,1,2.011-.273A.7.7,0,0,1,503.823,368.03Zm4.749,19.45c.746-4.365.113-9.407.113-13.84a6.386,6.386,0,0,1-5.993-4.275c-1.4,4.433-7.8,4.773-9.905.994-2.307,4.5-8.977,4.591-11.872.453-2.059,3.89-7.4,3.619-10.176.791a5.2,5.2,0,0,1-4.636,2.329.117.117,0,0,1,.045.09c.113,5.022-.092,10.156,1.7,14.634C478.2,380.017,498.033,379.18,508.572,387.48Zm-.5,2.171a1.012,1.012,0,0,1-.271-.135c-10.334-8.12-28.63-7.058-39.464.293a15.252,15.252,0,0,0,4.095,5.157c4.115,3.391,11.8,3.436,16.871,3.346C496.655,398.155,505.406,398.11,508.073,389.652ZM485.888,426.2c2.1-.679,2.081-3.1,1.811-5.022a6.677,6.677,0,0,1-1.833-2.555,5.723,5.723,0,0,1-2.713,2.848C483.085,423.3,483.153,427.08,485.888,426.2Zm-6.557-.929a7.829,7.829,0,0,0,.158-3.076,6.167,6.167,0,0,1-4.7-3.957,7.164,7.164,0,0,1-1.628,2.555c.158,2.149.882,4.931,2.848,6.084C477.475,427.736,478.855,426.694,479.331,425.269Zm-14.2-51.246c0-.09.068-.135.113-.225a4.228,4.228,0,0,1-1.583-.634v.023c-1.831,1.425-3.639,2.918-4.205,5.27-.769,3.233,1.538,5.768,4.771,4.909a1.491,1.491,0,0,1,.316-.023A81.943,81.943,0,0,1,465.128,374.024Zm-.859-13.274a22.881,22.881,0,0,1,4.771-6.6,16.774,16.774,0,0,1-6.737-5.36C461.013,352.742,460.787,358.195,464.269,360.749ZM440.7,426.807a6.621,6.621,0,0,0-.2-3.912,8.573,8.573,0,0,1-3.166-.792c.18,1.856-1.017,4.478.428,5.881C438.85,429.023,440.3,427.894,440.7,426.807Zm-7.914-.113a14.733,14.733,0,0,0,.5-6.241,5.781,5.781,0,0,1-4.931,2.352c-.679,1.788.3,3.1,1.583,4.208.318.248,1.154,1.13,1.538,1.152C432.2,428.21,432.586,427.193,432.789,426.694Z" transform="translate(0 0)"/>
    <path id="Path_400" data-name="Path 400" class="cls-2" d="M463.689,363.1c.679,2.735-1.152,6.014-4.3,4.839-.092-3.506-.453-6.965-.453-9.542.293-.092.566-.205.859-.318C461.427,359.478,463.123,360.9,463.689,363.1Z" transform="translate(51.78 14.999)"/>
    <path id="Path_401" data-name="Path 401" class="cls-3" d="M462.856,348.346c0,2.85-.361,5.723-2.056,8.052a24.235,24.235,0,0,0-2.963-4.433A13.21,13.21,0,0,0,462.856,348.346Z" transform="translate(50.396 2.791)"/>
    <path id="Path_402" data-name="Path 402" class="cls-4" d="M486.328,368.706c-2.94,2.374-6.537,1.064-8.12-2.194a.7.7,0,0,0-1.087-.2,1.115,1.115,0,0,0-2.011.273,3.631,3.631,0,0,1-6.988.113.783.783,0,0,0-1.222-.408.893.893,0,0,0-1.039.453c-2.149,4.025-6.672,5.134-9.748,1.242a.631.631,0,0,0-.972.023.856.856,0,0,0-1.2.047c-1.2,1.22-2.284,2.3-4.093,2.419a5.533,5.533,0,0,1-4.388-2.014.537.537,0,0,0-.656-.158.826.826,0,0,0-.769.361,4.458,4.458,0,0,1-5.948,1.7C439.355,340.642,483.41,339.262,486.328,368.706Z" transform="translate(25.615 1.519)"/>
    <path id="Path_403" data-name="Path 403" class="cls-2" d="M481.735,360.705c0,4.433.634,9.475-.113,13.84-10.539-8.3-30.373-7.464-40.729,1.177-1.788-4.478-1.583-9.612-1.7-14.634a.117.117,0,0,0-.045-.09,5.2,5.2,0,0,0,4.636-2.329c2.78,2.828,8.117,3.1,10.176-.791,2.9,4.138,9.565,4.047,11.872-.453,2.1,3.779,8.505,3.439,9.905-.994A6.386,6.386,0,0,0,481.735,360.705Zm-3.369,6.785a3.7,3.7,0,0,0-3.008-3.394,3.63,3.63,0,0,0-3.935,2.059.579.579,0,0,0,.994.589,2.547,2.547,0,0,1,2.647-1.019c1.039.273,1.355,1.109,1.718,1.991A.81.81,0,0,0,478.366,367.49Zm-29.919-.859c.769.564,1.56-.746.746-1.29a4.048,4.048,0,0,0-6.2,2.918.508.508,0,0,0,.994.135A2.9,2.9,0,0,1,448.446,366.631Z" transform="translate(26.95 12.935)"/>
    <path id="Path_404" data-name="Path 404" class="cls-5" d="M479.608,368.52a1.012,1.012,0,0,0,.271.135c-2.667,8.458-11.419,8.5-18.769,8.661-5.067.09-12.756.045-16.871-3.346a15.252,15.252,0,0,1-4.095-5.157C450.979,361.463,469.274,360.4,479.608,368.52Z" transform="translate(28.195 20.996)"/>
    <path id="Path_405" data-name="Path 405" class="cls-1" d="M457.433,359.865a3.7,3.7,0,0,1,3.008,3.394.81.81,0,0,1-1.583.225c-.363-.882-.679-1.718-1.718-1.991a2.547,2.547,0,0,0-2.647,1.019.579.579,0,0,1-.994-.589A3.63,3.63,0,0,1,457.433,359.865Z" transform="translate(44.875 17.167)"/>
    <path id="Path_406" data-name="Path 406" class="cls-4" d="M495.3,388.829a.744.744,0,0,0-.16.318,108.854,108.854,0,0,1-2.758,20.262.912.912,0,0,0-.248,0,6.273,6.273,0,0,1-4.41-.677,2.487,2.487,0,0,0-.045-.408.73.73,0,0,0-1.132-.5,5.808,5.808,0,0,1-1.2-1.853.656.656,0,0,0-.859-.431,1,1,0,0,0-1.538.113c-.929,1.608-1.7,3.055-3.732,3.3a4.34,4.34,0,0,1-4.568-3.053.835.835,0,0,0-1.583.023.883.883,0,0,0-1.245.2c-2.9,4.568-8.571,5.112-11.421.068-.383-.724-1.673-.225-1.335.566a1.515,1.515,0,0,0,.135.271l-.113.068a.9.9,0,0,0-1.333-.135c-3.236,3.506-7.781,3.279-10.767-.406-.338-.408-.9-.092-.994.316a.761.761,0,0,0-1.085.068c-3.551,4.208-9.091,4.208-12.077-.7-.386-.679-1.29-.113-1.017.566a.735.735,0,0,0-.861.383c-1.583,3.258-5.267,3.168-7.779,1.042a11.6,11.6,0,0,1-2.825-4.115C413.3,377.614,431.87,351.787,461,355.451a21.546,21.546,0,0,0-.068,5.427.574.574,0,0,0,.316.473c-3.188,1.518-5.811,4.661-5.2,8.39.521,3.078,4.117,5.768,7.08,4,.316,3.822,1.445,7.394,4.476,9.951,5.407,4.523,13.457,5.4,20.219,5.315C489.923,388.99,492.567,389.035,495.3,388.829Z" transform="translate(1.485 11.269)"/>
    <path id="Path_407" data-name="Path 407" class="cls-2" d="M451.268,380.83c.271,1.923.293,4.343-1.811,5.022-2.735.882-2.8-2.9-2.735-4.728a5.723,5.723,0,0,0,2.713-2.848A6.677,6.677,0,0,0,451.268,380.83Z" transform="translate(36.431 40.347)"/>
    <path id="Path_408" data-name="Path 408" class="cls-2" d="M448.613,382.061a7.829,7.829,0,0,1-.158,3.076c-.476,1.425-1.856,2.467-3.326,1.605-1.966-1.152-2.69-3.935-2.848-6.084a7.164,7.164,0,0,0,1.628-2.555A6.167,6.167,0,0,0,448.613,382.061Z" transform="translate(30.876 40.132)"/>
    <path id="Path_409" data-name="Path 409" class="cls-1" d="M447.054,360.75c.814.543.023,1.854-.746,1.29a2.9,2.9,0,0,0-4.456,1.763.508.508,0,0,1-.994-.135A4.048,4.048,0,0,1,447.054,360.75Z" transform="translate(29.088 17.526)"/>
    <path id="Path_410" data-name="Path 410" class="cls-2" d="M442.074,358.749c-.045.09-.113.135-.113.225a81.943,81.943,0,0,0-.589,9.319,1.491,1.491,0,0,0-.316.023c-3.233.859-5.54-1.675-4.771-4.909.566-2.352,2.374-3.845,4.205-5.27v-.023A4.228,4.228,0,0,0,442.074,358.749Z" transform="translate(23.167 15.049)"/>
    <path id="Path_411" data-name="Path 411" class="cls-3" d="M444.687,352.663a22.881,22.881,0,0,0-4.771,6.6c-3.481-2.555-3.256-8.007-1.966-11.964A16.774,16.774,0,0,0,444.687,352.663Z" transform="translate(24.352 1.482)"/>
    <path id="Path_412" data-name="Path 412" class="cls-2" d="M429.724,380.611a6.621,6.621,0,0,1,.2,3.912c-.406,1.087-1.853,2.216-2.94,1.177-1.445-1.4-.248-4.025-.428-5.881A8.573,8.573,0,0,0,429.724,380.611Z" transform="translate(10.776 42.284)"/>
    <path id="Path_413" data-name="Path 413" class="cls-2" d="M427.467,379.087a14.733,14.733,0,0,1-.5,6.241c-.2.5-.589,1.515-1.312,1.47-.383-.022-1.22-.9-1.538-1.152-1.288-1.109-2.262-2.419-1.583-4.208A5.781,5.781,0,0,0,427.467,379.087Z" transform="translate(5.82 41.366)"/>
  </g>
</svg>
