<svg xmlns="http://www.w3.org/2000/svg" width="100" height="77.614" viewBox="0 0 100 77.614">
  <defs>
    <style>
      .cls-1 {
        fill: #222221;
      }

      .cls-2 {
        fill: #bcdbae;
      }

      .cls-3 {
        fill: #6aa742;
      }
    </style>
  </defs>
  <g id="Group_33" data-name="Group 33" transform="translate(-323.802 -118.34)">
    <path id="Path_273" data-name="Path 273" class="cls-1" d="M396.134,188.067c0,.021.145.23.186.354a3.867,3.867,0,0,1,.083,2.18c.458-.021.915-.041,1.371-.083a8.983,8.983,0,0,0-.665-1.267,10.678,10.678,0,0,0-.747-.975C396.216,188.109,396.154,188.047,396.134,188.067ZM385.9,190.726a1.58,1.58,0,0,0,.333,1.828,1.514,1.514,0,0,0,2.263-.623c.021-.021.041-.041.062-.041a.307.307,0,0,1,.021-.145.47.47,0,0,1,.251-.313,18.254,18.254,0,0,1-2.389-1.017A.362.362,0,0,1,385.9,190.726Zm35.695-30.419c1.267.665,2.617,1.66,2.1,3.279a4.031,4.031,0,0,1-3.321,2.327,3.428,3.428,0,0,1,1.888,3.716,2.857,2.857,0,0,1-1.681,1.87,3.79,3.79,0,0,1,1.2,4.194,3.7,3.7,0,0,1-3.323,2.263,2.59,2.59,0,0,1,.54,3.489,2.475,2.475,0,0,1-2.41.934,2.874,2.874,0,0,1,.083,3.571,2.99,2.99,0,0,1-2.72.915,2.98,2.98,0,0,1-.331,2.656,2.154,2.154,0,0,1-3.116.4c.4,1.037.354,2.056-1.12,2.366a3.366,3.366,0,0,1-2.679-.685,2.7,2.7,0,0,1-1.807,2.244,2.645,2.645,0,0,1-2.408-.582,2.753,2.753,0,0,1-2.139,2.035,2.957,2.957,0,0,1-2.679-1.122,2.608,2.608,0,0,1-1.743,1.7,2.724,2.724,0,0,1-2.971-1.35,2.183,2.183,0,0,1-1.743.913,2.7,2.7,0,0,1-2.7-2.389,2.258,2.258,0,0,1-2.783.644,2.347,2.347,0,0,1-1.226-2.284,2.628,2.628,0,0,1-3.072-.248,3.054,3.054,0,0,1-.354-3.9,2.8,2.8,0,0,1-3.093-1.785,2.95,2.95,0,0,1,1-3.116,2.53,2.53,0,0,1-2.327-2.7,2.7,2.7,0,0,1,2.824-2.429,3.453,3.453,0,0,1,.561-3.2,2.364,2.364,0,0,1,3.509-.269,2.956,2.956,0,0,1,2.18-1.828,2.821,2.821,0,0,1,.727-.021,3.18,3.18,0,0,1,2.638,2.139,1.568,1.568,0,0,1,1.785-.455,2.631,2.631,0,0,1,1.518,2.741,3.038,3.038,0,0,1,2.907,2.491,3.149,3.149,0,0,1-2.431,3.447c-.021,0-.021-.021-.041-.021-.021.021-.041.062-.062.062a.108.108,0,0,1-.083.041.563.563,0,0,1-.665-.207c-.83-1.246-1.64-2.886-3.468-2.6a1.889,1.889,0,0,0-1.578,2.658c5.4,6.375,13.641,2.2,15.927-4.735a20.868,20.868,0,0,0,.29-9.8c-1.081-6.021-4.546-10.755-7.37-16.008A19.565,19.565,0,0,1,383.2,155.8c-.023,0-.043-.021-.064-.021a12.817,12.817,0,0,0,1.184,7.871,3.939,3.939,0,0,1,2.555-1.391,1.205,1.205,0,0,1,1.246,1.536.482.482,0,0,1-.313.29,3.52,3.52,0,0,1-.644,1.2,2.259,2.259,0,0,1,1.412,2.284c-.083.892-.934,1.1-1.785,1.019a1.592,1.592,0,0,1-.23,2.18,1.414,1.414,0,0,1-.913.352,2.392,2.392,0,0,1-1.66-1.058,1.6,1.6,0,0,1-2.306.851c-1.536-.851-.872-3.281.041-4.319a13.779,13.779,0,0,1-5.731-9.054,24.152,24.152,0,0,1-11.42.062.373.373,0,0,1-.248-.5.455.455,0,0,1,.352-.248,96.077,96.077,0,0,0,11.213-.81,10.626,10.626,0,0,1,.292-2.679.363.363,0,0,1,.706.1c.29,5.149,1.867,9.406,6.166,12.542a.612.612,0,0,1-.435,1.12c-.021.043,0,.064-.021.106a3.8,3.8,0,0,0-.54,2.118c.29,1.12.954.455,1.329-.188a.837.837,0,0,1-.1-.186.516.516,0,0,1,.809-.623c.414.354.644,1.06,1.12,1.329.561.313.791-.166.582-.644a4.335,4.335,0,0,0-.685-.851c-.311-.4.083-1.039.582-.727a1.94,1.94,0,0,1,.248.186,2.123,2.123,0,0,0,1.2.251.389.389,0,0,0,.54-.292c.269-.145.269-.331.041-.518-.228-.6-1.184-.874-1.745-.832-.621.062-.706-.768-.29-1.058a4.04,4.04,0,0,0,1.35-1.766c-.4-.248-2.077,1.1-2.263,1.267a.343.343,0,0,1-.582.269,10.452,10.452,0,0,1-1.226-12.687c.313-.476,1.163-.186.956.4a18.357,18.357,0,0,0-.706,2.6,28.071,28.071,0,0,0,11.981-4.735.6.6,0,0,1,.892.311c.041.021.062.021.083.041,6.623,7.248,12.167,19.333,7.308,29.03-3.259,6.52-11.482,9.343-16.569,3.9-.062-.062-.124-.145-.186-.207a2.928,2.928,0,0,1,.621-5.087,4.024,4.024,0,0,1,4.4.83c-1.849-3.9-8.1-5.462-10.341-.851-1.681,3.489.207,6.623,2.534,9.219a7.012,7.012,0,0,0,2.159-3.468.459.459,0,0,1,.644-.269.287.287,0,0,1,.145.166,7.11,7.11,0,0,1,.768,3.217,7.375,7.375,0,0,1-.375,2.286,34.4,34.4,0,0,0,8.2.975,3.532,3.532,0,0,0,.145-1.143,12.782,12.782,0,0,0-.352-1.474.736.736,0,0,1,.665-.954c.644-.021,1.141.768,1.474,1.226a9.155,9.155,0,0,1,1.12,2.139,21.852,21.852,0,0,0,6.542-1.89,6.933,6.933,0,0,0-.977-3.24c-.435-.685-1.161-1.141-.954-2.014a.485.485,0,0,1,.561-.331,9.173,9.173,0,0,1,5.294,3.1,20.729,20.729,0,0,0,4.319-4.9,13.457,13.457,0,0,0-6.1-3.406.586.586,0,0,1-.145-1.06c2.139-1.619,6.062-1.723,8.782-.727a43.443,43.443,0,0,0,2.118-7.849,36.746,36.746,0,0,0-9.343-1.725.721.721,0,0,1-.5-1.224c2.451-2.658,6.708-5.192,10.548-4.611a46.509,46.509,0,0,0-.954-9.78c-.041,0-.062.041-.083.041a21.662,21.662,0,0,0-9.594,2.992.659.659,0,0,1-1-.561c-.023-4.652,3.923-9.033,8.18-10.507a34.079,34.079,0,0,0-4.567-7.621c-4.963,1.805-8.64,5.5-11.36,9.925a.6.6,0,0,1-1.1-.311c-.313-5.689,2.118-11.753,6.956-14.993a34.113,34.113,0,0,0-6.646-3.985.519.519,0,0,1-.685-.292c-.083-.041-.166-.062-.269-.1a27.51,27.51,0,0,0-11.94,18.293.514.514,0,0,1-.934.124,23.981,23.981,0,0,1-.54-21.532,53.308,53.308,0,0,0-10.466.207,1.9,1.9,0,0,1-.1.166c-6.354,7.393-8.617,16.592-8.555,26.184a.534.534,0,0,1-.561.561.7.7,0,0,1-.561-.269,24.213,24.213,0,0,1-3.592-23.527c-1.89.685-3.737,1.433-5.524,2.286a1.166,1.166,0,0,1-.248.083.815.815,0,0,1-.789.248,19.655,19.655,0,0,0-4.132-.437c-12.045,0-18.668,12.043-24.712,21.368,6.271,4.505,13.457.706,19.77-1.515a.342.342,0,0,1,.331.561c-3.281,2.8-9.24,5.252-14.327,4.857,7,5.981,18.149,4.466,26.7,3.447.062-.706.083-1.433.083-2.221,0-.352.561-.561.727-.186.1.207.207.416.29.623.021.041,0,.062-.041.062l-.041-.021a11.227,11.227,0,0,1-4.257,12.167.475.475,0,0,1-.685-.124c-.54-.166-1.994-.685-2.346-.269-.292.373,1.64,1.058,1.867,1.141.54.271.126,1.019-.393.915a1.8,1.8,0,0,1-.4-.106,2.866,2.866,0,0,0-.83.52c-.393.228-.331.582.186,1.081l.561-.188a2.553,2.553,0,0,0,.623-.435.5.5,0,0,1,.269-.083,2.477,2.477,0,0,0,.271-.188c.352-.228.706.271.435.561-.248.251-1.888,2.348-.6,2.284.768-.041,1.079-1.619,1.244-2.2a.4.4,0,0,1,.665-.207c.209-.021.416.083.4.354-.021.5,0,1.389.747,1.433.6.021.706-.561.727-1.019a5.932,5.932,0,0,0-.458-2.325.727.727,0,0,1-.559-1.226,21.87,21.87,0,0,0,5.294-6.085c1.081-1.909,1.37-4.443,2.741-6.124a.114.114,0,0,1,.1-.062.206.206,0,0,1,.166.124,4.354,4.354,0,0,1,.085,2.428,17.1,17.1,0,0,1-1.973,4.735,19.07,19.07,0,0,1-4.88,5.586c.665,1.267,1.288,4.153-.416,4.9a1.631,1.631,0,0,1-2.077-.6c-.5,1.1-1.433,2.056-2.553,1.35a1.917,1.917,0,0,1-.812-1.952,1.311,1.311,0,0,1-1.723-.892,1.8,1.8,0,0,1,1.143-2.263c-.894-.458-1.621-1.122-1.039-1.911.747-1.019,2.513-.706,3.53-.083a18.709,18.709,0,0,0,2.576-4.132,4.523,4.523,0,0,1-2.824-.851,4.234,4.234,0,0,1-3.654,2.886,4.326,4.326,0,0,1-3.8-1.787,3.511,3.511,0,0,1-3.987,1.2c-2.012-.706-3.155-2.7-3.633-4.693-3.778-.892-7.06-2.656-9.012-5.689-.021-.041,0-.062-.021-.083a8.777,8.777,0,0,1-4.921-2.762.633.633,0,0,1-.145-.414.491.491,0,0,1-.186-.644c2.576-5.753,6.292-11.857,11.13-16.281a6.341,6.341,0,0,1,1.578-6.333,3.743,3.743,0,0,1,4.36-.5,5.343,5.343,0,0,1,3.946-3.739c2.056-.6,3.447-.041,4.36,1.538.644-1,2.3-1.164,3.344-.977,1.35.248,1.805,1.994,1.826,3.385.021,0,.043-.021.064-.021a6.085,6.085,0,0,1,1.888-3.468,2.665,2.665,0,0,1,3.863.582c-.041-1.246,1.805-2.263,2.8-2.617,1.12-.416,2.99-.186,3.426,1.06a3.426,3.426,0,0,1,6.062-.706.187.187,0,0,1,.1-.021c-.083-1.58,1.766-2.182,3.074-2.389a2.547,2.547,0,0,1,3.135,1.807c.271-1.308,1.952-1.766,3.24-1.932a3.668,3.668,0,0,1,2.511.458c.6.414.729,1.037,1.06,1.557a6.019,6.019,0,0,1,5.045-1.849c1.828.166,2.679,1.787,2.824,3.447a3.317,3.317,0,0,1,3.9-.29,3.666,3.666,0,0,1,1.619,2.594,2.548,2.548,0,0,1,3.093-.685,3.066,3.066,0,0,1,1.559,2.014.552.552,0,0,1,.623-.062c.041.021.041.041.062.041a2.4,2.4,0,0,1,1.288.292,3.375,3.375,0,0,1,1.348,3.217c2.348-1.058,4.486,1.849,4.341,4.091a2.7,2.7,0,0,1,3.383.665,5.292,5.292,0,0,1,.874,4.59.448.448,0,0,1,.228.021,5.385,5.385,0,0,1,3.072,2.886,3.141,3.141,0,0,1-.435,2.927c.062.021.124-.021.186.021,1.226.665,2.513,1.64,2.658,3.157a2.759,2.759,0,0,1-.478,1.888,1.156,1.156,0,0,1-.228.209,2.937,2.937,0,0,1,.789,5.087c1.226.685,2.3,1.66,2.263,3.2A2.7,2.7,0,0,1,421.59,160.306Zm1.288,3.155c.644-1.265-.6-2.221-1.536-2.865-.083-.041-.083-.124-.062-.207a5.593,5.593,0,0,1-.81.145c.021,1.35-.021,2.7-.1,4.07C421.363,164.563,422.359,164.5,422.878,163.461Zm-2.428-4.027c1.2-.209,2.573-.685,2.18-2.265a3.873,3.873,0,0,0-1.973-2.159c-.041.021-.062.041-.1.041a.425.425,0,0,1-.437-.1C420.282,156.422,420.388,157.917,420.45,159.435Zm-.292-5.379a2.21,2.21,0,0,0,1.495-2.1,2.033,2.033,0,0,0-1.971-1.807.86.86,0,0,0-.313.23c.248,1.161.437,2.387.6,3.633.041,0,.062-.021.1,0C420.1,154.035,420.137,154.035,420.158,154.056Zm1.2,14.971a2.547,2.547,0,0,0-1.2-2.387c-.124,1.308-.331,2.615-.561,3.9A1.8,1.8,0,0,0,421.363,169.027Zm-3.509,7.7c3.031.582,4.029-3.238,2.076-5.045a2.639,2.639,0,0,1-.582.062A35.325,35.325,0,0,1,417.854,176.73Zm2.18-28.7c.248-1.288-1-2.2-1.952-2.762a.509.509,0,0,1-.228-.538.893.893,0,0,0-.1.021c.414,1.161.81,2.346,1.141,3.592.062.248.106.518.168.768C419.472,148.843,419.93,148.615,420.034,148.033Zm-1.828,18.772a47,47,0,0,0,.416-5.149,26.891,26.891,0,0,0-4.4,1.017,13.762,13.762,0,0,0-3.946,2.431A37.228,37.228,0,0,1,418.205,166.805Zm-.1,14.161a1.878,1.878,0,0,0-.747-2.886.072.072,0,0,1-.021-.041,29.418,29.418,0,0,1-1.474,2.948A1.7,1.7,0,0,0,418.1,180.966Zm-.706-37.127a2.443,2.443,0,0,0,.209-2.573,5.272,5.272,0,0,0-2.265-1.952.489.489,0,0,1-.186-.166.6.6,0,0,1-.021-.333.333.333,0,0,1-.228-.1l.248.437A36.319,36.319,0,0,1,417.4,143.839Zm-1.453,41.487a2.2,2.2,0,0,0-.54-3.321c-.041-.021-.083-.021-.1-.041a22.292,22.292,0,0,1-2.408,3.155A2.129,2.129,0,0,0,415.943,185.326Zm1.515-35.589a41.257,41.257,0,0,0-1.867-6.023,15.308,15.308,0,0,0-4.652,4.05,16.3,16.3,0,0,0-2.056,4.174A21.57,21.57,0,0,1,417.458,149.737Zm-3.571,30.419a29.2,29.2,0,0,0,1.7-3.426,12.008,12.008,0,0,0-6.749.292A11.734,11.734,0,0,1,413.887,180.157Zm.915-41.632a17.445,17.445,0,0,0-.313-3.1,2.171,2.171,0,0,0-2.845-1.557.442.442,0,0,1-.166,0A36.128,36.128,0,0,1,414.8,138.524Zm-2.327,50.6c.851-.478.872-1.911.292-2.72a2.006,2.006,0,0,1-.5-.458c-.041,0-.062-.041-.1-.062a23.22,23.22,0,0,1-2.431,2.118C410.46,188.794,411.417,189.73,412.475,189.127Zm-2.638,2.014c.4-.437-.248-1.642-.435-2.014v-.083c-.166-.168-.313-.333-.458-.5a21.156,21.156,0,0,1-2.366,1.433c.041.041.1.041.124.083a2.559,2.559,0,0,0,1.952,1.288C408.945,191.39,409.63,191.39,409.837,191.142Zm.437-58.64a4.754,4.754,0,0,0-.561-1.453,2.362,2.362,0,0,0-2.2-1.143A36.285,36.285,0,0,1,410.274,132.5Zm-4.319,55.607a18.747,18.747,0,0,0,2.493-1.6,12.207,12.207,0,0,0-4.132-2.408c.228.311.5.6.58.727a7.181,7.181,0,0,1,1.06,3.279Zm3.946-53.9a29.874,29.874,0,0,0-4.008-3.925c-3.737,3.447-6.209,7.538-6.478,12.563A26.032,26.032,0,0,1,409.9,134.206Zm-4.215-5.753a2.5,2.5,0,0,0-.292-1.017,1.093,1.093,0,0,0-1.557-.354v.062C404.481,127.56,405.084,128,405.686,128.452Zm-.791,64.06a2.374,2.374,0,0,0,.874-2.139,24.587,24.587,0,0,1-2.886,1.12c.021.041.062.062.062.083C403.276,192.367,404.024,193.03,404.9,192.512Zm-2.284-66.158a2.253,2.253,0,0,0-.81-1.681,1.81,1.81,0,0,0-2.263.062C400.6,125.235,401.616,125.775,402.612,126.355Zm-.665,66.031a1.416,1.416,0,0,1-.062-.6,23.139,23.139,0,0,1-3.571.706c.269.913.81,1.785,1.952,1.7A1.93,1.93,0,0,0,401.947,192.386Zm-4.339-68.522a2.036,2.036,0,0,0-.727-1.143,2.64,2.64,0,0,0-2.907-.145C395.221,122.949,396.423,123.386,397.608,123.864Zm-1.7,70.849a1.784,1.784,0,0,0,1.1-2.139,20.369,20.369,0,0,1-3.551-.1.421.421,0,0,1,.124.311C393.641,193.924,394.659,195.148,395.906,194.713Zm-2.7-13.726a1.95,1.95,0,0,0,1.2-2.035,2.165,2.165,0,0,0-2.12-1.805v.021c-.021.083-.083.1-.124.166A4.419,4.419,0,0,1,393.206,180.987Zm-.54,11.629a.4.4,0,0,0-.021-.145c-.021-.041,0-.085,0-.124a22.907,22.907,0,0,1-3.052-.646.326.326,0,0,1,.083.209,2.028,2.028,0,0,0,1.058,2.3,1.4,1.4,0,0,0,1.87-.727,2.972,2.972,0,0,1,.041-.851A.02.02,0,0,0,392.666,192.616Zm-1.246-16.072a2.811,2.811,0,0,0-.062-1.017,1.511,1.511,0,0,0-.623-.894c-.582-.352-1-.145-1.267.623A8.632,8.632,0,0,1,391.419,176.544Zm1.081-54.4c-.4-1.433-.727-2.72-2.658-2.573a5.683,5.683,0,0,0-3.468,1.371A50.064,50.064,0,0,1,392.5,122.14Zm-7.538,19.726a26.756,26.756,0,0,1,11.379-16.985,44.027,44.027,0,0,0-11.358-2.573A25.253,25.253,0,0,0,384.962,141.866Zm1.973,47.719a7.363,7.363,0,0,0-.333-3.967,7.931,7.931,0,0,1-1.93,2.886c.228.228.455.478.706.706C385.9,189.355,386.415,189.459,386.935,189.585Zm1.141-14.869c-.31-.747-.559-1.433-1.495-1.681a2.19,2.19,0,0,0-2.573,1.474c-.021.041-.062.062-.083.1A7.293,7.293,0,0,1,388.076,174.716Zm-3.259,15.263a.451.451,0,0,1,.1-.062c-.311-.269-.623-.6-.934-.913a.551.551,0,0,1-.582-.6c-.333-.375-.665-.768-.957-1.164-.559.83-1,1.952-.248,2.824A1.775,1.775,0,0,0,384.817,189.978Zm-.124-69.23c-.062-.1-.1-.228-.168-.352a2.1,2.1,0,0,0-2.408-.954,6.708,6.708,0,0,0-1.122.207,3.044,3.044,0,0,0-1.1.851Q382.324,120.531,384.693,120.748Zm-1.329,54.03a.369.369,0,0,1-.271-.124c-1.64-1.805-3.737,1.371-2.532,2.638a6.772,6.772,0,0,1,1.867-2.014A5.185,5.185,0,0,1,383.364,174.778Zm-1.536,11.753a.155.155,0,0,1,.1-.021,13.631,13.631,0,0,1-1.828-3.7,2.062,2.062,0,0,0-1.058,2.159,2.165,2.165,0,0,0,2.511,1.578.341.341,0,0,1,.207.021C381.786,186.552,381.807,186.531,381.828,186.531Zm-1.787-8.223a.456.456,0,0,1-.29.126c-2.327-.085-2.472,2.824-.271,3.279a.267.267,0,0,1,.23.23c.041-.021.1-.064.145-.085A6.833,6.833,0,0,1,380.041,178.308Zm-2.077-57.787a2.185,2.185,0,0,0-.623-.851c-.561-.458-1.079-.333-1.785-.228a2.978,2.978,0,0,0-2.431,1.41C374.724,120.666,376.345,120.562,377.964,120.521Zm-6.5.52a2.8,2.8,0,0,0-4.507.81C368.455,121.516,369.95,121.247,371.466,121.04Zm-7.58,25.852c.269-8.826,2.576-17.256,8.141-24.213a59.029,59.029,0,0,0-10.778,2.576C358.944,132.752,359.65,140.309,363.886,146.893Zm1.952-24.815a2.02,2.02,0,0,0-2.431-.81c-.872.228-2.656,1.081-2.594,2.263C362.474,122.972,364.155,122.494,365.838,122.077Zm-6.023,1.787c-.727-.665-1.412-1.391-2.511-.83a3.428,3.428,0,0,0-1.391,1.536c-.168.269-.292.561-.437.851-.021.062-.062.145-.083.228C356.847,124.984,358.321,124.4,359.816,123.864Zm-3.426,37a15.194,15.194,0,0,0,.894-3.364c-5.027,1.6-12.48,2.532-18.71,1.161a8.615,8.615,0,0,0,1.973,2.992,3.047,3.047,0,0,0,4.88-.644.351.351,0,0,1,.248-.145c.062-.043.1-.062.166-.106a.354.354,0,0,1,.5.4c-.124.4,1.184,1.122,1.453,1.246a3.073,3.073,0,0,0,1.87.248,3.747,3.747,0,0,0,2.679-2.532.536.536,0,0,1,.975.186c.041.021.062,0,.1.021A4.792,4.792,0,0,0,356.389,160.867Zm-3.2-34.386c0-1-.062-2.493-1.019-2.762a2.868,2.868,0,0,0-2.594.642,1.837,1.837,0,0,1,.124.292c.207.52-.644.851-.894.373a4.1,4.1,0,0,0-1.389-1.992c-.77-.416-2.224-.021-3.033.29a5.213,5.213,0,0,0-2.845,3.052.886.886,0,0,0,.145.147.558.558,0,0,1-.789.789c-1.474-1.391-3.489-.685-4.443.934a7.742,7.742,0,0,0-.727,3.778C340.526,127.893,346.361,125.421,353.193,126.481Z" transform="translate(0 0)"/>
    <path id="Path_274" data-name="Path 274" class="cls-2" d="M371.419,138.857c.934.644,2.18,1.6,1.536,2.865-.52,1.039-1.516,1.1-2.511,1.143.083-1.371.124-2.72.1-4.07a5.593,5.593,0,0,0,.81-.145C371.336,138.733,371.336,138.816,371.419,138.857Z" transform="translate(49.923 21.739)"/>
    <path id="Path_275" data-name="Path 275" class="cls-2" d="M372.836,138.243c.393,1.58-.977,2.056-2.18,2.265-.062-1.518-.168-3.012-.333-4.486a.425.425,0,0,0,.437.1c.041,0,.062-.021.1-.041A3.873,3.873,0,0,1,372.836,138.243Z" transform="translate(49.793 18.926)"/>
    <path id="Path_276" data-name="Path 276" class="cls-2" d="M372.246,135.512a2.21,2.21,0,0,1-1.495,2.1c-.021-.021-.062-.021-.083-.041-.041-.021-.062,0-.1,0-.166-1.246-.354-2.472-.6-3.633a.86.86,0,0,1,.313-.23A2.033,2.033,0,0,1,372.246,135.512Z" transform="translate(49.407 16.446)"/>
    <path id="Path_277" data-name="Path 277" class="cls-2" d="M370.633,141.669a2.547,2.547,0,0,1,1.2,2.387,1.8,1.8,0,0,1-1.766,1.515C370.3,144.284,370.509,142.977,370.633,141.669Z" transform="translate(49.525 24.97)"/>
    <path id="Path_278" data-name="Path 278" class="cls-2" d="M371.307,144.106c1.952,1.807.954,5.627-2.076,5.045a35.325,35.325,0,0,0,1.495-4.983A2.639,2.639,0,0,0,371.307,144.106Z" transform="translate(48.623 27.579)"/>
    <path id="Path_279" data-name="Path 279" class="cls-2" d="M369.511,131.626c.957.561,2.2,1.474,1.952,2.762-.1.582-.561.809-.975,1.081-.062-.251-.106-.52-.168-.768-.331-1.246-.727-2.431-1.141-3.592a.893.893,0,0,1,.1-.021A.509.509,0,0,0,369.511,131.626Z" transform="translate(48.57 13.645)"/>
    <path id="Path_280" data-name="Path 280" class="cls-3" d="M396.942,148.84a46.509,46.509,0,0,1,.954,9.78c-3.841-.582-8.1,1.952-10.548,4.611a.721.721,0,0,0,.5,1.224,36.746,36.746,0,0,1,9.343,1.725,43.443,43.443,0,0,1-2.118,7.849c-2.72-1-6.644-.892-8.782.727a.586.586,0,0,0,.145,1.06,13.457,13.457,0,0,1,6.1,3.406,20.729,20.729,0,0,1-4.319,4.9,9.173,9.173,0,0,0-5.294-3.1.485.485,0,0,0-.561.331c-.207.874.52,1.329.954,2.014a6.933,6.933,0,0,1,.977,3.24,21.852,21.852,0,0,1-6.542,1.89,9.155,9.155,0,0,0-1.12-2.139c-.333-.458-.83-1.246-1.474-1.226a.736.736,0,0,0-.665.954,12.782,12.782,0,0,1,.352,1.474,3.532,3.532,0,0,1-.145,1.143,34.4,34.4,0,0,1-8.2-.975,7.375,7.375,0,0,0,.375-2.286,7.11,7.11,0,0,0-.768-3.217.287.287,0,0,0-.145-.166l.166-.168c5.087,5.441,13.31,2.617,16.569-3.9,4.859-9.7-.685-21.782-7.308-29.03-.021-.021-.041-.021-.083-.041a.6.6,0,0,0-.892-.311,28.071,28.071,0,0,1-11.981,4.735,18.357,18.357,0,0,1,.706-2.6c.207-.582-.644-.872-.956-.4a10.452,10.452,0,0,0,1.226,12.687.343.343,0,0,0,.582-.269c.186-.166,1.867-1.515,2.263-1.267a4.04,4.04,0,0,1-1.35,1.766c-.416.29-.331,1.12.29,1.058.561-.041,1.518.23,1.745.832.228.186.228.373-.041.518a.389.389,0,0,1-.54.292,2.123,2.123,0,0,1-1.2-.251,1.94,1.94,0,0,0-.248-.186c-.5-.313-.892.331-.582.727a4.335,4.335,0,0,1,.685.851c.209.478-.021.957-.582.644-.476-.269-.706-.975-1.12-1.329a.516.516,0,0,0-.809.623.837.837,0,0,0,.1.186c-.375.644-1.039,1.308-1.329.188a3.8,3.8,0,0,1,.54-2.118c.021-.041,0-.062.021-.106a.612.612,0,0,0,.435-1.12c-4.3-3.137-5.876-7.393-6.166-12.542a.363.363,0,0,0-.706-.1,10.626,10.626,0,0,0-.292,2.679,96.077,96.077,0,0,1-11.213.81.455.455,0,0,0-.352.248l-.062-.021a4.354,4.354,0,0,0-.085-2.428.206.206,0,0,0-.166-.124l.458-5.172a.534.534,0,0,0,.561-.561c-.062-9.592,2.2-18.79,8.555-26.184a1.9,1.9,0,0,0,.1-.166,53.308,53.308,0,0,1,10.466-.207,23.981,23.981,0,0,0,.54,21.532.514.514,0,0,0,.934-.124,27.51,27.51,0,0,1,11.94-18.293c.1.041.186.062.269.1a.519.519,0,0,0,.685.292,34.112,34.112,0,0,1,6.646,3.985c-4.838,3.24-7.269,9.3-6.956,14.993a.6.6,0,0,0,1.1.311c2.72-4.422,6.4-8.12,11.36-9.925a34.079,34.079,0,0,1,4.567,7.621c-4.257,1.474-8.2,5.855-8.18,10.507a.659.659,0,0,0,1,.561,21.662,21.662,0,0,1,9.594-2.992C396.88,148.882,396.9,148.84,396.942,148.84Z" transform="translate(20.787 1.934)"/>
    <path id="Path_281" data-name="Path 281" class="cls-2" d="M373.917,139.262a47,47,0,0,1-.416,5.149,37.228,37.228,0,0,0-7.931-1.7,13.762,13.762,0,0,1,3.946-2.431A26.891,26.891,0,0,1,373.917,139.262Z" transform="translate(44.705 22.394)"/>
    <path id="Path_282" data-name="Path 282" class="cls-2" d="M369.762,147.216a1.878,1.878,0,0,1,.747,2.886,1.7,1.7,0,0,1-2.242.021,29.418,29.418,0,0,0,1.474-2.948A.072.072,0,0,0,369.762,147.216Z" transform="translate(47.593 30.864)"/>
    <path id="Path_283" data-name="Path 283" class="cls-2" d="M370.377,130.508a2.443,2.443,0,0,1-.209,2.573,36.319,36.319,0,0,0-2.242-4.691.489.489,0,0,0,.186.166A5.272,5.272,0,0,1,370.377,130.508Z" transform="translate(47.228 10.757)"/>
    <path id="Path_284" data-name="Path 284" class="cls-2" d="M369.344,149.112a2.2,2.2,0,0,1,.54,3.321,2.129,2.129,0,0,1-3.052-.207,22.292,22.292,0,0,0,2.408-3.155C369.262,149.092,369.3,149.092,369.344,149.112Z" transform="translate(46.058 32.893)"/>
    <path id="Path_285" data-name="Path 285" class="cls-2" d="M371.6,130.6a41.257,41.257,0,0,1,1.867,6.023,21.57,21.57,0,0,0-8.575,2.2,16.3,16.3,0,0,1,2.056-4.174A15.308,15.308,0,0,1,371.6,130.6Z" transform="translate(43.986 13.119)"/>
    <path id="Path_286" data-name="Path 286" class="cls-2" d="M371.626,146.719a29.2,29.2,0,0,1-1.7,3.426,11.734,11.734,0,0,0-5.045-3.134A12.008,12.008,0,0,1,371.626,146.719Z" transform="translate(43.964 30.011)"/>
    <path id="Path_287" data-name="Path 287" class="cls-2" d="M369.161,127.488a17.445,17.445,0,0,1,.313,3.1,36.128,36.128,0,0,0-3.323-4.652.442.442,0,0,0,.166,0A2.171,2.171,0,0,1,369.161,127.488Z" transform="translate(45.328 7.941)"/>
    <path id="Path_288" data-name="Path 288" class="cls-2" d="M368.341,151.486c.58.81.559,2.242-.292,2.72-1.058.6-2.014-.333-2.741-1.122a23.22,23.22,0,0,0,2.431-2.118c.041.021.062.062.1.062A2.006,2.006,0,0,0,368.341,151.486Z" transform="translate(44.426 34.921)"/>
    <path id="Path_289" data-name="Path 289" class="cls-2" d="M366.608,152.832c.186.373.83,1.578.435,2.014-.207.248-.892.248-1.182.207a2.559,2.559,0,0,1-1.952-1.288c-.021-.041-.083-.041-.124-.083a21.156,21.156,0,0,0,2.366-1.433c.145.166.292.331.458.5Z" transform="translate(42.794 36.296)"/>
    <path id="Path_290" data-name="Path 290" class="cls-2" d="M366.436,125.076a4.754,4.754,0,0,1,.561,1.453,36.285,36.285,0,0,0-2.762-2.6A2.362,2.362,0,0,1,366.436,125.076Z" transform="translate(43.277 5.972)"/>
    <path id="Path_291" data-name="Path 291" class="cls-2" d="M366.823,152.512a18.747,18.747,0,0,1-2.493,1.6,7.181,7.181,0,0,0-1.06-3.279c-.083-.124-.352-.416-.58-.727A12.207,12.207,0,0,1,366.823,152.512Z" transform="translate(41.624 33.999)"/>
    <path id="Path_292" data-name="Path 292" class="cls-2" d="M366.8,124.107a29.874,29.874,0,0,1,4.008,3.925,26.032,26.032,0,0,0-10.486,8.637C360.593,131.645,363.065,127.554,366.8,124.107Z" transform="translate(39.091 6.173)"/>
    <path id="Path_293" data-name="Path 293" class="cls-2" d="M364.017,123.009a2.5,2.5,0,0,1,.292,1.017c-.6-.455-1.2-.892-1.849-1.308v-.062A1.093,1.093,0,0,1,364.017,123.009Z" transform="translate(41.377 4.426)"/>
    <path id="Path_294" data-name="Path 294" class="cls-2" d="M364.885,153.133a2.374,2.374,0,0,1-.874,2.139c-.872.518-1.619-.145-1.95-.936,0-.021-.041-.041-.062-.083A24.587,24.587,0,0,0,364.885,153.133Z" transform="translate(40.884 37.241)"/>
    <path id="Path_295" data-name="Path 295" class="cls-2" d="M362.647,121.589a2.253,2.253,0,0,1,.81,1.681c-1-.58-2.015-1.12-3.072-1.619A1.81,1.81,0,0,1,362.647,121.589Z" transform="translate(39.155 3.084)"/>
    <path id="Path_296" data-name="Path 296" class="cls-2" d="M363.363,153.815a1.416,1.416,0,0,0,.062.6,1.93,1.93,0,0,1-1.681,1.807c-1.143.083-1.683-.789-1.952-1.7A23.139,23.139,0,0,0,363.363,153.815Z" transform="translate(38.522 37.971)"/>
    <path id="Path_297" data-name="Path 297" class="cls-2" d="M360.379,154.472c-.455.041-.913.062-1.371.083a3.867,3.867,0,0,0-.083-2.18c-.041-.124-.186-.333-.186-.354.021-.021.083.041.228.209a10.678,10.678,0,0,1,.747.975A8.983,8.983,0,0,1,360.379,154.472Z" transform="translate(37.394 36.046)"/>
    <path id="Path_298" data-name="Path 298" class="cls-2" d="M360.6,120.719a2.036,2.036,0,0,1,.727,1.143c-1.184-.478-2.387-.915-3.633-1.288A2.64,2.64,0,0,1,360.6,120.719Z" transform="translate(36.278 2.002)"/>
    <path id="Path_299" data-name="Path 299" class="cls-2" d="M361,154.25a1.784,1.784,0,0,1-1.1,2.139c-1.246.435-2.265-.789-2.327-1.932a.421.421,0,0,0-.124-.311A20.369,20.369,0,0,0,361,154.25Z" transform="translate(36.01 38.325)"/>
    <path id="Path_300" data-name="Path 300" class="cls-2" d="M359.067,148.549a1.95,1.95,0,0,1-1.2,2.035,4.419,4.419,0,0,0-1.039-3.654c.041-.062.1-.083.124-.166v-.021A2.165,2.165,0,0,1,359.067,148.549Z" transform="translate(35.344 30.402)"/>
    <path id="Path_301" data-name="Path 301" class="cls-2" d="M358.632,154.544a.4.4,0,0,1,.021.145.02.02,0,0,1-.021.021,2.972,2.972,0,0,0-.041.851,1.4,1.4,0,0,1-1.87.727,2.028,2.028,0,0,1-1.058-2.3.326.326,0,0,0-.083-.209,22.907,22.907,0,0,0,3.052.646C358.632,154.459,358.611,154.5,358.632,154.544Z" transform="translate(34.013 37.927)"/>
    <path id="Path_302" data-name="Path 302" class="cls-2" d="M357.409,146.51a2.811,2.811,0,0,1,.062,1.017,8.632,8.632,0,0,0-1.952-1.288c.271-.768.685-.975,1.267-.623A1.511,1.511,0,0,1,357.409,146.51Z" transform="translate(33.948 29.017)"/>
    <path id="Path_303" data-name="Path 303" class="cls-2" d="M357.493,118.938c1.932-.147,2.263,1.141,2.658,2.573a50.064,50.064,0,0,0-6.126-1.2A5.683,5.683,0,0,1,357.493,118.938Z" transform="translate(32.349 0.628)"/>
    <path id="Path_304" data-name="Path 304" class="cls-2" d="M365.735,122.829a26.756,26.756,0,0,0-11.379,16.985,25.253,25.253,0,0,1,.021-19.558A44.027,44.027,0,0,1,365.735,122.829Z" transform="translate(30.605 2.051)"/>
    <path id="Path_305" data-name="Path 305" class="cls-3" d="M362.3,149.72a4.024,4.024,0,0,0-4.4-.83,2.928,2.928,0,0,0-.621,5.087c.062.062.124.145.186.207l-.166.168a.459.459,0,0,0-.644.269,7.012,7.012,0,0,1-2.159,3.468c-2.327-2.6-4.215-5.731-2.534-9.219C354.2,144.259,360.453,145.815,362.3,149.72Z" transform="translate(29.451 29.648)"/>
    <path id="Path_306" data-name="Path 306" class="cls-2" d="M356.8,154.17a.47.47,0,0,0-.251.313.307.307,0,0,0-.021.145c-.021,0-.041.021-.062.041a1.514,1.514,0,0,1-2.263.623,1.58,1.58,0,0,1-.333-1.828.362.362,0,0,0,.54-.311A18.254,18.254,0,0,0,356.8,154.17Z" transform="translate(32.026 37.262)"/>
    <path id="Path_307" data-name="Path 307" class="cls-2" d="M355.133,150.836a7.363,7.363,0,0,1,.333,3.967c-.52-.126-1.039-.23-1.557-.375-.251-.228-.478-.478-.706-.706A7.931,7.931,0,0,0,355.133,150.836Z" transform="translate(31.469 34.782)"/>
    <path id="Path_308" data-name="Path 308" class="cls-2" d="M355.5,144.792c.936.248,1.184.934,1.495,1.681a7.293,7.293,0,0,0-4.151-.1c.021-.041.062-.062.083-.1A2.19,2.19,0,0,1,355.5,144.792Z" transform="translate(31.083 28.243)"/>
    <path id="Path_309" data-name="Path 309" class="cls-2" d="M354.935,154.3a.451.451,0,0,0-.1.062,1.775,1.775,0,0,1-2.617.083c-.747-.872-.311-1.994.248-2.824.292.4.623.789.957,1.164a.551.551,0,0,0,.582.6C354.312,153.695,354.624,154.028,354.935,154.3Z" transform="translate(29.986 35.619)"/>
    <path id="Path_310" data-name="Path 310" class="cls-2" d="M355.525,119.849c.064.124.106.248.168.352q-2.37-.217-4.8-.248a3.044,3.044,0,0,1,1.1-.851,6.708,6.708,0,0,1,1.122-.207A2.1,2.1,0,0,1,355.525,119.849Z" transform="translate(29 0.548)"/>
    <path id="Path_311" data-name="Path 311" class="cls-2" d="M353.934,145.82a.369.369,0,0,0,.271.124,5.185,5.185,0,0,0-.936.5,6.772,6.772,0,0,0-1.867,2.014C350.2,147.191,352.294,144.015,353.934,145.82Z" transform="translate(29.159 28.833)"/>
    <path id="Path_312" data-name="Path 312" class="cls-2" d="M353.392,153.178a.155.155,0,0,0-.1.021c-.021,0-.041.021-.064.041a.341.341,0,0,0-.207-.021,2.165,2.165,0,0,1-2.511-1.578,2.062,2.062,0,0,1,1.058-2.159A13.631,13.631,0,0,0,353.392,153.178Z" transform="translate(28.539 33.333)"/>
    <path id="Path_313" data-name="Path 313" class="cls-2" d="M351.776,147.431a.456.456,0,0,0,.29-.126,6.833,6.833,0,0,0-.186,3.551c-.041.021-.1.064-.145.085a.267.267,0,0,0-.23-.23C349.3,150.255,349.449,147.346,351.776,147.431Z" transform="translate(27.975 31.003)"/>
    <path id="Path_314" data-name="Path 314" class="cls-2" d="M351.841,119.151a2.185,2.185,0,0,1,.623.851c-1.619.041-3.24.145-4.838.331a2.978,2.978,0,0,1,2.431-1.41C350.763,118.818,351.28,118.693,351.841,119.151Z" transform="translate(25.5 0.519)"/>
    <path id="Path_315" data-name="Path 315" class="cls-2" d="M344.647,120.872a2.8,2.8,0,0,1,4.507-.81C347.639,120.27,346.144,120.539,344.647,120.872Z" transform="translate(22.311 0.977)"/>
    <path id="Path_316" data-name="Path 316" class="cls-2" d="M353.337,120.436c-5.565,6.956-7.871,15.387-8.141,24.213-4.236-6.584-4.942-14.14-2.638-21.637A59.029,59.029,0,0,1,353.337,120.436Z" transform="translate(18.69 2.244)"/>
    <path id="Path_317" data-name="Path 317" class="cls-2" d="M344.274,119.815a2.02,2.02,0,0,1,2.431.81c-1.683.416-3.364.894-5.025,1.453C341.618,120.9,343.4,120.043,344.274,119.815Z" transform="translate(19.134 1.453)"/>
    <path id="Path_318" data-name="Path 318" class="cls-3" d="M363.895,145.626l-.458,5.172a.114.114,0,0,0-.1.062c-1.371,1.681-1.66,4.215-2.741,6.124a21.87,21.87,0,0,1-5.294,6.085.727.727,0,0,0,.559,1.226,5.932,5.932,0,0,1,.458,2.325c-.021.458-.124,1.039-.727,1.019-.747-.043-.768-.936-.747-1.433.021-.271-.186-.375-.4-.354a.4.4,0,0,0-.665.207c-.166.582-.476,2.159-1.244,2.2-1.288.064.352-2.033.6-2.284.271-.29-.083-.789-.435-.561a2.477,2.477,0,0,1-.271.188.5.5,0,0,0-.269.083,2.553,2.553,0,0,1-.623.435l-.561.188c-.518-.5-.58-.853-.186-1.081a2.866,2.866,0,0,1,.83-.52,1.8,1.8,0,0,0,.4.106c.52.1.934-.644.393-.915-.228-.083-2.159-.768-1.867-1.141.352-.416,1.805.1,2.346.269a.475.475,0,0,0,.685.124,11.227,11.227,0,0,0,4.257-12.167l.041.021c.041,0,.062-.021.041-.062-.083-.207-.186-.416-.29-.623-.166-.375-.727-.166-.727.186,0,.789-.021,1.515-.083,2.221-8.555,1.019-19.705,2.534-26.7-3.447,5.087.4,11.045-2.056,14.327-4.857a.342.342,0,0,0-.331-.561c-6.312,2.221-13.5,6.021-19.77,1.515,6.043-9.325,12.666-21.368,24.712-21.368a19.654,19.654,0,0,1,4.132.437.815.815,0,0,0,.789-.248,1.166,1.166,0,0,0,.248-.083c1.787-.853,3.633-1.6,5.524-2.286a24.213,24.213,0,0,0,3.592,23.527A.7.7,0,0,0,363.895,145.626Zm-28.49-4.838c.5.083.956-.52.54-.913-.478-.416-.478-1.122-1.017-1.516a1.8,1.8,0,0,0-1.559-.186c-1.288.435-1.495,1.867-1.288,3.01.043.29.5.228.5-.062a2.565,2.565,0,0,1,.333-1.474c.393-.561,1.141-.706,1.516-.085C334.74,140.082,334.7,140.643,335.405,140.788Z" transform="translate(0.573 3.736)"/>
    <path id="Path_319" data-name="Path 319" class="cls-2" d="M340.972,120.711c1.1-.561,1.785.166,2.511.83-1.495.54-2.969,1.12-4.422,1.785.021-.083.062-.166.083-.228.145-.29.269-.582.437-.851A3.428,3.428,0,0,1,340.972,120.711Z" transform="translate(16.332 2.323)"/>
    <path id="Path_320" data-name="Path 320" class="cls-2" d="M349.647,137.256a15.194,15.194,0,0,1-.894,3.364,4.792,4.792,0,0,1-2.969-.54c-.041-.021-.062,0-.1-.021a.536.536,0,0,0-.975-.186,3.747,3.747,0,0,1-2.679,2.532,3.073,3.073,0,0,1-1.87-.248c-.269-.124-1.578-.851-1.453-1.246a.354.354,0,0,0-.5-.4c-.062.043-.1.062-.166.106a.351.351,0,0,0-.248.145,3.047,3.047,0,0,1-4.88.644,8.615,8.615,0,0,1-1.973-2.992C337.167,139.788,344.62,138.854,349.647,137.256Z" transform="translate(7.637 20.247)"/>
    <path id="Path_321" data-name="Path 321" class="cls-2" d="M346.008,121.385c.956.269,1.019,1.764,1.019,2.762-6.832-1.06-12.666,1.412-17.463,5.542a7.742,7.742,0,0,1,.727-3.778c.954-1.619,2.969-2.325,4.443-.934a.558.558,0,0,0,.789-.789.886.886,0,0,1-.145-.147,5.213,5.213,0,0,1,2.845-3.052c.809-.311,2.263-.706,3.033-.29a4.1,4.1,0,0,1,1.389,1.992c.251.478,1.1.147.894-.373a1.837,1.837,0,0,0-.124-.292A2.868,2.868,0,0,1,346.008,121.385Z" transform="translate(6.166 2.334)"/>
    <path id="Path_322" data-name="Path 322" class="cls-1" d="M331.977,131.476c.416.393-.041,1-.54.913-.706-.145-.665-.706-.975-1.226-.375-.621-1.122-.476-1.516.085a2.565,2.565,0,0,0-.333,1.474c0,.29-.456.352-.5.062-.207-1.143,0-2.575,1.288-3.01a1.8,1.8,0,0,1,1.559.186C331.5,130.354,331.5,131.06,331.977,131.476Z" transform="translate(4.541 12.135)"/>
  </g>
</svg>
