<svg xmlns="http://www.w3.org/2000/svg" width="99.523" height="87.073" viewBox="0 0 99.523 87.073">
  <defs>
    <style>
      .cls-1 {
        fill: #222221;
      }

      .cls-2 {
        fill: #9acba3;
      }

      .cls-3 {
        fill: #68a96a;
      }

      .cls-4 {
        fill: #fff;
      }
    </style>
  </defs>
  <g id="Group_18" data-name="Group 18" transform="translate(-62.683 -30.837)">
    <path id="Path_78" data-name="Path 78" class="cls-1" d="M148.406,102.071a25.867,25.867,0,0,0,3.562,1.216,1.571,1.571,0,0,0-.764-1.893A2.583,2.583,0,0,0,148.406,102.071Zm13.43,2.068a.483.483,0,0,1,.225.816.7.7,0,0,1-.208.625c-7.019,7.419-19.493,7.7-28.858,5.491a5.415,5.415,0,0,1-2.536,5.316c-1.53.972-6.324,2.449-6.915-.21a2.086,2.086,0,0,1-.348-1.945,3.057,3.057,0,0,1,2.746-1.737,7.056,7.056,0,0,1-1.2-3.057,1,1,0,0,1-.4.139,35.624,35.624,0,0,1-6.376-.052,30.27,30.27,0,0,1,.417,6.255c.26.208.331.677-.017.833-2.571,1.216-6.307,2.328-8.408-.364-1.843-2.382,1.424-3.076,3.475-3.007a5.791,5.791,0,0,1,.035-4.447A24.321,24.321,0,0,1,98.021,98.267c-4.222-6.707-5.49-16.488-5.559-25.731-3.944.366-7.975-2.12-8.6-6.29-1.268.417-3.336-.191-3.51-1.685A1.265,1.265,0,0,1,81.6,63.223a2.944,2.944,0,0,1,1.547.225c-.4-.954-.487-2.136.677-2.588,1.008-.383,1.651.314,1.928,1.181.783-.954,2.224-1.963,3.18-1.112,1.129,1.008.225,3.354-.417,4.4-.017.035-.052.052-.069.069a6.939,6.939,0,0,0,4.066,3.283c.1-3.717.364-7.244.695-10.336-7.593.469-15.306-.487-20.311-5.924a.259.259,0,0,1,.366-.366,2.2,2.2,0,0,0,.225.191c7.993,7.281,22.291,4.639,31.917,2.971.937-.156,1.337,1.287.381,1.443-3.387.591-7.279,1.251-11.258,1.582.052,1.216.069,2.432.087,3.648a13.194,13.194,0,0,1,18.591,5.089.625.625,0,0,1-.173.8c1.077-.435,2.049-1.043,3.127-1.547a.4.4,0,0,1,.487.625c-1.772,2.207-5.682,3.475-8.426,3.042a.612.612,0,0,1-.452-.644.5.5,0,0,1-.227-.5c.071-.537-.364-1.093-.92-.729-.695.452.052,1.043.5,1.2a.561.561,0,0,1-.139,1.095,1.655,1.655,0,0,1-.8-.156c-.816-.035-1.841.121-1.407.991.4.816,1.755.329,2.449.243.225-.017.329.139.366.331a.449.449,0,0,1,.156.747,3.714,3.714,0,0,0-.87.937,1.842,1.842,0,0,0-.208.662c-.035.364-.052.381.331.381.868-.017,1.545-1.737,1.614-2.467a.457.457,0,0,1,.66-.4c.017,0,.035-.017.054-.017,3.179-.121,5.472-.556,7.991-2.657.556-.452,1.32.277.818.816a9.8,9.8,0,0,1-2.832,1.963c4.812,11.346,3.335,23.472,3.735,35.5a.7.7,0,0,1-.366.677,35.94,35.94,0,0,0,5.664.139.5.5,0,0,1,.331.052,4.456,4.456,0,0,1,.695-2.188c.294-.452,1.233-.348,1.147.312a14.268,14.268,0,0,0-.383,3.094,8.2,8.2,0,0,0,1.164,3.387c.035.052.017.1.017.158a.58.58,0,0,1-.277.9c-.748.3-1.634.069-2.328.625a1.032,1.032,0,0,0-.366.974.78.78,0,0,1,.435.417c.294.833,2.675.312,3.265.139a5.57,5.57,0,0,0,2.8-1.651c1.737-2.015.5-4.743.677-7.088.035-.452.7-.591.8-.121.225,1.026.468,2.067.591,3.092,8.686,1.32,20.1,1.476,27-4.83-13.361.989-23.82-7.175-29.154-19.407-3.423-7.871-5.247-16.522-7.036-24.9-1.755-8.149-1.651-20.553-7.4-27.38a5.164,5.164,0,0,0-4.76-1.233c-2.588.712-3.335,3.04-3.544,5.42a.517.517,0,0,1-.139.294.649.649,0,0,1-1.2-.294c-.139-2.555-1.547-5.613-4.483-5.768a3.915,3.915,0,0,0-3.2,1.233c-1.077,1.268-.66,2.936-.279,4.4a.827.827,0,0,1-.5,1.459c-9.018.121-17.9,1.112-26.843,2.12a.865.865,0,0,1-.21-.017.531.531,0,0,1-.833-.417,1.7,1.7,0,0,0-2.049-1.634c-.835.244-1.06.974-1.3,1.685,0,.017.017.017.017.035.227.573-.712.956-.972.417a6.459,6.459,0,0,0-.677-1.216c-.383-.452-1.112-.714-1.478-.14a.719.719,0,0,0-.087.314c2.5,14.993,36.067,8.93,46.475,8.426a.265.265,0,0,1,.069.521c-.017.017-.035.017-.069.017.017.052.052.087.052.14a2.635,2.635,0,0,1-2.1,3.023,2.586,2.586,0,0,1-2.555-1.3,2.722,2.722,0,0,1-4.639.539,2.862,2.862,0,0,1-2.553,2.294,2.966,2.966,0,0,1-3.04-2.171c-.783,2.1-3.858,1.963-4.812.243a2.539,2.539,0,0,1-2.38,1.7,2.453,2.453,0,0,1-2.034-1.495,2.459,2.459,0,0,1-1.945,1.564,2.768,2.768,0,0,1-2.659-1.651,2.816,2.816,0,0,1-4.691-.017,2.517,2.517,0,0,1-2.692.695,1.96,1.96,0,0,1-.7-.539,2.1,2.1,0,0,1-.416-.747,1.905,1.905,0,0,1-1.72.956A2.789,2.789,0,0,1,69.2,48.977c-3.648-1.495-6.307-4.152-6.515-8.826a.455.455,0,0,1,.243-.4,1.63,1.63,0,0,1,.644-.939c1.006-.66,1.928-.139,2.605.679a3.083,3.083,0,0,1,2.068-1.616A2.789,2.789,0,0,1,71.3,40.047a139.742,139.742,0,0,1,26.374-2.59c-1.008-3.04.173-6.273,3.839-6.532,2.659-.191,4.518,1.547,5.543,3.735a5.735,5.735,0,0,1,7.783-3.335.314.314,0,0,1,.383-.017,13.75,13.75,0,0,1,4.691,5.524,2.227,2.227,0,0,1,2.675,1.077,2.308,2.308,0,0,1-.243,2.38,2.923,2.923,0,0,1,2.294,2.624,3.394,3.394,0,0,1-1.46,2.971,3.051,3.051,0,0,1,.695,5.351A2.95,2.95,0,0,1,126.6,53.32a3.759,3.759,0,0,1-1.026,3.544,3.1,3.1,0,0,1,2.172,2.728,3.279,3.279,0,0,1-1.06,2.432,2.89,2.89,0,0,1,2.276,2.051,3.142,3.142,0,0,1-.956,2.953,2.444,2.444,0,0,1,1.7,1.389,3.273,3.273,0,0,1-1.233,3.631,2.677,2.677,0,0,1,3.127,1.564,2.979,2.979,0,0,1-1.98,3.717c-.052.017-.087,0-.139.017a1.671,1.671,0,0,1,.069.175,3.232,3.232,0,0,1,3.267,1.372,4.066,4.066,0,0,1-.435,4.76,3.143,3.143,0,0,1,3.2.712c1.426,1.391.783,3.562-.139,5.056a3.222,3.222,0,0,1,3.787.9,3.322,3.322,0,0,1,.14,3.788,2.546,2.546,0,0,1,2.779.277,3.435,3.435,0,0,1,.679,4.118,2.64,2.64,0,0,1,3.213-.851,3.521,3.521,0,0,1,1.668,4.135.615.615,0,0,1,.156.069.35.35,0,0,1,.087-.243,3.3,3.3,0,0,1,3.788-.939,2.517,2.517,0,0,1,1.3,2.294c.868-1.129,2.12-2.19,3.648-1.755a2.124,2.124,0,0,1,1.408,1.511,2.1,2.1,0,0,1,2.24-.677A2.219,2.219,0,0,1,161.836,104.139Zm-1.077.017a1.124,1.124,0,0,0-.781-1.233,1.319,1.319,0,0,0-1.53,1.095c-.017.069-.069.087-.087.139C159.125,104.174,159.943,104.174,160.758,104.157Zm-3.8-.052c.017-.729-.017-1.564-.887-1.7-.92-.139-1.651.66-2.259,1.268A29.3,29.3,0,0,0,156.954,104.1Zm-10.269-2.8a2.543,2.543,0,0,0-.9-2.605,1.781,1.781,0,0,0-2.4.537A21.838,21.838,0,0,0,146.686,101.307ZM141.8,98.04a2.519,2.519,0,0,0-.139-2.675,1.53,1.53,0,0,0-2.311-.035.3.3,0,0,1-.192.1A30.988,30.988,0,0,0,141.8,98.04Zm-3.737-4.047a2.4,2.4,0,0,0,.4-2.884,2.293,2.293,0,0,0-2.988-.625.017.017,0,0,1-.017.017,33.6,33.6,0,0,0,2.553,3.6Zm-3.51-4.987c.662-1.216,1.6-2.85.469-4.083a2.46,2.46,0,0,0-2.832-.591A47.388,47.388,0,0,0,134.558,89.006Zm-2.9-5.838c.556-1.112,1.041-2.311.364-3.51a2.279,2.279,0,0,0-2.136-1.164C130.44,80.076,131.014,81.639,131.658,83.169Zm-2.224-7.227a1.594,1.594,0,0,0,1.077-2.1,1.89,1.89,0,0,0-2.345-.972h-.035c.295,1.076.625,2.136.954,3.2A.914.914,0,0,1,129.434,75.942Zm-1.789-4.83a2.359,2.359,0,0,0,1.164-2,1.463,1.463,0,0,0-1.947-1.337c-.017.017-.035,0-.052,0Q127.2,69.444,127.645,71.112ZM126.48,66.4a1.83,1.83,0,0,0,1.285-1.841,1.756,1.756,0,0,0-2-1.389C125.994,64.249,126.219,65.326,126.48,66.4Zm-1.095-5a1.974,1.974,0,0,0,1.181-1.807,2.148,2.148,0,0,0-1.876-1.98l-.035.035C124.882,58.9,125.141,60.149,125.386,61.4Zm-.974-4.987a3.089,3.089,0,0,0,1.268-2.361,2.038,2.038,0,0,0-2.067-2.016C123.873,53.495,124.152,54.953,124.412,56.412Zm-.625-12.855a2.211,2.211,0,0,0-1.928-2.746,2.221,2.221,0,0,1-.435.26c.191.7.348,1.426.5,2.172.156.66.277,1.355.4,2.032A2.769,2.769,0,0,0,123.787,43.557Zm-.469,6.9c1.685-.937,1.147-3.475-.747-3.995C122.832,47.778,123.075,49.116,123.317,50.453Zm-2.205-10.492a1.242,1.242,0,0,0,.468-1.547,1.33,1.33,0,0,0-1.285-.729A18.5,18.5,0,0,1,121.112,39.961Zm-3.423,67.792a.788.788,0,0,1-.279-.573c-.729-11.831,1.077-23.715-3.109-35.1a8.113,8.113,0,0,1-4.708.244c-.121,1.528-1.737,4.2-3.371,3.369-1.2-.625-.954-2.119-.191-3.109-1.251.191-2.59-.156-2.642-1.668a1.883,1.883,0,0,1,1.2-1.7,2.258,2.258,0,0,1,.662-.139A1.88,1.88,0,0,1,106,66.923a1.713,1.713,0,0,1,2.571,1.7,23.062,23.062,0,0,0,3.631-.556,4.508,4.508,0,0,0,.452-.156.6.6,0,0,1-.539-.294c-4.239-6.5-10.858-8.045-17.479-4.656.123,9.016-.069,18.329,2.12,27.034C99.464,100.768,107.7,106.45,117.689,107.753Zm-.887,1.685a.017.017,0,0,1,.017-.017c-.712-.087-1.407-.227-2.1-.366a9.551,9.551,0,0,0-.469,2.12,8.821,8.821,0,0,0,.26,2.328.424.424,0,0,1-.695.417c-.92,0-2.8.121-3.075.833-.3.747,1.147,1.424,1.7,1.634a6.864,6.864,0,0,0,4.552-.331A30.133,30.133,0,0,1,116.8,109.438Zm-8.757-58.185a1.48,1.48,0,0,0,1.077-1.737.257.257,0,0,1-.017-.1c-.937.173-1.876.346-2.832.5C106.518,50.7,107.126,51.461,108.046,51.253Zm-3.005-1.095c0-.035.035-.052.052-.069-1.3.191-2.605.364-3.908.5a2.013,2.013,0,0,0,2.136,1.268A2.432,2.432,0,0,0,105.04,50.159Zm-4.587.521c-1.424.139-2.865.26-4.308.364,0,.017.017.017.017.035a2.193,2.193,0,0,0,2.155,1.791c1.112-.088,1.685-1.077,2-2.016A.472.472,0,0,1,100.453,50.68Zm-5.732.556a.666.666,0,0,1,.173-.123c-1.164.071-2.345.123-3.51.14a1.789,1.789,0,0,0,1.3,1.043A2.163,2.163,0,0,0,94.721,51.236ZM92.462,71.493c.017-.556.035-1.077.035-1.616a6.8,6.8,0,0,1-5.682-4.847.654.654,0,0,1,.922-.712,4.445,4.445,0,0,0,.381-.939,2.577,2.577,0,0,0,.106-1.3c-.366-.643-1.912.818-2.276,1.129H85.93v.208a.5.5,0,0,1-.991,0,4.611,4.611,0,0,0-.087-.972.424.424,0,0,0-.435-.452c-.208-.173-.348-.156-.435.069-.468.435.069,1.355.3,1.789a.432.432,0,0,1,.017.21.262.262,0,0,1-.3.4.779.779,0,0,1-.139-.035h-.017c-.677-.208-2.954-.729-2.155.4.452.66,1.53.677,2.224.695a.06.06,0,0,1,.035.017.675.675,0,0,1,.991.279C86.259,69.269,88.814,71.58,92.462,71.493ZM89.855,51.288c-1.006.017-2,.035-2.988.017.158.816.729,1.6,1.685,1.424C89.351,52.573,89.6,51.931,89.855,51.288Zm-4.585,0c-1.026-.035-2.034-.087-3.042-.158a2.385,2.385,0,0,0,1.478,1.547C84.643,52.885,85.182,52.1,85.27,51.288ZM81.222,51.1l-.017-.019c-1.27-.1-2.538-.208-3.788-.346a2.117,2.117,0,0,0,1.564,1.547,2.215,2.215,0,0,0,2.067-1.06A.432.432,0,0,1,81.222,51.1ZM76.6,50.715c0-.035.017-.052.035-.087-.677-.087-1.374-.158-2.034-.244-.173-.035-.329-.069-.485-.087-.123.591-.019,1.268.66,1.46.816.243,1.181-.521,1.755-.887.017-.017.035-.017.069-.035Zm-5.786.521c.781.539,1.876.069,1.582-.974a.306.306,0,0,1,.052-.277,21.5,21.5,0,0,1-2.468-.714A2.215,2.215,0,0,0,70.814,51.236Z"/>
    <path id="Path_79" data-name="Path 79" class="cls-2" d="M119.532,72.468a1.124,1.124,0,0,1,.781,1.233c-.816.017-1.634.017-2.4,0,.017-.052.069-.069.087-.139A1.319,1.319,0,0,1,119.532,72.468Z" transform="translate(40.445 30.455)"/>
    <path id="Path_80" data-name="Path 80" class="cls-3" d="M130.291,85.373c5.334,12.231,15.793,20.4,29.154,19.407-6.9,6.305-18.313,6.15-27,4.83-.123-1.026-.366-2.067-.591-3.092-.1-.469-.766-.331-.8.121-.173,2.345,1.06,5.074-.677,7.088a5.57,5.57,0,0,1-2.8,1.651c-.591.173-2.971.695-3.265-.139a.78.78,0,0,0-.435-.417,1.032,1.032,0,0,1,.366-.974c.695-.556,1.58-.329,2.328-.625a.58.58,0,0,0,.277-.9c0-.054.017-.106-.017-.158a8.2,8.2,0,0,1-1.164-3.387,14.267,14.267,0,0,1,.383-3.094c.087-.66-.852-.764-1.147-.312a4.456,4.456,0,0,0-.695,2.188.5.5,0,0,0-.331-.052,35.94,35.94,0,0,1-5.664-.139.7.7,0,0,0,.366-.677c-.4-12.024,1.077-24.149-3.735-35.5a9.8,9.8,0,0,0,2.832-1.963c.5-.539-.262-1.268-.818-.816-2.519,2.1-4.812,2.536-7.991,2.657-.019,0-.036.017-.054.017a.457.457,0,0,0-.66.4c-.069.729-.747,2.449-1.614,2.467-.383,0-.366-.017-.331-.381a1.842,1.842,0,0,1,.208-.662,3.714,3.714,0,0,1,.87-.937.449.449,0,0,0-.156-.747c-.036-.192-.14-.348-.366-.331-.695.087-2.051.573-2.449-.243-.435-.87.591-1.025,1.407-.991a1.655,1.655,0,0,0,.8.156.561.561,0,0,0,.139-1.095c-.452-.156-1.2-.747-.5-1.2.556-.364.991.192.92.729a.5.5,0,0,0,.227.5.612.612,0,0,0,.452.644c2.744.433,6.654-.835,8.426-3.042a.4.4,0,0,0-.487-.625c-1.077.5-2.049,1.112-3.127,1.547a.625.625,0,0,0,.173-.8A13.194,13.194,0,0,0,94.153,61.4c-.017-1.216-.035-2.432-.087-3.648,3.979-.331,7.871-.991,11.258-1.582.956-.156.556-1.6-.381-1.443-9.626,1.668-23.924,4.31-31.917-2.971l.017-.017a1.96,1.96,0,0,0,.7.539,2.517,2.517,0,0,0,2.692-.695,2.816,2.816,0,0,0,4.691.017,2.768,2.768,0,0,0,2.659,1.651,2.459,2.459,0,0,0,1.945-1.564,2.453,2.453,0,0,0,2.034,1.495,2.539,2.539,0,0,0,2.38-1.7c.954,1.72,4.029,1.859,4.812-.243a2.966,2.966,0,0,0,3.04,2.171,2.862,2.862,0,0,0,2.553-2.294,2.722,2.722,0,0,0,4.639-.539,2.586,2.586,0,0,0,2.555,1.3,2.635,2.635,0,0,0,2.1-3.023c0-.054-.035-.088-.052-.14.035,0,.052,0,.069-.017a.265.265,0,0,0-.069-.521c-10.407.5-43.973,6.567-46.475-8.426a.719.719,0,0,1,.087-.314c.366-.573,1.095-.312,1.478.14a6.458,6.458,0,0,1,.677,1.216c.26.539,1.2.156.972-.417,0-.017-.017-.017-.017-.035.244-.712.469-1.441,1.3-1.685a1.7,1.7,0,0,1,2.049,1.634.531.531,0,0,0,.833.417.864.864,0,0,0,.21.017c8.947-1.008,17.825-2,26.843-2.12a.827.827,0,0,0,.5-1.459c-.381-1.46-.8-3.128.279-4.4a3.915,3.915,0,0,1,3.2-1.233c2.936.156,4.345,3.213,4.483,5.768a.649.649,0,0,0,1.2.294.517.517,0,0,0,.139-.294c.21-2.38.956-4.708,3.544-5.42a5.164,5.164,0,0,1,4.76,1.233c5.751,6.827,5.647,19.232,7.4,27.38C125.044,68.85,126.868,77.5,130.291,85.373ZM114.238,36.691a2.052,2.052,0,0,0-1.878-2.311,1.9,1.9,0,0,0-1.876,2.328.453.453,0,0,0,.87,0c.225-1.3,1.859-1.72,2.049-.14C113.455,37,114.152,37.2,114.238,36.691Zm-10.165.121a2.015,2.015,0,0,0-1.859-2.049,1.963,1.963,0,0,0-2.1,2.049c0,.643,1.006.8,1.129.156a1.386,1.386,0,0,1,.833-1.024c.677-.262,1.181.364,1.32.972A.347.347,0,0,0,104.073,36.812ZM67.5,41.207a.66.66,0,0,0,1.32,0,8.162,8.162,0,0,0-.156-1.285.525.525,0,0,0-1.008,0A8.159,8.159,0,0,0,67.5,41.207Zm-2.588,1.356c.416.312.954-.279.695-.695a8.03,8.03,0,0,1-.764-1.235c-.158-.4-.887-.4-.835.123A2.416,2.416,0,0,0,64.914,42.563Z" transform="translate(0.463 0.49)"/>
    <path id="Path_81" data-name="Path 81" class="cls-2" d="M117.547,72.157c.87.139.9.974.887,1.7a29.3,29.3,0,0,1-3.146-.435C115.9,72.817,116.627,72.018,117.547,72.157Z" transform="translate(38.521 30.245)"/>
    <path id="Path_82" data-name="Path 82" class="cls-2" d="M114.967,71.652a1.571,1.571,0,0,1,.764,1.893,25.867,25.867,0,0,1-3.562-1.216A2.583,2.583,0,0,1,114.967,71.652Z" transform="translate(36.237 29.742)"/>
    <path id="Path_83" data-name="Path 83" class="cls-2" d="M111.668,70.122a2.543,2.543,0,0,1,.9,2.605,21.837,21.837,0,0,1-3.3-2.068A1.781,1.781,0,0,1,111.668,70.122Z" transform="translate(34.115 28.58)"/>
    <path id="Path_84" data-name="Path 84" class="cls-2" d="M109.336,68.319a2.519,2.519,0,0,1,.139,2.675,30.987,30.987,0,0,1-2.642-2.605.305.305,0,0,0,.192-.1A1.53,1.53,0,0,1,109.336,68.319Z" transform="translate(32.329 27.047)"/>
    <path id="Path_85" data-name="Path 85" class="cls-2" d="M107.7,66.02a2.4,2.4,0,0,1-.4,2.884l-.052.1a33.593,33.593,0,0,1-2.553-3.6.017.017,0,0,0,.017-.017A2.293,2.293,0,0,1,107.7,66.02Z" transform="translate(30.765 25.089)"/>
    <path id="Path_86" data-name="Path 86" class="cls-2" d="M105.643,62.4c1.129,1.233.192,2.867-.469,4.083a47.386,47.386,0,0,1-2.363-4.674A2.46,2.46,0,0,1,105.643,62.4Z" transform="translate(29.384 22.522)"/>
    <path id="Path_87" data-name="Path 87" class="cls-2" d="M103.614,59.513c.677,1.2.192,2.4-.364,3.51-.644-1.53-1.218-3.092-1.772-4.674A2.279,2.279,0,0,1,103.614,59.513Z" transform="translate(28.408 20.146)"/>
    <path id="Path_88" data-name="Path 88" class="cls-2" d="M102.845,56.114a1.594,1.594,0,0,1-1.077,2.1.914.914,0,0,0-.348.121c-.329-1.06-.66-2.12-.954-3.2h.035A1.89,1.89,0,0,1,102.845,56.114Z" transform="translate(27.666 17.724)"/>
    <path id="Path_89" data-name="Path 89" class="cls-2" d="M101.7,53.548a2.359,2.359,0,0,1-1.164,2q-.444-1.668-.835-3.336c.017,0,.035.017.052,0A1.463,1.463,0,0,1,101.7,53.548Z" transform="translate(27.108 15.565)"/>
    <path id="Path_90" data-name="Path 90" class="cls-2" d="M101.1,50.9a1.83,1.83,0,0,1-1.285,1.841c-.262-1.076-.487-2.153-.712-3.231A1.756,1.756,0,0,1,101.1,50.9Z" transform="translate(26.668 13.662)"/>
    <path id="Path_91" data-name="Path 91" class="cls-2" d="M100.37,48.274a1.974,1.974,0,0,1-1.181,1.807c-.244-1.251-.5-2.5-.729-3.752l.035-.035A2.148,2.148,0,0,1,100.37,48.274Z" transform="translate(26.197 11.319)"/>
    <path id="Path_92" data-name="Path 92" class="cls-2" d="M99.924,45.091a3.089,3.089,0,0,1-1.268,2.361c-.26-1.459-.539-2.917-.8-4.377A2.038,2.038,0,0,1,99.924,45.091Z" transform="translate(25.757 8.96)"/>
    <path id="Path_93" data-name="Path 93" class="cls-2" d="M97.028,36.6a2.211,2.211,0,0,1,1.928,2.746A2.769,2.769,0,0,1,97.5,41.059c-.123-.677-.244-1.372-.4-2.032-.156-.747-.314-1.476-.5-2.172A2.222,2.222,0,0,0,97.028,36.6Z" transform="translate(24.831 4.216)"/>
    <path id="Path_94" data-name="Path 94" class="cls-2" d="M97.255,39.855c1.893.52,2.432,3.057.747,3.995C97.759,42.512,97.517,41.175,97.255,39.855Z" transform="translate(25.316 6.603)"/>
    <path id="Path_95" data-name="Path 95" class="cls-2" d="M97.226,35.519a1.242,1.242,0,0,1-.468,1.547,18.5,18.5,0,0,0-.818-2.276A1.33,1.33,0,0,1,97.226,35.519Z" transform="translate(24.354 2.895)"/>
    <path id="Path_96" data-name="Path 96" class="cls-2" d="M103.9,94.336a.788.788,0,0,0,.279.573c-9.99-1.3-18.225-6.984-20.936-17.756-2.19-8.7-2-18.017-2.12-27.034,6.621-3.388,13.24-1.843,17.479,4.656a.6.6,0,0,0,.539.294,4.5,4.5,0,0,1-.452.156,23.063,23.063,0,0,1-3.631.556,1.713,1.713,0,0,0-2.571-1.7,1.88,1.88,0,0,0-.747,2.155,2.259,2.259,0,0,0-.662.139,1.883,1.883,0,0,0-1.2,1.7c.052,1.512,1.391,1.859,2.642,1.668-.764.991-1.008,2.484.191,3.109,1.634.835,3.25-1.841,3.371-3.369a8.113,8.113,0,0,0,4.708-.244C104.982,70.622,103.175,82.505,103.9,94.336Z" transform="translate(13.506 12.843)"/>
    <path id="Path_97" data-name="Path 97" class="cls-3" d="M96.522,76.357a.017.017,0,0,0-.017.017,30.133,30.133,0,0,0,.192,6.619,6.864,6.864,0,0,1-4.552.331c-.556-.21-2-.887-1.7-1.634.277-.712,2.155-.833,3.075-.833a.424.424,0,0,0,.695-.417,8.821,8.821,0,0,1-.26-2.328,9.551,9.551,0,0,1,.469-2.12C95.115,76.13,95.81,76.27,96.522,76.357Z" transform="translate(20.298 33.064)"/>
    <path id="Path_98" data-name="Path 98" class="cls-1" d="M92.444,33.165a2.052,2.052,0,0,1,1.878,2.311c-.087.5-.783.312-.835-.123-.191-1.58-1.824-1.162-2.049.14a.453.453,0,0,1-.87,0A1.9,1.9,0,0,1,92.444,33.165Z" transform="translate(20.379 1.704)"/>
    <path id="Path_99" data-name="Path 99" class="cls-4" d="M90.7,41.664A1.48,1.48,0,0,1,89.619,43.4c-.92.208-1.528-.556-1.772-1.339.956-.156,1.9-.329,2.832-.5A.257.257,0,0,0,90.7,41.664Z" transform="translate(18.427 7.852)"/>
    <path id="Path_100" data-name="Path 100" class="cls-4" d="M88.817,41.951c-.017.017-.052.035-.052.069a2.432,2.432,0,0,1-1.72,1.7,2.013,2.013,0,0,1-2.136-1.268C86.212,42.315,87.514,42.142,88.817,41.951Z" transform="translate(16.275 8.138)"/>
    <path id="Path_101" data-name="Path 101" class="cls-1" d="M86.659,33.39a2.015,2.015,0,0,1,1.859,2.049.347.347,0,0,1-.677.1c-.139-.608-.643-1.233-1.32-.972a1.386,1.386,0,0,0-.833,1.024c-.123.643-1.129.487-1.129-.156A1.963,1.963,0,0,1,86.659,33.39Z" transform="translate(16.018 1.862)"/>
    <path id="Path_102" data-name="Path 102" class="cls-4" d="M82,42.656c1.443-.1,2.884-.225,4.308-.364a.472.472,0,0,0-.139.173c-.312.939-.885,1.928-2,2.016a2.193,2.193,0,0,1-2.155-1.791C82.017,42.673,82,42.673,82,42.656Z" transform="translate(14.145 8.388)"/>
    <path id="Path_103" data-name="Path 103" class="cls-4" d="M82.762,42.542a.666.666,0,0,0-.173.123,2.163,2.163,0,0,1-2.034,1.06,1.789,1.789,0,0,1-1.3-1.043C80.416,42.665,81.6,42.613,82.762,42.542Z" transform="translate(12.133 8.571)"/>
    <path id="Path_104" data-name="Path 104" class="cls-3" d="M84.533,56.757c0,.539-.017,1.06-.035,1.616-3.648.087-6.2-2.224-7.523-5.68a.675.675,0,0,0-.991-.279.061.061,0,0,0-.035-.017c-.695-.017-1.772-.035-2.224-.695-.8-1.129,1.478-.608,2.155-.4H75.9a.78.78,0,0,0,.139.035.262.262,0,0,0,.3-.4.432.432,0,0,0-.017-.21c-.227-.435-.764-1.355-.3-1.789.087-.225.227-.243.435-.069a.424.424,0,0,1,.435.452,4.611,4.611,0,0,1,.087.972.5.5,0,0,0,.991,0v-.208h.017c.364-.312,1.911-1.772,2.276-1.129a2.577,2.577,0,0,1-.106,1.3,4.446,4.446,0,0,1-.381.939.654.654,0,0,0-.922.712A6.8,6.8,0,0,0,84.533,56.757Z" transform="translate(7.963 13.12)"/>
    <path id="Path_105" data-name="Path 105" class="cls-4" d="M76.644,42.66c.991.017,1.982,0,2.988-.017-.26.643-.5,1.285-1.3,1.441C77.373,44.257,76.8,43.476,76.644,42.66Z" transform="translate(10.223 8.645)"/>
    <path id="Path_106" data-name="Path 106" class="cls-4" d="M73.966,42.552c1.008.071,2.016.123,3.042.158-.088.816-.627,1.6-1.564,1.389A2.385,2.385,0,0,1,73.966,42.552Z" transform="translate(8.262 8.578)"/>
    <path id="Path_107" data-name="Path 107" class="cls-4" d="M74.976,42.668l.017.019a.432.432,0,0,0-.175.121,2.216,2.216,0,0,1-2.067,1.06,2.117,2.117,0,0,1-1.564-1.547C72.439,42.461,73.707,42.565,74.976,42.668Z" transform="translate(6.228 8.41)"/>
    <path id="Path_108" data-name="Path 108" class="cls-4" d="M71.821,42.4c-.017.035-.035.052-.035.087v.121c-.035.017-.052.017-.069.035-.573.366-.939,1.129-1.755.887-.679-.192-.783-.87-.66-1.46.156.017.312.052.485.087C70.447,42.244,71.143,42.315,71.821,42.4Z" transform="translate(4.814 8.226)"/>
    <path id="Path_109" data-name="Path 109" class="cls-4" d="M69.312,42.47c.294,1.043-.8,1.512-1.582.974a2.215,2.215,0,0,1-.835-1.964,21.5,21.5,0,0,0,2.468.714A.306.306,0,0,0,69.312,42.47Z" transform="translate(3.084 7.793)"/>
    <path id="Path_110" data-name="Path 110" class="cls-1" d="M67.052,37.809a.66.66,0,0,1-1.32,0,8.158,8.158,0,0,1,.156-1.285.525.525,0,0,1,1.008,0A8.162,8.162,0,0,1,67.052,37.809Z" transform="translate(2.232 3.887)"/>
    <path id="Path_111" data-name="Path 111" class="cls-1" d="M65.316,38.131c.26.416-.279,1.006-.695.695a2.416,2.416,0,0,1-.9-1.807c-.052-.521.677-.521.835-.123A8.029,8.029,0,0,0,65.316,38.131Z" transform="translate(0.755 4.228)"/>
  </g>
</svg>
