<svg xmlns="http://www.w3.org/2000/svg" width="100.118" height="96.436" viewBox="0 0 100.118 96.436">
  <defs>
    <style>
      .cls-1 {
        fill: #222221;
      }

      .cls-2 {
        fill: #b4d6db;
      }

      .cls-3 {
        fill: #dca1a1;
      }

      .cls-4 {
        fill: #fff;
      }
    </style>
  </defs>
  <g id="Group_12" data-name="Group 12" transform="translate(-412.398 -27.95)">
    <path id="Path_25" data-name="Path 25" class="cls-1" d="M510.222,53.457c.21,4.938,3.439,8.413,1.861,13.294-2.848,8.888-13.122,9.647-20.51,6.741a.679.679,0,0,1-.189-.133,19.761,19.761,0,0,1-8.129,7.216,8.26,8.26,0,0,0,1.1,1.634c3.439,4.044,8.6,2.753,12.249-.21-.589-1.519-.665-3.209.837-4.272,2.734-1.956,5.525,2.013,8.3,1.462a.5.5,0,0,1,.494.189c3.058-.684,5.584,1.918,4.6,5.2a6.274,6.274,0,0,1-5.468,4.027.563.563,0,0,1-.267.473,45.483,45.483,0,0,1-17.3,5.735c.208,1.2.379,2.393.568,3.609,8.983,2.677,13.256,13.046,12.915,21.821a.828.828,0,0,1-1.045.816,15.188,15.188,0,0,1-11.6.589,4.352,4.352,0,0,1-2.147,1.272c-2.621.837-5.944.932-8.659,1.14-2.658.208-5.546-.4-6.989-2.3a3.4,3.4,0,0,1-1.31,1.558c-2.164,1.424-5.527.721-7.9.473a25.639,25.639,0,0,1-5.66-.892.839.839,0,0,1-.343.189c-5.355,1.407-11.185,1.9-16.559.267a.469.469,0,0,1-.324-.3.782.782,0,0,1-.93-.8,32.522,32.522,0,0,1,15.116-27.67,29.061,29.061,0,0,1,2.355-9.324,20.55,20.55,0,0,1-6.021-2.982c-1.708,4.558-4.633,10.085-10.255,9.172-5.012-.816-7.178-5.449-9.969-9.21-3.988-4.33-10.825-4.027-14.415-8.983a13.329,13.329,0,0,1-1.462-11.889c4.255-12.306,19.77-12.457,30.1-9.286,3.893-6.021,10.939-9.742,18.819-11.187a31.587,31.587,0,0,1,18.46,2.128c1.861-7.483,7.159-13.769,15.1-14.928,7.367-1.062,14.737,3.5,16.161,10.96C512.748,44.018,510.014,48.576,510.222,53.457Zm-1.138-4.082c.57-3.306,1.918-7.75.949-11.073-1.729-5.83-8.659-9.494-14.281-8.583-7.578,1.235-11.908,6.817-14.243,13.711,0,.019-.019.019-.038.038a27.861,27.861,0,0,1,3.153,1.88c.854-3.855,6.438-8.261,9.513-9.361,4.027-1.445,8.718-.191,10.522,3.7,1.918,2.963,1.975,6.211,1.632,9.82-.322,3.55-1.043,6.911-.341,10.482.436,2.107,1.767,4.16,1.1,6.4-1.653,5.546-9.591,4.558-13.713,2.81a19.647,19.647,0,0,1-1.291,3c5.128,1.481,15.345,3.475,17.662-4.177,1.2-3.95-.475-8.034-.837-11.776A23.748,23.748,0,0,1,509.084,49.375Zm-.172,35.893c1.407-2.318-.227-5.622-3.151-5-1.52.417-2.831-.3-4.217-1.007-1.348-.684-3.59-1.519-4.141.627a3.4,3.4,0,0,0,.059,1.634c.208.076.379.284.208.513,0,.017-.019.017-.038.036.114.4.265.78.4,1.14.134.4-.436.57-.646.267-.133-.21-.265-.437-.4-.665-2.925,3.209-8.3,4.577-11.984,1.994-4.747-3.342-5.09-9.839-4.045-15.042a.659.659,0,0,1,1.291.172c-.208,3-.551,6.171.341,9a17.8,17.8,0,0,0,7.332-25.373c-5.395-9.115-15.972-12.438-26.018-11.185-7.8.987-15.439,4.291-19.465,10.539a.628.628,0,0,1-.343.532,18.728,18.728,0,0,0-2.526,8.072c-1.062,13.217,8.547,22.94,21.4,23.623.057,0,.076.038.133.057a20.463,20.463,0,0,1-1.994-8.489c-.038-.8,1.291-1.005,1.4-.189,3.247,21.877,26.113,18.325,41,11.965a4.744,4.744,0,0,1-1.424-.589.563.563,0,0,1,.284-1.045C504.716,86.976,507.393,87.773,508.912,85.268ZM505.38,62.421c.133-1.8-1.159-4.444-1.178-6.476-.095-5.147,1.31-9.534.095-14.4a.709.709,0,0,1-.494-.436c-2.013-5.222-7.729-5.165-11.774-2.469-2.164,1.443-5.546,4.785-6.286,7.54a22.9,22.9,0,0,1,6.989,8.924,19.307,19.307,0,0,1,.951,13.029C498.372,69.258,504.754,71.137,505.38,62.421Zm-5.944,57.238c-.095-.968-.229-1.937-.381-2.867a3.211,3.211,0,0,0-2.677,1.062,2.4,2.4,0,0,0-.286.513.26.26,0,0,1-.095.151,3.105,3.105,0,0,0,.057,2.223A13.977,13.977,0,0,0,499.437,119.659ZM495.657,117a3.625,3.625,0,0,1,3.209-1.31c-1.291-6.724-4.084-12.116-10.331-16.047a79.244,79.244,0,0,1,.684,17.984C490.851,115.861,494.29,115.158,495.657,117Zm-.475,3.874a3.829,3.829,0,0,1-.17-2.753c-1.064-2.374-5.946-.475-5.716,1.975v.038a1.614,1.614,0,0,0,.133.494A16.883,16.883,0,0,0,495.182,120.875Zm-7.386-3.76c.076-7.424,0-14.775-1.426-22.142-9.437.873-18.781-1.407-22.979-9.155a.434.434,0,0,1-.417.324,21.815,21.815,0,0,1-6.932-.665c-1.71,5.165-1.748,11.166-2.032,16.56-.267,4.8-1.1,10.71-.189,15.8a2.743,2.743,0,0,1,2.6-.095,4.023,4.023,0,0,1,1.956,2.793A2.821,2.821,0,0,1,461.4,118.6a4.028,4.028,0,0,1,2.85,1.748,3.267,3.267,0,0,1,1.2-1.538,4.279,4.279,0,0,1,4.366-.133c.4-1.937-.019-4.692.04-6.516.057-2.183.132-4.385.36-6.551a12.817,12.817,0,0,1-4.919-1.178c-.511-.246-.133-.949.343-.835a18.526,18.526,0,0,0,9.553-.437c.835-.246,1.424,1.064.608,1.426a12.939,12.939,0,0,1-4.5,1.005,119.418,119.418,0,0,1,.057,12.211c2.108-1.159,4.425.835,5.393,2.944a3.423,3.423,0,0,1,3.228-2.753,3.731,3.731,0,0,1,2.812,1.348c.038.076.076.133.114.208a3.515,3.515,0,0,1,1.329-2.355A3.118,3.118,0,0,1,487.8,117.114Zm-.04,3.1c0-.57,0-1.14.019-1.71a.646.646,0,0,1-.417-.133,1.974,1.974,0,0,0-2.715.019,3.378,3.378,0,0,0-.627,3.247.444.444,0,0,1-.038.227C485.591,121.6,487.072,121.14,487.756,120.21Zm-5.222,1.842c-.265-.951-.265-1.956-1.291-2.583a2.407,2.407,0,0,0-3.513,2.621.482.482,0,0,1-.076.322c.473-.019.949-.038,1.367-.095C479.856,122.223,481.166,122.185,482.533,122.053Zm-6.476.36a14.087,14.087,0,0,0-1.556-2.734,2.933,2.933,0,0,0-3.153-.759h-.019a8.925,8.925,0,0,1-.076,1.253C472.221,121.767,474.121,122.318,476.058,122.412Zm-6.57-2.7a3.849,3.849,0,0,0-3.134-.17,2.275,2.275,0,0,0-1.216,2.564c.019.114.076.227.095.341C467.113,122.469,468.6,122.015,469.487,119.716Zm-6.514,2.6c.322.019.646.057.968.076a4.127,4.127,0,0,0-1.632-2.316c-1.4-.837-3.323-.17-3.134,1.651a.349.349,0,0,1-.267.362C460.3,122.2,461.682,122.223,462.974,122.318Zm-5.165-.341a5.569,5.569,0,0,0-1.159-2.869,2.013,2.013,0,0,0-2.658-.4,15.225,15.225,0,0,0,.74,2.507A11.614,11.614,0,0,0,457.808,121.977Zm-4.028-.151a10.246,10.246,0,0,1-1.367-2.812.647.647,0,0,1-.454-.133c-2.564-2.45-5.47,1.083-5.754,3.628,0,.038-.019.038-.019.057A38.516,38.516,0,0,0,453.781,121.825Zm-1.462-18.441c.152-2.3.229-4.73.437-7.159a36.3,36.3,0,0,0-12.382,20.111,5.483,5.483,0,0,1,5.317,3.647,5.647,5.647,0,0,1,2.469-2.641,4.238,4.238,0,0,1,3.817-.151C451.16,112.727,452.054,107.467,452.319,103.385ZM448.18,81.449a22.532,22.532,0,0,1-2.166-2.107c-1.138,1.8-1.822,4.122-3.893,5.033a4.6,4.6,0,0,1-3.779-.038.5.5,0,0,1-.74.133,13.016,13.016,0,0,1-3.855-4.272,16.238,16.238,0,0,0-6.627-6.286c-1.672-.835-6.608-2.715-5.792-5.357a9.592,9.592,0,0,1,3.666-9.761c4.5-3.512,10.615-3.493,15.913-2.2a.345.345,0,0,1,.191.133,18.642,18.642,0,0,1,1.424-3.418c-10.35-1.748-28.9-1.842-28.069,13.292.57,10.293,11.679,8.034,15.858,15.08a.564.564,0,0,1,.038.57,36.6,36.6,0,0,1,3.437,4.234c2.526,3.42,6.572,4.749,10.255,2.032C445.957,87.108,447.343,83.6,448.18,81.449ZM444.4,122.566a4.461,4.461,0,0,0-1.064-3.893,3.96,3.96,0,0,0-3.228-1.121,40.918,40.918,0,0,0-.627,4.709v.038C441.153,122.431,442.766,122.528,444.4,122.566Zm-1.539-40.337c.932-1.216,1.312-2.717,2.28-3.912A24.236,24.236,0,0,1,440.089,64.3a21.515,21.515,0,0,1,.816-6.951c-.038.019-.057.038-.095.038-4.387-.3-9.059-.684-13.065,1.538-4.179,2.318-6.324,6.781-4.709,11.4,2.145,1.861,6.911,3.533,8.108,4.539,2.925,2.412,4.046,6.286,7.065,8.566a1.055,1.055,0,0,1,.191.208A4.017,4.017,0,0,0,442.861,82.229Z" transform="translate(0)"/>
    <path id="Path_26" data-name="Path 26" class="cls-2" d="M477.438,37.533c.969,3.323-.379,7.767-.949,11.073a23.75,23.75,0,0,0-.21,6.873c.362,3.742,2.034,7.826.837,11.776-2.318,7.652-12.535,5.658-17.662,4.177a19.647,19.647,0,0,0,1.291-3c4.122,1.748,12.06,2.736,13.713-2.81.665-2.24-.666-4.293-1.1-6.4-.7-3.571.019-6.932.341-10.482.343-3.609.286-6.856-1.632-9.82-1.8-3.893-6.495-5.147-10.522-3.7-3.075,1.1-8.659,5.506-9.513,9.361a27.86,27.86,0,0,0-3.153-1.88c.019-.019.038-.019.038-.038,2.335-6.894,6.665-12.476,14.243-13.711C468.779,28.039,475.71,31.7,477.438,37.533Z" transform="translate(32.594 0.769)"/>
    <path id="Path_27" data-name="Path 27" class="cls-2" d="M492.033,73.581c2.924-.627,4.558,2.677,3.151,5-1.519,2.505-4.2,1.708-6.532,1.594a.563.563,0,0,0-.284,1.045,4.745,4.745,0,0,0,1.424.589c-14.888,6.36-37.754,9.912-41-11.965-.114-.816-1.443-.608-1.4.189a20.463,20.463,0,0,0,1.994,8.489c-.057-.019-.076-.057-.133-.057-12.857-.684-22.466-10.407-21.4-23.623a18.728,18.728,0,0,1,2.526-8.072.628.628,0,0,0,.343-.532c4.026-6.249,11.66-9.553,19.465-10.539,10.047-1.253,20.624,2.07,26.018,11.185a17.8,17.8,0,0,1-7.332,25.373c-.892-2.831-.549-6-.341-9a.659.659,0,0,0-1.291-.172c-1.045,5.2-.7,11.7,4.045,15.042,3.685,2.583,9.059,1.216,11.984-1.994.132.227.265.454.4.665.21.3.78.133.646-.267-.133-.36-.284-.74-.4-1.14.019-.019.038-.019.038-.036.17-.229,0-.437-.208-.513a3.4,3.4,0,0,1-.059-1.634c.551-2.145,2.793-1.31,4.141-.627C489.2,73.276,490.513,74,492.033,73.581Zm-.551,3.588c.589.627,1.708-.208,1.216-.93a3.48,3.48,0,0,0-2.907-1.386c-1.253-.057-3.418.53-4.063-.951-.172-.417-.818-.114-.7.3C485.86,77.417,489.772,75.327,491.482,77.169ZM480.506,79.43c.322-.475-.419-1.045-.8-.608a3.6,3.6,0,0,0-.835,3c.076.532.93.4.911-.114A3.409,3.409,0,0,1,480.506,79.43Zm-6.23-18.4a.545.545,0,0,0,.987-.437,2.554,2.554,0,0,0-3.342-1.5,2.43,2.43,0,0,0-1.254,3.342c.191.343.816.229.778-.208a1.873,1.873,0,0,1,.78-1.975A1.646,1.646,0,0,1,474.276,61.027Zm-.3,19.276a.414.414,0,1,0-.511-.646,3.6,3.6,0,0,0-1.178,2.3c-.038.265.379.3.436.076A3.071,3.071,0,0,1,473.971,80.3Zm-6.551-3.76c.494-.3.038-1.081-.456-.778a8.4,8.4,0,0,0-3.4,4.063c-.114.3.381.513.513.229A8.753,8.753,0,0,1,467.42,76.542Zm-2.107-6.514a.439.439,0,0,0-.343-.8c-2.7.532-5.184,3.134-6.533,5.412-.227.381.343.684.589.343a15.14,15.14,0,0,1,2.925-3.02C462.995,71.169,464.21,70.731,465.312,70.029Zm-23.72-.93c.36.246.949-.191.778-.608a3.1,3.1,0,0,0-4.177-1.445,2.5,2.5,0,0,0-.875,3.628c.248.286.7-.038.608-.36a1.7,1.7,0,0,1,1.159-2.2C440.15,67.864,440.814,68.529,441.592,69.1Z" transform="translate(13.728 6.692)"/>
    <path id="Path_28" data-name="Path 28" class="cls-1" d="M465.683,58.184c.492.721-.627,1.556-1.216.93-1.71-1.842-5.622.248-6.457-2.961-.115-.418.53-.721.7-.3.646,1.481,2.81.894,4.063.951A3.48,3.48,0,0,1,465.683,58.184Z" transform="translate(40.743 24.748)"/>
    <path id="Path_29" data-name="Path 29" class="cls-3" d="M469.593,51.751c.019,2.032,1.31,4.671,1.178,6.476-.627,8.716-7.008,6.837-11.7,5.716a19.307,19.307,0,0,0-.951-13.029,22.9,22.9,0,0,0-6.989-8.924c.74-2.755,4.122-6.1,6.286-7.54,4.044-2.7,9.761-2.753,11.774,2.469a.709.709,0,0,0,.494.436C470.9,42.217,469.5,46.6,469.593,51.751Z" transform="translate(34.61 4.195)"/>
    <path id="Path_30" data-name="Path 30" class="cls-4" d="M459.691,74.87c.151.93.286,1.9.381,2.867a13.977,13.977,0,0,1-3.382,1.083,3.105,3.105,0,0,1-.057-2.223.26.26,0,0,0,.095-.151,2.4,2.4,0,0,1,.286-.513A3.211,3.211,0,0,1,459.691,74.87Z" transform="translate(39.365 41.922)"/>
    <path id="Path_31" data-name="Path 31" class="cls-2" d="M462.939,81.86a3.625,3.625,0,0,0-3.209,1.31c-1.367-1.842-4.806-1.14-6.438.627a79.244,79.244,0,0,0-.684-17.984C458.855,69.744,461.647,75.137,462.939,81.86Z" transform="translate(35.928 33.83)"/>
    <path id="Path_32" data-name="Path 32" class="cls-4" d="M458.729,76.086a3.829,3.829,0,0,0,.17,2.753,16.883,16.883,0,0,1-5.754-.246,1.614,1.614,0,0,1-.133-.494v-.038C452.784,75.61,457.665,73.711,458.729,76.086Z" transform="translate(36.282 42.036)"/>
    <path id="Path_33" data-name="Path 33" class="cls-1" d="M455.61,58.425c.381-.437,1.121.133.8.608a3.409,3.409,0,0,0-.723,2.278c.019.513-.835.646-.911.114A3.6,3.6,0,0,1,455.61,58.425Z" transform="translate(37.824 27.089)"/>
    <path id="Path_34" data-name="Path 34" class="cls-1" d="M455.149,49.511a.545.545,0,0,1-.987.437,1.646,1.646,0,0,0-2.051-.778,1.873,1.873,0,0,0-.78,1.975c.038.437-.587.551-.778.208a2.43,2.43,0,0,1,1.254-3.342A2.554,2.554,0,0,1,455.149,49.511Z" transform="translate(33.841 17.77)"/>
    <path id="Path_35" data-name="Path 35" class="cls-1" d="M452.453,58.85a.414.414,0,1,1,.511.646,3.071,3.071,0,0,0-1.253,1.729c-.057.227-.473.189-.436-.076A3.6,3.6,0,0,1,452.453,58.85Z" transform="translate(34.735 27.498)"/>
    <path id="Path_36" data-name="Path 36" class="cls-2" d="M467.019,67.827c1.426,7.368,1.5,14.718,1.426,22.142a3.118,3.118,0,0,0-3.571.076,3.515,3.515,0,0,0-1.329,2.355c-.038-.076-.076-.133-.114-.208a3.731,3.731,0,0,0-2.812-1.348,3.423,3.423,0,0,0-3.228,2.753c-.968-2.109-3.285-4.1-5.393-2.944a119.418,119.418,0,0,0-.057-12.211,12.94,12.94,0,0,0,4.5-1.005c.816-.362.227-1.672-.608-1.426a18.526,18.526,0,0,1-9.553.437c-.475-.114-.854.589-.343.835a12.817,12.817,0,0,0,4.919,1.178c-.227,2.166-.3,4.368-.36,6.551-.059,1.823.36,4.578-.04,6.516a4.279,4.279,0,0,0-4.366.133,3.267,3.267,0,0,0-1.2,1.538,4.028,4.028,0,0,0-2.85-1.748,2.821,2.821,0,0,0-3.018,1.939,4.023,4.023,0,0,0-1.956-2.793,2.743,2.743,0,0,0-2.6.095c-.913-5.09-.078-11,.189-15.8.284-5.395.322-11.4,2.032-16.56a21.815,21.815,0,0,0,6.932.665.434.434,0,0,0,.417-.324C448.238,66.42,457.582,68.7,467.019,67.827Z" transform="translate(19.35 27.145)"/>
    <path id="Path_37" data-name="Path 37" class="cls-4" d="M454.049,76.085c-.019.57-.019,1.14-.019,1.71-.684.93-2.164,1.386-3.778,1.651a.444.444,0,0,0,.038-.227,3.378,3.378,0,0,1,.627-3.247,1.974,1.974,0,0,1,2.715-.019A.645.645,0,0,0,454.049,76.085Z" transform="translate(33.726 42.415)"/>
    <path id="Path_38" data-name="Path 38" class="cls-4" d="M450.449,76.445c1.026.627,1.026,1.632,1.291,2.583-1.367.133-2.677.17-3.512.265-.419.057-.894.076-1.367.095a.482.482,0,0,0,.076-.322A2.407,2.407,0,0,1,450.449,76.445Z" transform="translate(30.793 43.025)"/>
    <path id="Path_39" data-name="Path 39" class="cls-1" d="M450.077,56.768c.494-.3.951.475.456.778a8.753,8.753,0,0,0-3.342,3.514c-.133.284-.627.076-.513-.229A8.4,8.4,0,0,1,450.077,56.768Z" transform="translate(30.614 25.687)"/>
    <path id="Path_40" data-name="Path 40" class="cls-1" d="M450.519,53.291a.439.439,0,0,1,.343.8c-1.1.7-2.318,1.14-3.361,1.937a15.139,15.139,0,0,0-2.925,3.02c-.246.341-.816.038-.589-.343C445.335,56.424,447.823,53.823,450.519,53.291Z" transform="translate(28.178 22.633)"/>
    <path id="Path_41" data-name="Path 41" class="cls-4" d="M446.728,76.831a14.088,14.088,0,0,1,1.556,2.734c-1.937-.095-3.836-.646-4.8-2.24a8.925,8.925,0,0,0,.076-1.253h.019A2.933,2.933,0,0,1,446.728,76.831Z" transform="translate(27.773 42.847)"/>
    <path id="Path_42" data-name="Path 42" class="cls-4" d="M441.5,76.452a3.85,3.85,0,0,1,3.134.17c-.892,2.3-2.374,2.753-4.255,2.734-.019-.114-.076-.227-.095-.341A2.275,2.275,0,0,1,441.5,76.452Z" transform="translate(24.858 43.093)"/>
    <path id="Path_43" data-name="Path 43" class="cls-4" d="M441.994,79.089c-.322-.019-.646-.057-.968-.076-1.291-.095-2.677-.114-4.065-.227a.349.349,0,0,0,.267-.362c-.189-1.822,1.729-2.488,3.134-1.651A4.127,4.127,0,0,1,441.994,79.089Z" transform="translate(21.947 43.304)"/>
    <path id="Path_44" data-name="Path 44" class="cls-4" d="M437.022,76.449a5.569,5.569,0,0,1,1.159,2.869,11.614,11.614,0,0,1-3.077-.759,15.225,15.225,0,0,1-.74-2.507A2.013,2.013,0,0,1,437.022,76.449Z" transform="translate(19.627 42.66)"/>
    <path id="Path_45" data-name="Path 45" class="cls-1" d="M438.082,53.736c.17.417-.418.854-.778.608-.778-.57-1.443-1.235-2.507-.988a1.7,1.7,0,0,0-1.159,2.2c.095.322-.36.646-.608.36a2.5,2.5,0,0,1,.875-3.628A3.1,3.1,0,0,1,438.082,53.736Z" transform="translate(18.016 21.447)"/>
    <path id="Path_46" data-name="Path 46" class="cls-4" d="M436.47,76.5a10.245,10.245,0,0,0,1.367,2.812,38.516,38.516,0,0,1-7.595.74c0-.019.019-.019.019-.057.284-2.545,3.191-6.078,5.754-3.628A.647.647,0,0,0,436.47,76.5Z" transform="translate(15.944 42.518)"/>
    <path id="Path_47" data-name="Path 47" class="cls-2" d="M439.555,64.008c-.208,2.429-.286,4.861-.437,7.159-.265,4.082-1.159,9.342-.341,13.805a4.238,4.238,0,0,0-3.817.151,5.647,5.647,0,0,0-2.469,2.641,5.483,5.483,0,0,0-5.317-3.647A36.3,36.3,0,0,1,439.555,64.008Z" transform="translate(13.202 32.217)"/>
    <path id="Path_48" data-name="Path 48" class="cls-2" d="M445.057,67.749a22.533,22.533,0,0,0,2.166,2.107c-.837,2.147-2.223,5.66-4.141,7.065-3.683,2.717-7.729,1.388-10.255-2.032a36.6,36.6,0,0,0-3.437-4.234.564.564,0,0,0-.038-.57c-4.179-7.046-15.288-4.787-15.858-15.08-.835-15.135,17.719-15.04,28.069-13.292a18.642,18.642,0,0,0-1.424,3.418.345.345,0,0,0-.191-.133c-5.3-1.291-11.412-1.31-15.913,2.2a9.592,9.592,0,0,0-3.666,9.761c-.816,2.641,4.12,4.522,5.792,5.357A16.238,16.238,0,0,1,432.79,68.6a13.017,13.017,0,0,0,3.855,4.272.5.5,0,0,0,.74-.133,4.6,4.6,0,0,0,3.779.038C443.236,71.871,443.919,69.554,445.057,67.749Z" transform="translate(0.956 11.592)"/>
    <path id="Path_49" data-name="Path 49" class="cls-4" d="M430.556,76.4a4.461,4.461,0,0,1,1.064,3.893c-1.634-.038-3.247-.134-4.919-.267v-.038a40.925,40.925,0,0,1,.627-4.709A3.96,3.96,0,0,1,430.556,76.4Z" transform="translate(12.78 42.273)"/>
    <path id="Path_50" data-name="Path 50" class="cls-3" d="M440.375,64.535c-.968,1.195-1.348,2.7-2.28,3.912a4.017,4.017,0,0,1-4.461,1.4,1.056,1.056,0,0,0-.191-.208c-3.018-2.28-4.139-6.154-7.065-8.566-1.2-1.005-5.963-2.677-8.108-4.539-1.615-4.614.53-9.077,4.709-11.4,4.007-2.221,8.678-1.84,13.065-1.538.038,0,.057-.019.095-.038a21.514,21.514,0,0,0-.816,6.951A24.236,24.236,0,0,0,440.375,64.535Z" transform="translate(4.766 13.781)"/>
  </g>
</svg>
