<svg xmlns="http://www.w3.org/2000/svg" width="63.087" height="100.475" viewBox="0 0 63.087 100.475">
  <defs>
    <style>
      .cls-1 {
        fill: #222221;
      }

      .cls-2 {
        fill: #e5919c;
      }

      .cls-3 {
        fill: #ecb5bc;
      }

      .cls-4 {
        fill: #da9a36;
      }
    </style>
  </defs>
  <g id="Group_34" data-name="Group 34" transform="translate(-73.301 -94.139)">
    <path id="Path_323" data-name="Path 323" class="cls-1" d="M136.386,126.67a.525.525,0,0,1-.245.508c-1.361,12.851-11.13,23.473-23.491,25.358.214,5.524.181,11.081.033,16.622,2.721-.163,5.459-.278,8.18-.441a.409.409,0,0,1,.427.409c1.213,2.148,2.131,4.475,3.36,6.639a.506.506,0,0,1-.688.69c-.492-.312-.968-.657-1.443-.984,0,.492,0,1,.016,1.492a.561.561,0,0,1-.95.392,6.636,6.636,0,0,1-1.394-2.213c-.655.722-1.311,1.427-1.968,2.131-.229.263-.606-.016-.541-.311.214-1.033.394-2.066.608-3.1.082-.443.606-1.672.376-2a16.425,16.425,0,0,0-3.146.214c-.968.065-1.951.131-2.919.114-.229,6.426-.606,12.868-.95,19.261a.634.634,0,0,1-.214.441.451.451,0,0,1-.278.575,44.839,44.839,0,0,1-7.541,2.13.6.6,0,0,1-.459-1.08c.886-.657,1.754-1.345,2.607-2.033a9.124,9.124,0,0,1-2.77-.9c-.459-.245-.18-.835.245-.884.722-.083,1.427-.165,2.148-.247a7.184,7.184,0,0,1-.984-1.392.51.51,0,0,1,.69-.69,21.5,21.5,0,0,0,3.032,1.312c.131-5.394.263-10.787.427-16.2-5.443.427-10.852.608-16.277,1.329-.624.082-1.329-.508-.9-1.164a199.876,199.876,0,0,1,14.376-19.982c-.672-.083-1.327-.149-2-.263-7.311-1.393-13.67-6.1-15.736-13.441a23.731,23.731,0,0,1-.378-9.671c.9-6.41,5.426-12.574,5.869-18.967a9.121,9.121,0,0,1-9.983,2.164,8.605,8.605,0,0,1-1.147-.655,35.329,35.329,0,0,0-7.115,8.246.692.692,0,0,1-1.2,0c-1.525-2.164-.394-5.671.229-8.017.7-2.671,1.835-5.2,4.1-6.868.016-.016.016,0,.033-.016a9.622,9.622,0,0,1,.392-3.836c3.36-10.769,19.474-8.77,22.015,1.394,3.869,9.95-8.327,19.785-6.77,30.08,2.278-3.656,6.982-6.508,10.687-8.344.016,0,.016-.033.033-.033A7.957,7.957,0,0,1,107.7,123.2c.279-.279.574-.559.87-.82,6.327-5.426,13.7-4.475,21.179-6.935a.791.791,0,0,1,.984.739,22.7,22.7,0,0,1,.131,2.556,23.7,23.7,0,0,1-.606,5.345,7.009,7.009,0,0,0,4.689-1.541.725.725,0,0,1,1.229.508C136.272,124.259,136.3,125.474,136.386,126.67Zm-1.278-.2v-.016c-.082-.7-.163-1.425-.247-2.13a5.258,5.258,0,0,1-4.687.458c-.049-.016-.049-.049-.082-.065a22.014,22.014,0,0,1-29.622,14.852c-.688-.262-.425-1.343.263-1.164a22.2,22.2,0,0,1,5.13-13.245c-4.361,2.1-9.1,5.2-11.786,9.328a.4.4,0,0,1-.737-.3c-.018-.033-.051-.082-.083-.131a12.957,12.957,0,0,1-.2-8.95c2.327-7.656,9.344-14.934,6.245-23.392C95.8,96.278,88.931,93,83.127,97.787c-3.934,3.244-4.573,9.7.033,12.786,3.409,2.262,9.36.966,11.065-3.05.163-.394.788-.1.688.3a6.55,6.55,0,0,1-.737,1.623c.606,5.278-2.623,9.736-4.065,14.719a.477.477,0,0,0-.033.149c-2.607,9.228-1.788,19.391,7.523,24.425C114.568,157.93,132.928,143.586,135.108,126.472Zm-6.9-.245c.624-1.754,2.394-7.59.592-8.491-1.133-.574-5.263.59-6.853.819-4.1.59-7.754,1.541-11.163,3.95a23.54,23.54,0,0,0-9.475,16.048c6.868,2.246,14.36,1.492,20.178-3.016A20.351,20.351,0,0,0,128.206,126.227Zm-5.966,47.735c.2.147.392.3.59.427a34.147,34.147,0,0,1-2.164-4.738,21.3,21.3,0,0,1-8.017.443c0,.427-.016.853-.033,1.262,1.378-.212,2.77-.311,4.164-.425.7-.049,2.1-.492,2.738.082.525.459.245,1.18.114,1.754-.245.984-.557,1.951-.87,2.917.459-.508.919-1.017,1.361-1.541.016-.016.049,0,.065-.016a.311.311,0,0,1,.163-.082h.049a.361.361,0,0,1,.394.181c.212.376.41.721.623,1.066v-.853A.561.561,0,0,1,122.24,173.962ZM112.109,152.6c-.606.082-1.2.163-1.819.2.214,12.2-.492,24.506-1.033,36.686a.588.588,0,0,1-1.082.279c-.574-.2-1.147-.394-1.688-.623.1.1.2.229.312.327a.514.514,0,0,1-.345.87c-.394.033-.77.065-1.164.114a7.02,7.02,0,0,0,1.77.114.516.516,0,0,1,.361.87c-.492.409-.968.8-1.46,1.213,1.46-.394,2.952-.721,4.41-.968a.965.965,0,0,1-.033-.229C110.945,178.519,111.043,165.487,112.109,152.6Zm-2.474.245c-.378.016-.753-.016-1.131-.016A154.385,154.385,0,0,1,99,169.027a64.124,64.124,0,0,1,9.7-.147C108.913,163.52,109.175,158.16,109.634,152.849ZM108.6,171.322c.016-.59.049-1.164.065-1.754-3.606.149-7.2.312-10.785.69a.578.578,0,0,1-.492-.87,110.176,110.176,0,0,0,9.918-16.589c-.181,0-.345,0-.525-.016-4.23,6.525-8.754,12.868-13.1,19.311A108.1,108.1,0,0,1,108.6,171.322ZM81.439,111.13a8.641,8.641,0,0,1-2.852-4.787,17.529,17.529,0,0,0-2.885,5.671c-.1.361-.214.771-.329,1.214.361.523,1.213.59,1.9.606a.524.524,0,0,1,.49.441A19.22,19.22,0,0,1,81.439,111.13Z" transform="translate(0 0)"/>
    <path id="Path_324" data-name="Path 324" class="cls-2" d="M129.095,114.745v.016c-2.18,17.114-20.54,31.457-37.506,22.262-9.311-5.034-10.13-15.2-7.523-24.425l2.983.8a12.956,12.956,0,0,0,.2,8.95c.033.049.065.1.083.131a.4.4,0,0,0,.737.3c2.689-4.132,7.425-7.229,11.786-9.328A22.2,22.2,0,0,0,94.72,126.7c-.688-.18-.951.9-.263,1.164a22.014,22.014,0,0,0,29.622-14.852c.033.016.033.049.082.065a5.258,5.258,0,0,0,4.687-.458C128.931,113.32,129.013,114.041,129.095,114.745Z" transform="translate(6.013 11.711)"/>
    <path id="Path_325" data-name="Path 325" class="cls-3" d="M117.927,108.638c1.8.9.033,6.737-.592,8.491a20.351,20.351,0,0,1-6.721,9.311c-5.818,4.508-13.311,5.261-20.178,3.015a23.54,23.54,0,0,1,9.475-16.048c3.409-2.409,7.066-3.36,11.163-3.95C112.664,109.228,116.794,108.064,117.927,108.638Z" transform="translate(10.871 9.098)"/>
    <path id="Path_326" data-name="Path 326" class="cls-4" d="M107.569,145.078c-.2-.131-.394-.279-.59-.427a.561.561,0,0,0-.82.476v.853c-.212-.345-.41-.69-.623-1.066a.361.361,0,0,0-.394-.181h-.049a.311.311,0,0,0-.163.082c-.016.016-.049,0-.065.016-.443.525-.9,1.033-1.361,1.541.312-.966.624-1.934.87-2.917.131-.574.41-1.294-.114-1.754-.639-.574-2.033-.131-2.738-.082-1.394.114-2.787.212-4.164.425.016-.409.033-.835.033-1.262a21.3,21.3,0,0,0,8.017-.443A34.148,34.148,0,0,0,107.569,145.078Z" transform="translate(15.261 29.31)"/>
    <path id="Path_327" data-name="Path 327" class="cls-4" d="M97.873,130.106c.623-.033,1.213-.114,1.819-.2-1.066,12.884-1.164,25.915-1.77,38.85a.965.965,0,0,0,.033.229c-1.458.247-2.95.574-4.41.968.492-.41.968-.8,1.46-1.213a.516.516,0,0,0-.361-.87,7.019,7.019,0,0,1-1.77-.114c.394-.049.77-.082,1.164-.114a.514.514,0,0,0,.345-.87c-.114-.1-.214-.229-.312-.327.541.229,1.115.425,1.688.623a.588.588,0,0,0,1.082-.279C97.381,154.612,98.087,142.3,97.873,130.106Z" transform="translate(12.417 22.693)"/>
    <path id="Path_328" data-name="Path 328" class="cls-4" d="M100.755,146.805c-.016.59-.049,1.164-.065,1.754a108.1,108.1,0,0,0-14.917.771c4.344-6.443,8.868-12.786,13.1-19.311.18.016.343.016.525.016a110.175,110.175,0,0,1-9.918,16.589.578.578,0,0,0,.492.87C93.558,147.118,97.149,146.954,100.755,146.805Z" transform="translate(7.912 22.763)"/>
    <path id="Path_329" data-name="Path 329" class="cls-2" d="M96.73,101.2c3.1,8.458-3.918,15.736-6.245,23.392l-2.983-.8a.477.477,0,0,1,.033-.149c1.442-4.983,4.671-9.442,4.065-14.719a6.55,6.55,0,0,0,.737-1.623c.1-.394-.525-.69-.688-.3-1.7,4.016-7.656,5.312-11.065,3.05-4.606-3.083-3.967-9.542-.033-12.786C86.355,92.483,93.223,95.762,96.73,101.2Zm-10.949,1.2a2.518,2.518,0,0,0-3.262-2.411,2.371,2.371,0,0,0-1.147,3.558c.278.345.737-.049.672-.394a1.64,1.64,0,0,1,.884-1.966c.951-.329,1.574.574,1.755,1.36C84.83,103.2,85.714,102.975,85.781,102.4Z" transform="translate(2.576 0.516)"/>
    <path id="Path_330" data-name="Path 330" class="cls-1" d="M81.127,98.079a2.518,2.518,0,0,1,3.262,2.411c-.067.574-.951.8-1.1.147-.181-.786-.8-1.688-1.755-1.36a1.64,1.64,0,0,0-.884,1.966c.065.345-.394.739-.672.394A2.371,2.371,0,0,1,81.127,98.079Z" transform="translate(3.968 2.427)"/>
    <path id="Path_331" data-name="Path 331" class="cls-4" d="M77.782,101.606a8.641,8.641,0,0,0,2.852,4.787,19.22,19.22,0,0,0-3.673,3.146.524.524,0,0,0-.49-.441c-.69-.016-1.541-.083-1.9-.606.114-.443.229-.853.329-1.214A17.529,17.529,0,0,1,77.782,101.606Z" transform="translate(0.805 4.737)"/>
  </g>
</svg>
