<svg xmlns="http://www.w3.org/2000/svg" width="93.181" height="99.705" viewBox="0 0 93.181 99.705">
  <defs>
    <style>
      .cls-1 {
        fill: #222221;
      }

      .cls-2 {
        fill: #c5cfcf;
      }

      .cls-3 {
        fill: #a1afaf;
      }

      .cls-4 {
        fill: #dca1a1;
      }

      .cls-5 {
        fill: #535959;
      }

      .cls-6 {
        fill: #ecc966;
      }

      .cls-7 {
        fill: #faf1da;
      }
    </style>
  </defs>
  <g id="Group_35" data-name="Group 35" transform="translate(-154.973 -100.434)">
    <path id="Path_332" data-name="Path 332" class="cls-1" d="M202.62,127.832a.437.437,0,0,0-.141.018.339.339,0,0,1-.3-.316c-.053-.406-.088-.812-.123-1.217a11.244,11.244,0,0,0-2.98-.23,8.974,8.974,0,0,0-1.8.318,4.879,4.879,0,0,0-.476.141c-.529.088-.582.248-.158.494.881,1.48,4.32,1.076,5.838.811A.437.437,0,0,0,202.62,127.832Zm.018-.018h.053a.265.265,0,0,1,.141.512,9.777,9.777,0,0,1-4.92.617c-1.041-.176-2.592-.793-2.822-2.01a1.269,1.269,0,0,1,.07-.742c-1.109.9-1.764,2.258-.053,3.3a6.214,6.214,0,0,0,2.1.6,7.623,7.623,0,0,0,5.043-.881c.477-.266,1.059.422.617.793-.193.141-.387.264-.582.389a30.271,30.271,0,0,1-1.463,8.588.656.656,0,0,1-.547.477,27.856,27.856,0,0,0,2.8,2.363,27.384,27.384,0,0,0,3.879,2.2.47.47,0,0,1,.053-.213,33.962,33.962,0,0,1,2.558-5.131,21.479,21.479,0,0,1-3.951-8.537c-.07-.371.441-.617.635-.264,2.381,4.531,4.373,9.011,8.623,12.185,6.279,4.674,14.073,4.373,19.241-1.693a8.683,8.683,0,0,1-1.465-1.109,2.12,2.12,0,0,1-.811-.072.966.966,0,0,1-.477.178c-1.41.123-7.125,1.111-6.367-1.871.3-1.2,1.728-2.451,2.558-3.314a27.813,27.813,0,0,1,3.367-2.892,1.017,1.017,0,0,1,1.377.371,14.7,14.7,0,0,1,1.357,4.127,4.959,4.959,0,0,1-.018,2.732,13.409,13.409,0,0,1,1.111.865c.035.035.035.088.053.123,4.461-5.82,5.273-13.033-.547-18.411-3.986-3.685-9.365-5.59-14.337-7.531a4.484,4.484,0,0,1-.406,1.129.211.211,0,0,1-.035.141,1.186,1.186,0,0,0-.141.142c-.053.07-.07.141-.123.211a.488.488,0,0,1-.23.158,4.542,4.542,0,0,1-4.18,1.322c.724,1.57-.564,3.492-2.256,4.129a5.82,5.82,0,0,1-3.9-.072,3.92,3.92,0,0,1-1.129,3.033,4.7,4.7,0,0,1-5.308.547,22.544,22.544,0,0,0-5.326.935,17.157,17.157,0,0,1,5.115.211v-.035a.5.5,0,0,1,1.006,0,17.187,17.187,0,0,1-.178,2.117A.349.349,0,0,1,202.637,127.815Zm44.81,12.468a.563.563,0,0,1,.705.529,7.572,7.572,0,0,1-8.164,6.824,2.782,2.782,0,0,0,.811.672.658.658,0,0,1-.336,1.217,13.647,13.647,0,0,1-6.347-1.994c.053.371.141.724.193,1.094a.519.519,0,0,1-.617.635,11.4,11.4,0,0,1-5.678-2.84c-6.332,1.818-13.228-1.445-17.759-6.894a38.681,38.681,0,0,1-2.1,4.955.291.291,0,0,1-.088.142.526.526,0,0,1,.07.176.6.6,0,0,1,.529.705,15.484,15.484,0,0,1-.758,2.734c3.068-1.254,6.683.916,8.728,3.244a.559.559,0,0,1,.054.652,4.377,4.377,0,0,1-.441,1.517,2.092,2.092,0,0,1,.334,2.945,2.345,2.345,0,0,1-3.545-.213,5.116,5.116,0,0,1-2.873.088.383.383,0,0,1-.266-.281,6.653,6.653,0,0,1-1.551-1.006c.652,8.589-1.711,19.081-10.37,22.432a28.34,28.34,0,0,0,1.728,11.992c.512,1.3,3.51,5.008,2.91,6.543a.552.552,0,0,1-.529.389,13.523,13.523,0,0,1-3.033-.107c.264.441.512.883.793,1.289a.534.534,0,0,1-.229.758.523.523,0,0,1-.441.459,37.5,37.5,0,0,1-9.1.211.741.741,0,0,1-.723-.74c.211-6.367.246-12.716.281-19.1a35.559,35.559,0,0,1-14.99.476c.105,4.215.424,9.082,1.922,13.3a.438.438,0,0,1,.248.688,16.474,16.474,0,0,0,2.186,3.933c.283.369.018.705-.317.828.105.264.018.582-.353.564-1.076-.035-2.168-.158-3.226-.283a.416.416,0,0,1-.3.689c-.193,0-.4-.035-.617-.053a.615.615,0,0,1-.547.317c-2.416.035-7.619,1.5-8.464-1.623-.758-2.838-.035-7.16-.018-10.123.018-3.227.053-6.453.229-9.664a.67.67,0,0,1-.3-.07c-7.388-3.263-6.613-13.544-5.519-20.1-3-1.287-5.291-6.1-4.41-9.152a.333.333,0,0,1,.389-.23c-.018-.141-.07-.264-.088-.4-.07-.529.723-.564.881-.123.953,2.98,3.527,3.809,6.244,4.637a.422.422,0,0,1,.193.107,37.165,37.165,0,0,1,13.615-4.092c7.019-.687,14.037,1.445,19.962-3.158a5.636,5.636,0,0,0,.266-1.022.489.489,0,0,1,.211-.283,2.23,2.23,0,0,1-.211-.176c-1.658-1.57-.035-5.15,1.3-6.49a.275.275,0,0,1,.424.018.284.284,0,0,1,.158.053l.9.795v-.072c.775-2.539,1.322-5.1,1.869-7.671a8.487,8.487,0,0,1-4.709.389c-1.728-.316-4.179-1.094-4.179-3.226,0-2.012,2.168-3.492,3.826-4.144a12.225,12.225,0,0,1,4.8-.742c0-.016,0-.016-.018-.035a.5.5,0,0,1,0-.475,10.113,10.113,0,0,1-.687-3.7h-.07c-4.127-.916-10.775.441-12.945,4.392a.843.843,0,0,1-1.551-.424c.229-8.306,8.851-14.2,16.312-10.017a11.592,11.592,0,0,1,3.033-3.262,14.935,14.935,0,0,0-13.138-3.881c-.6.125-1.27-.687-.67-1.164,6.26-4.99,17.987-7.089,20.9,2.734a9.7,9.7,0,0,1,5.449,1.5c1.217-3.3,5.168-7.6,8.835-5.131,1.728,1.182,1.605,3.51.617,5.131a12.6,12.6,0,0,1-4.709,4.074c6.349,2.469,13.579,5.82,16.771,11.956a11.158,11.158,0,0,1,.67,8.218.548.548,0,0,1,.564.67c0,.2,1.377.494,1.605.67a1.264,1.264,0,0,1,.494,1.041,1.154,1.154,0,0,1-.406.865,6.767,6.767,0,0,0,2.4.176.6.6,0,0,1,.6.6,4.034,4.034,0,0,1-1.34,2.98A5.007,5.007,0,0,0,247.448,140.283Zm-.687,1.3a4.84,4.84,0,0,1-3.9-.758.417.417,0,0,1-.158-.264c-.229-.142-.369-.441-.123-.635a3.174,3.174,0,0,0,1.27-2.135,5.594,5.594,0,0,1-3.474-.687.6.6,0,0,1,.105-1.059.437.437,0,0,1,.494-.281c.336-.477.248-.687-.229-.637a3.524,3.524,0,0,1-.406-.07,1.477,1.477,0,0,1-.635-.334,1.336,1.336,0,0,1-.3-.336,23.5,23.5,0,0,1-3.916,6.826,15.046,15.046,0,0,1-6.648,4.92,12.9,12.9,0,0,0,4.355,1.957c-.106-.6-.211-1.182-.281-1.781-.07-.547.828-.652.951-.123,0,.053.018.105.018.158a20.765,20.765,0,0,0,4.814,1.676,4.229,4.229,0,0,1-.475-1.076.615.615,0,0,1,1.182-.334c.018.053.035.088.053.141A7.386,7.386,0,0,0,246.76,141.587Zm-22.167-31.954c1.463-1.306,3.7-4.886-.123-5.238-2.98-.283-4.992,2.645-6.138,5.025.123.107.23.23.336.336.6-1.217,4.109-5.8,5.66-3.492.67,1.006-.246,2.381-.828,3.191a9.434,9.434,0,0,1-3.033,2.752c.07.018.123.053.193.07A21.936,21.936,0,0,0,224.593,109.634Zm-1.006-2.187c.266-.529.018-.793-.723-.811a3.717,3.717,0,0,0-.74.4,10.76,10.76,0,0,0-1.006.76,11.514,11.514,0,0,0-1.975,2.256.274.274,0,0,1-.142.107,4.49,4.49,0,0,1,.689,1.146c.035-.018.053-.055.088-.072C221.224,110.392,223.006,109.122,223.588,107.446Zm-5.2,7.265c2.875-4.955-4.619-6.224-7.424-5.925a10.642,10.642,0,0,0-5.8,2.4,9.892,9.892,0,0,0-2.08,2.5.6.6,0,0,1-.336.707,12.961,12.961,0,0,0-.811,8.076,4.724,4.724,0,0,0,2.15.935,3.409,3.409,0,0,0,2.258-.582,3.06,3.06,0,0,0,1.023-2.84,2.811,2.811,0,0,1-1.023-2.557.7.7,0,0,1,1.357-.178,3.232,3.232,0,0,0,3.881,2.24c1.5-.264,3.051-1.6,2.045-3.174A5.616,5.616,0,0,1,211,114.059c-.529-.881.775-1.588,1.375-.793a4.825,4.825,0,0,0,6,1.516C218.367,114.747,218.367,114.729,218.385,114.712ZM215.74,156.19a1.106,1.106,0,0,0,0-1.676,5.183,5.183,0,0,1-1.922,1.553A1.712,1.712,0,0,0,215.74,156.19Zm-4.5-.424a4.552,4.552,0,0,0,4.215-3.826c-2.4-1.711-4.549-3.685-7.635-2.769a3.673,3.673,0,0,0,.193,3.881c0,.018.018.035.035.053a9.78,9.78,0,0,0,2.963,2.346A.569.569,0,0,1,211.243,155.766Zm-2.928-47.808a12.75,12.75,0,0,1,2.787-.547,9.144,9.144,0,0,0-3.791-4.285,5.258,5.258,0,0,0-1.658,1.287,4.379,4.379,0,0,0-.988,2.7.274.274,0,0,1-.547,0,5.273,5.273,0,0,1,2.152-4.461,9.91,9.91,0,0,0-4.144-.687.247.247,0,0,1-.105.211,3.931,3.931,0,0,0-1.746,3.281,16.118,16.118,0,0,1,5.554,3.721A11.215,11.215,0,0,1,208.315,107.958Zm-1.287,40.49a17.845,17.845,0,0,1,.477-3.033,18.854,18.854,0,0,1-9.117-6.914c-.23,1.076-.67,2.1-.935,3.158a1.775,1.775,0,0,0,.777,2.168,10.174,10.174,0,0,0,1.568.988,59.071,59.071,0,0,0,6.984,3.367A.375.375,0,0,1,207.028,148.448Zm-.564.828a.387.387,0,0,1-.141-.018,30.034,30.034,0,0,1-8.711-4.127,2.591,2.591,0,0,1-1.43,1.851c-2.062,2.418-5.113,3.193-8.517,3.351-8.818.406-16.224.336-24.69,3.545-.035.018-.053,0-.07,0a.481.481,0,0,1-.477.211,8.443,8.443,0,0,1-6.295-3.7,12.131,12.131,0,0,0,1.076,3.316c.846,1.568,2.115,2.4,3.227,3.7a.585.585,0,0,1,.123.371c0,.018.018.018.018.035.248,6.6-1.764,15.218,5.256,19.2a.643.643,0,0,1,.371.6.47.47,0,0,1,.193.352c.283,4.463.248,8.941.248,13.386,0,.793-.2,2.451-.213,3.986a41.581,41.581,0,0,0,6.279,0,41.375,41.375,0,0,1-2.963-16.9.581.581,0,0,1,.547-.582.455.455,0,0,1,.44-.141,39.774,39.774,0,0,0,18.94.158.668.668,0,0,1,.775.389.511.511,0,0,1,.266.406c.317,4.549.406,9.117.317,13.667-.018.758-.141,1.586-.176,2.4a.177.177,0,0,1,.141-.07l2.734-.107c.6-.018,2.08.213,2.416-.475,0-.018.018-.018.035-.037-2.5-5.271-3.457-12.238-1.006-16.859a.542.542,0,0,1,.865-.088.742.742,0,0,1,.369-.317c9.771-3.793,10.283-13.474,11.076-22.45C206.235,152.874,205.583,150.952,206.464,149.276Zm-4.937,46.293c.123-.229-1.463-2.4-1.605-2.664-.105-.193-.193-.4-.281-.6a13.886,13.886,0,0,0-2.451.123,25.119,25.119,0,0,0,1.516,3.35C199.833,195.8,201.421,195.8,201.526,195.569Zm-1.146-77.947a11.719,11.719,0,0,1,1.041-3.545,11.442,11.442,0,0,0-2.574-.617,4.618,4.618,0,0,0-1.306,3.81A13.336,13.336,0,0,1,200.38,117.622Zm-.635-12.363a3.716,3.716,0,0,1,1.3-3.209,18.6,18.6,0,0,0-6.683,2.24A16.142,16.142,0,0,1,199.745,105.259Zm-.564,86.078a23.348,23.348,0,0,1-1.023-2.594,27.749,27.749,0,0,1-1.252-10.738c-.053.016-.088.035-.141.053a.576.576,0,0,1-.67-.213c-1.393,4.215-.811,9.259.758,13.738A14.528,14.528,0,0,1,199.181,191.337Zm-.758,6.42a19.889,19.889,0,0,1-1.623-2.5,2.205,2.205,0,0,1-1.322.44c-1.482.07-3-.088-4.48-.141a.461.461,0,0,1-.158-.088,2.325,2.325,0,0,0,1.482,2.451C194.013,198.5,196.519,197.985,198.423,197.756Zm-.935-84.4a10.469,10.469,0,0,0-4.267.828c.248.107.424.441.158.652a1.918,1.918,0,0,0-.246,2.875,16.758,16.758,0,0,1,3.58-.459A5.677,5.677,0,0,1,197.487,113.354Zm-5.113,4.533a2.535,2.535,0,0,1-.053-3.281,9.3,9.3,0,0,0-4.48,5.609A12.686,12.686,0,0,1,192.374,117.887Zm-17.636,79.375c.883.053,1.746.158,2.609.123a19.2,19.2,0,0,1-1.639-3.3,10.79,10.79,0,0,1-1.994,0C174.033,195.145,174.367,196.2,174.738,197.262Zm-1.287-3.933a16.709,16.709,0,0,0,1.887-.158,36.511,36.511,0,0,1-1.605-13.579c-.916-.211-1.816-.441-2.732-.74A58.817,58.817,0,0,0,173.451,193.329Zm.74,5.414c.018,0,.053-.018.07-.018-.44-.828-.846-1.693-1.234-2.557a12.9,12.9,0,0,1-6.6-.211,3.919,3.919,0,0,0,.582,2.416c.6.635,5.644.035,6.631.053A.615.615,0,0,1,174.192,198.743Z" transform="translate(0 0)"/>
    <path id="Path_333" data-name="Path 333" class="cls-2" d="M211,126.184a4.84,4.84,0,0,0,3.9.758,7.386,7.386,0,0,1-7.3,5.168c-.018-.053-.035-.088-.053-.141a.615.615,0,0,0-1.182.334,4.229,4.229,0,0,0,.475,1.076,20.765,20.765,0,0,1-4.814-1.676c0-.053-.018-.105-.018-.158-.123-.529-1.022-.424-.951.123.07.6.176,1.182.281,1.781a12.9,12.9,0,0,1-4.355-1.957,15.046,15.046,0,0,0,6.648-4.92,23.5,23.5,0,0,0,3.916-6.826,1.336,1.336,0,0,0,.3.336,1.477,1.477,0,0,0,.635.334,3.524,3.524,0,0,0,.406.07c.477-.051.564.16.229.637a.437.437,0,0,0-.494.281.6.6,0,0,0-.105,1.059,5.594,5.594,0,0,0,3.474.687,3.174,3.174,0,0,1-1.27,2.135c-.246.193-.105.492.123.635A.417.417,0,0,0,211,126.184Z" transform="translate(31.858 14.645)"/>
    <path id="Path_334" data-name="Path 334" class="cls-3" d="M217.4,115.433c5.82,5.379,5.008,12.591.547,18.411-.018-.035-.018-.088-.053-.123a13.409,13.409,0,0,0-1.111-.865,4.959,4.959,0,0,0,.018-2.732A14.7,14.7,0,0,0,215.443,126a1.017,1.017,0,0,0-1.377-.371,27.813,27.813,0,0,0-3.367,2.892c-.83.863-2.258,2.117-2.558,3.314-.758,2.982,4.957,1.994,6.367,1.871a.966.966,0,0,0,.477-.178,2.12,2.12,0,0,0,.811.072,8.683,8.683,0,0,0,1.465,1.109c-5.168,6.066-12.962,6.367-19.241,1.693-4.25-3.174-6.242-7.654-8.623-12.185-.193-.353-.705-.107-.635.264a21.479,21.479,0,0,0,3.951,8.537,33.962,33.962,0,0,0-2.558,5.131.47.47,0,0,0-.053.213,27.384,27.384,0,0,1-3.879-2.2,27.856,27.856,0,0,1-2.8-2.363.656.656,0,0,0,.547-.477,30.271,30.271,0,0,0,1.463-8.588c.2-.125.389-.248.582-.389.441-.371-.141-1.059-.617-.793a7.623,7.623,0,0,1-5.043.881,6.214,6.214,0,0,1-2.1-.6c-1.711-1.041-1.057-2.4.053-3.3a1.269,1.269,0,0,0-.07.742c.23,1.217,1.781,1.834,2.822,2.01a9.777,9.777,0,0,0,4.92-.617.265.265,0,0,0-.141-.512h-.053a.349.349,0,0,0,.193-.281,17.187,17.187,0,0,0,.178-2.117.5.5,0,0,0-1.006,0v.035a17.157,17.157,0,0,0-5.115-.211,22.544,22.544,0,0,1,5.326-.935,4.7,4.7,0,0,0,5.308-.547,3.92,3.92,0,0,0,1.129-3.033,5.82,5.82,0,0,0,3.9.072c1.691-.637,2.98-2.558,2.256-4.129a4.542,4.542,0,0,0,4.18-1.322.488.488,0,0,0,.23-.158c.053-.07.07-.141.123-.211a1.186,1.186,0,0,1,.141-.142.211.211,0,0,0,.035-.141,4.484,4.484,0,0,0,.406-1.129C208.035,109.843,213.414,111.747,217.4,115.433ZM215.037,119a.586.586,0,0,0,.6-1.006,2.318,2.318,0,0,0-3.086.424,2.175,2.175,0,0,0,.316,2.98c.3.281.865-.088.6-.459A1.26,1.26,0,0,1,215.037,119Zm-13.05,12.044a.519.519,0,0,0,.705-.705,2.128,2.128,0,0,0-3.156-.371,2.209,2.209,0,0,0,.088,3.263.542.542,0,0,0,.758-.775,1.09,1.09,0,0,1,.09-1.588A1.285,1.285,0,0,1,201.987,131.04Z" transform="translate(16.857 5.663)"/>
    <path id="Path_335" data-name="Path 335" class="cls-1" d="M200.587,113.814a.586.586,0,0,1-.6,1.006,1.26,1.26,0,0,0-1.57,1.939c.266.371-.3.74-.6.459a2.175,2.175,0,0,1-.316-2.98A2.318,2.318,0,0,1,200.587,113.814Z" transform="translate(31.906 9.838)"/>
    <path id="Path_336" data-name="Path 336" class="cls-3" d="M197.145,102.7c3.826.352,1.586,3.932.123,5.238a21.936,21.936,0,0,1-3.933,2.644c-.07-.018-.123-.053-.193-.07a9.434,9.434,0,0,0,3.033-2.752c.582-.811,1.5-2.186.828-3.191-1.551-2.31-5.06,2.275-5.66,3.492-.105-.105-.213-.229-.336-.336C192.153,105.34,194.165,102.412,197.145,102.7Z" transform="translate(27.325 1.7)"/>
    <path id="Path_337" data-name="Path 337" class="cls-4" d="M195.251,103.961c.74.018.988.281.723.811-.582,1.676-2.363,2.945-3.809,3.791-.035.018-.053.055-.088.072a4.49,4.49,0,0,0-.689-1.146.274.274,0,0,0,.142-.107,11.514,11.514,0,0,1,1.975-2.256,10.76,10.76,0,0,1,1.006-.76A3.717,3.717,0,0,1,195.251,103.961Z" transform="translate(27.614 2.675)"/>
    <path id="Path_338" data-name="Path 338" class="cls-1" d="M193.353,121.052a.519.519,0,0,1-.705.705,1.285,1.285,0,0,0-1.516-.176,1.09,1.09,0,0,0-.09,1.588.542.542,0,0,1-.758.775,2.209,2.209,0,0,1-.088-3.263A2.128,2.128,0,0,1,193.353,121.052Z" transform="translate(26.196 14.946)"/>
    <path id="Path_339" data-name="Path 339" class="cls-5" d="M190.833,105.2c2.8-.3,10.3.971,7.424,5.925-.018.018-.018.035-.018.07a4.825,4.825,0,0,1-6-1.516c-.6-.795-1.9-.088-1.375.793a5.616,5.616,0,0,0,2.627,2.258c1.006,1.57-.547,2.91-2.045,3.174a3.232,3.232,0,0,1-3.881-2.24.7.7,0,0,0-1.357.178,2.811,2.811,0,0,0,1.023,2.557,3.06,3.06,0,0,1-1.023,2.84,3.409,3.409,0,0,1-2.258.582,4.724,4.724,0,0,1-2.15-.935,12.961,12.961,0,0,1,.811-8.076.6.6,0,0,0,.336-.707,9.892,9.892,0,0,1,2.08-2.5A10.642,10.642,0,0,1,190.833,105.2Z" transform="translate(20.128 3.584)"/>
    <path id="Path_340" data-name="Path 340" class="cls-6" d="M190.362,131.191a1.106,1.106,0,0,1,0,1.676,1.712,1.712,0,0,1-1.922-.123A5.183,5.183,0,0,0,190.362,131.191Z" transform="translate(25.379 23.323)"/>
    <path id="Path_341" data-name="Path 341" class="cls-6" d="M192.863,131.022a4.552,4.552,0,0,1-4.215,3.826.569.569,0,0,0-.229-.316,9.78,9.78,0,0,1-2.963-2.346c-.018-.018-.035-.035-.035-.053a3.673,3.673,0,0,1-.193-3.881C188.315,127.336,190.465,129.311,192.863,131.022Z" transform="translate(22.594 20.919)"/>
    <path id="Path_342" data-name="Path 342" class="cls-7" d="M191.565,106.755a12.75,12.75,0,0,0-2.787.547,11.215,11.215,0,0,0-2.486,1.217,16.118,16.118,0,0,0-5.554-3.721,3.931,3.931,0,0,1,1.746-3.281.247.247,0,0,0,.105-.211,9.91,9.91,0,0,1,4.144.687,5.273,5.273,0,0,0-2.152,4.461.274.274,0,0,0,.547,0,4.379,4.379,0,0,1,.988-2.7,5.258,5.258,0,0,1,1.658-1.287A9.144,9.144,0,0,1,191.565,106.755Z" transform="translate(19.537 0.656)"/>
    <path id="Path_343" data-name="Path 343" class="cls-4" d="M189.228,129a17.845,17.845,0,0,0-.477,3.033.375.375,0,0,0-.246-.266,59.071,59.071,0,0,1-6.984-3.367,10.174,10.174,0,0,1-1.568-.988,1.775,1.775,0,0,1-.777-2.168c.266-1.059.705-2.082.935-3.158A18.854,18.854,0,0,0,189.228,129Z" transform="translate(18.276 16.418)"/>
    <path id="Path_344" data-name="Path 344" class="cls-3" d="M205.822,129.982a.387.387,0,0,0,.141.018c-.881,1.676-.229,3.6,1.023,5.062-.793,8.976-1.3,18.657-11.076,22.45a.742.742,0,0,0-.369.317.542.542,0,0,0-.865.088c-2.451,4.621-1.5,11.587,1.006,16.859-.018.019-.035.019-.035.037-.336.688-1.816.457-2.416.475l-2.734.107a.177.177,0,0,0-.141.07c.035-.812.158-1.641.176-2.4.09-4.55,0-9.119-.317-13.667a.511.511,0,0,0-.266-.406.668.668,0,0,0-.775-.389,39.774,39.774,0,0,1-18.94-.158.455.455,0,0,0-.44.141.581.581,0,0,0-.547.582,41.375,41.375,0,0,0,2.963,16.9,41.581,41.581,0,0,1-6.279,0c.018-1.535.213-3.193.213-3.986,0-4.445.035-8.923-.248-13.386a.47.47,0,0,0-.193-.352.643.643,0,0,0-.371-.6c-7.019-3.986-5.008-12.609-5.256-19.2,0-.018-.018-.018-.018-.035a.585.585,0,0,0-.123-.371c-1.111-1.3-2.381-2.135-3.227-3.7a12.131,12.131,0,0,1-1.076-3.316,8.443,8.443,0,0,0,6.295,3.7.481.481,0,0,0,.477-.211c.018,0,.035.018.07,0,8.466-3.209,15.872-3.139,24.69-3.545,3.4-.158,6.455-.934,8.517-3.351a2.591,2.591,0,0,0,1.43-1.851A30.034,30.034,0,0,0,205.822,129.982Z" transform="translate(0.501 19.277)"/>
    <path id="Path_345" data-name="Path 345" class="cls-1" d="M182.132,116.016a.437.437,0,0,1-.141.018A.437.437,0,0,1,182.132,116.016Z" transform="translate(20.488 11.816)"/>
    <path id="Path_346" data-name="Path 346" class="cls-4" d="M184.33,116.48a.339.339,0,0,0,.3.316c-1.517.266-4.957.67-5.838-.811-.424-.246-.371-.406.158-.494a4.879,4.879,0,0,1,.476-.141,8.974,8.974,0,0,1,1.8-.318,11.244,11.244,0,0,1,2.98.23C184.242,115.667,184.277,116.073,184.33,116.48Z" transform="translate(17.849 11.054)"/>
    <path id="Path_347" data-name="Path 347" class="cls-5" d="M181.714,153.288c.142.266,1.728,2.435,1.605,2.664-.105.229-1.693.229-2.822.211a25.119,25.119,0,0,1-1.516-3.35,13.886,13.886,0,0,1,2.451-.123C181.521,152.883,181.609,153.094,181.714,153.288Z" transform="translate(18.206 39.617)"/>
    <path id="Path_348" data-name="Path 348" class="cls-7" d="M183.08,108.459A11.719,11.719,0,0,0,182.039,112a13.336,13.336,0,0,0-2.84-.352,4.618,4.618,0,0,1,1.306-3.81A11.442,11.442,0,0,1,183.08,108.459Z" transform="translate(18.341 5.618)"/>
    <path id="Path_349" data-name="Path 349" class="cls-7" d="M184.06,101.353a3.716,3.716,0,0,0-1.3,3.209,16.142,16.142,0,0,0-5.379-.969A18.6,18.6,0,0,1,184.06,101.353Z" transform="translate(16.989 0.697)"/>
    <path id="Path_350" data-name="Path 350" class="cls-3" d="M180.762,155.358a23.348,23.348,0,0,0,1.023,2.594,14.528,14.528,0,0,0-2.328.246c-1.568-4.478-2.15-9.523-.758-13.738a.576.576,0,0,0,.67.213c.053-.018.088-.037.141-.053A27.749,27.749,0,0,0,180.762,155.358Z" transform="translate(17.395 33.385)"/>
    <path id="Path_351" data-name="Path 351" class="cls-5" d="M181.332,154.36a19.889,19.889,0,0,0,1.623,2.5c-1.9.229-4.41.74-6.1.158a2.325,2.325,0,0,1-1.482-2.451.461.461,0,0,0,.158.088c1.482.053,3,.211,4.48.141A2.205,2.205,0,0,0,181.332,154.36Z" transform="translate(15.468 40.893)"/>
    <path id="Path_352" data-name="Path 352" class="cls-7" d="M177,108.61a10.469,10.469,0,0,1,4.267-.828,5.677,5.677,0,0,0-.775,3.9,16.758,16.758,0,0,0-3.58.459,1.918,1.918,0,0,1,.246-2.875C177.421,109.052,177.245,108.718,177,108.61Z" transform="translate(16.223 5.572)"/>
    <path id="Path_353" data-name="Path 353" class="cls-7" d="M178.146,108.494a2.535,2.535,0,0,0,.053,3.281,12.686,12.686,0,0,0-4.533,2.328A9.3,9.3,0,0,1,178.146,108.494Z" transform="translate(14.175 6.112)"/>
    <path id="Path_354" data-name="Path 354" class="cls-5" d="M169.265,156.995c-.863.035-1.727-.07-2.609-.123-.371-1.059-.705-2.117-1.023-3.174a10.79,10.79,0,0,0,1.994,0A19.2,19.2,0,0,0,169.265,156.995Z" transform="translate(8.083 40.391)"/>
    <path id="Path_355" data-name="Path 355" class="cls-3" d="M168.426,159.352a16.709,16.709,0,0,1-1.887.158,58.817,58.817,0,0,1-2.451-14.478c.916.3,1.816.529,2.732.74A36.511,36.511,0,0,0,168.426,159.352Z" transform="translate(6.912 33.819)"/>
    <path id="Path_356" data-name="Path 356" class="cls-5" d="M169.32,157.529c-.018,0-.053.018-.07.018a.615.615,0,0,0-.547-.316c-.986-.018-6.031.582-6.631-.053a3.919,3.919,0,0,1-.582-2.416,12.9,12.9,0,0,0,6.6.211C168.474,155.835,168.88,156.7,169.32,157.529Z" transform="translate(4.942 41.197)"/>
  </g>
</svg>
