<svg xmlns="http://www.w3.org/2000/svg" width="100" height="82.087" viewBox="0 0 100 82.087">
  <defs>
    <style>
      .cls-1 {
        fill: #222221;
      }

      .cls-2 {
        fill: #a4ced4;
      }

      .cls-3 {
        fill: #dca1a1;
      }

      .cls-4 {
        fill: #d4e7e9;
      }
    </style>
  </defs>
  <g id="Group_31" data-name="Group 31" transform="translate(-242.328 -116.615)">
    <path id="Path_250" data-name="Path 250" class="cls-1" d="M342.287,181.843c.483,2.392-3.415,5.765-4.962,7.131-2.109,1.849-5.3,4.581-8.337,3.678a4.828,4.828,0,0,1-.745-.3c-2.129,1.867-4.741,3.636-7.694,2.892-2.832-.723-4.138-3.738-5.122-6.308a25.805,25.805,0,0,1-10.086.28.413.413,0,0,1-.242-.14c-.08,2.993-.421,6.388-2.109,8.457-1.767,2.149-5.825.763-8.117.3-2.189-.423-5.885-.865-7.131-3.135a.741.741,0,0,1-.423.02c-2.712-.783-6.851-2.129-8.357-4.721-1.546-2.632,1.366-5.725,3.3-7.474a18.275,18.275,0,0,1-2.692-2.109,32.89,32.89,0,0,1-7.373,1.969c-15.43,2.109-32.023-9.623-29.634-26.379,1.106-7.856,6.107-12.778,12.858-16.253a52.778,52.778,0,0,0,14.124-10.506c-3.576-2.372-4.821-7.736-1.486-11.011a5.063,5.063,0,0,1,5.905-1.1c2.412,1.184,3.437,3.876,4.018,6.328.02.02,0,.06,0,.08,10.348-3.315,19.348,3.095,23.346,12.075,2.933-2.692,10.446-3.778,10.829,1.586a6.28,6.28,0,0,1-1.366,4.421A31.572,31.572,0,0,1,332.7,149.58a15.3,15.3,0,0,0,1.869-6.15.245.245,0,0,1,.06-.18c-1.126-.623-2.672-2.169-1.769-3.235a.309.309,0,0,1,.363-.06c.381.262.361.483.583.905a2.355,2.355,0,0,0,1.346,1.246,2.221,2.221,0,0,0,.5.1,5.776,5.776,0,0,1,.06-2.191c.262-1.024,1.829-.441,1.388.583a4.8,4.8,0,0,0-.363,1.406,3.534,3.534,0,0,0,1.386-1.286.688.688,0,0,1,1.246.543,3.49,3.49,0,0,1-3.616,2.312,15.874,15.874,0,0,1-2.472,6.528,22.516,22.516,0,0,1,2.41,2.752c5.164,6.993,5.727,16.876-.3,23.426,1.486,1.044,2.993,2.069,4.481,3.135C340.7,180.015,342.066,180.718,342.287,181.843Zm-3.435,2.712c1.266-2.029.26-2.993-1.106-4.4-1.566-1.629-4.016-2.895-5.865-4.261-.863-.643-.06-2.089.863-1.466.563.383,1.126.8,1.709,1.186,5.322-8.257,3.856-17.539-3.195-24.33-6.188-5.987-14.284-6.81-22.361-7.976a.07.07,0,0,0-.04-.02,7.4,7.4,0,0,1-5.364.845c0,.08.02.16.02.24.02.381.06.763.08,1.146,0,.02-.02.04-.02.06.683,14.5-9.763,28.808-23.184,34.473a26.142,26.142,0,0,0,9.985,4.261.483.483,0,0,1,.381.28c.242-.361.463-.723.663-1.044.383-.6,1.486-.2,1.206.5-.923,2.251-2.372,4.681-2.872,7.053-.383,1.787-.383,3.275,1.546,4a24.979,24.979,0,0,0,3.435.984,17.981,17.981,0,0,0,4.481.743c2.37-.06,2.892-.7,3.536-3.053a32.216,32.216,0,0,0,.8-7.856.8.8,0,0,1,1.607,0c-.02.8-.02,1.729-.04,2.692a.41.41,0,0,1,.343-.22,40.823,40.823,0,0,0,16.473-3.578.9.9,0,0,1,.22-.06c-.34-.623-.661-1.226-.943-1.727a.6.6,0,0,1,1.046-.6c1.426,2.069,3.273,5.525,5.4,6.971,3.013,2.069,6.408-.12,8.737-2.229A13.124,13.124,0,0,0,338.851,184.556Zm-12.115,6.77a20.542,20.542,0,0,1-3.836-5.184c-.04.04-.062.08-.122.1a29.273,29.273,0,0,1-5.965,2.35c.883,1.687,1.747,3.736,3.293,4.641C322.458,194.581,324.89,192.872,326.737,191.326Zm-16.213-53.058c.262-2.532-1.887-3.355-4.018-3.275a7.111,7.111,0,0,0-4.559,2.029h-.02c.06.16.1.343.16.5a5.676,5.676,0,0,1,3.878-1.426,2.808,2.808,0,0,1,2.55,2.109,3.037,3.037,0,0,1-1.606,3.093,5.268,5.268,0,0,1-3.8.282c.082.481.2.943.262,1.426C306.688,143.713,310.163,141.924,310.524,138.268Zm-4.962,2.47c.863-.3,1.909-1.264,1.586-2.31-.683-2.149-3.616-.22-4.579.5a.062.062,0,0,1-.04.02q.27.995.481,1.989A7.261,7.261,0,0,0,305.562,140.738Zm-3.155,4.741c-1.184-8.074-4.539-16.814-13.018-19.646-9.523-3.175-14.244,1.526-20.452,7.754-3.053,3.053-7.031,4.922-10.869,6.931,17.177,1.486,35.479,18.142,25.5,35.7C294.413,170.031,301.564,157.816,302.407,145.479Zm-12.175,39.98a.544.544,0,0,1-.18,0,19.4,19.4,0,0,1-7.131-2.51c-1.086,2.229-3.878,4.962-1.789,7.171,1.446,1.546,4.178,2.332,6.208,3.035C287.2,190.763,288.806,187.791,290.232,185.459Zm-9.1-8.517c9.422-19.105-7.071-33.39-24.812-35.5-3.435,1.867-6.628,4-8.84,7.371-11.872,18.122,10.669,34.716,27.585,30.759a30.658,30.658,0,0,0,5.987-2.069A.944.944,0,0,1,281.132,176.942ZM276.591,124c.04-.02.1-.04.142-.06a.655.655,0,0,1-.062-.12c-.461-1.869-1.144-3.918-2.872-5a3.812,3.812,0,0,0-5.324,1.466c-1.767,2.792-.421,6.208,1.989,8.1a9.932,9.932,0,0,1,.805-.763c-2.191-1.186-3.578-4.339-1.206-6.127,2.39-1.787,4.539,1.066,5.262,3.115C275.728,124.4,276.13,124.184,276.591,124Zm-2.029,1c0-.02-.04-.02-.06-.04-.643-1.226-1.827-3.736-3.6-2.532-1.949,1.328-.4,3.6.943,4.621A18.274,18.274,0,0,1,274.562,125.008Z" transform="translate(0)"/>
    <path id="Path_251" data-name="Path 251" class="cls-2" d="M318.686,166.8c1.366,1.406,2.372,2.37,1.106,4.4a13.124,13.124,0,0,1-2.452,2.612c-2.33,2.109-5.725,4.3-8.737,2.229-2.131-1.446-3.978-4.9-5.4-6.971a.6.6,0,0,0-1.046.6c.282.5.6,1.1.943,1.727a.9.9,0,0,0-.22.06,40.823,40.823,0,0,1-16.473,3.578.41.41,0,0,0-.343.22c.02-.964.02-1.889.04-2.692a.8.8,0,0,0-1.607,0,32.216,32.216,0,0,1-.8,7.856c-.643,2.35-1.166,2.993-3.536,3.053a17.981,17.981,0,0,1-4.481-.743,24.979,24.979,0,0,1-3.435-.984c-1.929-.723-1.929-2.211-1.546-4,.5-2.372,1.949-4.8,2.872-7.053.28-.7-.823-1.1-1.206-.5-.2.321-.421.683-.663,1.044a.483.483,0,0,0-.381-.28,26.142,26.142,0,0,1-9.985-4.261c13.421-5.665,23.867-19.969,23.184-34.473,0-.02.02-.04.02-.06-.02-.383-.06-.765-.08-1.146,0-.08-.02-.16-.02-.24a7.4,7.4,0,0,0,5.364-.845.07.07,0,0,1,.04.02c8.076,1.166,16.173,1.989,22.361,7.976,7.051,6.79,8.517,16.073,3.195,24.33-.583-.383-1.146-.8-1.709-1.186-.923-.623-1.727.823-.863,1.466C314.669,163.9,317.119,165.17,318.686,166.8Z" transform="translate(19.06 13.358)"/>
    <path id="Path_252" data-name="Path 252" class="cls-2" d="M285.6,151.325a20.542,20.542,0,0,0,3.836,5.184c-1.847,1.546-4.279,3.255-6.63,1.909-1.546-.905-2.41-2.955-3.293-4.641a29.273,29.273,0,0,0,5.965-2.35C285.538,151.405,285.56,151.365,285.6,151.325Z" transform="translate(37.3 34.817)"/>
    <path id="Path_253" data-name="Path 253" class="cls-2" d="M276.66,125.793c2.131-.08,4.281.743,4.018,3.275-.361,3.656-3.836,5.444-7.151,4.741-.06-.483-.18-.945-.262-1.426a5.268,5.268,0,0,0,3.8-.282,3.037,3.037,0,0,0,1.606-3.093,2.808,2.808,0,0,0-2.55-2.109,5.676,5.676,0,0,0-3.878,1.426c-.06-.16-.1-.343-.16-.5h.02A7.111,7.111,0,0,1,276.66,125.793Z" transform="translate(29.845 9.2)"/>
    <path id="Path_254" data-name="Path 254" class="cls-3" d="M277,128c.323,1.046-.723,2.009-1.586,2.31a7.261,7.261,0,0,1-2.552.2q-.21-.995-.481-1.989a.062.062,0,0,0,.04-.02C273.386,127.778,276.318,125.849,277,128Z" transform="translate(30.147 10.43)"/>
    <path id="Path_255" data-name="Path 255" class="cls-2" d="M281.506,121.728c8.479,2.832,11.834,11.572,13.018,19.646-.843,12.337-7.994,24.552-18.843,30.739,9.983-17.559-8.319-34.215-25.5-35.7,3.838-2.009,7.816-3.878,10.869-6.931C267.262,123.254,271.984,118.553,281.506,121.728Zm1.466,31.18c1.709-2.672-2.169-5.787-4.339-3.377-.26.3.08.805.443.563a2.111,2.111,0,0,1,2.47,0,1.944,1.944,0,0,1,.322,2.352C281.627,153.108,282.632,153.469,282.973,152.908Zm-17.317-13.8a3.1,3.1,0,0,0-1.146-3.858c-.863-.441-2.772-.321-2.712.985a.379.379,0,0,0,.563.321c.623-.28,1.126-.683,1.809-.18.823.6.561,1.629.6,2.492C264.793,139.285,265.456,139.567,265.656,139.1Z" transform="translate(7.883 4.105)"/>
    <path id="Path_256" data-name="Path 256" class="cls-1" d="M264.434,135.53c2.169-2.41,6.047.705,4.339,3.377-.341.561-1.346.2-1.1-.463a1.944,1.944,0,0,0-.322-2.352,2.111,2.111,0,0,0-2.47,0C264.514,136.335,264.173,135.833,264.434,135.53Z" transform="translate(22.083 18.106)"/>
    <path id="Path_257" data-name="Path 257" class="cls-2" d="M271,152.241a.544.544,0,0,0,.18,0c-1.426,2.332-3.033,5.3-2.892,7.7-2.029-.7-4.761-1.488-6.208-3.035-2.089-2.209.7-4.942,1.789-7.171A19.4,19.4,0,0,0,271,152.241Z" transform="translate(19.054 33.218)"/>
    <path id="Path_258" data-name="Path 258" class="cls-4" d="M255.4,129.01c17.741,2.109,34.235,16.393,24.812,35.5a.944.944,0,0,0-.08.563,30.658,30.658,0,0,1-5.987,2.069c-16.916,3.956-39.457-12.638-27.585-30.759C248.772,133.006,251.965,130.877,255.4,129.01Zm19.648,19.166c2.532-.763.122-4.441-1.526-2.632-.04.02-.04.06-.06.08A1.551,1.551,0,0,0,275.049,148.176Zm-10.727-11.412a.992.992,0,0,0,.26-.984,1.636,1.636,0,0,0-2.572-.825,1.267,1.267,0,0,0-1.226,1.729C261.448,138.37,263.317,137.607,264.322,136.764Z" transform="translate(0.919 12.433)"/>
    <path id="Path_259" data-name="Path 259" class="cls-2" d="M264.044,123.126c-.042.02-.1.04-.142.06-.461.18-.863.4-1.266.6-.723-2.049-2.872-4.9-5.262-3.115-2.372,1.789-.986,4.942,1.206,6.127a9.932,9.932,0,0,0-.805.763c-2.41-1.889-3.756-5.3-1.989-8.1A3.812,3.812,0,0,1,261.109,118c1.729,1.086,2.412,3.135,2.872,5A.655.655,0,0,0,264.044,123.126Z" transform="translate(12.69 0.818)"/>
    <path id="Path_260" data-name="Path 260" class="cls-1" d="M258.588,137.512c1.649-1.809,4.058,1.869,1.526,2.632a1.551,1.551,0,0,1-1.586-2.552C258.548,137.572,258.548,137.532,258.588,137.512Z" transform="translate(15.853 20.465)"/>
    <path id="Path_261" data-name="Path 261" class="cls-3" d="M260.652,122.212c.02.02.06.02.06.04A18.274,18.274,0,0,0,258,124.3c-1.346-1.024-2.893-3.293-.943-4.621C258.825,118.477,260.009,120.987,260.652,122.212Z" transform="translate(13.85 2.755)"/>
    <path id="Path_262" data-name="Path 262" class="cls-1" d="M258.7,128.081a3.1,3.1,0,0,1,1.146,3.858c-.2.463-.863.18-.883-.24-.042-.863.22-1.889-.6-2.492-.683-.5-1.186-.1-1.809.18a.379.379,0,0,1-.563-.321C255.924,127.761,257.833,127.641,258.7,128.081Z" transform="translate(13.697 11.27)"/>
    <path id="Path_263" data-name="Path 263" class="cls-1" d="M255.845,132.987a.992.992,0,0,1-.26.984c-1.006.843-2.874,1.606-3.537-.08a1.267,1.267,0,0,1,1.226-1.729A1.636,1.636,0,0,1,255.845,132.987Z" transform="translate(9.657 15.227)"/>
  </g>
</svg>
