<svg xmlns="http://www.w3.org/2000/svg" width="64.544" height="99.504" viewBox="0 0 64.544 99.504">
  <defs>
    <style>
      .cls-1 {
        fill: #222221;
      }

      .cls-2 {
        fill: #dca1a1;
      }

      .cls-3 {
        fill: #e9c8c6;
      }
    </style>
  </defs>
  <g id="Group_40" data-name="Group 40" transform="translate(-428.297 -111.994)">
    <path id="Path_414" data-name="Path 414" class="cls-1" d="M492.735,173.775c.549,4.979-1.1,9.606-3.816,13.684a.274.274,0,0,1-.306.131,1.732,1.732,0,0,1-.112.221c-.284.481-1.161.175-.942-.4,3.466-8.62-3.354-13.05-7.632-19.234-2.368-3.444-2.545-7.126-1.579-10.944a.381.381,0,0,1-.131-.262,5.731,5.731,0,0,1,.262-1.732c-.724.35-1.448.7-2.193,1.03a.655.655,0,0,1,.087.219c.549,4.08-.35,6.755-1.907,10.461-2.084,4.913-5.331,8.664-3.927,14.673,1.382,5.9,3.51,5.309,5.725,8.707,4.78,7.325,3.114,14.76-3.531,20.485l-.2.394c-.374.658-1.273.066-.986-.593,5.064-11.185-7.063-18.838-8.489-29.037-1.338-9.429,5.023-16.23.483-25.923a.469.469,0,0,1,.022-.481,10.258,10.258,0,0,0-2.412-.352.021.021,0,0,0-.022.022c-7.5,5.681.921,18.928-.286,26.516-1.426,9.014-11.8,14.891-10.109,24.476a.472.472,0,0,1-.835.4.559.559,0,0,1-.7.022c-5.46-4.233-3.728-10.111-.612-15.331,4.43-7.413,7.872-7.194,3.595-20.419-.678-2.128-2.368-4.166-3.18-6.25a16.275,16.275,0,0,1-1.1-9.737,1.432,1.432,0,0,1-.286-.087c.131,10.131-3.794,27.15-17,24.651-.109.044-.2.087-.284.131a.736.736,0,0,1-.986-.418.3.3,0,0,1-.088-.481.931.931,0,0,1,.59-.833c9.694-3.816,12.919-15.55,9.737-24.85a33.051,33.051,0,0,1-5.5-.262.625.625,0,0,1-.68.284c-3.048-.614-6.075-3.158-4.824-6.536,1.491-4.013,6.1-3.794,9.562-2.961-1.953-15.46,5.876-29.827,22.984-31.077,20.133-1.445,25.2,15.593,24.913,32.153a.866.866,0,0,1,.658-.175c2.983.5,6.886,3.026,5.681,6.58-1.054,3.092-4.474,3.486-7.347,2.893C482.823,160.812,491.946,166.734,492.735,173.775ZM490.5,150.329c1.448-2.808-2.653-3.991-4.408-4.8a.27.27,0,0,1-.087-.068c-.022.593-.022,1.185-.066,1.756a1.149,1.149,0,0,1-.789,1.074.94.94,0,0,1-.768.7c-14.695,2.983-29.739,3.378-44.324-.459a.659.659,0,0,1-.483-.4.474.474,0,0,1-.59-.372c-.286-1.12-.505-2.237-.68-3.357-2.48-.241-5.462-.483-7.282,1.491-2.106,2.3-.087,4.08,1.975,5.11,3.289.219,6.337-.877,9.65-.241a15.826,15.826,0,0,1,3.376,1.316c3.993,1.623,6.6,2.543,11.01,1.623a.535.535,0,0,1,.374.022c1.819-.636,3.706-1.36,5.591-.945,1.579.33,2.939,1.469,4.408,2.084,6.184,2.5,9.934-1.863,15.287-2.83a.511.511,0,0,1,.59-.415C485.541,151.886,489.16,152.962,490.5,150.329Zm-.372,32.195c1.863-6.446.658-12.259-3.619-18.355-2.5-3.553-3.949-6.6-3-10.7a16.572,16.572,0,0,0-3.16.967.786.786,0,0,1-.175.394c-.219.265-.394.527-.571.789-.328,6.1-.022,9.737,4.365,14.651a31.913,31.913,0,0,1,4.54,5.9A12.656,12.656,0,0,1,490.126,182.524Zm-6.58-35.77c.549-14.3-1.338-32.722-19.827-32.853-8.005-.066-16.558,2.631-20.747,9.956-4.034,7.085-4.343,15.484-2.983,23.293a.793.793,0,0,1,.461-.066C455.056,149.409,469.027,149.846,483.546,146.754Zm-14.585,33.907c-1.207-8.465,7.085-15.176,5.79-23.73v-.066a10.525,10.525,0,0,1-4.758.571c-2.193-.265-3.378-1.163-5.309-1.931a16.691,16.691,0,0,1,2.281,11.646c-1.314,8.817-3.75,14.364,1.076,23.094,3.4,6.14,7.719,11.6,5.7,18.18,3.685-6.118,4.275-12.829-.461-19.145C471.264,186.583,469.444,184.039,468.961,180.661Zm-9.3-2.346c.088-7.809-6.866-16.866-.857-23.4-.724.066-1.469.153-2.237.221a14.035,14.035,0,0,1-7.7-.33c-.68,9.079,6.864,14.76,7.129,23.4.219,8.093-13.138,18.707-6.536,26.691C447.075,195.069,459.552,188.227,459.663,178.315Zm-26.8-.308c10.966-1.754,13.621-13.881,13.313-24.1-.328-.131-.658-.262-1.008-.4a13.036,13.036,0,0,0-4.408-.855C444.77,161.449,441.153,173.2,432.861,178.006Z" transform="translate(0 0)"/>
    <path id="Path_415" data-name="Path 415" class="cls-2" d="M485.1,128.023c1.756.811,5.856,1.994,4.408,4.8-1.338,2.633-4.957,1.557-7.216,1.295a.511.511,0,0,0-.59.415c-5.353.966-9.1,5.331-15.287,2.83-1.469-.614-2.83-1.754-4.408-2.084-1.885-.415-3.772.308-5.591.945a.535.535,0,0,0-.374-.022c-4.408.921-7.017,0-11.01-1.623a15.826,15.826,0,0,0-3.376-1.316c-3.313-.636-6.361.459-9.65.241-2.062-1.03-4.08-2.808-1.975-5.11,1.819-1.975,4.8-1.732,7.282-1.491.175,1.12.394,2.237.68,3.357a.474.474,0,0,0,.59.372.659.659,0,0,0,.483.4c14.585,3.838,29.63,3.442,44.324.459a.94.94,0,0,0,.768-.7,1.149,1.149,0,0,0,.789-1.074c.044-.571.044-1.163.066-1.756A.27.27,0,0,0,485.1,128.023Z" transform="translate(0.994 17.504)"/>
    <path id="Path_416" data-name="Path 416" class="cls-3" d="M458.719,141.663c4.277,6.1,5.482,11.909,3.619,18.355a12.656,12.656,0,0,0-1.625-6.359,31.913,31.913,0,0,0-4.54-5.9c-4.386-4.913-4.693-8.554-4.365-14.651.177-.262.352-.525.571-.789a.786.786,0,0,0,.175-.394,16.572,16.572,0,0,1,3.16-.967C454.77,135.061,456.217,138.109,458.719,141.663Z" transform="translate(27.788 22.506)"/>
    <path id="Path_417" data-name="Path 417" class="cls-3" d="M457.769,112.867c18.489.131,20.376,18.554,19.827,32.853-14.52,3.092-28.49,2.655-43.1.33a.793.793,0,0,0-.461.066c-1.36-7.809-1.052-16.208,2.983-23.293C441.211,115.5,449.763,112.8,457.769,112.867Zm15.023,29.914a.925.925,0,0,0,1.778-.5c-.724-3.862-6.689-3.4-6.888.5-.044.746,1.01.811,1.229.177A2.009,2.009,0,0,1,472.792,142.781Zm-27.874-.044c.437.571,1.336-.044,1.161-.68a4.1,4.1,0,0,0-4.231-2.983,2.886,2.886,0,0,0-2.48,3.619c.175.549,1.12.483,1.054-.153a1.785,1.785,0,0,1,2.237-1.776C443.689,141.005,444.3,141.969,444.918,142.737Z" transform="translate(5.951 1.035)"/>
    <path id="Path_418" data-name="Path 418" class="cls-1" d="M455.918,127.766a.925.925,0,0,1-1.778.5,2.009,2.009,0,0,0-3.881.177c-.219.634-1.273.569-1.229-.177C449.229,124.366,455.194,123.9,455.918,127.766Z" transform="translate(24.602 15.546)"/>
    <path id="Path_419" data-name="Path 419" class="cls-3" d="M455,133.318c1.295,8.554-7,15.265-5.79,23.73.483,3.378,2.3,5.922,4.321,8.62,4.736,6.315,4.146,13.026.461,19.145,2.016-6.578-2.3-12.04-5.7-18.18-4.826-8.729-2.39-14.277-1.076-23.094a16.691,16.691,0,0,0-2.281-11.646c1.931.768,3.116,1.666,5.309,1.931a10.525,10.525,0,0,0,4.758-.571Z" transform="translate(19.747 23.613)"/>
    <path id="Path_420" data-name="Path 420" class="cls-3" d="M448.314,131.68c-6.009,6.536.945,15.593.857,23.4-.112,9.912-12.589,16.754-10.2,26.582-6.6-7.984,6.755-18.6,6.536-26.691-.265-8.642-7.809-14.323-7.129-23.4a14.035,14.035,0,0,0,7.7.33C446.845,131.833,447.59,131.746,448.314,131.68Z" transform="translate(10.492 23.232)"/>
    <path id="Path_421" data-name="Path 421" class="cls-1" d="M442.86,127.85c.175.636-.724,1.251-1.161.68-.614-.768-1.229-1.732-2.259-1.972a1.785,1.785,0,0,0-2.237,1.776c.066.636-.879.7-1.054.153a2.886,2.886,0,0,1,2.48-3.619A4.1,4.1,0,0,1,442.86,127.85Z" transform="translate(9.169 15.241)"/>
    <path id="Path_422" data-name="Path 422" class="cls-3" d="M443.7,131.839c.308,10.221-2.346,22.348-13.313,24.1,8.292-4.8,11.909-16.558,7.9-25.353a13.036,13.036,0,0,1,4.408.855C443.038,131.576,443.369,131.708,443.7,131.839Z" transform="translate(2.477 22.066)"/>
  </g>
</svg>
