<svg xmlns="http://www.w3.org/2000/svg" width="100" height="98.72" viewBox="0 0 100 98.72">
  <defs>
    <style>
      .cls-1 {
        fill: #afafaf;
      }

      .cls-2 {
        fill: #222221;
      }

      .cls-3 {
        fill: #dca1a1;
      }

      .cls-4 {
        fill: #6f6f6f;
      }
    </style>
  </defs>
  <g id="Group_17" data-name="Group 17" transform="translate(-73.738 -184.1)">
    <path id="Path_112" data-name="Path 112" class="cls-1" d="M170.59,201.813c1.007,4.444.648,12.642-5.047,13.491a13.9,13.9,0,0,1-2.481-.8,1,1,0,0,0-1,1.722c1.564,1.094-.468,2.769-1.586,3.038a3.228,3.228,0,0,1-2.927-.873.814.814,0,0,0-1.274.984c.069.111.158.2.225.29a4.42,4.42,0,0,1-1.944,1.14,3.551,3.551,0,0,1-2.234-.18,38.185,38.185,0,0,0-.871-10.767c-.245-1.183-2.011-.67-1.786.492a47.791,47.791,0,0,1,.826,10.074.786.786,0,0,0-.089,1.14,20.015,20.015,0,0,1-7.6,14.475c-5.5,4.535-15.482,4.824-22.073,4.357-8.533-.6-15.324-1.7-20.953-8.468-5.564-6.724-4.827-13.023-4.4-21.267a.354.354,0,0,0-.693-.089,34.531,34.531,0,0,0-1.3,9.4,11.05,11.05,0,0,1-1.586-2.21c.022-.022.045-.047.045-.069a.857.857,0,0,0-1.475-.871,2.936,2.936,0,0,1-3.508.782c-.826-.49-.557-.871-.267-1.63.022-.089.067-.178.089-.245a4.6,4.6,0,0,0,.915-1.764.923.923,0,0,0-.356-.962.818.818,0,0,0-1.408.045A6.047,6.047,0,0,1,83.2,215.93c-.27.089-.559.178-.849.245a.842.842,0,0,0-.4-.178c-10.074-1.272-7.909-12.956-5.072-18.54a21.619,21.619,0,0,1,8.355-8.869c7.618-4.334,16.219-1.5,21.447,4.891a12.041,12.041,0,0,0-3.708,4.067.3.3,0,0,0,.468.356c3.508-3.172,7.194-4.891,11.3-7.1a17.83,17.83,0,0,0,6.724-5.584,7.365,7.365,0,0,1-.76,3.394c-.2.448.045,1.183.626,1.094a11.706,11.706,0,0,0,6.546-2.924,9.789,9.789,0,0,1-1.742,3.931c-.448.648.579,1.452,1.116.849.47.178.96.356,1.43.515a9.593,9.593,0,0,1-6.9,2.924.906.906,0,0,0,0,1.811,9.818,9.818,0,0,0,8.533-4.691.648.648,0,0,0-.379-.94l-2.145-.4a9.5,9.5,0,0,0,.737-1.3c1.809.938,3.709,1.63,5.45,2.682a25.651,25.651,0,0,1,5.383,4.579c.737.782,1.809-.247,1.341-1.1,5.784-7.281,15.48-9.7,23.322-3.931A17.087,17.087,0,0,1,170.59,201.813Zm-7.1,9.448c3.686-1.675,4.557-6.165,3.305-9.7-3.484-9.718-16.039-8.644-22.585-3.194a.461.461,0,0,0,.225.782.418.418,0,0,0,0,.67,11.807,11.807,0,0,1,4.265,6.366.61.61,0,0,0,.6.448.779.779,0,0,0,.247.223C153.254,208.827,158.952,213.3,163.487,211.262ZM144.1,224.329a.718.718,0,0,0,1.385-.379c-.626-3.842-6.546-3.686-6.947.2-.067.76,1,.76,1.252.156C140.657,222.118,143.314,221.984,144.1,224.329Zm-22.071,9.607c6.054-.581,10.477-2.637,9.562-9.4-.693-5.205-4.2-11.64-10.1-11.751a.76.76,0,0,0-.646.312c-5,.9-7.575,8.243-8.58,12.533-1.252,5.294,3.374,8.065,7.954,8.332-.045.938-.067,1.9-.067,2.838a18.628,18.628,0,0,1-5.831-1.519c-.492-.223-1.118.4-.626.782,4.29,3.417,10.789,3.194,15.3.29a.782.782,0,0,0-.8-1.341,14.144,14.144,0,0,1-6.566,1.855c0-.982,0-1.944-.069-2.9A3.341,3.341,0,0,1,122.025,233.936ZM105.315,223.3a.678.678,0,0,0,1.252-.336c0-1.809-1.944-3.261-3.619-3.372a3.924,3.924,0,0,0-4.067,3.083c-.134.715.873,1.3,1.274.537a2.975,2.975,0,0,1,2.593-1.922C104.108,221.313,104.667,222.32,105.315,223.3Zm-3.575-24.864a.835.835,0,0,0,0-.334c-2.769-12.13-18.05-6.68-22.719.893-2.279,3.686-2.279,8.733,2.167,10.745,4.914,2.256,10.433-1.116,14.879-3.06a.786.786,0,0,0,.379-1.027,23.7,23.7,0,0,1,5.094-6.546A.669.669,0,0,0,101.741,198.439Z" transform="translate(0.944 1.368)"/>
    <path id="Path_113" data-name="Path 113" class="cls-2" d="M169.792,194.6c4.156,5.116,7.6,24.461-3.686,23.59-.045,0-.045-.022-.067-.022a4.348,4.348,0,0,1-.537-.022c.292,2.9-4.354,5.809-7.17,3.82a5.07,5.07,0,0,1-5.317,1.944,21.333,21.333,0,0,1-13.09,17.246,45.519,45.519,0,0,1,8.667,16.888,10.922,10.922,0,0,1,8.243,4.4c4.78,6.366,1.319,13.694-5,17.09-4.98,2.679-16.262,5.294-19.525-1.274a.9.9,0,0,1-.067-.537,11.422,11.422,0,0,1-.737-1.341,6.143,6.143,0,0,1-6.41-2.234,5.65,5.65,0,0,1-2.1,2.437c-1.2.693-3.083.782-4.043-.359a5.888,5.888,0,0,1-2.771,3.619.431.431,0,0,1-.2.4c-6.457,4.2-15.571,3.283-20.373-2.994-3.954-5.183-3.575-12.6,1.7-16.779a9.881,9.881,0,0,1,3.149-1.63.425.425,0,0,1-.245-.379c-.089-6.39,2.838-13.07,7.1-17.828-7.528-3.305-12.42-9.137-12.956-17.783a.508.508,0,0,1-.468-.089,6.06,6.06,0,0,1-2.056-2.568,5.354,5.354,0,0,1-4.735.47,2.146,2.146,0,0,1-1.677-1.789c-.96.492-2.412.984-3.261.4a.308.308,0,0,1-.089-.067c-.045-.045-.111-.067-.156-.111a.091.091,0,0,0-.022-.067c-12.8-2.145-8.243-19.705-1.766-26.541,7.662-8.041,22.652-9.092,28.483,1.653,4.669-2.994,10.7-4.488,13.582-9.738.4-.715,1.408-.089,1.071.624v.025a7.129,7.129,0,0,1,.114,4.265,12.389,12.389,0,0,0,5.762-3.642.671.671,0,0,1,1.14.47,9.378,9.378,0,0,1-.537,3.931c4.134.223,8.332,3.038,11.148,6.054C147.34,185.755,162.085,185.084,169.792,194.6Zm-3.305,22.071c5.7-.849,6.054-9.047,5.047-13.491a17.087,17.087,0,0,0-6.566-10.1c-7.842-5.764-17.538-3.35-23.322,3.931.468.849-.6,1.878-1.341,1.1a25.651,25.651,0,0,0-5.383-4.579c-1.742-1.051-3.642-1.744-5.45-2.682a9.5,9.5,0,0,1-.737,1.3l2.145.4a.648.648,0,0,1,.379.94,9.818,9.818,0,0,1-8.533,4.691.906.906,0,0,1,0-1.811,9.593,9.593,0,0,0,6.9-2.924c-.47-.158-.96-.336-1.43-.515-.537.6-1.564-.2-1.116-.849a9.79,9.79,0,0,0,1.742-3.931,11.706,11.706,0,0,1-6.546,2.924c-.581.089-.826-.646-.626-1.094a7.365,7.365,0,0,0,.76-3.394,17.83,17.83,0,0,1-6.724,5.584c-4.109,2.212-7.8,3.931-11.3,7.1a.3.3,0,0,1-.468-.356,12.041,12.041,0,0,1,3.708-4.067c-5.228-6.388-13.83-9.226-21.447-4.891a21.619,21.619,0,0,0-8.355,8.869c-2.838,5.584-5,17.269,5.072,18.54a.842.842,0,0,1,.4.178c.29-.067.579-.156.849-.245a6.047,6.047,0,0,0,2.635-2.882.818.818,0,0,1,1.408-.045.923.923,0,0,1,.356.962,4.6,4.6,0,0,1-.915,1.764c-.022.067-.067.156-.089.245-.29.76-.559,1.14.267,1.63a2.936,2.936,0,0,0,3.508-.782.857.857,0,0,1,1.475.871c0,.022-.022.047-.045.069a11.05,11.05,0,0,0,1.586,2.21,34.531,34.531,0,0,1,1.3-9.4.354.354,0,0,1,.693.089c-.425,8.243-1.163,14.542,4.4,21.267,5.628,6.769,12.42,7.865,20.953,8.468,6.591.468,16.576.178,22.073-4.357a20.015,20.015,0,0,0,7.6-14.475.786.786,0,0,1,.089-1.14,47.791,47.791,0,0,0-.826-10.074c-.225-1.163,1.541-1.675,1.786-.492a38.185,38.185,0,0,1,.871,10.767,3.551,3.551,0,0,0,2.234.18,4.42,4.42,0,0,0,1.944-1.14c-.067-.089-.156-.178-.225-.29a.814.814,0,0,1,1.274-.984,3.228,3.228,0,0,0,2.927.873c1.118-.27,3.149-1.944,1.586-3.038a1,1,0,0,1,1-1.722A13.9,13.9,0,0,0,166.486,216.672Zm-14.923,60.809c5.562-3.305,7.506-10.3,2.39-15.057-4.691-4.357-11.059-2.256-15.435,1.252-4.579,3.662-7.417,8.219-4.446,13.983a.93.93,0,0,1,.089.223C137.87,282.775,147.34,280.027,151.563,277.481Zm-17.447-13.115a19.437,19.437,0,0,1,12.353-6.277,58.733,58.733,0,0,0-7.8-16.375,32.055,32.055,0,0,1-4.379,1.319c0,.022,0,.022.022.045A38.717,38.717,0,0,1,134.117,264.366Zm-1.989,2.771c1.989-7.952,2.481-15.547.581-23.634v-.134a46.015,46.015,0,0,1-8.266.6c-.29,0-.581,0-.893-.02a55.473,55.473,0,0,1-8.691-.962c-.022.067,0,.134-.045.2-2.769,7.37-2.1,13.58,1.118,20.574a11.916,11.916,0,0,1,.849,1,14.483,14.483,0,0,1,2.368,10.722.49.49,0,0,1,.178-.022,2.919,2.919,0,0,0,3.352-.557c.849-.873.938-2.078,1.653-2.971a.874.874,0,0,1,.245-.158c-.693-8.912-.67-18.028-.893-26.984a.726.726,0,0,1,.76-.76.778.778,0,0,1,.826.76c.4,8.867,1.14,18.273-.045,27.12a.481.481,0,0,1,.2.312c.022.089,0,.178.022.267a5.516,5.516,0,0,0,5.475,2.189A10.226,10.226,0,0,1,132.127,267.137Zm-17.491,12.019c6.568-4.468,1.608-13.649-3.216-16.531-5.094-3.038-11.93-3.573-15.19,2.323-2.459,4.468-.76,9.718,2.9,12.89,4.446,3.842,10.054,3.33,15.259,1.833A.6.6,0,0,1,114.636,279.156Zm-1.608-17.872a22.442,22.442,0,0,1,.067-18.719,33.07,33.07,0,0,1-4.2-1.3c-4.288,5.361-6.343,10.678-7.707,17.335v.022C105.1,257.689,109.542,258.938,113.028,261.284Z" transform="translate(0 0)"/>
    <path id="Path_114" data-name="Path 114" class="cls-2" d="M128.468,196.586c1.252,3.53.381,8.021-3.305,9.7-4.535,2.034-10.232-2.434-13.939-4.4a.779.779,0,0,1-.247-.223.61.61,0,0,1-.6-.448,11.807,11.807,0,0,0-4.265-6.366.418.418,0,0,1,0-.67.461.461,0,0,1-.225-.782C112.429,187.941,124.984,186.868,128.468,196.586Zm-8.152,7.707c7.818,2.234,7.907-6.925,3.8-10.656-5.183-4.713-12.266-2.546-17.649.492.022.022.045,0,.067.022a11.664,11.664,0,0,1,4.893,5.987.979.979,0,0,1,.782.067C114.73,201.524,117.545,203.511,120.316,204.292Z" transform="translate(39.268 6.348)"/>
    <path id="Path_115" data-name="Path 115" class="cls-3" d="M123.71,192.743c4.109,3.731,4.02,12.89-3.8,10.656-2.771-.782-5.586-2.769-8.11-4.087a.979.979,0,0,0-.782-.067,11.664,11.664,0,0,0-4.893-5.987c-.022-.022-.045,0-.067-.022C111.444,190.2,118.527,188.03,123.71,192.743Z" transform="translate(39.671 7.242)"/>
    <path id="Path_116" data-name="Path 116" class="cls-1" d="M121.379,220.616c5.116,4.758,3.172,11.751-2.39,15.057-4.223,2.546-13.694,5.294-17.4.4a.93.93,0,0,0-.089-.223c-2.971-5.764-.134-10.322,4.446-13.983C110.32,218.36,116.688,216.259,121.379,220.616Zm-2.212,7.172a2.266,2.266,0,0,0,1.586-3.016,2.166,2.166,0,0,0-2.927-1.1l-.022.022a1.856,1.856,0,0,0-1.405,2.167A2.326,2.326,0,0,0,119.167,227.788Zm-.178,4.936c2.971.871,3.887-3.753,1.049-4.379a.641.641,0,0,0-.737.559,2.1,2.1,0,0,0-1.72,1.116A1.973,1.973,0,0,0,118.989,232.724Zm-3.239-9.517c.8-1.16-.359-2.212-1.3-2.724h-.045a1.463,1.463,0,0,0-2.189.29,1.827,1.827,0,0,0,.581,2.57C113.606,223.9,115.125,224.146,115.751,223.206Zm-2.323,12.778c6.633-4.557-3.263-13.783-6.769-10.163a.582.582,0,0,0-.537.045C99.353,230.02,107.238,240.208,113.427,235.985Z" transform="translate(32.574 41.808)"/>
    <path id="Path_117" data-name="Path 117" class="cls-2" d="M111.884,221.865a2.266,2.266,0,0,1-1.586,3.016,2.326,2.326,0,0,1-2.769-1.922,1.856,1.856,0,0,1,1.405-2.167l.022-.022A2.166,2.166,0,0,1,111.884,221.865Zm-1.452,1.541c.873-.851-.089-1.744-1.049-1.588a.526.526,0,0,1-.448-.111c-.535.158-.245,1.229-.045,1.5A1.015,1.015,0,0,0,110.432,223.406Z" transform="translate(41.443 44.716)"/>
    <path id="Path_118" data-name="Path 118" class="cls-2" d="M110.6,222.743c2.838.626,1.922,5.25-1.049,4.379a1.973,1.973,0,0,1-1.408-2.7,2.1,2.1,0,0,1,1.72-1.116A.641.641,0,0,1,110.6,222.743Zm-.29,3.149c1.252-.134.67-1.519-.067-1.942C109.063,223.951,108.8,226.073,110.314,225.893Z" transform="translate(42.008 47.409)"/>
    <path id="Path_119" data-name="Path 119" class="cls-3" d="M109.531,223.277c.737.423,1.319,1.809.067,1.942C108.079,225.4,108.346,223.277,109.531,223.277Z" transform="translate(42.725 48.083)"/>
    <path id="Path_120" data-name="Path 120" class="cls-3" d="M108.763,221.171c.96-.156,1.922.737,1.049,1.588a1.015,1.015,0,0,1-1.541-.2c-.2-.267-.49-1.339.045-1.5A.526.526,0,0,0,108.763,221.171Z" transform="translate(42.063 45.362)"/>
    <path id="Path_121" data-name="Path 121" class="cls-2" d="M108.051,219.411c.938.512,2.1,1.564,1.3,2.724-.626.94-2.145.693-2.949.136a1.827,1.827,0,0,1-.581-2.57,1.463,1.463,0,0,1,2.189-.29Zm-.178,2.212c.156-.2.334-.4.49-.6,0-.223-.624-.581-.826-.715a.491.491,0,0,1-.245-.334c-.334,0-.515.379-.537.691-.045.448.111.6.515.8A1.313,1.313,0,0,0,107.873,221.623Z" transform="translate(38.977 42.879)"/>
    <path id="Path_122" data-name="Path 122" class="cls-3" d="M107.673,220.505c-.156.2-.334.4-.49.6a1.313,1.313,0,0,1-.6-.158c-.4-.2-.559-.356-.515-.8.022-.312.2-.691.537-.691a.491.491,0,0,0,.245.334C107.05,219.924,107.673,220.282,107.673,220.505Z" transform="translate(39.667 43.393)"/>
    <path id="Path_123" data-name="Path 123" class="cls-2" d="M104.871,222.055c3.506-3.619,13.4,5.606,6.769,10.163-6.19,4.223-14.075-5.965-7.306-10.119A.582.582,0,0,1,104.871,222.055Zm4.646,9.159c6.3-1.764-.871-11.036-4.112-7.306a.638.638,0,0,1-1-.022C101.833,227.172,105.228,232.421,109.518,231.214Z" transform="translate(34.361 45.574)"/>
    <path id="Path_124" data-name="Path 124" class="cls-2" d="M110.2,204.149a.718.718,0,0,1-1.385.379c-.782-2.345-3.439-2.212-4.31-.022-.247.6-1.319.6-1.252-.156C103.656,200.462,109.576,200.307,110.2,204.149Z" transform="translate(36.223 21.17)"/>
    <path id="Path_125" data-name="Path 125" class="cls-3" d="M104.426,222.917c3.241-3.731,10.411,5.542,4.112,7.306-4.29,1.207-7.684-4.043-5.116-7.328A.638.638,0,0,0,104.426,222.917Z" transform="translate(35.341 46.565)"/>
    <path id="Path_126" data-name="Path 126" class="cls-1" d="M113.2,226.342a19.436,19.436,0,0,0-12.353,6.277,38.717,38.717,0,0,0,.2-21.289c-.022-.022-.022-.022-.022-.045a32.056,32.056,0,0,0,4.379-1.319A58.733,58.733,0,0,1,113.2,226.342Z" transform="translate(33.27 31.747)"/>
    <path id="Path_127" data-name="Path 127" class="cls-1" d="M104.769,210.844c1.9,8.087,1.408,15.683-.581,23.634a10.226,10.226,0,0,0-1.205,7.551,5.516,5.516,0,0,1-5.475-2.189c-.022-.089,0-.178-.022-.267a.481.481,0,0,0-.2-.312c1.185-8.847.448-18.253.045-27.12a.778.778,0,0,0-.826-.76v-.069a46.015,46.015,0,0,0,8.266-.6Z" transform="translate(27.94 32.659)"/>
    <path id="Path_128" data-name="Path 128" class="cls-2" d="M110.9,209.342c.915,6.767-3.508,8.823-9.562,9.4a3.341,3.341,0,0,0-.47.022c.069.96.069,1.922.069,2.9a14.143,14.143,0,0,0,6.566-1.855.782.782,0,0,1,.8,1.341c-4.513,2.9-11.012,3.127-15.3-.29-.492-.381.134-1,.626-.782a18.628,18.628,0,0,0,5.831,1.519c0-.938.022-1.9.067-2.838-4.579-.267-9.206-3.038-7.954-8.332,1-4.29,3.575-11.638,8.58-12.533a.761.761,0,0,1,.646-.312C106.7,197.7,110.2,204.137,110.9,209.342Zm-3.909,5.762c2.524-1.586,2.457-4.02,1.831-6.747-.915-4.087-3.464-8.577-8.021-9.114-.022,0-.022-.022-.045-.022-3.642,1.274-5.228,5.9-6.41,9.159-.893,2.437-1.878,4.49.423,6.791,1.5,1.5,3.978,1.744,5.92,1.675A12.527,12.527,0,0,0,106.988,215.1Z" transform="translate(21.634 16.558)"/>
    <path id="Path_129" data-name="Path 129" class="cls-4" d="M107.726,207.46c.626,2.726.693,5.161-1.831,6.747a12.527,12.527,0,0,1-6.3,1.742c-1.942.069-4.424-.178-5.92-1.675-2.3-2.3-1.316-4.354-.423-6.791,1.183-3.261,2.769-7.885,6.41-9.159.022,0,.022.022.045.022C104.262,198.882,106.81,203.372,107.726,207.46Z" transform="translate(22.727 17.456)"/>
    <path id="Path_130" data-name="Path 130" class="cls-1" d="M102.9,239.334a.874.874,0,0,0-.245.158c-.715.893-.8,2.1-1.653,2.971a2.919,2.919,0,0,1-3.352.557.49.49,0,0,0-.178.022A14.483,14.483,0,0,0,95.1,232.32a11.917,11.917,0,0,0-.849-1c-3.218-6.994-3.887-13.2-1.118-20.574.045-.069.022-.136.045-.2a55.473,55.473,0,0,0,8.691.962c.312.02.6.02.893.02v.069a.726.726,0,0,0-.76.76C102.228,221.306,102.206,230.423,102.9,239.334Z" transform="translate(21.678 32.449)"/>
    <path id="Path_131" data-name="Path 131" class="cls-1" d="M99.663,220.58c4.824,2.882,9.785,12.063,3.216,16.531a.6.6,0,0,0-.245.515c-5.205,1.5-10.814,2.009-15.259-1.833-3.662-3.172-5.361-8.422-2.9-12.89C87.733,217.007,94.569,217.542,99.663,220.58Zm3.038,13.9a6.632,6.632,0,0,0-.336-8.4.3.3,0,0,0-.111-.18c-.045-.045-.089-.045-.134-.089-.045-.022-.067-.067-.089-.089a.511.511,0,0,0-.359-.156,7.976,7.976,0,0,0-9.941,1.72c-2.657,3.016-2.7,7.036,1.118,9C96.021,237.915,100.467,237.47,102.7,234.476ZM94.28,223.843c2.858-.158,2.323-4.49-.247-4,0-.022,0-.022-.022-.022s-.045.022-.067.022h-.022a1.806,1.806,0,0,0-1.786,1.922A1.977,1.977,0,0,0,94.28,223.843Zm-4.067,1.9a2.31,2.31,0,1,0-3.528-2.882.491.491,0,0,0-.022.178,2.063,2.063,0,0,0,0,2.256A2.448,2.448,0,0,0,90.212,225.741Zm-1.294,4.6c1.428-2.056-1.5-4.379-3.063-2.457a.407.407,0,0,0-.29.178C84.047,230.12,87.353,232.576,88.918,230.342Z" transform="translate(11.757 42.045)"/>
    <path id="Path_132" data-name="Path 132" class="cls-2" d="M98.768,222.679a6.632,6.632,0,0,1,.336,8.4c-2.234,2.994-6.68,3.439-9.852,1.809-3.82-1.967-3.775-5.987-1.118-9a7.976,7.976,0,0,1,9.941-1.72.511.511,0,0,1,.359.156c.022.022.045.067.089.089.045.045.089.045.134.089A.3.3,0,0,1,98.768,222.679Zm-.8,7.393a5.46,5.46,0,0,0-.468-6.836.592.592,0,0,1-.158-.579,7.691,7.691,0,0,0-7.259,1.361,6.911,6.911,0,0,0-2.011,2.882c-.8,2.39.4,4.156,2.659,4.983C93.206,232.8,96.356,232.306,97.964,230.072Z" transform="translate(15.354 45.442)"/>
    <path id="Path_133" data-name="Path 133" class="cls-3" d="M96.631,222.583a5.46,5.46,0,0,1,.468,6.836c-1.608,2.234-4.758,2.726-7.237,1.811-2.256-.826-3.464-2.593-2.659-4.983a6.911,6.911,0,0,1,2.011-2.882A7.691,7.691,0,0,1,96.473,222,.592.592,0,0,0,96.631,222.583Z" transform="translate(16.219 46.095)"/>
    <path id="Path_134" data-name="Path 134" class="cls-1" d="M97.969,211.063a22.442,22.442,0,0,0-.067,18.719c-3.486-2.345-7.932-3.595-11.841-2.657V227.1c1.363-6.658,3.419-11.974,7.707-17.335A33.068,33.068,0,0,0,97.969,211.063Z" transform="translate(15.125 31.502)"/>
    <path id="Path_135" data-name="Path 135" class="cls-2" d="M93.143,204.026a.678.678,0,0,1-1.252.336c-.648-.982-1.207-1.989-2.568-2.011a2.975,2.975,0,0,0-2.593,1.922c-.4.76-1.408.178-1.274-.537a3.924,3.924,0,0,1,4.067-3.083C91.2,200.765,93.143,202.217,93.143,204.026Z" transform="translate(14.368 20.309)"/>
    <path id="Path_136" data-name="Path 136" class="cls-2" d="M89.174,219.045c2.57-.49,3.1,3.842.247,4a1.977,1.977,0,0,1-2.145-2.078,1.806,1.806,0,0,1,1.786-1.922h.022c.022,0,.045-.022.067-.022S89.174,219.023,89.174,219.045Zm.18,2.9c1.586-.111.849-1.831-.18-2.234C88.125,220.23,87.813,222.061,89.354,221.95Z" transform="translate(16.615 42.842)"/>
    <path id="Path_137" data-name="Path 137" class="cls-3" d="M88.614,219.325c1.029.4,1.766,2.123.18,2.234C87.253,221.67,87.565,219.84,88.614,219.325Z" transform="translate(17.175 43.233)"/>
    <path id="Path_138" data-name="Path 138" class="cls-2" d="M100.082,194.929a.835.835,0,0,1,0,.334.669.669,0,0,1-.2.67,23.7,23.7,0,0,0-5.094,6.546.786.786,0,0,1-.379,1.027c-4.446,1.944-9.965,5.317-14.879,3.06-4.446-2.011-4.446-7.058-2.167-10.745C82.032,188.249,97.313,182.8,100.082,194.929Zm-5.807,6.925a15.36,15.36,0,0,1,4.354-6.791c-3.239-9.2-14.453-4.669-18.674,1-1.989,2.659-2.882,5.049-.2,7.484,2.034,1.809,3.53,1.967,6.121,1.319a55.932,55.932,0,0,0,7.842-3.038A.617.617,0,0,1,94.275,201.854Z" transform="translate(2.602 4.544)"/>
    <path id="Path_139" data-name="Path 139" class="cls-2" d="M88.488,220.354a2.4,2.4,0,0,1,.067,3.53,2.448,2.448,0,0,1-3.55-.448,2.063,2.063,0,0,1,0-2.256.49.49,0,0,1,.022-.178A2.388,2.388,0,0,1,88.488,220.354Zm-.67,2.3a1.151,1.151,0,0,0-.423-1.564,1.136,1.136,0,0,0-.849-.045.486.486,0,0,1-.2.336C84.982,222.276,87.08,224,87.817,222.654Z" transform="translate(13.415 43.901)"/>
    <path id="Path_140" data-name="Path 140" class="cls-3" d="M86.719,220.477a1.151,1.151,0,0,1,.423,1.564c-.737,1.341-2.835-.379-1.475-1.272a.486.486,0,0,0,.2-.336A1.136,1.136,0,0,1,86.719,220.477Z" transform="translate(14.09 44.515)"/>
    <path id="Path_141" data-name="Path 141" class="cls-2" d="M84.831,223.031c1.566-1.922,4.49.4,3.063,2.457-1.566,2.234-4.871-.223-3.352-2.279A.407.407,0,0,1,84.831,223.031Zm2.145,1.675c.559-1.071-.76-1.564-1.586-1.183v.045a1.271,1.271,0,0,0,.045,1.316A.873.873,0,0,0,86.976,224.705Z" transform="translate(12.781 46.9)"/>
    <path id="Path_142" data-name="Path 142" class="cls-3" d="M84.8,222.926c.826-.381,2.145.111,1.586,1.183a.873.873,0,0,1-1.541.178,1.271,1.271,0,0,1-.045-1.316Z" transform="translate(13.374 47.496)"/>
    <path id="Path_143" data-name="Path 143" class="cls-3" d="M97.406,193.961a15.36,15.36,0,0,0-4.354,6.791.617.617,0,0,0-.559-.022,55.928,55.928,0,0,1-7.842,3.038c-2.59.648-4.087.49-6.121-1.319-2.68-2.434-1.786-4.824.2-7.484C82.952,189.292,94.167,184.757,97.406,193.961Z" transform="translate(3.826 5.646)"/>
  </g>
</svg>
