<svg xmlns="http://www.w3.org/2000/svg" width="100" height="98.488" viewBox="0 0 100 98.488">
  <defs>
    <style>
      .cls-1 {
        fill: #222221;
      }

      .cls-2 {
        fill: #cf752f;
      }

      .cls-3 {
        fill: #da9a36;
      }

      .cls-4 {
        fill: #b94e26;
      }

      .cls-5 {
        fill: #dca1a1;
      }

      .cls-6 {
        fill: #eccaa7;
      }
    </style>
  </defs>
  <g id="Group_16" data-name="Group 16" transform="translate(-154.774 -183.72)">
    <path id="Path_51" data-name="Path 51" class="cls-1" d="M253.792,237.972c1.867,5.054,1.613,13.76-5.606,14.056a.663.663,0,0,1-.489-.169.581.581,0,0,1-.487.169c0,.064.021.106,0,.148A15.687,15.687,0,0,1,234.085,263.3a9.839,9.839,0,0,1-2.251,4.842c4.374,1.74,5.818,7.135,1.721,10.277a13.389,13.389,0,0,1-15.672.169c0-.021,0-.021-.021-.042-3.631,6.775-13.718,2.74-18.136-.913a.923.923,0,0,1-.913.212c-4.692,3.695-14.545,5.988-18.028-.085-1.507-2.655-.318-5.755,1.891-7.58a9.344,9.344,0,0,1,2.867-1.615c-.489-3.737-1.021-7.389-1.658-11.1a.724.724,0,0,1,0-.214c-4.16,1.827-9.172,1.465-11.19-3.333a10.586,10.586,0,0,1,1.38-10.108,9.5,9.5,0,0,1-9.237-1.4c-3.229-2.634-4.459-7.836-2.145-11.425-6.159-2.888-9.578-12.869-7.114-18.943A15.538,15.538,0,0,1,172.675,203c-6.69-9.3,12.295-21.426,21.318-11.829,1.594-8.748,18.943-10.616,19.049-1.124a17.089,17.089,0,0,1,20.514,2.824c4.948,5.1,5.647,13.5,1.23,19.11,14.27,2.464,16.373,29.3.786,30.41a3.444,3.444,0,0,1,.637,3.163,14.525,14.525,0,0,1-2.145,5.289,20.8,20.8,0,0,1-3.1,3.885,9.312,9.312,0,0,1,2.57,3.546,16.859,16.859,0,0,0,6.646-3.142,20.634,20.634,0,0,0,3.885-4.715,4.973,4.973,0,0,1-.574-6.265c2.253-3.377,7.177-3.227,9.343-6.709a.241.241,0,0,1,.447.148A.621.621,0,0,1,253.792,237.972Zm-5.839,12.337c5.67-1.105,5.67-6.817,4.755-11.382a8.368,8.368,0,0,1-3.354,2.74,15.609,15.609,0,0,0-3.718,2.208,3.951,3.951,0,0,0-.381,5.606.515.515,0,0,1,.275.318,4.635,4.635,0,0,0,1.848,1.042A.733.733,0,0,1,247.953,250.309Zm-1.721,1.486a5.909,5.909,0,0,1-1.1-.531c-1.785,4.247-6.966,7.241-11.319,7.751a9.7,9.7,0,0,1,.383,3.483A18.7,18.7,0,0,0,246.231,251.795Zm-12.168-11.361c15.5-.233,11.892-24.208-.169-27.287a.641.641,0,0,1-.426-.785.767.767,0,0,1-.212-1.02,14.212,14.212,0,0,0,1.613-12.824,12.954,12.954,0,0,0-3.163-4.736c-5.117-4.969-12.657-4.99-18.771-2.145a.191.191,0,0,0-.021.106c-.169.978-1.785.743-1.7-.233.745-10.256-14.035-5.99-15.989,1.167.021.044.042.064.064.108.637.955-.87,1.8-1.529.891-7.156-9.9-26.586-.127-19.068,9.938.148.064.318.106.466.169.957.423.256,1.954-.7,1.656-6.625-2.081-15.373,1.232-17.349,8.494-1.04,3.843.489,8.748,3.078,12.358a13.954,13.954,0,0,0,4.141,4.014.624.624,0,0,1-.106,1.1c-1.507,3.313-1.148,7.22,1.869,9.6,2.994,2.378,7.177,2.1,10.4.36.042-.021.064,0,.106-.021.064-.042.106-.085.169-.127.743-.489,1.615.637.936,1.211-2.782,2.314-4.5,5.691-3.673,9.407,1.294,5.776,6.2,4.927,10.51,3.716a.078.078,0,0,0-.021-.064.562.562,0,0,1,1.084-.3c1.529,4.948,5.86,7.664,11,7.474,4.1-.148,10.576-2.166,12.509-6.328a8.329,8.329,0,0,1-.426-.764c-.447-.891.743-2.018,1.465-1.145,4.863,5.988,12.02,4.48,17.5.106,4.289-3.441,6.032-7.008,6.159-12.168A.99.99,0,0,1,234.064,240.434Zm-.572,35.76c2.145-2.909-.214-5.86-2.824-7.3a.463.463,0,0,1-.235-.447.668.668,0,0,1,.127-.51c3.186-3.822,2.613-8.727-.785-12.125a22.264,22.264,0,0,1-3.46,2.549c-3.4,2.018-7.923,3.057-11.7,2.06a.716.716,0,0,1-.127.254,11.209,11.209,0,0,0-2.06,8.156,7.81,7.81,0,0,1,3.25,1.294,7.351,7.351,0,0,1,2.293,2.7,5.86,5.86,0,0,1,2.187-2.356c2.251-1.359,4.692-.785,7.008.064.381.148.233.764-.193.637a7.341,7.341,0,0,0-5.562.489,5.058,5.058,0,0,0-2.337,3.716.723.723,0,0,1-.4.423,6.093,6.093,0,0,1-.426,2.018c.021,0,.063-.021.106,0a13.64,13.64,0,0,0,10.343,1.275A9.759,9.759,0,0,0,233.492,276.194Zm-20,3.864c4.2-1.592,4.29-6.646.637-8.812-2.464-1.486-4.884-1.169-7.561-.3-.658.214-1.126-.87-.489-1.145a12.909,12.909,0,0,1,5.075-1.084,9.523,9.523,0,0,1,2.124-8.748,8.788,8.788,0,0,1-3.375-2.5c-1.637,3.483-5.818,5.628-9.79,6.5a62.2,62.2,0,0,1-.064,12.57.563.563,0,0,1,.4.085C204.124,279.018,209.028,281.737,213.489,280.058Zm-15.034-3.589a103.777,103.777,0,0,0,.572-12.316,20.007,20.007,0,0,1-2.42.254c-4.565.129-9-2.037-11.041-5.945a28.109,28.109,0,0,1,1.1,9.748,11.462,11.462,0,0,1,7.135.637.332.332,0,0,1-.191.635c-3.015-.785-6.625-.828-9.237,1.19-2.272,1.764-4.459,4.969-.658,7.645a8.079,8.079,0,0,0,2.718.934C190.661,280.143,194.887,278.7,198.454,276.469Z" transform="translate(0 0)"/>
    <path id="Path_52" data-name="Path 52" class="cls-2" d="M205.486,209.795c.915,4.565.915,10.277-4.755,11.382a.733.733,0,0,0-.574.531,4.635,4.635,0,0,1-1.848-1.042.515.515,0,0,0-.275-.318,3.951,3.951,0,0,1,.381-5.606,15.609,15.609,0,0,1,3.718-2.208A8.368,8.368,0,0,0,205.486,209.795Z" transform="translate(47.222 29.131)"/>
    <path id="Path_53" data-name="Path 53" class="cls-3" d="M203.423,215.622a5.907,5.907,0,0,0,1.1.531,18.7,18.7,0,0,1-12.039,10.7,9.7,9.7,0,0,0-.383-3.483C196.457,222.863,201.638,219.869,203.423,215.622Z" transform="translate(41.706 35.642)"/>
    <path id="Path_54" data-name="Path 54" class="cls-4" d="M231.038,205.339c12.062,3.078,15.672,27.054.169,27.287a.99.99,0,0,0-.254,1.933c-.127,5.16-1.87,8.727-6.159,12.168-5.477,4.374-12.633,5.882-17.5-.106-.722-.872-1.912.254-1.465,1.145a8.339,8.339,0,0,0,.426.764c-1.933,4.162-8.41,6.18-12.509,6.328-5.139.191-9.47-2.526-11-7.474a.562.562,0,0,0-1.084.3.078.078,0,0,1,.021.064c-4.311,1.211-9.216,2.06-10.51-3.716-.83-3.716.891-7.093,3.673-9.407.68-.574-.193-1.7-.936-1.211-.064.042-.106.085-.169.127-.042.021-.064,0-.106.021-3.227,1.742-7.41,2.018-10.4-.36-3.017-2.38-3.377-6.286-1.869-9.6a.624.624,0,0,0,.106-1.1,13.954,13.954,0,0,1-4.141-4.014l5.926-.487a4.356,4.356,0,0,0,1.486,1.251c2.229,1.169,4.755.32,6.837-.743a.488.488,0,0,0,.148-.785c0-.042.042-.064.042-.106a20.142,20.142,0,0,1,1.87-7.008.831.831,0,0,0,.064-.3l2.761-.042a4.222,4.222,0,0,0,2.441,2.187.385.385,0,0,0-.212.233c-3.4,9.705.87,18.39,8.048,23.19-1.061.913-2.1,1.825-3.078,2.8-.68.658.318,1.594,1.018,1.021,1.148-.957,2.253-1.975,3.335-3.015a24.541,24.541,0,0,0,2.888,1.4,22.368,22.368,0,0,0-2.293,3.354.9.9,0,0,0,1.55.893c.828-1.126,1.592-2.316,2.378-3.462a8.515,8.515,0,0,0,.978.4.433.433,0,0,0,.508-.148,22.164,22.164,0,0,0,13.336-.764c8.516-3.229,14.312-9.47,16.245-16.373,1.783.106,3.568.191,5.371.32.891.085.913-1.423,0-1.4-1.7,0-3.4,0-5.1-.021a18.248,18.248,0,0,0,.362-2.4c1.846-.169,3.673-.4,5.5-.7.978-.169.574-1.7-.423-1.507-1.658.341-3.335.574-5.012.786.064-6.2-3.015-12.506-9.981-17.37a5.98,5.98,0,0,0,.785-5.139l3.015-.148a.352.352,0,0,0,.275.233,18.735,18.735,0,0,1,8.516,3.525c.637.447,1.423-.574.851-1.105-.362-.3-.745-.593-1.126-.87a29.661,29.661,0,0,0,2.592-2.846,2.119,2.119,0,0,0,.508-1.486c-.021-.106-.042-.233-.064-.318l2.335-.828a14.212,14.212,0,0,1-1.613,12.824.767.767,0,0,0,.212,1.02A.641.641,0,0,0,231.038,205.339Z" transform="translate(2.856 7.808)"/>
    <path id="Path_55" data-name="Path 55" class="cls-4" d="M233.812,197.626l-2.335.828c-.487-1.571-3.015-2.081-4.29-2.57-1.444-.531-4.141-2.06-5.649-.955-1.465,1.1-.87,4.076-.487,5.818-.235,0-.489-.021-.743,0a.444.444,0,0,0-.383.574l-3.015.148c-.254-.743-1.529-.7-1.465.191.445,5.649-6.138,7.836-9.407,3.229a.573.573,0,0,0-.4-.277.078.078,0,0,1-.021-.063c-.51-.595-1.465.063-1.275.743.68,2.57.171,5.054-2.632,6.032-2.888,1-5.649-.32-7.878-2.145a.562.562,0,0,0-.807.042.606.606,0,0,0-.235.807c.936,1.87.893,4.374-1.209,5.479-2.187,1.145-4.842-.745-5.246-2.975a.379.379,0,0,0-.445-.3c-.383-.447-1.232-.275-1.19.381.085,1.764.191,4.652-2.251,4.906A2.414,2.414,0,0,1,180,215.993c-.4-1.188.256-2.166.893-3.078a.644.644,0,0,0-.722-.934,3.734,3.734,0,0,0-2.229,4.1,4.751,4.751,0,0,0,.318,1.105l-2.761.042a.655.655,0,0,0-1.145-.447c-.021-.042-.066-.064-.108-.106-1.613-1.1-4.649-4.247-6.773-2.655-1.87,1.38-2.846,4.567-3.163,6.733a5.606,5.606,0,0,0,.743,4.162l-5.926.487c-2.589-3.61-4.118-8.515-3.078-12.358,1.975-7.262,10.724-10.576,17.349-8.494.957.3,1.658-1.232.7-1.656-.148-.064-.318-.106-.466-.169-7.518-10.065,11.912-19.834,19.068-9.938.658.913,2.166.064,1.529-.891-.021-.044-.042-.064-.064-.108,1.954-7.156,16.735-11.422,15.989-1.167-.085.976,1.531,1.211,1.7.233a.191.191,0,0,1,.021-.106c6.115-2.846,13.654-2.824,18.771,2.145A12.954,12.954,0,0,1,233.812,197.626Z" transform="translate(1.058 0.891)"/>
    <path id="Path_56" data-name="Path 56" class="cls-3" d="M200.278,230.85c2.611,1.444,4.969,4.4,2.824,7.3a9.759,9.759,0,0,1-4.8,2.888,13.64,13.64,0,0,1-10.343-1.275c-.042-.021-.085,0-.106,0a6.093,6.093,0,0,0,.426-2.018.723.723,0,0,0,.4-.423,5.058,5.058,0,0,1,2.337-3.716,7.341,7.341,0,0,1,5.562-.489c.426.127.574-.489.193-.637-2.316-.849-4.757-1.423-7.008-.064a5.859,5.859,0,0,0-2.187,2.356,7.351,7.351,0,0,0-2.293-2.7,7.81,7.81,0,0,0-3.25-1.294,11.209,11.209,0,0,1,2.06-8.156.716.716,0,0,0,.127-.254c3.779,1,8.3-.042,11.7-2.06a22.263,22.263,0,0,0,3.46-2.549c3.4,3.4,3.972,8.3.785,12.125a.668.668,0,0,0-.127.51A.463.463,0,0,0,200.278,230.85Z" transform="translate(30.389 38.039)"/>
    <path id="Path_57" data-name="Path 57" class="cls-1" d="M219.411,214.522c1-.191,1.4,1.338.423,1.507-1.825.3-3.652.531-5.5.7a18.251,18.251,0,0,1-.362,2.4c1.7.021,3.4.021,5.1.021.913-.021.891,1.486,0,1.4-1.8-.129-3.589-.214-5.371-.32-1.933,6.9-7.73,13.144-16.245,16.373a22.164,22.164,0,0,1-13.336.764.433.433,0,0,1-.508.148,8.515,8.515,0,0,1-.978-.4c-.785,1.145-1.55,2.335-2.378,3.462a.9.9,0,0,1-1.55-.893A22.367,22.367,0,0,1,181,236.331a24.54,24.54,0,0,1-2.888-1.4c-1.082,1.04-2.187,2.058-3.335,3.015-.7.574-1.7-.362-1.018-1.021.976-.976,2.018-1.889,3.078-2.8-7.177-4.8-11.446-13.485-8.048-23.19A.385.385,0,0,1,169,210.7a4.222,4.222,0,0,1-2.441-2.187,4.752,4.752,0,0,1-.318-1.105,3.734,3.734,0,0,1,2.229-4.1.644.644,0,0,1,.722.934c-.637.913-1.3,1.891-.893,3.078a2.414,2.414,0,0,0,2.443,1.529c2.441-.254,2.335-3.142,2.251-4.906-.042-.656.807-.828,1.19-.381a.379.379,0,0,1,.445.3c.4,2.229,3.059,4.12,5.246,2.975,2.1-1.105,2.145-3.61,1.209-5.479a.606.606,0,0,1,.235-.807.562.562,0,0,1,.807-.042c2.229,1.825,4.99,3.142,7.878,2.145,2.8-.978,3.311-3.462,2.632-6.032-.191-.68.764-1.338,1.275-.743a.078.078,0,0,0,.021.063.573.573,0,0,1,.4.277c3.269,4.607,9.851,2.42,9.407-3.229-.064-.891,1.211-.934,1.465-.191a5.98,5.98,0,0,1-.785,5.139c6.966,4.863,10.044,11.171,9.981,17.37C216.077,215.1,217.753,214.862,219.411,214.522Zm-7.709,1.084c.275-.021.553-.042.828-.085-.106-6.371-3.822-12.147-9.513-16.034l-.021-.021a5.491,5.491,0,0,1-1.4.828A6.5,6.5,0,0,1,194.885,199a6.145,6.145,0,0,1-3.144,4.861c-2.909,1.615-6.093.849-8.621-.955a5.146,5.146,0,0,1-2.867,5.244,4.742,4.742,0,0,1-5.393-1.55c-.32,2.42-2.3,4.652-4.906,4.332a1.312,1.312,0,0,1-.277-.064.505.505,0,0,1,.042.191c-.785,8.367,2.253,16.629,8.071,21.278-2.464-5.691.828-13.76,5.839-17.711C191.889,208.109,205.31,206.749,211.7,215.606Zm.3,4.522c-.743-.042-1.507-.106-2.251-.148a.425.425,0,0,1,0-.849h2.1a23.213,23.213,0,0,0-1.359-2.166c-1.1.042-2.187.042-3.29,0a.521.521,0,0,1,0-1.042c.785-.042,1.571-.085,2.356-.148a13.52,13.52,0,0,0-9.047-4.609c.064,3.908-.891,8.071-4.522,9.536a29.619,29.619,0,0,1,3.377,8.537.606.606,0,0,1-.169.658,18.42,18.42,0,0,0,7.6-8.814c.4-.934,1.891-.254,1.613.68-2.824,9.132-12.274,13.273-21.064,10.47a.293.293,0,0,1-.212-.3.308.308,0,0,1,.381-.3,16.226,16.226,0,0,0,11.192-1.465.683.683,0,0,1-.828-.531c-.68-2.994-1.848-5.776-2.761-8.685a7.833,7.833,0,0,1-1.042.235c-2.759.318-8.77-.915-9.724-4.12-4.438,4.054-6.839,9.555-4.48,14.524,1.061-.849,2.124-1.719,3.184-2.57.362-.318.891.171.531.531-1.042,1.021-2.081,2.06-3.144,3.1a12.8,12.8,0,0,0,1.764,2.208c.913-1.042,1.867-2.081,2.8-3.059a.6.6,0,0,1,1.018.214.68.68,0,0,1-.127.678,32.479,32.479,0,0,0-2.1,2.719,19.3,19.3,0,0,0,10.533-.127c5.776-1.571,13.823-6.242,16.436-11.7A19.4,19.4,0,0,0,212,220.128Z" transform="translate(12.764 9.561)"/>
    <path id="Path_58" data-name="Path 58" class="cls-1" d="M197.673,193.485a2.119,2.119,0,0,1-.508,1.486,29.661,29.661,0,0,1-2.592,2.846c.381.277.764.574,1.126.87.572.531-.214,1.552-.851,1.105a18.735,18.735,0,0,0-8.516-3.525.352.352,0,0,1-.275-.233.444.444,0,0,1,.383-.574c.254-.021.508,0,.743,0-.383-1.742-.978-4.715.487-5.818,1.507-1.105,4.2.423,5.649.955,1.275.489,3.8,1,4.289,2.57C197.63,193.252,197.651,193.379,197.673,193.485Zm-1.867.743c.318-1.444-2.507-2.018-3.5-2.378s-3.25-1.719-3.993-.341a7.974,7.974,0,0,0-.127,2.145c-.021.4-.042.809-.085,1.211.447-1.848,2.42-3.419,4.311-2.462a2.888,2.888,0,0,1,.807,4.522c-.021.021-.042.021-.085.042.042.021.063.021.085.042.468-.51.955-1.018,1.423-1.529C194.891,195.206,195.7,194.632,195.805,194.228Zm-3.483,1.806a1.651,1.651,0,0,0-.468-2.549c-1.444-.743-2.761.87-3.036,2.124a13.02,13.02,0,0,1,3.313.891A.507.507,0,0,1,192.322,196.034Z" transform="translate(34.926 6.178)"/>
    <path id="Path_59" data-name="Path 59" class="cls-3" d="M191.214,190.977c1,.36,3.822.934,3.5,2.378-.106.4-.915.978-1.169,1.253-.468.51-.955,1.018-1.423,1.529-.021-.021-.042-.021-.085-.042.042-.021.063-.021.085-.042a2.888,2.888,0,0,0-.807-4.522c-1.891-.957-3.864.614-4.311,2.462.042-.4.064-.807.085-1.211a7.973,7.973,0,0,1,.127-2.145C187.964,189.258,190.214,190.615,191.214,190.977Z" transform="translate(36.013 7.051)"/>
    <path id="Path_60" data-name="Path 60" class="cls-5" d="M190.386,191.349a1.651,1.651,0,0,1,.468,2.549.507.507,0,0,0-.191.466,13.019,13.019,0,0,0-3.313-.891C187.625,192.219,188.942,190.606,190.386,191.349Z" transform="translate(36.394 8.313)"/>
    <path id="Path_61" data-name="Path 61" class="cls-3" d="M210.737,211.974c-.275.042-.553.064-.828.085-6.392-8.856-19.813-7.5-28.072-.978-5.011,3.951-8.3,12.02-5.839,17.711-5.818-4.649-8.856-12.911-8.071-21.278a.505.505,0,0,0-.042-.191,1.312,1.312,0,0,0,.277.064c2.611.32,4.586-1.912,4.906-4.332a4.742,4.742,0,0,0,5.393,1.55,5.146,5.146,0,0,0,2.867-5.244c2.528,1.8,5.712,2.57,8.621.955a6.145,6.145,0,0,0,3.144-4.861,6.5,6.5,0,0,0,6.709,1.294,5.491,5.491,0,0,0,1.4-.828l.021.021C206.915,199.827,210.631,205.6,210.737,211.974Zm-6.731-8.835a.639.639,0,0,0,1.251-.169,3.068,3.068,0,0,0-3.46-2.8,2.849,2.849,0,0,0-2.3,3.462.38.38,0,0,0,.743-.106,2.213,2.213,0,0,1,1.594-2.124A1.919,1.919,0,0,1,204.006,203.139Zm-29.135,11.086c.531.233,1.169-.383.68-.87a2.984,2.984,0,0,0-4.184.318,3.015,3.015,0,0,0,.256,4.163.526.526,0,0,0,.743-.743,2.022,2.022,0,0,1-.063-2.591A2.139,2.139,0,0,1,174.871,214.224Z" transform="translate(14.557 13.108)"/>
    <path id="Path_62" data-name="Path 62" class="cls-6" d="M200.461,210.013c.743.042,1.507.106,2.251.148a19.4,19.4,0,0,1-1.23,3.462c-2.613,5.458-10.66,10.129-16.436,11.7a19.3,19.3,0,0,1-10.533.127,32.478,32.478,0,0,1,2.1-2.719.68.68,0,0,0,.127-.678l1.105-.087a.293.293,0,0,0,.212.3c8.791,2.8,18.24-1.338,21.064-10.47.277-.934-1.209-1.613-1.613-.68a18.42,18.42,0,0,1-7.6,8.814.606.606,0,0,0,.169-.658,29.618,29.618,0,0,0-3.377-8.537c3.631-1.465,4.586-5.628,4.522-9.536a13.52,13.52,0,0,1,9.047,4.609c-.785.063-1.571.106-2.356.148a.521.521,0,0,0,0,1.042c1.1.042,2.187.042,3.29,0a23.21,23.21,0,0,1,1.359,2.166h-2.1A.425.425,0,0,0,200.461,210.013Z" transform="translate(22.051 19.528)"/>
    <path id="Path_63" data-name="Path 63" class="cls-1" d="M188.578,200.506a.639.639,0,0,1-1.251.169,1.919,1.919,0,0,0-2.166-1.74,2.213,2.213,0,0,0-1.594,2.124.38.38,0,0,1-.743.106,2.849,2.849,0,0,1,2.3-3.462A3.068,3.068,0,0,1,188.578,200.506Z" transform="translate(31.237 15.572)"/>
    <path id="Path_64" data-name="Path 64" class="cls-3" d="M190.237,232.332c3.652,2.166,3.568,7.22-.637,8.812-4.461,1.679-9.364-1.04-13.04-3.44a.562.562,0,0,0-.4-.085,62.2,62.2,0,0,0,.064-12.57c3.972-.87,8.153-3.015,9.79-6.5a8.788,8.788,0,0,0,3.375,2.5,9.523,9.523,0,0,0-2.124,8.748,12.908,12.908,0,0,0-5.075,1.084c-.637.275-.169,1.359.489,1.145C185.352,231.163,187.772,230.846,190.237,232.332Z" transform="translate(23.889 38.914)"/>
    <path id="Path_65" data-name="Path 65" class="cls-6" d="M191.151,216.558a.683.683,0,0,0,.828.531,16.226,16.226,0,0,1-11.192,1.465.308.308,0,0,0-.381.3l-1.105.087a.6.6,0,0,0-1.018-.214c-.936.978-1.891,2.018-2.8,3.059a12.8,12.8,0,0,1-1.764-2.208c1.063-1.042,2.1-2.081,3.144-3.1.36-.36-.169-.849-.531-.531-1.061.851-2.124,1.721-3.184,2.57-2.359-4.969.042-10.47,4.48-14.524.955,3.205,6.966,4.438,9.724,4.12a7.832,7.832,0,0,0,1.042-.235C189.3,210.782,190.472,213.564,191.151,216.558Z" transform="translate(19.492 22.644)"/>
    <path id="Path_66" data-name="Path 66" class="cls-3" d="M184.843,224.713a103.775,103.775,0,0,1-.572,12.316c-3.568,2.229-7.794,3.673-12.02,2.782a8.078,8.078,0,0,1-2.718-.934c-3.8-2.676-1.613-5.882.658-7.645,2.613-2.018,6.223-1.975,9.237-1.19a.332.332,0,0,0,.191-.635,11.462,11.462,0,0,0-7.135-.637,28.109,28.109,0,0,0-1.1-9.748c2.039,3.908,6.477,6.074,11.041,5.945A20.01,20.01,0,0,0,184.843,224.713Z" transform="translate(14.183 39.44)"/>
    <path id="Path_67" data-name="Path 67" class="cls-1" d="M174.049,204.286c.489.487-.148,1.1-.68.87a2.139,2.139,0,0,0-2.568.275,2.022,2.022,0,0,0,.063,2.591.526.526,0,0,1-.743.743,3.015,3.015,0,0,1-.256-4.162A2.984,2.984,0,0,1,174.049,204.286Z" transform="translate(16.059 22.176)"/>
    <path id="Path_68" data-name="Path 68" class="cls-1" d="M171.017,201.892a.831.831,0,0,1-.064.3,20.142,20.142,0,0,0-1.87,7.008c0,.042-.042.064-.042.106a.488.488,0,0,1-.148.785c-2.081,1.063-4.607,1.912-6.837.743a4.356,4.356,0,0,1-1.486-1.251,5.606,5.606,0,0,1-.743-4.162c.318-2.166,1.294-5.352,3.163-6.733,2.124-1.592,5.16,1.552,6.773,2.655.042.042.087.064.108.106A.655.655,0,0,1,171.017,201.892Zm-1.8.807a.765.765,0,0,1-.193-.085l-2.166-1.4c-1.018-.658-1.209-1-2.5-.616-1.721.51-2.208,2.356-2.549,4.057-.4,2.081-.233,4.226,2.187,4.8a10.108,10.108,0,0,0,4.2-.381.721.721,0,0,0-.021-.212,3.134,3.134,0,0,1-4.522-3.059c.212-2.357,3.525-3.737,4.969-1.571A9.336,9.336,0,0,1,169.213,202.7Zm-.785,2.335a.606.606,0,0,1-.722-.042c-1.105-.934-2.846-.508-2.782,1.169a2.209,2.209,0,0,0,3.184,1.74h.021A11.9,11.9,0,0,1,168.428,205.033Z" transform="translate(5.543 16.225)"/>
    <path id="Path_69" data-name="Path 69" class="cls-3" d="M168.02,201.456a.765.765,0,0,0,.193.085,9.334,9.334,0,0,0-.595,1.529c-1.444-2.166-4.757-.786-4.969,1.571a3.134,3.134,0,0,0,4.522,3.059.721.721,0,0,1,.021.212,10.108,10.108,0,0,1-4.2.381c-2.42-.572-2.589-2.716-2.187-4.8.341-1.7.828-3.546,2.549-4.057,1.3-.381,1.486-.042,2.5.616Z" transform="translate(6.544 17.382)"/>
    <path id="Path_70" data-name="Path 70" class="cls-5" d="M164.969,201.686a.606.606,0,0,0,.722.042,11.9,11.9,0,0,0-.3,2.867h-.021a2.209,2.209,0,0,1-3.184-1.74C162.123,201.178,163.864,200.752,164.969,201.686Z" transform="translate(8.28 19.53)"/>
  </g>
</svg>
