<svg xmlns="http://www.w3.org/2000/svg" width="100" height="86.485" viewBox="0 0 100 86.485">
  <defs>
    <style>
      .cls-1 {
        fill: #222221;
      }

      .cls-2 {
        fill: #85603c;
      }

      .cls-3 {
        fill: #dca1a1;
      }

      .cls-4 {
        fill: #bc9c6a;
      }
    </style>
  </defs>
  <g id="Group_36" data-name="Group 36" transform="translate(-244.539 -187.975)">
    <path id="Path_357" data-name="Path 357" class="cls-1" d="M344.406,209.175c1.4,10.344-8.509,19.718-18.792,17.165l-.041-.041a22.818,22.818,0,0,1-4.863,9.993c-4.018,4.532-10.015,6.12-16.092,6.964a15.7,15.7,0,0,1,1.771,1.937,21.916,21.916,0,0,1,4.411-1.134c.021,0,.021.021.041.021,5.851-1.689,12.507,2.122,14.278,8.2,1.835,6.243-3.028,13-9.436,11.353.021,2.453-1.937,4.514-4.224,5.563,1.235,1.052.947,3.421-.351,4.431-2.535,1.956-5.789.082-7.788-1.711a.522.522,0,0,1-.164-.205,18.631,18.631,0,0,1-6.862,2.081c-4.1.452-7.768-.185-10.323-2.245a.661.661,0,0,1-.372.639,11.457,11.457,0,0,1-4.986,1.5c-1.07.041-2.925.164-3.5-1.011-.885-1.792.844-3.277,2.617-3.647-2.122-1.648-4.327-3.916-4.121-6.636-4.781,2.412-11,2.843-15.618-.144a8.632,8.632,0,0,1-3.587-5.13c-1.153-3.523-.1-4.7-5.274-7.275-1.627-.824-3.092-.844-4.657-1.894a.611.611,0,0,1-.267-.5c-1.937-1.607-.7-5.253,2-4.781a.52.52,0,0,1,.37.29c5.4,1.317,9.107,4.244,12.4,8.653,2.679,3.606,3.647,6.285,9.459,6.51,2.017.082,4.183-.865,6.223-.968a12.129,12.129,0,0,1,5.52.762,30.38,30.38,0,0,1,1.485-7.419,18.7,18.7,0,0,1-15.125-3.151c-3.5-2.556-6.965-7.047-6.1-11.581,0-.021-.021-.041-.021-.062a1.862,1.862,0,0,1,.267-.885c.021-.041.021-.082.043-.123a.527.527,0,0,1,.164-.208,2.633,2.633,0,0,1,3.275-.7.515.515,0,0,1,.5.207c1.814,2.636,2.843,5.872,4.986,8.24,2.928,3.236,9.5,4.6,13.682,3.936a.9.9,0,0,1,.536.082,10.017,10.017,0,0,1,1.257-1.381c-11.458-.618-21.615-9.292-24.314-20.811a16.13,16.13,0,0,1-17.783-19.883c2.782-11.209,18.422-15.063,26.149-6.387a35.908,35.908,0,0,1,18.874-9.294c12.2-1.956,23.1,1.524,29.732,9.705a2.092,2.092,0,0,1,.208-.185C329.695,191.453,342.861,197.635,344.406,209.175ZM325.84,225.144c8.922.308,17.7-5.728,16.464-15.556-1.36-10.736-12.528-14.588-21.43-10.036a.076.076,0,0,1-.062.021,20.426,20.426,0,0,1,1.114,1.814c6.531-3.854,16.051-.865,18.091,6.8,2.307,8.612-6.243,14.753-13.867,15.184a.072.072,0,0,1-.041-.021C326.025,223.948,325.943,224.566,325.84,225.144Zm.475-3.667c6.2-1.011,13.372-4.9,12.012-12.343-1.381-7.542-9.685-8.9-15.764-6.759a32.4,32.4,0,0,1,3.587,11.334A36.144,36.144,0,0,1,326.315,221.476Zm-11.5,16.834c8.366-5.378,10.323-15.268,9.087-24.437,0-.1-.041-.187-.041-.29-3.482-5.335-7.6-9.354-14.568-9.046-6.49.31-11.229,3.957-14.835,9.046.062.805-1.216,1.031-1.566.207-2.184-5.173-4.637-9-10.673-9.892a16.175,16.175,0,0,0-11.065,2.948c-6.944,4.986-5.956,13.639-4.781,21.058,5.027,11.663,17.224,15.866,29.732,14.65a.5.5,0,0,1,.392.123C302.476,242.08,310.223,241.256,314.816,238.31Zm.6,23.86c6.759,2.245,10.385-6.141,7.439-11.517-2.8-5.132-9.479-6.923-14.63-4.472a.553.553,0,0,1-.31.021c-.164.123-.329.226-.493.351a14.844,14.844,0,0,1,.783,1.36c4.945-2.04,11.414-1.155,13.639,4.368,2.268,5.666-2.513,7.912-7.17,8.468a3.932,3.932,0,0,1,.536.844A2.787,2.787,0,0,1,315.414,262.17Zm4-4.224c2.328-1.689,1.565-4.822.082-6.718-2.638-3.419-7.047-3.462-10.9-2.451a22.039,22.039,0,0,1,1.732,10.693,3.776,3.776,0,0,1,2.287,0,.711.711,0,0,1,.372-.1C314.9,259.307,317.744,259.163,319.412,257.947Zm-9.726,10.18c2.245-.557,4.616-2.143,4.388-4.781a2.808,2.808,0,0,0-2.286-2.617,2.3,2.3,0,0,0-1.648.329,4.932,4.932,0,0,1-.062.577,13.364,13.364,0,0,1-5.461,9.13c1.194.885,2.43,2,4,2,1.711.021,3.092-1.894,1.547-3.069h-.041A.812.812,0,0,1,309.687,268.126Zm-1.36-65.585c6.49-.659,10.962,1.812,14.424,6.1-4.285-14.011-17.329-20.419-32.392-17.884-11.909,1.976-23.057,10.632-25.592,22.21a14.413,14.413,0,0,1,8.45-9.354c9.354-3.916,16.875-.308,20.563,8.119C296.253,206.249,302.476,203.116,308.327,202.541ZM302.681,243.5a18.38,18.38,0,0,1,1.3,13.58c-1.155,3.708-3.772,8.076-8.1,8.345-10.282.639-10.1-14.239-6.759-20.524H289.1a27.507,27.507,0,0,0-4.758,15.579c-.041,3.667.721,7.665,3.77,10.157,2.2,1.814,7.727,1.175,10.282.577,12.446-2.925,12.3-20.008,4.347-27.673-.021-.021-.021-.041-.041-.041Zm-4.472,19.369c6.182-3.955,6-13.311,2.948-19.141a.076.076,0,0,1-.02-.062c-2.658.267-5.3.514-7.686.865a1.32,1.32,0,0,1-.413-.021,23.4,23.4,0,0,1-2.884.329.3.3,0,0,1-.021.187,19.426,19.426,0,0,0-1.752,9.89C288.773,259.594,292.5,266.5,298.208,262.871Zm-13.372,8a.838.838,0,0,1,.31-.064,10.915,10.915,0,0,1-2.864-6.552,27.1,27.1,0,0,1-.208-3.359c-2.266-.721-5.233-.844-4.7,2.453.411,2.451,2.8,3.626,4.286,5.337a.774.774,0,0,1,.144.657.4.4,0,0,1-.267.475c-.043.021-.084.021-.125.041a.251.251,0,0,1-.185.062,4.21,4.21,0,0,0-1.835.929c-.288.288-.721.7-.411.968.164.123.7.062.906.082A11.393,11.393,0,0,0,284.836,270.867Zm-.8-21.389c.226-.516.454-.988.7-1.463a20.34,20.34,0,0,1-12.238-2.679c-3.649-2.266-4.76-6.572-6.451-10.262a2.144,2.144,0,0,0-2.369.041C263.532,245.542,275.111,250.261,284.033,249.478Zm-1.958,10.2c0-.043.021-.084.021-.125a6.955,6.955,0,0,0-1.5-.452,3.33,3.33,0,0,0-.762-.146c-5.276-.783-10.775,2.474-15.577-.865-2.04-1.4-3.215-3.729-4.637-5.666a22.286,22.286,0,0,0-11.435-8.366c-.516.205-1.093.392-1.319.97a2.01,2.01,0,0,0,.39,1.791.453.453,0,0,1,.021.164c3.916,2.35,7.6,1.568,9.5,6.243,1.794,4.431,3.174,7.955,8.386,9a20.381,20.381,0,0,0,10.8-1.257,3.263,3.263,0,0,1,3.873-2.02,4.985,4.985,0,0,1,.762.146A8.995,8.995,0,0,1,282.075,259.678Zm-13.311-59.262c.372-.452.721-.885,1.113-1.3-7.3-7.975-21.635-3.38-23.016,7.108-1.278,9.808,6.716,16.526,15.741,16.834-.123-.639-.247-1.278-.329-1.917V221a13.1,13.1,0,0,1-13.58-14.609c1.36-10.054,13-11,19.946-6.12A.9.9,0,0,1,268.765,200.417Zm-6.593,18.938a26.8,26.8,0,0,1,5.461-17.557c-6.038-3.749-15.558-3.749-16.774,5.05C249.891,213.976,255.846,218.571,262.172,219.354Z" transform="translate(0 0)"/>
    <path id="Path_358" data-name="Path 358" class="cls-2" d="M303.157,204.611c1.237,9.828-7.542,15.864-16.464,15.556.1-.577.185-1.2.269-1.794a.072.072,0,0,0,.041.021c7.624-.431,16.174-6.572,13.867-15.184-2.04-7.665-11.56-10.654-18.091-6.8a20.426,20.426,0,0,0-1.114-1.814.076.076,0,0,0,.062-.021C290.629,190.023,301.8,193.875,303.157,204.611Z" transform="translate(39.147 4.976)"/>
    <path id="Path_359" data-name="Path 359" class="cls-3" d="M298.282,202.214c1.36,7.439-5.81,11.332-12.012,12.343a36.144,36.144,0,0,0-.164-7.768,32.4,32.4,0,0,0-3.587-11.334C288.6,193.312,296.9,194.672,298.282,202.214Z" transform="translate(40.046 6.92)"/>
    <path id="Path_360" data-name="Path 360" class="cls-4" d="M313.125,205.764c1.237,9.169-.721,19.059-9.087,24.437-4.594,2.946-12.341,3.77-18.317,4.368a.5.5,0,0,0-.392-.123c-12.507,1.216-24.7-2.987-29.732-14.65-1.175-7.418-2.163-16.072,4.781-21.058a16.175,16.175,0,0,1,11.065-2.948c6.036.888,8.489,4.719,10.673,9.892.349.824,1.627.6,1.566-.207,3.605-5.089,8.345-8.735,14.835-9.046,6.965-.308,11.086,3.71,14.568,9.046C313.084,205.577,313.125,205.661,313.125,205.764Zm-9.148,7.768c.392.906,1.691.226,1.524-.639-.349-1.855-1.607-4.06-3.688-4.2-2.533-.185-4.06,2.143-4.842,4.224-.247.618.68.885,1.011.413.865-1.175,2.184-3.523,4.037-2.884C303.235,210.873,303.524,212.5,303.976,213.532ZM293.9,231.417c1.091-.392.639-2.145-.475-1.773a31,31,0,0,1-9.189,1.73c-.062-.719-.123-1.422-.247-2.141a7.079,7.079,0,0,0,2.574-1.072c1.2-.742,3.3-2,3.626-3.5a2.42,2.42,0,0,0-2-2.658,22.032,22.032,0,0,0-6.471-.557c-1.339.021-3.234-.164-4.142,1.072-1.73,2.348.846,4.45,3.256,5.376a4.548,4.548,0,0,0,1.3,1.072,3.157,3.157,0,0,0,.39.164c.041.762.146,1.526.249,2.289a34.194,34.194,0,0,1-10.654-1.937.383.383,0,0,0-.288.7A27.3,27.3,0,0,0,293.9,231.417Zm-25.736-18.381c.185.949,1.791.742,1.689-.226a4.3,4.3,0,0,0-4.306-3.9,4.052,4.052,0,0,0-3.811,4.162c.062.659,1.091.929,1.235.185a2.981,2.981,0,0,1,2.576-2.656A2.675,2.675,0,0,1,268.166,213.037Z" transform="translate(10.779 8.109)"/>
    <path id="Path_361" data-name="Path 361" class="cls-2" d="M290.58,221.336c2.946,5.376-.68,13.763-7.439,11.517a2.789,2.789,0,0,0-.205-.577,3.932,3.932,0,0,0-.536-.844c4.657-.557,9.438-2.8,7.17-8.468-2.225-5.522-8.694-6.408-13.639-4.368a14.844,14.844,0,0,0-.783-1.36c.164-.125.329-.228.493-.351a.553.553,0,0,0,.31-.021C281.1,214.413,287.778,216.2,290.58,221.336Z" transform="translate(32.274 29.317)"/>
    <path id="Path_362" data-name="Path 362" class="cls-1" d="M283.858,206.214c.166.865-1.132,1.545-1.524.639-.452-1.031-.742-2.658-1.958-3.09-1.853-.639-3.172,1.709-4.037,2.884-.331.473-1.257.205-1.011-.413.783-2.081,2.309-4.409,4.842-4.224C282.252,202.154,283.509,204.358,283.858,206.214Z" transform="translate(32.421 14.788)"/>
    <path id="Path_363" data-name="Path 363" class="cls-2" d="M283.239,226.022c.228,2.638-2.143,4.224-4.388,4.781a.812.812,0,0,0,.433,1.565h.041c1.545,1.175.164,3.09-1.547,3.069-1.565,0-2.8-1.111-4-2a13.364,13.364,0,0,0,5.461-9.13,4.93,4.93,0,0,0,.062-.577,2.3,2.3,0,0,1,1.648-.329A2.808,2.808,0,0,1,283.239,226.022Z" transform="translate(30.835 37.323)"/>
    <path id="Path_364" data-name="Path 364" class="cls-2" d="M312.369,207.49c-3.462-4.285-7.934-6.757-14.424-6.1-5.851.575-12.074,3.708-14.547,9.189-3.688-8.427-11.209-12.035-20.563-8.119a14.413,14.413,0,0,0-8.45,9.354c2.535-11.579,13.682-20.234,25.592-22.21C295.04,187.071,308.083,193.479,312.369,207.49Z" transform="translate(10.382 1.148)"/>
    <path id="Path_365" data-name="Path 365" class="cls-1" d="M284.763,216.419c1.113-.372,1.565,1.381.475,1.773a27.3,27.3,0,0,1-22.069-1.237.383.383,0,0,1,.288-.7,34.194,34.194,0,0,0,10.654,1.937c-.1-.762-.208-1.526-.249-2.289a3.157,3.157,0,0,1-.39-.164,4.548,4.548,0,0,1-1.3-1.072c-2.41-.927-4.986-3.028-3.256-5.376.908-1.237,2.8-1.052,4.142-1.072a22.032,22.032,0,0,1,6.471.557,2.42,2.42,0,0,1,2,2.658c-.329,1.5-2.43,2.761-3.626,3.5a7.079,7.079,0,0,1-2.574,1.072c.123.719.185,1.422.247,2.141A31,31,0,0,0,284.763,216.419Z" transform="translate(19.443 21.335)"/>
    <path id="Path_366" data-name="Path 366" class="cls-2" d="M283.551,228.583a18.38,18.38,0,0,0-1.3-13.58h.021c.021,0,.021.021.041.041,7.953,7.665,8.1,24.748-4.347,27.673-2.556.6-8.078,1.237-10.282-.577-3.049-2.492-3.811-6.49-3.77-10.157a27.507,27.507,0,0,1,4.758-15.579h.021c-3.336,6.284-3.523,21.163,6.759,20.524C279.779,236.659,282.4,232.291,283.551,228.583Z" transform="translate(20.428 28.499)"/>
    <path id="Path_367" data-name="Path 367" class="cls-4" d="M278.689,215.146c3.049,5.83,3.234,15.186-2.948,19.141-5.707,3.626-9.436-3.277-9.828-7.953a19.426,19.426,0,0,1,1.752-9.89.3.3,0,0,0,.021-.187,23.4,23.4,0,0,0,2.884-.329,1.32,1.32,0,0,0,.413.021c2.389-.351,5.027-.6,7.686-.865A.076.076,0,0,0,278.689,215.146Z" transform="translate(22.468 28.584)"/>
    <path id="Path_368" data-name="Path 368" class="cls-2" d="M268.324,233.593a.838.838,0,0,0-.31.064,11.393,11.393,0,0,1-4.945,1.029c-.205-.021-.742.041-.906-.082-.31-.267.123-.68.411-.968a4.21,4.21,0,0,1,1.835-.929.251.251,0,0,0,.185-.062c.041-.021.082-.021.125-.041a.4.4,0,0,0,.267-.475.774.774,0,0,0-.144-.657c-1.483-1.711-3.875-2.886-4.286-5.337-.536-3.3,2.43-3.174,4.7-2.453a27.1,27.1,0,0,0,.208,3.359A10.915,10.915,0,0,0,268.324,233.593Z" transform="translate(16.822 37.21)"/>
    <path id="Path_369" data-name="Path 369" class="cls-2" d="M274.912,224.013c-.247.475-.475.947-.7,1.463-8.922.783-20.5-3.936-20.357-14.362a2.144,2.144,0,0,1,2.369-.041c1.691,3.69,2.8,8,6.451,10.262A20.34,20.34,0,0,0,274.912,224.013Z" transform="translate(9.821 24.002)"/>
    <path id="Path_370" data-name="Path 370" class="cls-1" d="M266.279,206.011c.1.968-1.5,1.175-1.689.226a2.675,2.675,0,0,0-2.617-2.43,2.981,2.981,0,0,0-2.576,2.656c-.144.744-1.173.475-1.235-.185a4.052,4.052,0,0,1,3.811-4.162A4.3,4.3,0,0,1,266.279,206.011Z" transform="translate(14.354 14.909)"/>
    <path id="Path_371" data-name="Path 371" class="cls-2" d="M278.681,230.171a3.263,3.263,0,0,0-3.873,2.02,20.381,20.381,0,0,1-10.8,1.257c-5.212-1.05-6.593-4.573-8.386-9-1.9-4.676-5.584-3.893-9.5-6.243a.453.453,0,0,0-.021-.164,2.01,2.01,0,0,1-.39-1.791c.226-.577.8-.764,1.319-.97a22.286,22.286,0,0,1,11.435,8.366c1.422,1.937,2.6,4.265,4.637,5.666C267.905,232.644,273.4,229.388,278.681,230.171Z" transform="translate(1.149 28.785)"/>
    <path id="Path_372" data-name="Path 372" class="cls-2" d="M268.755,195.474c-.392.411-.742.844-1.113,1.3a.9.9,0,0,0-.123-.144c-6.944-4.883-18.586-3.934-19.946,6.12a13.1,13.1,0,0,0,13.58,14.609v.144c.082.639.206,1.278.329,1.917-9.025-.308-17.019-7.026-15.741-16.834C247.12,192.094,261.46,187.5,268.755,195.474Z" transform="translate(1.123 3.646)"/>
    <path id="Path_373" data-name="Path 373" class="cls-3" d="M264.443,195.923a26.8,26.8,0,0,0-5.461,17.557c-6.326-.783-12.281-5.378-11.314-12.507C248.884,192.174,258.4,192.174,264.443,195.923Z" transform="translate(3.19 5.874)"/>
  </g>
</svg>
