<svg xmlns="http://www.w3.org/2000/svg" width="77.78" height="100.314" viewBox="0 0 77.78 100.314">
  <defs>
    <style>
      .cls-1 {
        fill: #222221;
      }

      .cls-2 {
        fill: #6f6f6f;
      }

      .cls-3 {
        fill: #b2d7e8;
      }

      .cls-4 {
        fill: #dca1a1;
      }
    </style>
  </defs>
  <g id="Group_38" data-name="Group 38" transform="translate(-248.892 -257.275)">
    <path id="Path_388" data-name="Path 388" class="cls-1" d="M326.661,291.518a3.457,3.457,0,0,1-2.734,3.506c-3.257,8.328-10.769,13.107-19.286,14.776a95.632,95.632,0,0,0-.458,10.852c7.408,4.593,8.931,16.76,8.975,24.69a.57.57,0,0,1-.044.21c0,.042.023.042.023.083a2.461,2.461,0,0,1-2.8,2.233,2.227,2.227,0,0,1-1.9-1.71.762.762,0,0,1-.208-.543,34.689,34.689,0,0,0-3.592-16.237,191.038,191.038,0,0,0,3.319,21.454.439.439,0,0,1,.125.083,3,3,0,0,1-.52,3.8,2.8,2.8,0,0,1-3.527.354c-2.464-.71-3.153-4.112-3.3-6.47a14.53,14.53,0,0,1-5.427.98,18.213,18.213,0,0,1-.167,4.634,4.272,4.272,0,0,1-1.357,2.88,2.66,2.66,0,0,1-3.15-.042.885.885,0,0,1-1.273-.522c-3.048-10.665-5.489-21.6-5.323-32.558a15.749,15.749,0,0,1-11.79-4.008c-2.965-2.545-6.137-6.282-5.593-10.454a.691.691,0,0,1,.689-.626A2.005,2.005,0,0,1,268.6,307.3a2.088,2.088,0,0,1,2.63.564.611.611,0,0,1-.021.626c1.71,1.253,1.565,3.714,2.88,5.344,2.129,2.628,7.013,4.611,10.311,4.466a58.282,58.282,0,0,1,1.752-9.5c-.606-.189-1.232-.356-1.835-.585a10.8,10.8,0,0,0-.481,1.482c-.187.855-1.523.481-1.294-.356a10.148,10.148,0,0,1,.585-1.565c-.834-.354-1.69-.73-2.485-1.147-.959,1.042-1.71,2.233-2.691,3.234-.543.564-1.294-.146-1-.772a10.428,10.428,0,0,1,2.443-3.13c-.772-.439-1.525-.9-2.235-1.4-.814.772-1.627,1.544-2.378,2.358-.564.606-1.482-.312-.918-.9a28.207,28.207,0,0,1,2.316-2.17,25.54,25.54,0,0,1-2.524-2.235c-15.153,9.289-29.594-12.229-23.208-26.046,3.652-7.868,11.122-9.849,18.366-8.284,1.1-6.763,10.288-11.166,16.591-9.747,7.743,1.731,13.713,11.02,12.523,18.72.71.169,1.419.356,2.087.585a17.009,17.009,0,0,1,7.283,4.967c3.673,4.237,5.593,12.544,12.835,11.312a3.323,3.323,0,0,1-.271-1.648,3.165,3.165,0,0,1,2.046-2.651.62.62,0,0,1,.312-.375C324.239,287.51,326.493,289.493,326.661,291.518Zm-3.444,1.733a1.6,1.6,0,0,0,1.544-1.733c-.187-1-.959-1.357-1.817-1.544a1.832,1.832,0,0,0-1.251,1.962A1.351,1.351,0,0,0,323.217,293.251Zm-.941,1.794a3.444,3.444,0,0,1-1.126-.522,1,1,0,0,1-.146.062c-3.966,1.065-7.2-.25-9.893-3.317-2.609-2.942-3.841-6.909-6.784-9.6-5.133-4.674-13.316-5.217-18.763-.814-.021.021-.083.021-.125.042a.915.915,0,0,1-1.606-.062c-4.8-10.228-20.62-17.051-29.49-7.158-10.665,11.876,4.341,33.81,19.242,26.567a.553.553,0,0,1,.668.062,1.757,1.757,0,0,1,.252.148,26.8,26.8,0,0,0,2.984,2.358,29.4,29.4,0,0,1,3.34-2.17.314.314,0,0,1,.312.543c-.959.71-1.835,1.461-2.714,2.233.772.481,1.567.938,2.381,1.357a28.979,28.979,0,0,1,3-2c.543-.333,1.022.5.5.834a18.581,18.581,0,0,0-2.276,1.733c.647.312,1.315.583,2,.855a9.507,9.507,0,0,1,1.253-1.5.554.554,0,0,1,.793.772,9.254,9.254,0,0,0-.9,1.126A35.392,35.392,0,0,0,300.4,308.34c-4.216-.5-8.117-2.3-10.225-6.324a.663.663,0,0,1-.062-.187,5.515,5.515,0,0,0-1.107,1.188.351.351,0,0,1-.605-.354,5.952,5.952,0,0,1,4.509-3.026c.5-.062.606.772.125.876a6.725,6.725,0,0,0-1.921.668.55.55,0,0,1,.21.166c3.777,5.134,9.287,6.033,15.13,5.781A26.961,26.961,0,0,0,322.277,295.045Zm-10.644,50.466a.394.394,0,0,1-.042-.169c-.4-7.909-1.565-17.529-7.366-23.4.042,1.775.146,3.548.271,5.3a28.019,28.019,0,0,1,5.365,18.366c-.021.062-.042.146-.062.208a1.915,1.915,0,0,0,.458.377C310.965,346.512,311.342,346.052,311.633,345.511Zm-5.134,8.1a2.19,2.19,0,0,0,.25-2.15.713.713,0,0,1,.064-.522c-.585-1.773-1.107-3.569-1.567-5.4a.69.69,0,0,1,.042-.418c-3.234-11.27-3.61-23.5-2.3-35.021a38.52,38.52,0,0,1-16.4-1.147c-2,16.071.1,31.388,4.486,46.936a1.386,1.386,0,0,0,1.336.252c.73-.293.876-1.232,1-1.879a21.4,21.4,0,0,0,.187-4.759v-.042a13.763,13.763,0,0,1-2.233-.479c-.605-.189-.522-1.232.167-1.169a18.137,18.137,0,0,0,10.665-1.817.862.862,0,0,1,.876,1.482,11.264,11.264,0,0,1-1.253.647c.4,2.505.9,4.78,3.506,5.741a.715.715,0,0,1,.314.229A1.424,1.424,0,0,0,306.5,353.607ZM296.022,275.97c.439-6.157-3.234-12.981-8.973-15.59-6.033-2.734-14.61.876-17.053,7.2,6.492,1.754,12.606,6.282,15.4,11.917C288.009,276.513,292.1,275.572,296.022,275.97Zm-11.79,44.163c-3.55.312-7.033-1.525-9.872-3.527a7.039,7.039,0,0,1-2.672-3.069c-.605-1.544-.273-3.317-1.273-4.736-.834-.169-1.983-.273-2.485.645.021.021.042.044.042.065.982,7.826,8.579,13.022,16.112,13.126C284.1,321.8,284.167,320.967,284.232,320.132Z" transform="translate(0 0)"/>
    <path id="Path_389" data-name="Path 389" class="cls-2" d="M286.952,274.533a1.6,1.6,0,0,1-1.544,1.733,1.351,1.351,0,0,1-1.523-1.315,1.832,1.832,0,0,1,1.251-1.962C285.993,273.176,286.765,273.532,286.952,274.533Z" transform="translate(37.809 16.985)"/>
    <path id="Path_390" data-name="Path 390" class="cls-3" d="M320.189,288.506a3.444,3.444,0,0,0,1.126.522A26.961,26.961,0,0,1,305.5,301.112c-5.843.252-11.353-.647-15.13-5.781a.55.55,0,0,0-.21-.166,6.725,6.725,0,0,1,1.921-.668c.481-.1.377-.938-.125-.876a5.952,5.952,0,0,0-4.509,3.026.351.351,0,0,0,.605.354,5.515,5.515,0,0,1,1.107-1.188.663.663,0,0,0,.062.187c2.108,4.029,6.01,5.822,10.225,6.324a35.392,35.392,0,0,1-15.213-1.754,9.254,9.254,0,0,1,.9-1.126.554.554,0,0,0-.793-.772,9.507,9.507,0,0,0-1.253,1.5c-.689-.273-1.357-.543-2-.855a18.581,18.581,0,0,1,2.276-1.733c.52-.333.042-1.167-.5-.834a28.979,28.979,0,0,0-3,2c-.814-.418-1.609-.876-2.381-1.357.878-.772,1.754-1.523,2.714-2.233a.314.314,0,0,0-.312-.543,29.4,29.4,0,0,0-3.34,2.17,26.8,26.8,0,0,1-2.984-2.358,1.757,1.757,0,0,0-.252-.148.553.553,0,0,0-.668-.062c-14.9,7.244-29.907-14.691-19.242-26.567,8.871-9.893,24.69-3.069,29.49,7.158a.915.915,0,0,0,1.606.062c.042-.021.1-.021.125-.042,5.448-4.4,13.63-3.86,18.763.814,2.942,2.693,4.174,6.659,6.784,9.6,2.691,3.067,5.926,4.382,9.893,3.317A1,1,0,0,0,320.189,288.506Zm-19.556-9.474c.273.751,1.482.439,1.232-.356-.543-1.69-2.568-2.942-4.237-1.856-1.211.793-1.692,3.109-.166,3.86a.4.4,0,0,0,.541-.541,1.666,1.666,0,0,1,.293-2.152C299.151,277.361,300.321,278.156,300.633,279.032Zm-12.209,7.158c.4.356,1.232,0,1-.585a2.849,2.849,0,0,0-4.216-1.167,2.249,2.249,0,0,0,.146,3.631.376.376,0,0,0,.46-.585,1.4,1.4,0,0,1,.314-2.108C287.047,284.875,287.8,285.626,288.424,286.19Zm-6.553-7.805a.828.828,0,0,0-.065-1.065c-3.9-5.03-9.035-10.017-15.777-10.392-5.2-.293-10.29,2.17-12.125,7.221-4.466,12.146,9.557,20.118,19.847,16.635,0-.023,0-.023.021,0,0,.042,0,.062.021.083a.245.245,0,0,0,.481-.062c.146-4.322,4.466-9.183,7.387-12.021A.686.686,0,0,0,281.871,278.385Z" transform="translate(0.962 6.016)"/>
    <path id="Path_391" data-name="Path 391" class="cls-3" d="M282.849,311.749a.394.394,0,0,0,.042.169c-.291.541-.668,1-1.378.689a1.915,1.915,0,0,1-.458-.377c.021-.062.042-.146.062-.208a28.019,28.019,0,0,0-5.365-18.366c-.125-1.754-.229-3.527-.271-5.3C281.285,294.22,282.454,303.84,282.849,311.749Z" transform="translate(28.742 33.593)"/>
    <path id="Path_392" data-name="Path 392" class="cls-3" d="M287.563,324.619a2.19,2.19,0,0,1-.25,2.15,1.424,1.424,0,0,1-.855.481.715.715,0,0,0-.314-.229c-2.607-.961-3.109-3.236-3.506-5.741a11.264,11.264,0,0,0,1.253-.647.862.862,0,0,0-.876-1.482,18.137,18.137,0,0,1-10.665,1.817c-.689-.062-.772.98-.167,1.169a13.763,13.763,0,0,0,2.233.479v.042a21.4,21.4,0,0,1-.187,4.759c-.127.647-.273,1.586-1,1.879a1.386,1.386,0,0,1-1.336-.252c-4.382-15.548-6.49-30.866-4.486-46.936a38.52,38.52,0,0,0,16.4,1.147c-1.315,11.522-.938,23.751,2.3,35.021a.69.69,0,0,0-.042.418c.46,1.835.982,3.631,1.567,5.4A.713.713,0,0,0,287.563,324.619Z" transform="translate(19.186 26.839)"/>
    <path id="Path_393" data-name="Path 393" class="cls-1" d="M277.6,271.626c.25.795-.959,1.107-1.232.356-.312-.876-1.482-1.671-2.337-1.045a1.666,1.666,0,0,0-.293,2.152.4.4,0,0,1-.541.541c-1.525-.751-1.045-3.067.166-3.86C275.027,268.684,277.052,269.937,277.6,271.626Z" transform="translate(25.231 13.066)"/>
    <path id="Path_394" data-name="Path 394" class="cls-3" d="M276.087,259.247c5.739,2.609,9.412,9.433,8.973,15.59-3.922-.4-8.013.543-10.623,3.527-2.8-5.635-8.91-10.163-15.4-11.917C261.477,260.123,270.054,256.513,276.087,259.247Z" transform="translate(10.963 1.133)"/>
    <path id="Path_395" data-name="Path 395" class="cls-1" d="M271.465,274.657c.231.585-.606.941-1,.585-.626-.564-1.378-1.315-2.3-.814a1.4,1.4,0,0,0-.314,2.108.376.376,0,0,1-.46.585,2.249,2.249,0,0,1-.146-3.631A2.849,2.849,0,0,1,271.465,274.657Z" transform="translate(18.922 16.965)"/>
    <path id="Path_396" data-name="Path 396" class="cls-3" d="M264.471,289.9c2.838,2,6.322,3.839,9.872,3.527-.065.834-.127,1.669-.148,2.5-7.533-.1-15.13-5.3-16.112-13.126,0-.021-.021-.044-.042-.065.5-.918,1.65-.814,2.485-.645,1,1.419.668,3.192,1.273,4.736A7.039,7.039,0,0,0,264.471,289.9Z" transform="translate(9.889 26.705)"/>
    <path id="Path_397" data-name="Path 397" class="cls-1" d="M272.074,288.672c-.021-.023-.021-.023-.021,0-10.29,3.483-24.313-4.488-19.847-16.635,1.835-5.05,6.929-7.514,12.125-7.221,6.742.375,11.876,5.362,15.777,10.392a.828.828,0,0,1,.065,1.065.686.686,0,0,1-.21.4c-2.922,2.838-7.241,7.7-7.387,12.021a.245.245,0,0,1-.481.062C272.074,288.735,272.074,288.714,272.074,288.672Zm1.606-6.3a28.149,28.149,0,0,1,4.842-6.43c-5.279-6.7-17.469-15.338-23.855-4.925-3.088,5.073-.9,11.124,3.883,14.3,3.943,2.628,8.619,2.628,13.105,1.939a.931.931,0,0,1,.252.023A12.269,12.269,0,0,1,273.681,282.369Z" transform="translate(2.66 8.127)"/>
    <path id="Path_398" data-name="Path 398" class="cls-4" d="M277.545,275.222a28.149,28.149,0,0,0-4.842,6.43,12.269,12.269,0,0,0-1.773,4.9.931.931,0,0,0-.252-.023c-4.486.689-9.162.689-13.105-1.939-4.78-3.173-6.971-9.225-3.883-14.3C260.076,259.884,272.265,268.524,277.545,275.222Z" transform="translate(3.639 8.844)"/>
  </g>
</svg>
