<svg xmlns="http://www.w3.org/2000/svg" width="79.635" height="100" viewBox="0 0 79.635 100">
  <defs>
    <style>
      .cls-1 {
        fill: #a27e4e;
      }

      .cls-2 {
        fill: #714f2b;
      }

      .cls-3 {
        fill: #da9a36;
      }

      .cls-4 {
        fill: #fff;
      }

      .cls-5 {
        fill: #222221;
      }
    </style>
  </defs>
  <g id="Group_9" data-name="Group 9" transform="translate(-427.432 -189.748)">
    <path id="Path_151" data-name="Path 151" class="cls-1" d="M499.55,214.5l-4.385,1.319c-1.9-7.072-7.048-11.89-15.078-11.962-7.741-.072-15.269,4.961-16.8,12.463-3.236-6.087-10.786-9.275-17.377-6.544-7.887-.1-13.159,7.839-13.159,15.436l-4.388-.1a56.483,56.483,0,0,1,4.268-20.926.617.617,0,0,0-.194-.719.256.256,0,0,0,.048-.143,26.969,26.969,0,0,1,1.271-8.006,19.666,19.666,0,0,0,3.642,3.836.973.973,0,0,0,.791.191.54.54,0,0,0,.6.072c16.323-7.813,32.288-9.108,49.715-4.529a.9.9,0,0,0,1.174-.887.469.469,0,0,0,.287-.241c.433-.911.815-1.821,1.2-2.756a12.2,12.2,0,0,1,1.582,8.15.742.742,0,0,0,.382.767.26.26,0,0,0,.024.119A61.4,61.4,0,0,1,499.55,214.5Z" transform="translate(1.288 1.754)"/>
    <path id="Path_152" data-name="Path 152" class="cls-1" d="M503.286,222.41a.817.817,0,0,0-.719.17c-11.746,9.036-18.362,24.9-14.717,39.5a30.774,30.774,0,0,1-12.872,4.792,36.694,36.694,0,0,1-13.83-.526,37.722,37.722,0,0,0-3.164-13.257,4.09,4.09,0,0,0,4.362-1.988,5.285,5.285,0,0,0,5.37,3.14,5.492,5.492,0,0,0,4.5-3.788c2.3,3.451,8.821,2.684,9.086-2.06.048-.863-1.319-1.3-1.678-.456-.624,1.343-1.224,2.66-2.854,2.973-1.8.358-3.164-.839-3.955-2.3a.556.556,0,0,0-.6-.287c-.5-.5-1.556-.48-1.7.382-.311,1.749-1.149,3.355-3.066,3.714a4.126,4.126,0,0,1-4.34-2.466.415.415,0,0,0-.526-.241.728.728,0,0,0-1.367.024,3,3,0,0,1-2.517,2.23c-.215.024-.887-.048-1.128.215a36.152,36.152,0,0,0-26.846-20.517,70.561,70.561,0,0,1-2.349-20.207l4.388.1c0,.48.024.958.072,1.439.839,9.2,10.5,14.189,19.007,12.32a16.908,16.908,0,0,0,5.85-2.517,17.582,17.582,0,0,0,8.078,5.442,1.123,1.123,0,0,0,1.317-.743,28.72,28.72,0,0,1,3.427-6.161,25.811,25.811,0,0,0,13.687,2.015c9.084-1.558,12.681-9.541,11.6-18.051a22.451,22.451,0,0,0-.624-3.138l4.385-1.319A85.571,85.571,0,0,1,503.286,222.41ZM488.76,233.846a.862.862,0,0,0-1.558-.672c-.456.624-.958,1.2-1.8,1.03a1.833,1.833,0,0,1-1.271-1.654.6.6,0,0,0-.958-.287.841.841,0,0,0-1.224.815c.074,1.436-.382,3.042-1.964,3.5a2.924,2.924,0,0,1-3.5-2.588c-.072-.839-1.319-.863-1.343-.048a1.021,1.021,0,0,0-1.558.454c-.576,1.367-1.415,2.588-3,2.782a3.612,3.612,0,0,1-3.594-2.254c-.215-.5-.911-.335-1.1.1-.385-.167-.863-.1-.961.406-.311,1.51-.5,3.045-2.156,3.692a3.419,3.419,0,0,1-4.242-1.893c-.337-.7-1.319-.072-1.032.621a4.762,4.762,0,0,0,5.561,2.758,4.969,4.969,0,0,0,3.355-3.908,4.837,4.837,0,0,0,8.941-1.463,4.5,4.5,0,0,0,4.627,3.212,4.694,4.694,0,0,0,3.788-3.379C485.261,236.482,488.279,236.363,488.76,233.846Zm-1.678,25.527a.95.95,0,0,0-1.487-1.15c-2.182,1.917-3.836.311-5.561-1.3a.736.736,0,0,0-.287-.12v-.358a.707.707,0,0,0-1.343,0,7.846,7.846,0,0,1-.815,3.018,5.159,5.159,0,0,1-2.66,2.158c-.7.263-.433,1.367.287,1.126a6.914,6.914,0,0,0,4.364-4.242,5.87,5.87,0,0,0,3.355,2.4C484.422,261.218,486.339,260.811,487.082,259.373Z" transform="translate(1.268 15.415)"/>
    <path id="Path_153" data-name="Path 153" class="cls-2" d="M457.546,247.089c-.7-.215-1.389-.456-2.06-.719a21.421,21.421,0,0,0-6.615-12.583c-.361-.337-.863.167-.528.5a19.6,19.6,0,0,1,5.466,11.386,32.644,32.644,0,0,1-3.86-2.036,12.675,12.675,0,0,0-3.236-7.072c-.528-.552-1.3.263-.815.815a10.432,10.432,0,0,1,2.3,5.129c-9.036-6.23-15.365-16.61-18.7-28.21C445.274,218.565,455.94,230.742,457.546,247.089Z" transform="translate(2.878 34.123)"/>
    <path id="Path_154" data-name="Path 154" class="cls-2" d="M468.035,210.8c.143,10.786-2.039,21.311-7.359,29.219a7.732,7.732,0,0,1,1.654-3.905c.552-.719-.672-1.439-1.224-.719a8.305,8.305,0,0,0-1.484,6.159,27.862,27.862,0,0,1-2.567,3.021c-.621-3.045.217-5.537,1.7-8.269.432-.791-.621-1.678-1.269-.982-2.469,2.684-2.806,6.9-1.726,10.258.024.072.072.1.1.143-.648.576-1.3,1.128-1.991,1.654C452.933,233.091,457.151,220.577,468.035,210.8Z" transform="translate(36.567 29.257)"/>
    <path id="Path_155" data-name="Path 155" class="cls-3" d="M458.256,224.639c1.51,1.006,3.716,2.445,2.877,4.051-1.224,2.278-4.075.024-5.227-1.006a.613.613,0,0,0-.287-.119A38.769,38.769,0,0,0,458.256,224.639Z" transform="translate(39.178 48.495)"/>
    <path id="Path_156" data-name="Path 156" class="cls-3" d="M456.774,226.575a2.661,2.661,0,0,1,.263,2.9,1.878,1.878,0,0,1-3.523-.478A27.621,27.621,0,0,0,456.774,226.575Z" transform="translate(36.251 51.186)"/>
    <path id="Path_157" data-name="Path 157" class="cls-3" d="M454.813,228.089a2.562,2.562,0,0,1-.263,3.188c-1.248,1.1-3.164-.072-3.4-1.534A31.33,31.33,0,0,0,454.813,228.089Z" transform="translate(32.961 53.29)"/>
    <path id="Path_158" data-name="Path 158" class="cls-3" d="M449.171,229.694c.215,1.2.1,2.732-1.439,3a2.064,2.064,0,0,1-2.182-2.086,4.9,4.9,0,0,0,.239-.791C446.893,229.813,448.019,229.766,449.171,229.694Z" transform="translate(25.182 55.521)"/>
    <path id="Path_159" data-name="Path 159" class="cls-3" d="M443.276,229.564c1.367.191,2.734.335,4.17.406-.621,1.271-1.221,2.973-2.851,2.9C442.941,232.8,443.132,230.833,443.276,229.564Z" transform="translate(21.895 55.34)"/>
    <path id="Path_160" data-name="Path 160" class="cls-3" d="M445.168,230.122c-.791.934-1.1,2.325-2.349,2.806-2.325.863-2.325-2.564-2.156-3.955A38.722,38.722,0,0,0,445.168,230.122Z" transform="translate(18.3 54.518)"/>
    <path id="Path_161" data-name="Path 161" class="cls-3" d="M450.688,211.817a28.739,28.739,0,0,0-3.021,5.537,23.044,23.044,0,0,1-6.52-3.931,16.594,16.594,0,0,0,4.866-6.5A11.316,11.316,0,0,0,450.688,211.817Z" transform="translate(19.062 23.877)"/>
    <path id="Path_162" data-name="Path 162" class="cls-4" d="M458.127,207.142A13.8,13.8,0,0,1,449,224.808c-5.707,1.749-14.072.12-16.732-5.944-3.451-7.815,1.15-17.308,9.156-19.248a.813.813,0,0,0,.863.287C448.754,198.2,455.682,200.431,458.127,207.142Zm-10.116,14.022a3.545,3.545,0,0,0-.982-5.487,3.223,3.223,0,0,0-4,1.1,3.328,3.328,0,0,0-.6,3.594A3.53,3.53,0,0,0,448.011,221.164Z" transform="translate(5.103 13.354)"/>
    <path id="Path_163" data-name="Path 163" class="cls-4" d="M472.042,207.888c1.582,7.143.337,15.123-7.6,17.592-3.621,1.128-9.708.767-14.335-1.317a1.22,1.22,0,0,0-1.293-.648c-2.83-1.582-4.866-3.931-5.012-7.12a.56.56,0,0,0-.048-.191,15.464,15.464,0,0,0-.263-5.537.777.777,0,0,0,.1-.335C445,194.921,468.567,192.38,472.042,207.888ZM461.712,223.4a3.2,3.2,0,0,0,2.493-3.621,3.048,3.048,0,0,0-3.5-2.4,1.478,1.478,0,0,0-.791,0,3.084,3.084,0,0,0-2.012,3.884A3.126,3.126,0,0,0,461.712,223.4Z" transform="translate(22.324 10.691)"/>
    <path id="Path_164" data-name="Path 164" class="cls-5" d="M502.181,274.931a3.425,3.425,0,0,1-.648,3.884c-2.012,1.991-4.722.982-6.5-.743a3.9,3.9,0,0,1-1.126,4.316,3.322,3.322,0,0,1-3.979.191,3.864,3.864,0,0,1-1.845,3.594c-2.158,1.224-4.794-.406-5.275-2.636a34.753,34.753,0,0,1-6.783,1.487,3.709,3.709,0,0,1-3.14,4.722,3.208,3.208,0,0,1-3-2.015,3.744,3.744,0,0,1-4.051,1.845,2.582,2.582,0,0,1-1.893-2.636,4.094,4.094,0,0,1-3.74,2.063c-2.756-.48-2.9-3.692-2.084-5.8-28.117-9.8-37.8-51.414-25.362-77.734a1.7,1.7,0,0,1-.167-.215c-1.126-3.5-.167-7.382,1.343-10.618a1,1,0,0,1,1.678,0,19.169,19.169,0,0,0,4.409,4.914.643.643,0,0,1,.167.191,58.816,58.816,0,0,1,50-5.009c.287-1.439.672-2.851,1.054-4.242a.987.987,0,0,1,1.63-.456,12.592,12.592,0,0,1,3.212,10.164,1.3,1.3,0,0,1,.432.382c11.72,17.451,15.365,51.632,2.11,70.808C499.975,272.415,501.461,273.3,502.181,274.931Zm-4.938-5.657c5.32-7.908,7.5-18.433,7.359-29.219-10.884,9.779-15.1,22.293-14.167,36.578.7-.526,1.343-1.078,1.991-1.654-.024-.048-.072-.072-.1-.143-1.08-3.355-.743-7.574,1.726-10.257.648-.7,1.7.191,1.269.982-1.484,2.732-2.323,5.224-1.7,8.269a27.863,27.863,0,0,0,2.567-3.021,8.305,8.305,0,0,1,1.484-6.159c.552-.719,1.776,0,1.224.719A7.732,7.732,0,0,0,497.243,269.274ZM503.835,238a.817.817,0,0,1,.719-.17,85.57,85.57,0,0,0-3.716-21.571,61.4,61.4,0,0,0-6.4-14.454.26.26,0,0,1-.024-.119.742.742,0,0,1-.382-.767,12.2,12.2,0,0,0-1.582-8.15c-.385.934-.767,1.845-1.2,2.756a.469.469,0,0,1-.287.241.9.9,0,0,1-1.174.887c-17.427-4.579-33.392-3.284-49.715,4.529a.54.54,0,0,1-.6-.072.973.973,0,0,1-.791-.191,19.665,19.665,0,0,1-3.642-3.836,26.969,26.969,0,0,0-1.271,8.006.256.256,0,0,1-.048.143.617.617,0,0,1,.194.719,56.483,56.483,0,0,0-4.268,20.926A70.559,70.559,0,0,0,432,247.079,36.152,36.152,0,0,1,458.842,267.6c.241-.263.913-.191,1.128-.215a3,3,0,0,0,2.517-2.23.728.728,0,0,1,1.367-.024.415.415,0,0,1,.526.241,4.126,4.126,0,0,0,4.34,2.466c1.917-.358,2.756-1.965,3.066-3.714.146-.863,1.2-.887,1.7-.382a.557.557,0,0,1,.6.287c.791,1.463,2.158,2.66,3.955,2.3,1.63-.313,2.23-1.63,2.854-2.973.358-.839,1.725-.406,1.678.457-.265,4.744-6.785,5.511-9.086,2.06a5.492,5.492,0,0,1-4.5,3.788,5.285,5.285,0,0,1-5.37-3.14,4.09,4.09,0,0,1-4.362,1.988,37.722,37.722,0,0,1,3.164,13.257,36.694,36.694,0,0,0,13.83.526,30.775,30.775,0,0,0,12.872-4.792C485.473,262.9,492.088,247.031,503.835,238Zm-3.523,39.19c.839-1.606-1.367-3.045-2.877-4.051a38.773,38.773,0,0,1-2.636,2.925.613.613,0,0,1,.287.119C496.237,277.209,499.088,279.463,500.312,277.185Zm-7.024,3.475a2.66,2.66,0,0,0-.263-2.9,27.621,27.621,0,0,1-3.26,2.421A1.878,1.878,0,0,0,493.288,280.66Zm-5.776,3.908a2.562,2.562,0,0,0,.263-3.188,31.332,31.332,0,0,1-3.666,1.654C484.347,284.5,486.264,285.672,487.512,284.567Zm-14.6,3.645c1.534-.265,1.654-1.8,1.439-3-1.152.072-2.278.12-3.382.12a4.907,4.907,0,0,1-.239.791A2.064,2.064,0,0,0,472.914,288.212Zm-3.573-2.9c-1.436-.072-2.8-.215-4.17-.406-.143,1.269-.335,3.236,1.319,3.308C468.12,288.284,468.72,286.582,469.341,285.311Zm-8.221,2.134c1.247-.48,1.558-1.871,2.349-2.806a38.725,38.725,0,0,1-4.5-1.15C458.794,284.881,458.794,288.308,461.12,287.445Zm-2.756-6.952c.672.263,1.365.5,2.06.719-1.606-16.347-12.272-28.524-28.043-32.79,3.332,11.6,9.66,21.98,18.7,28.21a10.432,10.432,0,0,0-2.3-5.129c-.48-.552.287-1.367.815-.815a12.675,12.675,0,0,1,3.236,7.072,32.646,32.646,0,0,0,3.86,2.036,19.6,19.6,0,0,0-5.466-11.386c-.335-.335.167-.839.528-.5A21.421,21.421,0,0,1,458.364,280.493Z" transform="translate(0 0)"/>
    <path id="Path_165" data-name="Path 165" class="cls-5" d="M493.236,211.486c1.078,8.51-2.519,16.493-11.6,18.051a25.811,25.811,0,0,1-13.687-2.015,28.721,28.721,0,0,0-3.427,6.161,1.123,1.123,0,0,1-1.317.743,17.582,17.582,0,0,1-8.078-5.442,16.909,16.909,0,0,1-5.85,2.517c-8.508,1.869-18.168-3.116-19.007-12.32-.048-.48-.072-.958-.072-1.439,0-7.6,5.272-15.532,13.159-15.436,6.591-2.732,14.141.456,17.377,6.544,1.534-7.5,9.063-12.535,16.8-12.463,8.03.072,13.183,4.89,15.078,11.962A22.447,22.447,0,0,1,493.236,211.486Zm-10.308,15.46c7.934-2.469,9.18-10.449,7.6-17.592-3.475-15.508-27.037-12.968-28.452,2.445a.777.777,0,0,1-.1.335,15.464,15.464,0,0,1,.263,5.537.56.56,0,0,1,.048.191c.146,3.188,2.182,5.537,5.012,7.12a1.22,1.22,0,0,1,1.293.648C473.221,227.713,479.308,228.074,482.928,226.946Zm-20.039,5.059a28.74,28.74,0,0,1,3.021-5.537,11.316,11.316,0,0,1-4.675-4.89,16.593,16.593,0,0,1-4.866,6.5A23.043,23.043,0,0,0,462.889,232.006Zm-12.631-3.069a13.8,13.8,0,0,0,9.132-17.666c-2.445-6.711-9.373-8.941-15.845-7.239a.813.813,0,0,1-.863-.287c-8.006,1.941-12.607,11.433-9.156,19.248C436.186,229.057,444.551,230.686,450.258,228.937Z" transform="translate(3.84 9.225)"/>
    <path id="Path_166" data-name="Path 166" class="cls-5" d="M470.275,214.974a.862.862,0,0,1,1.558.672c-.48,2.517-3.5,2.636-4.985,1.221a4.694,4.694,0,0,1-3.788,3.379,4.5,4.5,0,0,1-4.627-3.212,4.837,4.837,0,0,1-8.941,1.463,4.969,4.969,0,0,1-3.355,3.908,4.762,4.762,0,0,1-5.561-2.758c-.287-.693.7-1.317,1.032-.621a3.419,3.419,0,0,0,4.242,1.893c1.654-.648,1.845-2.182,2.156-3.692.1-.5.576-.574.961-.406.191-.43.887-.6,1.1-.1a3.612,3.612,0,0,0,3.594,2.254c1.582-.194,2.421-1.415,3-2.782a1.021,1.021,0,0,1,1.558-.454c.024-.815,1.271-.791,1.343.048a2.924,2.924,0,0,0,3.5,2.588c1.582-.456,2.038-2.063,1.964-3.5a.841.841,0,0,1,1.224-.815.6.6,0,0,1,.958.287A1.833,1.833,0,0,0,468.477,216C469.316,216.171,469.818,215.6,470.275,214.974Z" transform="translate(18.195 33.616)"/>
    <path id="Path_167" data-name="Path 167" class="cls-5" d="M458.74,226.164a.95.95,0,0,1,1.487,1.15c-.743,1.439-2.66,1.845-4.146,1.534a5.87,5.87,0,0,1-3.355-2.4,6.914,6.914,0,0,1-4.364,4.242c-.719.241-.982-.863-.287-1.126a5.16,5.16,0,0,0,2.66-2.158,7.846,7.846,0,0,0,.815-3.018.707.707,0,0,1,1.343,0v.358a.736.736,0,0,1,.287.12C454.9,226.475,456.558,228.081,458.74,226.164Z" transform="translate(28.124 47.475)"/>
    <path id="Path_168" data-name="Path 168" class="cls-5" d="M455.9,208.211a3.2,3.2,0,0,1-2.493,3.621,3.126,3.126,0,0,1-3.812-2.134,3.084,3.084,0,0,1,2.012-3.884,1.478,1.478,0,0,1,.791,0A3.048,3.048,0,0,1,455.9,208.211Z" transform="translate(30.63 22.256)"/>
    <path id="Path_169" data-name="Path 169" class="cls-5" d="M440.614,206.363a3.461,3.461,0,1,1-4.6,4.7,3.328,3.328,0,0,1,.6-3.594A3.223,3.223,0,0,1,440.614,206.363Z" transform="translate(11.518 22.668)"/>
  </g>
</svg>
