<svg xmlns="http://www.w3.org/2000/svg" width="89.97" height="100.493" viewBox="0 0 89.97 100.493">
  <defs>
    <style>
      .cls-1 {
        fill: #222221;
      }

      .cls-2 {
        fill: #fff;
      }

      .cls-3 {
        fill: #da9a36;
      }
    </style>
  </defs>
  <g id="Group_107" data-name="Group 107" transform="translate(-122 -103)">
    <g id="Group_37" data-name="Group 37" transform="translate(42.911 -163.768)">
      <path id="Path_374" data-name="Path 374" class="cls-1" d="M169,303.847c.229,4.977.1,12.1-5.181,14.5,2.143,16.972-2.7,30.779-14.776,37.95,1.863,1.992,3.316,6.176-.127,7.428a4.187,4.187,0,0,1-4.417-1.226c.13,2.069-.509,4.008-2.781,3.906a5.38,5.38,0,0,1-4.695-3.855c-.333,2.069-1.379,4.135-3.5,4.135-2.835,0-3.906-2.578-4.109-4.977-1.583.079-3.14.079-4.672.053-.28,2.807-2.422,5.919-5.435,5.461a3.371,3.371,0,0,1-2.7-2.679,3.95,3.95,0,0,1-4.16,1.684,2.913,2.913,0,0,1-2.117-2.962c-1.557,1.685-3.779,2.654-5.692,1.176-2.092-1.634-1.1-5.333.893-7.1-12.555-6.252-19.677-18.883-19.064-36.748.025-1.02.1-2.094.2-3.191a15.841,15.841,0,0,1-7.3-9.875c-.359-1.481-.664-2.962,1.071-3.42,1.328-.359,3.165-.051,4.542-.051,1.4,0,2.784.025,4.16.051,4.415-16.206,14.216-33.764,29.273-36.547.076-.051.127-.127.229-.153,25.166-4.618,37.39,16.743,42.723,38,.1-.025.229-.076.356-.1a8.236,8.236,0,0,0,5.155-2.349A1.257,1.257,0,0,1,169,303.847Zm-5.333,13.374c2.527-3.42,3.01-6.967,2.934-10.975a11.1,11.1,0,0,1-4.669,1.532c.712,3.165,1.275,6.328,1.735,9.341Zm-5.59,27.741c6.354-10.336,3.88-25.316,1.277-36.29-4.723-19.906-13.832-38.894-35.372-40.041a.947.947,0,0,1-.69.382c-22.331,2.45-33.458,32.514-34.123,51.578-.331,9.392.995,20.468,7.4,27.868-4.109-18.222-5.155-63.573,18.988-64.057a.709.709,0,0,1,.766.842c3.878.969,6.15,5.028,7.578,8.83,2.094-8.651,16.181-13.654,21.975-6.048a.857.857,0,0,1,.178.562c13.143,13.6,12.761,40.349,10.924,58.008C157.357,346.059,157.742,345.524,158.072,344.962Zm-3.522,3.649c1.249-19.547,2.3-43.156-10.26-59.438-7.682-5.921-16.1-.178-19.471,7.453-.025.051-.079.051-.1.1a.692.692,0,0,1,0,.229,25.423,25.423,0,0,1,5.079,3.42.638.638,0,0,1,.155.206,1.118,1.118,0,0,1,1.122,1.634c-1.634,2.908-4.44,6.252-8.219,5.359-2.985-.69-4.618-3.83-4.975-6.636a.462.462,0,0,1,.458-.562,1.1,1.1,0,0,1,.435-1.224,30.384,30.384,0,0,1,3.929-2.374c-1.506-4.542-3.216-9.084-8.115-10.565-22.433,3.929-18.3,47.723-16.308,64.031,7.58,7.018,19.932,8.909,29.756,8.6,9.239-.28,19.881-2.858,26.67-9.646A1.057,1.057,0,0,1,154.551,348.611Zm-7.043,13.374c1.249-.051,1.532-1.173,1.173-2.2a9.739,9.739,0,0,0-1.557-2.374.079.079,0,0,1-.025-.051c-1.02.486-2.041.972-3.137,1.379C144.879,360.1,145.619,362.036,147.507,361.985Zm-6.458,2.756c2.835.69,1.608-3.852.817-5.13-.025-.025-.025-.051-.051-.076-1.3.41-2.629.766-4.056,1.071A4.561,4.561,0,0,0,141.049,364.741Zm-7.527.1c1.4-.1,1.634-2.168,1.786-3.725-1.43.229-2.911.382-4.44.509C131.148,363.107,131.787,364.97,133.522,364.843Zm-4.9-62.96A25.694,25.694,0,0,1,123.848,298a32.334,32.334,0,0,1-4.031,2.985,1.1,1.1,0,0,1-.461.153c.919,1.4,1.684,3.165,3.216,3.931C125.227,306.4,127.268,303.926,128.622,301.882Zm-8.957,63.573c2.244.229,2.7-1.964,3.137-3.8-1.532-.1-3.036-.257-4.517-.486C118.133,362.776,117.6,365.252,119.665,365.456Zm-3.115-4.466c.025-.026.076-.026.1-.051-1.351-.232-2.654-.537-3.929-.868-.511,1.275-1.608,4.364.662,4.466C115.352,364.614,115.632,362.138,116.55,360.99Zm-5.819-1.532a34.651,34.651,0,0,1-3.751-1.43c-1.506,1.227-2.552,5.333-.051,5.028C109.021,362.8,109.456,360.657,110.731,359.458ZM88.606,306.145c-1.2.025-2.4.051-3.626.051a22.205,22.205,0,0,0-3.751-.1c.076,3.776,2.908,7.145,5.616,9.774A82.632,82.632,0,0,1,88.606,306.145Z" transform="translate(0 0)"/>
      <path id="Path_375" data-name="Path 375" class="cls-1" d="M116.313,282.283c.076,4.008-.407,7.555-2.934,10.975v-.1c-.461-3.013-1.023-6.176-1.735-9.341A11.1,11.1,0,0,0,116.313,282.283Z" transform="translate(50.283 23.963)"/>
      <path id="Path_376" data-name="Path 376" class="cls-1" d="M153.261,307.541c2.6,10.975,5.076,25.955-1.277,36.29-.331.562-.715,1.1-1.1,1.634,1.837-17.659,2.219-44.405-10.924-58.008a.857.857,0,0,0-.178-.562c-5.794-7.606-19.881-2.6-21.975,6.048-1.427-3.8-3.7-7.86-7.578-8.83a.709.709,0,0,0-.766-.842c-24.143.483-23.1,45.835-18.988,64.057-6.407-7.4-7.733-18.476-7.4-27.868.664-19.064,11.791-49.128,34.123-51.578a.947.947,0,0,0,.69-.382C139.429,268.648,148.539,287.635,153.261,307.541Z" transform="translate(6.088 1.13)"/>
      <path id="Path_377" data-name="Path 377" class="cls-2" d="M133.643,277.369c12.557,16.283,11.509,39.891,10.26,59.438a1.057,1.057,0,0,0,.153.588c-6.789,6.789-17.43,9.367-26.67,9.646-9.825.308-22.176-1.583-29.756-8.6-1.992-16.308-6.125-60.1,16.308-64.031,4.9,1.481,6.608,6.023,8.115,10.565a30.384,30.384,0,0,0-3.929,2.374,1.1,1.1,0,0,0-.435,1.224.462.462,0,0,0-.458.562c.356,2.807,1.99,5.947,4.975,6.636,3.779.893,6.585-2.45,8.219-5.359a1.118,1.118,0,0,0-1.122-1.634.638.638,0,0,0-.155-.206,25.423,25.423,0,0,0-5.079-3.42.692.692,0,0,0,0-.229c.025-.051.079-.051.1-.1C117.539,277.191,125.961,271.448,133.643,277.369Zm-1.506,7.809a3.679,3.679,0,0,0-3.445-3.547,3.751,3.751,0,0,0-3.954,2.962c-.178.791.995,1.4,1.377.585a2.4,2.4,0,0,1,2.5-1.606c1.1.178,1.532,1.122,1.967,2.041C130.964,286.405,132.086,285.919,132.137,285.179ZM101.386,286.3c.433.639,1.735.483,1.634-.435a3.349,3.349,0,0,0-3.931-2.756,3.207,3.207,0,0,0-2.476,3.906c.127.458.919.509,1.02,0a2.217,2.217,0,0,1,1.659-1.992C100.312,284.848,100.875,285.537,101.386,286.3Z" transform="translate(10.648 11.803)"/>
      <path id="Path_378" data-name="Path 378" class="cls-3" d="M109.3,304.8c.359,1.023.076,2.145-1.173,2.2-1.888.051-2.629-1.888-3.547-3.242,1.1-.407,2.117-.893,3.137-1.379a.079.079,0,0,0,.025.051A9.739,9.739,0,0,1,109.3,304.8Z" transform="translate(39.377 54.992)"/>
      <path id="Path_379" data-name="Path 379" class="cls-1" d="M105.178,277.255a3.679,3.679,0,0,1,3.445,3.547c-.051.741-1.173,1.227-1.555.435-.435-.919-.868-1.863-1.967-2.041a2.4,2.4,0,0,0-2.5,1.606c-.382.817-1.555.206-1.377-.585A3.751,3.751,0,0,1,105.178,277.255Z" transform="translate(34.161 16.179)"/>
      <path id="Path_380" data-name="Path 380" class="cls-3" d="M106.253,303.3c.791,1.277,2.018,5.819-.817,5.13a4.561,4.561,0,0,1-3.29-4.135c1.427-.305,2.756-.662,4.056-1.071C106.227,303.25,106.227,303.276,106.253,303.3Z" transform="translate(35.613 56.31)"/>
      <path id="Path_381" data-name="Path 381" class="cls-3" d="M103.878,303.847c-.153,1.557-.384,3.623-1.786,3.725-1.735.127-2.374-1.735-2.654-3.216C100.967,304.229,102.448,304.076,103.878,303.847Z" transform="translate(31.43 57.27)"/>
      <path id="Path_382" data-name="Path 382" class="cls-3" d="M99.405,279.044a25.694,25.694,0,0,0,4.774,3.878c-1.354,2.043-3.394,4.517-6.048,3.191-1.532-.766-2.3-2.527-3.216-3.931a1.1,1.1,0,0,0,.461-.153A32.334,32.334,0,0,0,99.405,279.044Z" transform="translate(24.443 18.961)"/>
      <path id="Path_383" data-name="Path 383" class="cls-3" d="M99.117,304.353c-.433,1.837-.893,4.031-3.137,3.8-2.069-.2-1.532-2.679-1.379-4.288C96.081,304.1,97.585,304.249,99.117,304.353Z" transform="translate(23.685 57.301)"/>
      <path id="Path_384" data-name="Path 384" class="cls-3" d="M96.672,304.3c-.025.025-.076.025-.1.051-.919,1.148-1.2,3.623-3.165,3.547-2.27-.1-1.173-3.191-.662-4.466C94.018,303.767,95.321,304.072,96.672,304.3Z" transform="translate(19.98 56.635)"/>
      <path id="Path_385" data-name="Path 385" class="cls-1" d="M96.628,280.622c.1.919-1.2,1.074-1.634.435-.511-.766-1.074-1.456-2.094-1.277a2.217,2.217,0,0,0-1.659,1.992c-.1.509-.893.458-1.02,0a3.207,3.207,0,0,1,2.476-3.906A3.349,3.349,0,0,1,96.628,280.622Z" transform="translate(17.04 17.049)"/>
      <path id="Path_386" data-name="Path 386" class="cls-3" d="M90.994,302.633a34.651,34.651,0,0,0,3.751,1.43c-1.275,1.2-1.71,3.344-3.8,3.6C88.442,307.966,89.488,303.859,90.994,302.633Z" transform="translate(15.986 55.395)"/>
      <path id="Path_387" data-name="Path 387" class="cls-1" d="M83.681,282.367c1.226,0,2.425-.025,3.626-.051a82.632,82.632,0,0,0-1.761,9.723c-2.707-2.629-5.54-6-5.616-9.774A22.205,22.205,0,0,1,83.681,282.367Z" transform="translate(1.299 23.828)"/>
    </g>
  </g>
</svg>
