<svg xmlns="http://www.w3.org/2000/svg" width="75.157" height="99.841" viewBox="0 0 75.157 99.841">
  <defs>
    <style>
      .cls-1 {
        fill: #222221;
      }

      .cls-2 {
        fill: #80bdc4;
      }

      .cls-3 {
        fill: #da9a36;
      }

      .cls-4 {
        fill: #939393;
      }

      .cls-5 {
        fill: #dca1a1;
      }
    </style>
  </defs>
  <g id="Group_41" data-name="Group 41" transform="translate(-167.835 -257.812)">
    <path id="Path_423" data-name="Path 423" class="cls-1" d="M241.719,329.358a1.017,1.017,0,0,1,1.129,1.479,17.519,17.519,0,0,1-5.034,5.384,40.384,40.384,0,0,1,4.665,2.239.961.961,0,0,1,.2,1.52,24.451,24.451,0,0,1-4.849,3.741c.76.635,1.5,1.293,2.2,1.971.432.412.926.823.862,1.481-.082.883-1.047,1.231-1.684,1.6-1.336.74-2.672,1.459-4.007,2.178.678,1.047,1.377,2.055,2.157,3.04a.722.722,0,0,1,.391.658.811.811,0,0,1-.143.535.968.968,0,0,1-1.008.494,65.282,65.282,0,0,1-23.2-7.705c-.432.328-.947.574-1.418.883,1.418,1.789,3.122,5.075.471,5.773a5.188,5.188,0,0,1-3.718-.576,2.526,2.526,0,0,1-4.54,1.625c-.166,1.006-.637,1.807-1.625,1.95-2.342.33-3.411-3-3.225-4.931-.637.021-1.254.041-1.87.041.184,2.1-.678,4.913-3.268,4.583-1.52-.2-1.827-1.172-1.786-2.321-.637,1.047-1.5,1.786-2.878,1.315a2.112,2.112,0,0,1-1.17-.926,2.676,2.676,0,0,1-2.692.8,2.317,2.317,0,0,1-1.418-2.321,4.369,4.369,0,0,1,1.52-2.815.412.412,0,0,1,.473-.082c.123-.184.225-.371.328-.555-17.012-7.869-12.7-33.08-8.117-47.63a4.927,4.927,0,0,1-.594.412.488.488,0,0,1-.7-.6,22.324,22.324,0,0,1-9.125-5.466.784.784,0,0,1,.33-1.272c3.165-1.295,6.369-2.487,9.637-3.536-2.405-6.738,3.452-13.519,9.985-16.047-.041-.061-.1-.1-.123-.184-1.582-3.288-3.473-7.994-7.93-7.849-2.878.1-4.151,2.774-6.658,3.616-1.993.678-4.192-.287-4.171-2.28-2.178-6.74,3.718-12.534,10.54-11.692,8.506,1.067,12.493,9.719,13.294,17.342.268,0,.535-.02.781,0,11.139.617,13.767,11.321,13.542,20.589a18.879,18.879,0,0,1,12.143,8.65c5.384,8.26,4.337,18.78,7.687,27.514a.882.882,0,0,1,.287-.125C232.144,330.919,236.931,330.159,241.719,329.358Zm-2.487,17.69c.082-.553-2.917-2.794-3.35-3.266-.41-.473.1-1.315.658-1.069.02,0,.02-.021.041-.021a37.56,37.56,0,0,0,3.679-3.081,20.846,20.846,0,0,1-4.214-2.18.891.891,0,0,1,.166-1.561.774.774,0,0,1,.307-.473,15.924,15.924,0,0,0,3.452-3.718c-4.028.7-8.055,1.377-12.1,1.952h-.041a22.322,22.322,0,0,0,1.088,2.075.859.859,0,0,1-.76,1.315,13.614,13.614,0,0,1-7.705,1.295.742.742,0,0,1,.02.6,19.558,19.558,0,0,1-5.98,8.238,86.769,86.769,0,0,0,20.981,6.494c-.658-.842-1.315-1.707-1.932-2.59a.728.728,0,0,1,.266-.985l3.1-1.727A16.667,16.667,0,0,0,239.232,347.049Zm-34.766-21.78c5.548,6.781,13.5,12.329,22.581,10.848-3.657-5.691-3.575-13.622-5.279-20.032-2.426-9.166-7.418-16.994-16.807-19.213C191.973,299.029,199.432,319.084,204.466,325.269Zm14.343,12.925c.02-.041.061-.084.1-.145-8.219-1.745-15.9-9.719-19.581-16.457a25.505,25.505,0,0,1-2.055-5.363c-2.9,3.309-7.336,4.376-11.671,4.11-2.1-.143-6.822-.082-8.4-2.116-1.438,10.418-1.254,21.1,6.966,28.067C194.46,355,213.609,350.193,218.809,338.194Zm-7.562,14.9c1.254-.041.471-1.192.061-1.87a7.708,7.708,0,0,0-1.049-1.377,23.639,23.639,0,0,1-2.692,1.151A4.434,4.434,0,0,0,211.247,353.09Zm-4.274,1.829c.883-1.151-.1-2.426-.987-3.37-.658.184-1.315.369-1.973.533.082.391.166.865.227,1.336C204.9,354.754,205.986,356.214,206.974,354.92Zm-10.788-49.992c.6-5.425,3.206-9.844,9.494-9.7-.041-7.357-1.274-15.761-9.514-18.061-9.164-2.569-17.3,6.328-17.137,15a.7.7,0,0,1,.74.227,7.572,7.572,0,0,1,1.356,6.183C187.083,295.454,193.227,299.359,196.185,304.928Zm6.205,51.182c.74-.307.719-1.5.535-2.628a5.25,5.25,0,0,1-.248-1.172,22.118,22.118,0,0,1-2.3.307C200.4,353.768,200.932,356.747,202.391,356.11Zm-5.63-41.814c0-.021.021-.021.041-.021a30.571,30.571,0,0,1-.658-4.376,14.921,14.921,0,0,0-4.007-7.789,10.841,10.841,0,0,0-11.464-2.094,7.522,7.522,0,0,1-1.008,1.7.657.657,0,0,1,.268.617c-.637,4.253-1.686,9.041-2.467,13.931a.544.544,0,0,1,.35.348c.615,2.344,8.033,2.18,9.862,2.075A12.6,12.6,0,0,0,196.761,314.3Zm-.862,40.582a5.5,5.5,0,0,0,.184-2.159c-.719-.041-1.438-.123-2.137-.2-.02.289-.041.6-.082.924-.1.637-.453,1.543-.061,2.139C194.417,356.5,195.609,355.6,195.9,354.879Zm-3.679-2.671c-.576-.125-1.17-.227-1.725-.371-.021.021-.021.041-.041.061a7.907,7.907,0,0,0-1.028,1.87c0,.041-.02.082-.02.123.02,1.028.885,1.479,1.666.678A6.639,6.639,0,0,0,192.219,352.207Zm-3.02-76.354a15.22,15.22,0,0,1,2.63-.555c-1.008-5.115-2.63-10.192-6.966-13.458-5.939-4.521-16.994-1.748-15.246,6.943,2.26,1.747,4.069,1.85,5.4.289a6.1,6.1,0,0,1,.9-.76,7.914,7.914,0,0,1,1.786-1.172,6.4,6.4,0,0,1,4.5-.1c3.759,1.213,5.876,4.972,6.966,8.527A.477.477,0,0,1,189.2,275.853Zm-.965,77.34a5.486,5.486,0,0,1,.9-1.807c-.576-.186-1.151-.371-1.707-.6a11.2,11.2,0,0,0-1.006.965,3.68,3.68,0,0,0-.822,2.116c.1,1.008,1.026,1.11,1.7.555A4.639,4.639,0,0,0,188.234,353.193Zm-10.4-51.451a6.813,6.813,0,0,0,.76-7.994.42.42,0,0,1-.125.084c-2.628.842-5.218,1.786-7.787,2.774a52.306,52.306,0,0,0,7.6.225c.987-.061.987,1.52,0,1.541a38.7,38.7,0,0,1-6.9-.514A48.212,48.212,0,0,0,177.837,301.742Z" transform="translate(0 0)"/>
    <path id="Path_424" data-name="Path 424" class="cls-2" d="M212,305.972c.432.471,3.432,2.712,3.35,3.266a16.667,16.667,0,0,1-2.321,1.295l-3.1,1.727a.728.728,0,0,0-.266.985c.617.883,1.274,1.747,1.932,2.59a86.769,86.769,0,0,1-20.981-6.494,19.558,19.558,0,0,0,5.98-8.238.742.742,0,0,0-.02-.6,13.614,13.614,0,0,0,7.705-1.295.859.859,0,0,0,.76-1.315,22.322,22.322,0,0,1-1.088-2.075h.041c4.046-.576,8.074-1.254,12.1-1.952a15.924,15.924,0,0,1-3.452,3.718.774.774,0,0,0-.307.473.891.891,0,0,0-.166,1.561,20.846,20.846,0,0,0,4.214,2.18,37.56,37.56,0,0,1-3.679,3.081c-.021,0-.021.021-.041.021C212.1,304.656,211.59,305.5,212,305.972Z" transform="translate(23.883 37.811)"/>
    <path id="Path_425" data-name="Path 425" class="cls-2" d="M211.749,316.123c-9.082,1.481-17.033-4.067-22.581-10.848-5.034-6.185-12.493-26.24.494-28.4,9.389,2.219,14.382,10.047,16.807,19.213C208.174,302.5,208.092,310.431,211.749,316.123Z" transform="translate(15.298 19.994)"/>
    <path id="Path_426" data-name="Path 426" class="cls-2" d="M214.468,308.147c-.041.061-.082.1-.1.145-5.2,12-24.349,16.807-34.643,8.094-8.219-6.966-8.4-17.649-6.966-28.067,1.582,2.034,6.308,1.973,8.4,2.116,4.335.266,8.772-.8,11.671-4.11a25.505,25.505,0,0,0,2.055,5.363C198.564,298.428,206.249,306.4,214.468,308.147Z" transform="translate(4.443 29.902)"/>
    <path id="Path_427" data-name="Path 427" class="cls-3" d="M190.97,304.111c.41.678,1.192,1.829-.061,1.87a4.434,4.434,0,0,1-3.679-2.1,23.639,23.639,0,0,0,2.692-1.151A7.708,7.708,0,0,1,190.97,304.111Z" transform="translate(20.339 47.109)"/>
    <path id="Path_428" data-name="Path 428" class="cls-3" d="M187.467,303.567c.883.945,1.87,2.219.987,3.37-.987,1.295-2.075-.166-2.733-1.5-.061-.471-.145-.944-.227-1.336C186.152,303.936,186.809,303.751,187.467,303.567Z" transform="translate(18.519 47.982)"/>
    <path id="Path_429" data-name="Path 429" class="cls-4" d="M199.951,285.551c-6.287-.145-8.9,4.274-9.494,9.7-2.958-5.568-9.1-9.473-15.062-6.351a7.572,7.572,0,0,0-1.356-6.183.7.7,0,0,0-.74-.227c-.164-8.67,7.973-17.567,17.137-15C198.676,269.791,199.91,278.195,199.951,285.551Zm-13.253-7.07c.553-2.4-1.789-4.745-4.151-4.683a4.158,4.158,0,0,0-3.741,5.054.613.613,0,0,0,1.192-.164,3,3,0,0,1,2.733-3.309c1.766,0,2.549,1.6,2.794,3.1C185.608,279.1,186.573,279.057,186.7,278.481Z" transform="translate(5.728 9.678)"/>
    <path id="Path_430" data-name="Path 430" class="cls-3" d="M186.268,305.11c.184,1.129.2,2.321-.535,2.628-1.459.637-1.993-2.342-2.014-3.493a22.118,22.118,0,0,0,2.3-.307A5.25,5.25,0,0,0,186.268,305.11Z" transform="translate(16.658 48.372)"/>
    <path id="Path_431" data-name="Path 431" class="cls-5" d="M191.872,293.073c-.02,0-.041,0-.041.021a12.6,12.6,0,0,1-9.082,4.4c-1.829.1-9.248.268-9.862-2.075a.544.544,0,0,0-.35-.348c.781-4.89,1.829-9.678,2.467-13.931a.657.657,0,0,0-.268-.617,7.522,7.522,0,0,0,1.008-1.7,10.841,10.841,0,0,1,11.464,2.094,14.921,14.921,0,0,1,4.007,7.789A30.571,30.571,0,0,0,191.872,293.073Z" transform="translate(4.93 21.203)"/>
    <path id="Path_432" data-name="Path 432" class="cls-3" d="M182.883,304.243a5.5,5.5,0,0,1-.184,2.159c-.289.719-1.481,1.623-2.1.7-.391-.6-.041-1.5.061-2.139.041-.328.061-.635.082-.924C181.445,304.12,182.164,304.2,182.883,304.243Z" transform="translate(13.2 48.476)"/>
    <path id="Path_433" data-name="Path 433" class="cls-1" d="M179.774,270.34c2.362-.061,4.7,2.28,4.151,4.683-.125.576-1.09.617-1.172,0-.246-1.5-1.028-3.1-2.794-3.1a3,3,0,0,0-2.733,3.309.613.613,0,0,1-1.192.164A4.158,4.158,0,0,1,179.774,270.34Z" transform="translate(8.501 13.136)"/>
    <path id="Path_434" data-name="Path 434" class="cls-3" d="M179.453,303.707c.555.143,1.149.246,1.725.371a6.639,6.639,0,0,1-1.149,2.362c-.781.8-1.645.35-1.666-.678,0-.041.02-.082.02-.123a7.907,7.907,0,0,1,1.028-1.87C179.432,303.748,179.432,303.728,179.453,303.707Z" transform="translate(11.041 48.129)"/>
    <path id="Path_435" data-name="Path 435" class="cls-4" d="M191.012,274.334a15.22,15.22,0,0,0-2.63.555.477.477,0,0,0-.02-.289c-1.09-3.554-3.206-7.314-6.966-8.527a6.4,6.4,0,0,0-4.5.1,7.914,7.914,0,0,0-1.786,1.172,6.1,6.1,0,0,0-.9.76c-1.336,1.561-3.145,1.459-5.4-.289-1.748-8.691,9.307-11.464,15.246-6.943C188.381,264.141,190,269.218,191.012,274.334Z" transform="translate(0.818 0.964)"/>
    <path id="Path_436" data-name="Path 436" class="cls-3" d="M180.046,303.792a5.486,5.486,0,0,0-.9,1.807,4.639,4.639,0,0,1-.926,1.233c-.678.555-1.6.453-1.7-.555a3.68,3.68,0,0,1,.822-2.116,11.2,11.2,0,0,1,1.006-.965C178.9,303.421,179.471,303.606,180.046,303.792Z" transform="translate(9.091 47.593)"/>
    <path id="Path_437" data-name="Path 437" class="cls-3" d="M177.138,275.353a6.813,6.813,0,0,1-.76,7.994,48.212,48.212,0,0,1-6.453-3.884,38.7,38.7,0,0,0,6.9.514c.987-.02.987-1.6,0-1.541a52.306,52.306,0,0,1-7.6-.225c2.569-.987,5.159-1.932,7.787-2.774A.42.42,0,0,0,177.138,275.353Z" transform="translate(1.459 18.395)"/>
  </g>
</svg>
