<svg xmlns="http://www.w3.org/2000/svg" width="99.665" height="66.842" viewBox="0 0 99.665 66.842">
  <defs>
    <style>
      .cls-1 {
        fill: #222221;
      }

      .cls-2 {
        fill: #948e92;
      }
    </style>
  </defs>
  <g id="Group_5" data-name="Group 5" transform="translate(-322.428 -268.454)">
    <path id="Path_71" data-name="Path 71" class="cls-1" d="M344.843,307.279a31.66,31.66,0,0,1,18.775-10.616,40.305,40.305,0,0,1,6.58-.584c1.425,0,5.205,1.014,6.39.43a3.378,3.378,0,0,0,2.026-2.715,23.644,23.644,0,0,0-6.322,1.649c-.687.291-1.047-.894-.308-1.134a30.647,30.647,0,0,1,6.716-1.392c.034-.772-.017-1.6-.017-2.439a15.711,15.711,0,0,1-3.847-1.7.516.516,0,0,1,.516-.892,24.771,24.771,0,0,0,3.383,1.459.433.433,0,0,0,.019-.154c1.271-11.251,9.206-25.2,22.365-19.36,7.233,3.211,11.923,10.547,14.1,18.5,1.117-.653,2.216-1.322,3.3-2.078.55-.379,1.031.5.516.892a29.313,29.313,0,0,1-3.539,2.268,39.985,39.985,0,0,1,.773,4.193,31.069,31.069,0,0,1,4.707.755c.687.154.4,1.185-.291,1.048-1.427-.293-2.852-.516-4.3-.689a34.608,34.608,0,0,1-.051,8.658,31.669,31.669,0,0,1-5.325,13.555,20.715,20.715,0,0,0,10.686,11.6c.687.308.377,1.237-.19,1.459-5.154,1.925-17.023,2.028-19.085-4.69a25.658,25.658,0,0,1-10.994,3.951,14.907,14.907,0,0,1-9.035,5.274c-2.612.533-9.311,1.7-11.287-.6a.832.832,0,0,1,.173-1.288,25.9,25.9,0,0,0,5.1-4.123c-10.941.824-27.4-3.162-31.813-14.413a10.592,10.592,0,0,1-2.749,6.185c-2.578,2.662-6.2,4.345-9.569,5.7-.533.224-1.064-.308-1.081-.807a16.873,16.873,0,0,1,1.579-7.954,14.115,14.115,0,0,1,4.088-4.587,13.261,13.261,0,0,1-6.819-1.648,14.683,14.683,0,0,1-3.8-3.025c-1.271-1.459-1.855-3.847-3.4-4.946a.835.835,0,0,1,.207-1.512C330.791,298.948,340.5,299.532,344.843,307.279Zm-5.376,3.522c.841-.1,1.014,1.288.188,1.478-.257.051-.516.1-.772.137-1.564,1.581-3.35,2.817-4.416,4.878a15.121,15.121,0,0,0-1.562,6.581A27.012,27.012,0,0,0,340,319.6c2.422-2.18,2.937-5.135,3.35-8.228a.793.793,0,0,1,.514-.653.578.578,0,0,1,.74-.171.617.617,0,0,1,.188.223c6.288,12.368,19.034,16.182,32.14,16.473a.671.671,0,0,1,.464.224c.481-.533.98-1.083,1.478-1.649.308-.361.824.086.618.481a19.486,19.486,0,0,1-6.236,6.923c2.49.635,8.125-.361,9.311-.635a12.832,12.832,0,0,0,8.555-6.082.874.874,0,0,1,1.511.877c-.068.154-.171.274-.24.411,14.894-5,24.153-17.881,22.28-33.257a38.6,38.6,0,0,0-5.274-.069c-.55.034-.533-.807,0-.841a37.066,37.066,0,0,1,5.171-.139,32.761,32.761,0,0,0-.67-3.246,34.283,34.283,0,0,1-6.664,2.388.428.428,0,0,1-.224-.826,33.9,33.9,0,0,0,6.649-2.627l-.051-.205c-2.3-7.9-8.814-19.12-18.57-18.88-10,.24-13.743,10.616-14.533,19.772a20.791,20.791,0,0,0,3.521.567.369.369,0,0,1,0,.738,15.984,15.984,0,0,1-3.592-.291c-.034.652-.068,1.305-.086,1.941a27.1,27.1,0,0,1,3.9.137c.516.07.533.877,0,.826a24.773,24.773,0,0,0-3.9-.1,39.216,39.216,0,0,0,.207,4.191c.069.584-.567.875-1.031.79-12.832-2.2-25.219.224-33.98,10.393a.74.74,0,0,1-.567.293.949.949,0,0,1-.841-1.065c-4.724-6.493-11.818-7.713-19.154-5.652,1.271,1.41,1.924,3.5,3.367,4.863A13.587,13.587,0,0,0,339.467,310.8Zm79.724,18.123a22.415,22.415,0,0,1-9.208-10.6,30.537,30.537,0,0,1-6.476,6.236C406,329.559,413.952,329.989,419.191,328.923Z" transform="translate(0 0)"/>
    <path id="Path_72" data-name="Path 72" class="cls-2" d="M323.921,288.785c1.271,1.41,1.924,3.5,3.367,4.863a13.587,13.587,0,0,0,11.114,3.314c.841-.1,1.014,1.288.188,1.478-.257.051-.516.1-.772.137-1.564,1.581-3.35,2.818-4.416,4.878a15.12,15.12,0,0,0-1.562,6.581,27.015,27.015,0,0,0,7.094-4.279c2.422-2.18,2.937-5.135,3.35-8.228a.793.793,0,0,1,.514-.653.578.578,0,0,1,.74-.171l.377-1.2a.949.949,0,0,1-.841-1.065C338.351,287.944,331.257,286.725,323.921,288.785Z" transform="translate(1.064 13.838)"/>
    <path id="Path_73" data-name="Path 73" class="cls-2" d="M336.319,308.37c8.761-10.169,21.148-12.591,33.98-10.393.464.086,1.1-.206,1.031-.79a39.216,39.216,0,0,1-.207-4.191,24.773,24.773,0,0,1,3.9.1c.533.051.516-.755,0-.826a27.08,27.08,0,0,0-3.9-.137c.017-.635.051-1.288.086-1.941a15.985,15.985,0,0,0,3.592.291.369.369,0,0,0,0-.738,20.789,20.789,0,0,1-3.521-.567c.79-9.156,4.534-19.532,14.533-19.772,9.756-.24,16.268,10.977,18.57,18.88l.051.206a33.9,33.9,0,0,1-6.649,2.627.428.428,0,0,0,.224.826,34.288,34.288,0,0,0,6.664-2.388,32.768,32.768,0,0,1,.67,3.246,37.075,37.075,0,0,0-5.171.139c-.533.034-.55.875,0,.841a38.588,38.588,0,0,1,5.274.069c1.874,15.376-7.386,28.259-22.28,33.257.068-.137.171-.257.24-.411a.874.874,0,0,0-1.511-.877,12.832,12.832,0,0,1-8.555,6.082c-1.185.274-6.82,1.271-9.311.635a19.486,19.486,0,0,0,6.236-6.923c.206-.4-.31-.843-.618-.481-.5.567-1,1.117-1.478,1.649a.672.672,0,0,0-.464-.224c-13.106-.291-25.853-4.105-32.14-16.473a.617.617,0,0,0-.188-.223l.377-1.2A.74.74,0,0,0,336.319,308.37Zm41.228-23.035c.051-.55.173-1.17.791-1.341a1.272,1.272,0,0,1,1.528.98.405.405,0,0,0,.791-.1,2.115,2.115,0,0,0-2.4-2.011,2.151,2.151,0,0,0-1.7,2.612A.509.509,0,0,0,377.547,285.335Zm7.766,5.978a19.466,19.466,0,0,0-.051,2.645,7.036,7.036,0,0,1-1.324-.567c-.533-.291-1.117.413-.653.843,1.581,1.442,4.69,1.442,6.082-.276.086-.1.017-.308-.139-.24a6.615,6.615,0,0,1-3.006.43c.017-.051.051-.087.051-.139a16.792,16.792,0,0,0-.017-2.473,4.4,4.4,0,0,0,3.162-2.783,1.378,1.378,0,0,0-1.168-2.043c-1.358.017-2.732,0-4.088.051-.774.034-1.615.841-1.271,1.684C383.319,289.509,384.059,291.071,385.313,291.313Zm9.67-6.906c.087-.653.516-1.461,1.29-.98.5.31.343.894.738,1.254a.39.39,0,0,0,.447.068c.653-.291.48-1.185.206-1.682a2,2,0,0,0-3.659,1.6C394.262,285.2,394.931,284.854,394.983,284.407Z" transform="translate(9.228 0.678)"/>
    <path id="Path_74" data-name="Path 74" class="cls-1" d="M361.152,277.274a2.151,2.151,0,0,0-1.7,2.612.509.509,0,0,0,1-.137c.051-.55.173-1.17.791-1.341a1.272,1.272,0,0,1,1.528.98.406.406,0,0,0,.791-.1A2.115,2.115,0,0,0,361.152,277.274Z" transform="translate(26.328 6.264)"/>
    <path id="Path_75" data-name="Path 75" class="cls-1" d="M364.421,279.559c-.774.034-1.615.841-1.271,1.684.428,1.065,1.168,2.627,2.422,2.869a19.469,19.469,0,0,0-.051,2.644,7.038,7.038,0,0,1-1.324-.567c-.533-.291-1.117.413-.653.843,1.581,1.442,4.69,1.442,6.082-.276.086-.1.017-.308-.139-.24a6.614,6.614,0,0,1-3.006.43c.017-.051.051-.087.051-.139a16.813,16.813,0,0,0-.017-2.473,4.4,4.4,0,0,0,3.162-2.783,1.378,1.378,0,0,0-1.168-2.043C367.151,279.525,365.777,279.508,364.421,279.559Z" transform="translate(28.969 7.879)"/>
    <path id="Path_76" data-name="Path 76" class="cls-1" d="M371.766,276.724a2.05,2.05,0,0,0-2.095,2.73c.257.533.927.19.978-.257.087-.653.516-1.461,1.29-.98.5.31.343.894.738,1.254a.39.39,0,0,0,.447.069c.653-.291.48-1.185.206-1.682A2.065,2.065,0,0,0,371.766,276.724Z" transform="translate(33.562 5.887)"/>
    <path id="Path_77" data-name="Path 77" class="cls-2" d="M376.242,297.571a30.542,30.542,0,0,1-6.476,6.236c2.49,5,10.444,5.428,15.684,4.362A22.415,22.415,0,0,1,376.242,297.571Z" transform="translate(33.741 20.754)"/>
  </g>
</svg>
