<svg xmlns="http://www.w3.org/2000/svg" width="85.913" height="99.539" viewBox="0 0 85.913 99.539">
  <defs>
    <style>
      .cls-1 {
        fill: #222221;
      }

      .cls-2 {
        fill: #da9a36;
      }

      .cls-3 {
        fill: #dfedf6;
      }

      .cls-4 {
        fill: #b2d7e8;
      }
    </style>
  </defs>
  <g id="Group_32" data-name="Group 32" transform="translate(-337.648 -38.956)">
    <path id="Path_264" data-name="Path 264" class="cls-1" d="M422.861,61.2a.993.993,0,0,1,.229,1.792c-2.374,1.566-4.748,3.18-7.122,4.771A60.108,60.108,0,0,1,414.2,87.384c-3.887,15.581-16.613,27.926-31.763,31.108l.05.05a57.861,57.861,0,0,0,1.818,8.509.542.542,0,0,1,0,.2.856.856,0,0,1,.33.176c2.044,1.818,4.088,3.61,6.16,5.405a.837.837,0,0,1-.176,1.312,1.729,1.729,0,0,1-1.541.252c-.43-.076-.833-.554-1.239-.579a4.625,4.625,0,0,0-4.166,2.726.83.83,0,0,1-1.488.2c-1.946-3.358-5.075-1.918-7.98-.607-.808.38-1.893-.428-1.362-1.312-1.566-.607-3.99-1.969-5.226-1.314-1.289.682-2.6,3.383-3.484,4.6a.844.844,0,0,1-1.289.151,2.636,2.636,0,0,1-.884-1.211c-.858-1.742.378-1.641-1.818-2.475-1.893-.733-3.585.428-5.506-.38a.884.884,0,0,1-.227-1.591c2.5-1.767,5-3.484,7.5-5.226a2.182,2.182,0,0,1,.025-.378c.428-1.667.934-3.308,1.312-4.975a17.414,17.414,0,0,1,1.138-4.217c-17.625-5.075-33-21.159-24.165-40.1,0-.025.028-.05.028-.076v-.025c.025-.025.05-.025.05-.05.277-.38.884-.556,1.186-.151,6.185,7.953,16.537,9.871,25.955,8.053.025,0,.025-.025.05-.025,12.424-6.286-3.711-28.027,3.031-38.4,4.849-7.449,14.594-9.267,22.75-7.4,8.786,2.022,14.594,6.742,18.179,12.877a50.439,50.439,0,0,1,8.434-3.28,1.081,1.081,0,0,1,1.337,1.337,35.643,35.643,0,0,1-4.745,9.317A28.117,28.117,0,0,1,422.861,61.2Zm-7.119,4.343c1.49-.984,2.981-2,4.469-2.981a32.263,32.263,0,0,0-5.176-.909C415.339,62.944,415.566,64.231,415.742,65.545Zm-1.314-6.034a34.225,34.225,0,0,0,3.965-7.474c-2.044.707-4.091,1.44-6.16,1.943A29.889,29.889,0,0,1,414.428,59.511Zm-30.3,56.507c21.159-5.959,31.536-28.659,29.694-49.186-1.035-11.487-8.965-22.927-21.185-24.845l-10.631-.076c-6.893,1.161-10.047,5.1-9.418,11.792-1.513,7.525-.529,8.66,1.138,15.072,1.818,6.946,2.374,13.584-3.99,17.5a.814.814,0,0,1-.428.38c-.254.1-.531.176-.783.277-.05.025-.076.05-.126.076a.937.937,0,0,1-.28.05C359.285,90.01,345.7,88.4,340.9,79.607,333.884,103.443,362.618,122.052,384.13,116.018Zm1.035,16.009a3.513,3.513,0,0,1,1.767-.355c-1.161-1.01-2.3-2.044-3.459-3.079a.662.662,0,0,1-.252-.506.826.826,0,0,1-.607-.582,30.672,30.672,0,0,1-1.337-8.811c-.657.1-1.314.227-1.971.3.229,2.779.657,6.085.126,8.814a.579.579,0,0,1-.4.428c0,.025.025.05,0,.1a34.352,34.352,0,0,1-2.726,4.874,6.9,6.9,0,0,1,3.811-.582,4.572,4.572,0,0,1,2.626,2.022A5.226,5.226,0,0,1,385.165,132.026Zm-7.145-4.471c-.481-2.651-.1-5.755.126-8.431a36.635,36.635,0,0,1-9.518-.355,62.476,62.476,0,0,1-.05,8.685.658.658,0,0,1,.352.179c1.767,1.742,3.333,3.66,4.924,5.554A38.145,38.145,0,0,1,378.02,127.555Zm-7.852,4.116c-.808-1.035-1.616-2.069-2.374-3.154a.908.908,0,0,1-.126-.33.537.537,0,0,1-.405-.579,66.65,66.65,0,0,1,.632-8.965c-.43-.1-.858-.126-1.289-.227-.453-.1-.909-.229-1.337-.355a11.2,11.2,0,0,1-.252,4.091,27.526,27.526,0,0,1-1.339,5.327.915.915,0,0,1-.506.556.853.853,0,0,1-.352.833c-1.868,1.289-3.736,2.6-5.581,3.889,1.516-.2,3.107-.962,4.547-.1,1.412.858,1.135,2.349,1.616,3.562,1.06-1.742,2.422-4.242,3.862-4.823A4.285,4.285,0,0,1,370.168,131.671Z" transform="translate(0)"/>
    <path id="Path_265" data-name="Path 265" class="cls-2" d="M373.564,48.882c-1.488.984-2.978,2-4.469,2.981-.176-1.314-.4-2.6-.707-3.889A32.263,32.263,0,0,1,373.564,48.882Z" transform="translate(46.647 13.682)"/>
    <path id="Path_266" data-name="Path 266" class="cls-2" d="M373.435,44.152a34.225,34.225,0,0,1-3.965,7.474,29.889,29.889,0,0,0-2.2-5.531C369.344,45.592,371.391,44.859,373.435,44.152Z" transform="translate(44.958 7.884)"/>
    <path id="Path_267" data-name="Path 267" class="cls-3" d="M412.512,65.05c1.843,20.527-8.534,43.227-29.694,49.186-21.512,6.034-50.246-12.575-43.227-36.41,4.8,8.788,18.383,10.4,27.219,7.449a.937.937,0,0,0,.28-.05c.05-.025.076-.05.126-.076.252-.1.529-.176.783-.277a.814.814,0,0,0,.428-.38c6.364-3.915,5.808-10.553,3.99-17.5-1.667-6.412-2.651-7.547-1.138-15.072-.629-6.691,2.525-10.631,9.418-11.792l10.631.076C403.547,42.124,411.477,53.563,412.512,65.05Zm-11.767-6.513c.428,1.085,2.2.6,1.767-.481-2.3-5.757-10.883-5.808-12.094.733a.6.6,0,0,0,1.161.3C393.044,54.824,398.953,53.966,400.745,58.538Zm-23.229,51.13c6.336-1.339,12.927-6.163,12.27-13.307a11.6,11.6,0,0,0-11.135-10.427,13.474,13.474,0,0,0-8.484,2.6c-5.2,3.786-6.261,11.842-14.012,12.22-.783.025-1.088,1.339-.2,1.465.078,0,.154.025.229.025-.481.025-.909.682-.456,1.035C361.81,108.177,369.637,111.306,377.517,109.668Z" transform="translate(1.312 1.781)"/>
    <path id="Path_268" data-name="Path 268" class="cls-1" d="M371.234,49.812c.43,1.085-1.339,1.566-1.767.481-1.792-4.572-7.7-3.713-9.166.554a.6.6,0,0,1-1.161-.3C360.351,44,368.935,44.055,371.234,49.812Z" transform="translate(32.59 10.026)"/>
    <path id="Path_269" data-name="Path 269" class="cls-1" d="M345.993,74.639c-.076,0-.151-.025-.229-.025-.884-.126-.579-1.44.2-1.465,7.751-.378,8.811-8.434,14.012-12.22a13.474,13.474,0,0,1,8.484-2.6A11.6,11.6,0,0,1,379.6,68.756c.657,7.145-5.934,11.968-12.27,13.307-7.88,1.639-15.707-1.49-21.791-6.389C345.084,75.322,345.512,74.665,345.993,74.639Zm.076.025a.257.257,0,0,1,.227.05c6.49,3.887,13.76,7.17,21.487,5.126,4.267-1.135,8.282-3.736,9.342-8.182,1.314-5.6-2.4-10.251-7.9-11.185C357.455,58.48,357.052,76,346.068,74.665Z" transform="translate(11.5 29.385)"/>
    <path id="Path_270" data-name="Path 270" class="cls-4" d="M368.714,59.271c5.5.934,9.216,5.581,7.9,11.185-1.06,4.446-5.075,7.046-9.342,8.182-7.726,2.044-15-1.239-21.487-5.126a.257.257,0,0,0-.227-.05C356.545,74.8,356.948,57.278,368.714,59.271Z" transform="translate(12.007 30.587)"/>
    <path id="Path_271" data-name="Path 271" class="cls-2" d="M363.632,83.608a3.513,3.513,0,0,0-1.767.355,5.226,5.226,0,0,0-2.424,2.626,4.572,4.572,0,0,0-2.626-2.022,6.9,6.9,0,0,0-3.811.582,34.352,34.352,0,0,0,2.726-4.874c.025-.05,0-.076,0-.1a.579.579,0,0,0,.4-.428c.531-2.729.1-6.034-.126-8.814.657-.076,1.314-.2,1.971-.3a30.672,30.672,0,0,0,1.337,8.811.826.826,0,0,0,.607.582.662.662,0,0,0,.252.506C361.336,81.563,362.471,82.6,363.632,83.608Z" transform="translate(23.3 48.064)"/>
    <path id="Path_272" data-name="Path 272" class="cls-2" d="M355.986,80.834c.758,1.085,1.566,2.12,2.374,3.154a4.285,4.285,0,0,0-2.905-.277c-1.44.582-2.8,3.081-3.862,4.823-.481-1.213-.2-2.7-1.616-3.562-1.44-.858-3.031-.1-4.547.1,1.845-1.289,3.713-2.6,5.581-3.889a.853.853,0,0,0,.352-.833.915.915,0,0,0,.506-.556,27.526,27.526,0,0,0,1.339-5.327,11.2,11.2,0,0,0,.252-4.091c.428.126.884.254,1.337.355.43.1.858.126,1.289.227a66.65,66.65,0,0,0-.632,8.965.537.537,0,0,0,.405.579A.908.908,0,0,0,355.986,80.834Z" transform="translate(11.808 47.683)"/>
  </g>
</svg>
