<svg xmlns="http://www.w3.org/2000/svg" width="68.625" height="100" viewBox="0 0 68.625 100">
  <defs>
    <style>
      .cls-1 {
        fill: #dca1a1;
      }

      .cls-2 {
        fill: #e9c385;
      }

      .cls-3 {
        fill: #cf752f;
      }

      .cls-4 {
        fill: #222221;
      }

      .cls-5 {
        fill: #2d2d2d;
      }

      .cls-6 {
        fill: #b94e26;
      }
    </style>
  </defs>
  <g id="Group_13" data-name="Group 13" transform="translate(-427.425 -261.303)">
    <path id="Path_181" data-name="Path 181" class="cls-1" d="M450.4,263.948c.6.7-.856,2.176-1.563,3.221-.344-.3-.664-.6-1.008-.9a.41.41,0,0,0-.363-.128,9.539,9.539,0,0,1,.621-1.366C448.517,264.119,449.674,263.051,450.4,263.948Z" transform="translate(22.753 2.594)"/>
    <path id="Path_182" data-name="Path 182" class="cls-1" d="M432.561,264.321a4.106,4.106,0,0,1,.856,2.391,15.994,15.994,0,0,0-1.691,1.515c-.021-.043-.021-.106-.064-.149-.794-.919-2.7-2.817-1.285-4.055A1.664,1.664,0,0,1,432.561,264.321Z" transform="translate(2.775 2.732)"/>
    <path id="Path_183" data-name="Path 183" class="cls-2" d="M453.913,273.555c6.51,1.961,11.05,7.573,6.79,15.66a1.442,1.442,0,0,0-.088.3,90.739,90.739,0,0,1-12.184.4c-3.363,0-8.716.47-13.428.191-1.243-3.861-2.248-7.51-.235-11.286a10.208,10.208,0,0,1,6.273-4.844c.536,2.668,3.3,4.844,5.8,5.633a3.169,3.169,0,0,0,.858.149c-.021.257-.043.491-.066.747a15.2,15.2,0,0,0-.214,2.944c.021.043.064.064.064.13a18.456,18.456,0,0,1-7.516-.791c-.493-.149-.835.619-.344.855a16.577,16.577,0,0,0,16.49-1.025.985.985,0,0,0-.984-1.706,19.578,19.578,0,0,1-6.19,2.431,15.733,15.733,0,0,0-.214-2.838c-.021-.3-.064-.576-.085-.874a3.176,3.176,0,0,0,1.285-.789A42.373,42.373,0,0,0,453.913,273.555Z" transform="translate(7.035 13.812)"/>
    <path id="Path_184" data-name="Path 184" class="cls-3" d="M447.838,314.158a4.141,4.141,0,0,0-3.448.7,2.789,2.789,0,0,0-.984,3.287,2.054,2.054,0,0,0,1.5,1.023,2.431,2.431,0,0,0,.728,2.391,1.034,1.034,0,0,1-.064.149c-.13.534-.643,1.066-1.243.747a.776.776,0,0,1-.386-.6,1.1,1.1,0,0,0,.088-.149.625.625,0,0,0-.023-.619c.023-.043.023-.106.045-.149.149-.406-.408-.662-.685-.406a1.673,1.673,0,0,0-.322.449c-.043.021-.064.064-.107.106a3.3,3.3,0,0,1-1.843,1.515c-.771.149-1.691-.619-1.027-1.366.408-.447-.107-1.217-.664-.874-.128.085-.214.17-.32.255a.594.594,0,0,0-.408.085c-.771.491-1.563,1.3-2.547,1.3-1.2,0-1.586-1.023-.922-1.985a6.329,6.329,0,0,1,3.149-2.068,9.613,9.613,0,0,0,2.334-.128c.92-.151.579-1.387-.192-1.5-4.969-.553-9.4-3.2-10.687-7.595a21.672,21.672,0,0,0,6.1.277.575.575,0,0,0,.3-1.066,31.849,31.849,0,0,1-3.085-2.006c-1.048-.811-1.926-1.791-2.955-2.625a.647.647,0,0,0-.342-.106,10.748,10.748,0,0,1,2.934-5.206,13.551,13.551,0,0,0,7.8,2.8.551.551,0,0,0,.384-.917c-1.349-1.451-2.633-2.946-3.833-4.525a20.206,20.206,0,0,1,6.788-1.045A54.9,54.9,0,0,0,447.838,314.158Z" transform="translate(2.703 37.217)"/>
    <path id="Path_185" data-name="Path 185" class="cls-3" d="M465.73,284.557a3.992,3.992,0,0,0-1.048.6c-1.029-.362-2.163-.574-3.192-.874a.667.667,0,0,0-.814.81,5.714,5.714,0,0,0,2.379,3.18c-.816,5.567,4.068,10.86-2.7,15.085a9.972,9.972,0,0,1-3.448,1.215,35.089,35.089,0,0,0-4.3-2.368,9.972,9.972,0,0,0,4.283-1.857,7.84,7.84,0,0,0,1.392-1.408,9.593,9.593,0,0,0,3.9.342c.429-.064.837-.513.536-.959a45.259,45.259,0,0,0-2.614-3.778.847.847,0,0,0,.023-.106c.384-3.478-3.491-11.264,2.291-12.588a.468.468,0,0,0,.3-.17,4.64,4.64,0,0,1,1.885.832A3.69,3.69,0,0,1,465.73,284.557Z" transform="translate(28.583 22.971)"/>
    <path id="Path_186" data-name="Path 186" class="cls-3" d="M459.195,291.437a.074.074,0,0,0-.021.043,9.569,9.569,0,0,0-.064,2.817c-4.132.449-8.18,1.111-9.679,4.353a9.1,9.1,0,0,0-3.747.236c.043-.47.043-.94.064-1.387a.712.712,0,0,0,.171-.194,7.487,7.487,0,0,1,3.576-4.1c.451.128,1.115,1.151,1.542,1.323a1.788,1.788,0,0,0,1.478-.085,1.811,1.811,0,0,0,.792-2.37C455.213,291.78,457.247,291.716,459.195,291.437Z" transform="translate(20.727 33.972)"/>
    <path id="Path_187" data-name="Path 187" class="cls-3" d="M456.345,299.3a9.591,9.591,0,0,1,1.435,3.882,24.069,24.069,0,0,1-6.875,2.647.7.7,0,0,0,0,1.344,17.015,17.015,0,0,0,6.361.6,8.3,8.3,0,0,1-3.833,4.225,3.366,3.366,0,0,0-2.163.574.837.837,0,0,0,.835,1.451,2.083,2.083,0,0,1,2.934.555,2.21,2.21,0,0,1,.3,1.6,1.709,1.709,0,0,1-1.091,1.2,1.854,1.854,0,0,0-2.013-1.045c-.643.106-.621.938-.171,1.236.555.385,1.606,1.132.878,1.942-.515.555-1.264.234-1.757-.234a2.011,2.011,0,0,0-.107-.7.688.688,0,0,0-1.307,0c-.3.747-.427,1.685-1.347,1.876-.944.213-1.5-.725-1.35-1.557,0-.021-.021-.043-.021-.064a2.448,2.448,0,0,0,.579-.853,2.646,2.646,0,0,0-.28-2.434,2.56,2.56,0,0,0,1.285-3.157,3.337,3.337,0,0,0-4.8-1.515,55.071,55.071,0,0,0,3.792-15.128.924.924,0,0,0,.491.064,8.789,8.789,0,0,1,4.283.385,22.352,22.352,0,0,1-1.371,2.538,26.173,26.173,0,0,1-2.59,2.753.6.6,0,0,0,.427,1A10.147,10.147,0,0,0,456.345,299.3Z" transform="translate(18.631 38.767)"/>
    <path id="Path_188" data-name="Path 188" class="cls-4" d="M495.9,307.467a.677.677,0,0,1-.342,1.087,2.19,2.19,0,0,0-1.048.768c-.045.064-.066.149-.13.191-1.712,2.668.365,9.473-.128,11.971a9,9,0,0,1-3.126,5.355c-5.011,4.2-15.89,1.174-19.744,6.082,7.559,2.3,9.935,14.955,2.633,18.521a3.509,3.509,0,0,1,1.5,2.793,3,3,0,0,1-1.776,2.859,2.006,2.006,0,0,1-.493.085,2.437,2.437,0,0,1-.515,2.07,2.535,2.535,0,0,1-3.382.194,3.22,3.22,0,0,1-2.763,1.406,2.807,2.807,0,0,1-2.377-2.432,2.887,2.887,0,0,1-1.928-.234,2.165,2.165,0,0,1-.085.513,2.73,2.73,0,0,1-2.72,1.749,3.972,3.972,0,0,1-3.019-1.43,3.221,3.221,0,0,1-3.169,1.493,2.734,2.734,0,0,1-2.184-1.642,2.453,2.453,0,0,1-1.435.4,2.186,2.186,0,0,1-2.979,1.666,1.8,1.8,0,0,1-.835-.747,2.948,2.948,0,0,1-3.534.81,2.13,2.13,0,0,1-1.006-1.2,4.164,4.164,0,0,1-3.1.959,2.531,2.531,0,0,1-2.27-2.325c-.109-1.791,1.177-2.944,2.782-3.648a12.679,12.679,0,0,1-8.673-13.207c.837-7.852,8.868-13.677,16.554-11.245a94.714,94.714,0,0,1,3.214-24.28c-7.561.319-17.09.106-20.582-4.7-4.774-6.571,1.136-21.186,3.726-27.739-4.539-.617-6.745-7.361-3.574-10.624,4.433-4.589,10.557,1.087,11.628,5.676a.193.193,0,0,1,.107-.021.534.534,0,0,1,.363-.066,91.8,91.8,0,0,1,25.7-.811c-.237-4.438,4.774-7.382,8.759-5.546a4.838,4.838,0,0,1,3.1,4.65c-.192,1.942-1.862,3.287-3.254,4.523,2.675,7.02,9.337,21.765,4.5,29.041-3.3,4.972-11.564,5.291-18.032,5.269a62.634,62.634,0,0,1,4.3,23.022,7.794,7.794,0,0,1,4.048-3.329,17.862,17.862,0,0,1,4.71-.981c4.134-.47,6.169-.34,9.252-3.436,3.041-3.029,2.419-4.65,1.926-8.6-.085-.64-.278-1.257-.342-1.9a8.582,8.582,0,0,1,.3-3.757,4.827,4.827,0,0,1,4.2-3.285c1.136-.725,2.72-.064,3.662.7A4.108,4.108,0,0,1,495.9,307.467Zm-2.633.659a3.991,3.991,0,0,1,1.048-.6,3.69,3.69,0,0,0-1.134-2.047,4.639,4.639,0,0,0-1.885-.832.468.468,0,0,1-.3.17c-5.782,1.323-1.907,9.109-2.291,12.588a.844.844,0,0,1-.023.106,45.26,45.26,0,0,1,2.614,3.778c.3.447-.107.9-.536.959a9.594,9.594,0,0,1-3.9-.342,7.84,7.84,0,0,1-1.392,1.408,9.971,9.971,0,0,1-4.283,1.857,35.089,35.089,0,0,1,4.3,2.368,9.973,9.973,0,0,0,3.448-1.215c6.767-4.225,1.883-9.518,2.7-15.085a5.714,5.714,0,0,1-2.379-3.181.667.667,0,0,1,.814-.81C491.1,307.552,492.236,307.764,493.265,308.126Zm-5.825,12.93a7.544,7.544,0,0,0,2.291.108c-.472-.749-.9-1.5-1.328-2.263A8.529,8.529,0,0,1,487.44,321.056Zm-6.446,7.084c.814-.085,1.627-.17,2.419-.255-.771-.406-1.542-.811-2.334-1.217A11.353,11.353,0,0,0,480.994,328.14Zm-1.093-2.689a.074.074,0,0,1,.021-.043c-1.947.279-3.982.342-5.889.64a1.811,1.811,0,0,1-.792,2.37,1.788,1.788,0,0,1-1.478.085c-.427-.172-1.091-1.2-1.542-1.323a7.487,7.487,0,0,0-3.576,4.1.712.712,0,0,1-.171.194c-.021.447-.021.917-.064,1.387a9.1,9.1,0,0,1,3.747-.236c1.5-3.242,5.547-3.9,9.679-4.353A9.569,9.569,0,0,1,479.9,325.451Zm-.963-32.878a18.518,18.518,0,0,0,0-2.668c-1.349.279-2.678.577-4.006.938C476.281,291.4,477.609,291.975,478.937,292.573Zm-.128-4.2a45.185,45.185,0,0,0-2.355-9.239c-2.056-.619-4.07-1.43-6.083-2.2a.633.633,0,0,1,0-1.217,16.985,16.985,0,0,1,4.475-.959c-.406-1.045-.792-2.07-1.177-3.072a.829.829,0,0,1,.149-.874.787.787,0,0,1,.192-.406c1.584-1.942,4.99-4.4,1.157-6.359-3.278-1.685-6.233.917-6.66,4.14a.654.654,0,0,1-.344.513,1.051,1.051,0,0,1-.149.725,78.21,78.21,0,0,1-1.478,8,.72.72,0,0,1-1.307.17,30.348,30.348,0,0,1-3.47-8.235c0-.021.021-.021.021-.045-1.006-.043-2.011-.106-3.019-.128a68.371,68.371,0,0,1,2.014,16c7.817,2,12.957,9.088,9.231,17.666,4.411-1.087,7.881-3.585,8.737-9-2.078-.747-4.155-1.581-6.211-2.391a.758.758,0,0,1,0-1.451A23.453,23.453,0,0,1,478.809,288.369Zm-2.549,56.948a10.358,10.358,0,0,0,.258-1.985,15.942,15.942,0,0,1-4.2,2.027A14.373,14.373,0,0,0,476.26,345.317Zm-.235-67.425c-.235-.64-.472-1.257-.707-1.876a20.406,20.406,0,0,0-2.784.4C473.712,276.89,474.868,277.381,476.025,277.892Zm.386,64.053a9.591,9.591,0,0,0-1.435-3.882,10.147,10.147,0,0,1-7.475,3.178.6.6,0,0,1-.427-1,26.173,26.173,0,0,0,2.59-2.753,22.35,22.35,0,0,0,1.371-2.538,8.789,8.789,0,0,0-4.283-.385.925.925,0,0,1-.491-.064,55.071,55.071,0,0,1-3.792,15.128,3.337,3.337,0,0,1,4.8,1.515,2.56,2.56,0,0,1-1.285,3.157,2.646,2.646,0,0,1,.28,2.434,2.448,2.448,0,0,1-.579.853c0,.021.021.043.021.064-.149.832.406,1.77,1.35,1.557.92-.191,1.048-1.13,1.347-1.876a.688.688,0,0,1,1.307,0,2.011,2.011,0,0,1,.107.7c.493.468,1.243.789,1.757.234.728-.81-.322-1.557-.878-1.942-.451-.3-.472-1.13.171-1.236a1.854,1.854,0,0,1,2.013,1.045,1.709,1.709,0,0,0,1.091-1.2,2.21,2.21,0,0,0-.3-1.6,2.083,2.083,0,0,0-2.934-.555.837.837,0,0,1-.835-1.451,3.365,3.365,0,0,1,2.163-.574,8.3,8.3,0,0,0,3.833-4.225,17.014,17.014,0,0,1-6.361-.6.7.7,0,0,1,0-1.344A24.068,24.068,0,0,0,476.411,341.945Zm-4.776-14.572c.984.555,1.542-.276,1.112-1.087a13,13,0,0,0-1.755.553C471.227,326.989,471.4,327.245,471.635,327.372Zm2.613,9.773a7.778,7.778,0,0,0-2.229-1.751,8.285,8.285,0,0,1-2.633,4.652A8.658,8.658,0,0,0,474.248,337.146Zm-6.51-34.119c4.26-8.086-.28-13.7-6.79-15.66a42.375,42.375,0,0,1-3.982,5.291,3.176,3.176,0,0,1-1.285.789c.021.3.064.577.085.874a15.733,15.733,0,0,1,.214,2.838,19.579,19.579,0,0,0,6.19-2.432.985.985,0,0,1,.984,1.706,16.577,16.577,0,0,1-16.49,1.025c-.491-.236-.149-1,.344-.855a18.456,18.456,0,0,0,7.516.791c0-.066-.043-.087-.064-.13a15.2,15.2,0,0,1,.214-2.944c.023-.255.045-.489.066-.747a3.169,3.169,0,0,1-.858-.149c-2.5-.789-5.268-2.966-5.8-5.633a10.208,10.208,0,0,0-6.273,4.844c-2.013,3.776-1.008,7.424.235,11.286,4.712.279,10.065-.191,13.428-.191a90.75,90.75,0,0,0,12.184-.4A1.442,1.442,0,0,1,467.738,303.027Zm-1.285-33.349q-1.864-.191-3.726-.319a32.526,32.526,0,0,0,2.7,5.867A52.947,52.947,0,0,1,466.453,269.678Zm-1.2,83.831a1.331,1.331,0,0,0,.386-2.068c-.88-1.089-2.078-.47-2.977.191-.536.383-1.008.021-1.157-.47-.429.021-.9-.362-.749-.832q.448-1.343.835-2.689a9.887,9.887,0,0,1-3.512-2.623.794.794,0,0,1-.214-.555.718.718,0,0,1,.557-.7,31.291,31.291,0,0,1,4.454-1.068,65.714,65.714,0,0,0,1.67-15.7,16.416,16.416,0,0,1-5.075-2.049.763.763,0,0,1,.386-1.408,20.546,20.546,0,0,0,4.433-.747c-.085-1.068-.192-2.113-.344-3.159a20.5,20.5,0,0,1-4.539-1.472.671.671,0,0,1-.149-1.215,10.891,10.891,0,0,1,3.9-1.472,63.83,63.83,0,0,0-3.019-9.773c-1.048,0-2.013-.021-2.87,0-1.456.043-3.427.17-5.611.276-.512,3.032-.92,5.976-1.283,8.856a.746.746,0,0,1,.278.106l3.32,2.538a.64.64,0,0,1-.152,1.153,11.3,11.3,0,0,1-3.875.513c-.085.917-.214,1.855-.278,2.772,1.347.555,2.654,1.345,3.94,2.027a.485.485,0,0,1,0,.855,13.159,13.159,0,0,1-4.2,1.406,110.744,110.744,0,0,0,.408,15.043c.579.3,1.134.683,1.712.983a21.205,21.205,0,0,0,2.27.938.587.587,0,0,1,.128,1.066,7.681,7.681,0,0,1-3.619,1.345c.258,1.985.6,3.991.986,6.04a3.217,3.217,0,0,1,1.926,1.983.684.684,0,0,1-1.134.662,3.407,3.407,0,0,0-2.678-1.472,2.447,2.447,0,0,0-1.627.683c-.536.555-.536,1.815.3,1.921a2.11,2.11,0,0,1,1.051-.683.571.571,0,0,1,.427,1.045c-.6.428-1.006,1.559-.235,2.049a1.271,1.271,0,0,0,1.584-.34,1.888,1.888,0,0,1,.856-1.43c.344-.215.9.149.728.577-.427,1.13-.342,2.623,1.285,2.6a2.144,2.144,0,0,0,1.992-1.515,3.23,3.23,0,0,1-.064-1.493,1.049,1.049,0,0,1-.171-.534q-.1-7.681,0-15.362a13.491,13.491,0,0,1-4.39-3.093.634.634,0,0,1,.427-1.068,20.376,20.376,0,0,0,3.747-.789.489.489,0,0,1,.258.021q.224-10.881.792-21.72a5.416,5.416,0,0,1-2.977-1.217c-.579-.468.149-1.257.75-.959a5.479,5.479,0,0,0,2.334.64.317.317,0,0,1,.6-.021,6.48,6.48,0,0,0,1.9-.47c.858-.362,1.435,1.047.621,1.451a5.59,5.59,0,0,1-2.441.555c.214,5.676.32,11.352.384,17.027a25.967,25.967,0,0,1,5.011,1.472c.493.191.728.938.173,1.215l-4.755,2.349a.618.618,0,0,1-.384.064c0,2.9-.023,5.8-.045,8.705-.064,3.733-.128,7.467-.256,11.2a.829.829,0,0,1-.256.619,3.183,3.183,0,0,1,.021,1,2.329,2.329,0,0,0,1.5,1.642c1.606.6,3.318-.789,1.928-2.24a.586.586,0,0,1,.7-.917,2.106,2.106,0,0,1,.773.853c.856.981,2.611,1.172,3.083-.321.491-1.493-1.008-2.091-2.206-1.664-.771.277-1.093-.832-.515-1.238A2.378,2.378,0,0,1,465.253,353.509Zm-.771-27.694c-.021-.513-.043-1.045-.064-1.557a17.462,17.462,0,0,1-2.248.513A19.087,19.087,0,0,0,464.482,325.815Zm-.771-7.512q-.16-.893-.32-1.791c-.707.34-1.435.619-2.142.938.47.17.942.385,1.414.534C463,318.112,463.369,318.2,463.711,318.3Zm-1.755,28.015c.192-.683.384-1.366.555-2.07a23.367,23.367,0,0,1-2.419.662A13.2,13.2,0,0,0,461.956,346.319Zm-4.369-12.011,3.19-1.493c-1.072-.428-2.163-.811-3.235-1.238C457.564,332.472,457.587,333.389,457.587,334.308ZM454.438,284.7a19.384,19.384,0,0,1,5.118.234c-.664-5.291-1.691-10.5-2.462-15.768-1.414-.021-2.806,0-4.219.021a149.275,149.275,0,0,1-3.662,16.387A33.91,33.91,0,0,1,454.438,284.7Zm1.093,54.28c.021-.9.021-1.791.043-2.666a6.613,6.613,0,0,1-2.571.9A23.139,23.139,0,0,0,455.531,338.979Zm-3.256-21.25c-.664-.513-1.349-1.047-2.035-1.559l-.192,1.857A15.156,15.156,0,0,0,452.275,317.729Zm-.9-48.5c-1.414.043-2.848.108-4.262.194a40.557,40.557,0,0,1-3.7,8.3.624.624,0,0,1-1.072,0,13.4,13.4,0,0,1-1.5-7.895h-.064a.51.51,0,0,1-.192-.064.888.888,0,0,1-1.307-.513,8.337,8.337,0,0,0-2.784-4.608c-1.627-1.217-4.068-1.727-5.631-.128-2.912,2.987.427,6.508,2.955,8.065a.588.588,0,0,1-.021,1c-.237.834-.536,1.793-.837,2.817a3.5,3.5,0,0,1,2.078.577,10.162,10.162,0,0,1,2.912,2.2.659.659,0,0,1-.47,1.11,40.154,40.154,0,0,1-4.241.106.77.77,0,0,1-.235.043l-.9.064a.624.624,0,0,1-.192-.043h-.021c-.021,0-.085,0-.107-.021a46.269,46.269,0,0,0-1.928,11.394,19.473,19.473,0,0,1,5.633.853.589.589,0,0,1,.256.981c-1.584,1.387-3.318,2.689-5.011,3.948a8.584,8.584,0,0,0,4.134,4.778,15.652,15.652,0,0,0,5.761,1.43c-1.949-4.116-2.742-9.216.021-13.143a13.65,13.65,0,0,1,7.582-4.844A141.3,141.3,0,0,1,451.376,269.229Zm1.006,74.722a10.6,10.6,0,0,1-2.4-1.111c.085.662.149,1.323.235,2.006A6.181,6.181,0,0,0,452.382,343.951Zm-.192-19.565c-.9-.406-1.777-.832-2.614-1.3-.064.789-.085,1.557-.128,2.346A17.671,17.671,0,0,0,452.189,324.386Zm-5.1,27.694a4.141,4.141,0,0,1,3.448-.7,54.9,54.9,0,0,1-3.942-19.842,20.207,20.207,0,0,0-6.788,1.045c1.2,1.579,2.483,3.074,3.833,4.525a.551.551,0,0,1-.384.917,13.551,13.551,0,0,1-7.8-2.8,10.748,10.748,0,0,0-2.934,5.206.647.647,0,0,1,.342.106c1.029.834,1.907,1.815,2.955,2.625a31.849,31.849,0,0,0,3.085,2.006.575.575,0,0,1-.3,1.066,21.671,21.671,0,0,1-6.1-.277c1.285,4.4,5.718,7.042,10.687,7.595.771.109,1.112,1.345.192,1.5a9.613,9.613,0,0,1-2.334.128,6.33,6.33,0,0,0-3.149,2.068c-.664.962-.278,1.985.922,1.985.984,0,1.776-.811,2.547-1.3a.594.594,0,0,1,.408-.085c.107-.085.192-.17.32-.255.557-.343,1.072.428.664.874-.664.747.256,1.515,1.027,1.366a3.3,3.3,0,0,0,1.843-1.515c.043-.043.064-.085.107-.106a1.673,1.673,0,0,1,.322-.449c.278-.255.835,0,.685.406-.021.043-.021.106-.045.149a.625.625,0,0,1,.023.619,1.1,1.1,0,0,1-.088.149.776.776,0,0,0,.386.6c.6.319,1.112-.213,1.243-.747a1.035,1.035,0,0,0,.064-.149,2.431,2.431,0,0,1-.728-2.391,2.053,2.053,0,0,1-1.5-1.023A2.789,2.789,0,0,1,447.093,352.08Zm-1.435-82.572c-1.285.064-2.571.17-3.854.255a13.594,13.594,0,0,0,1.091,6.189A43.8,43.8,0,0,0,445.658,269.508Zm-3.7,67.338a49.173,49.173,0,0,1-3.214-3.8A11.543,11.543,0,0,0,436,334.733,12.5,12.5,0,0,0,441.953,336.846Zm-9.658,8.173a19.437,19.437,0,0,0,4.433.3,16.621,16.621,0,0,1-4.454-3.585A10.433,10.433,0,0,0,432.3,345.019Zm1.006-66.08c.856-.043,1.712-.043,2.592-.021a7.916,7.916,0,0,0-1.392-1c-.536-.321-1.328-.449-1.736-.9-.171.577-.363,1.2-.536,1.815.258,0,.515.021.773.043A.684.684,0,0,1,433.3,278.939Zm-3.019,17.219c1.241-.962,2.5-1.878,3.811-2.753a16.825,16.825,0,0,0-4.241-.768A15.463,15.463,0,0,0,430.282,296.158Z" transform="translate(0 0)"/>
    <path id="Path_189" data-name="Path 189" class="cls-5" d="M457.823,290.642a7.544,7.544,0,0,1-2.291-.108,8.529,8.529,0,0,0,.963-2.155C456.924,289.146,457.351,289.893,457.823,290.642Z" transform="translate(31.908 30.523)"/>
    <path id="Path_190" data-name="Path 190" class="cls-5" d="M454.932,293.246c-.792.085-1.606.17-2.419.255a11.352,11.352,0,0,1,.085-1.472C453.391,292.435,454.161,292.84,454.932,293.246Z" transform="translate(28.481 34.639)"/>
    <path id="Path_191" data-name="Path 191" class="cls-5" d="M453.68,274.748a18.518,18.518,0,0,1,0,2.668c-1.328-.6-2.656-1.174-4.006-1.73C451,275.325,452.33,275.027,453.68,274.748Z" transform="translate(25.258 15.157)"/>
    <path id="Path_192" data-name="Path 192" class="cls-3" d="M459.792,277.957a45.185,45.185,0,0,1,2.355,9.239,23.453,23.453,0,0,0-6.275,1.642.758.758,0,0,0,0,1.451c2.056.81,4.134,1.644,6.211,2.391-.856,5.418-4.326,7.916-8.737,9,3.726-8.578-1.414-15.662-9.231-17.666a68.371,68.371,0,0,0-2.014-16c1.008.021,2.014.085,3.019.128,0,.023-.021.023-.021.045a30.348,30.348,0,0,0,3.47,8.235.72.72,0,0,0,1.307-.17,78.211,78.211,0,0,0,1.478-8,1.051,1.051,0,0,0,.149-.725.654.654,0,0,0,.344-.513c.427-3.223,3.382-5.825,6.66-4.14,3.833,1.964.427,4.416-1.157,6.359a.787.787,0,0,0-.192.406.829.829,0,0,0-.149.874c.384,1,.771,2.027,1.177,3.072a16.982,16.982,0,0,0-4.475.959.633.633,0,0,0,0,1.217C455.723,276.528,457.736,277.338,459.792,277.957Zm-1.821-11.373a2.036,2.036,0,0,0-.942-2.581,2.578,2.578,0,0,0-3,.447,4.917,4.917,0,0,0-1.392,3.457.851.851,0,0,1,.534.555c.322.362.664.747,1.008,1.111a.51.51,0,0,0,.536.17.556.556,0,0,0,.707.128,4.955,4.955,0,0,0,1.456-1.578A7.252,7.252,0,0,0,457.971,266.585Zm-2.12,17.987a2.6,2.6,0,0,0-2.1-3.37,1.984,1.984,0,0,0-1.926,2.859c.32.64,1.3.191,1.134-.47-.192-.7.728-.959,1.115-.491a1.531,1.531,0,0,1,.171,1.259C454.138,285.276,455.595,285.4,455.851,284.571Z" transform="translate(16.662 1.173)"/>
    <path id="Path_193" data-name="Path 193" class="cls-5" d="M452.649,299.862a10.359,10.359,0,0,1-.258,1.985,14.373,14.373,0,0,1-3.94.043A15.942,15.942,0,0,0,452.649,299.862Z" transform="translate(23.869 43.47)"/>
    <path id="Path_194" data-name="Path 194" class="cls-5" d="M451.335,268.219c.235.619.472,1.236.707,1.876-1.157-.511-2.312-1-3.491-1.472A20.415,20.415,0,0,1,451.335,268.219Z" transform="translate(23.983 7.797)"/>
    <path id="Path_195" data-name="Path 195" class="cls-4" d="M451.427,263.285a2.036,2.036,0,0,1,.942,2.581,7.251,7.251,0,0,1-1.091,1.708,4.955,4.955,0,0,1-1.456,1.578.556.556,0,0,1-.707-.128.51.51,0,0,1-.536-.17c-.344-.364-.685-.749-1.008-1.111a.851.851,0,0,0-.534-.555,4.917,4.917,0,0,1,1.392-3.457A2.578,2.578,0,0,1,451.427,263.285Zm-2.1,4.587c.707-1.045,2.163-2.517,1.563-3.221-.728-.9-1.885.17-2.312.832a9.539,9.539,0,0,0-.621,1.366.41.41,0,0,1,.363.128C448.664,267.274,448.984,267.574,449.328,267.872Z" transform="translate(22.264 1.892)"/>
    <path id="Path_196" data-name="Path 196" class="cls-5" d="M449.584,291.849c.429.811-.128,1.642-1.112,1.087-.235-.128-.408-.383-.643-.534A13,13,0,0,1,449.584,291.849Z" transform="translate(23.163 34.436)"/>
    <path id="Path_197" data-name="Path 197" class="cls-5" d="M449.71,296.131a7.777,7.777,0,0,1,2.229,1.751,8.657,8.657,0,0,1-4.862,2.9A8.284,8.284,0,0,0,449.71,296.131Z" transform="translate(22.309 39.264)"/>
    <path id="Path_198" data-name="Path 198" class="cls-4" d="M448.7,271.211a2.6,2.6,0,0,1,2.1,3.37c-.256.832-1.712.7-1.606-.213a1.531,1.531,0,0,0-.171-1.259c-.386-.468-1.307-.213-1.115.491.171.662-.814,1.111-1.134.47A1.984,1.984,0,0,1,448.7,271.211Z" transform="translate(21.716 11.164)"/>
    <path id="Path_199" data-name="Path 199" class="cls-5" d="M443.958,265.09q1.861.128,3.726.319a52.949,52.949,0,0,0-1.029,5.548A32.526,32.526,0,0,1,443.958,265.09Z" transform="translate(18.769 4.269)"/>
    <path id="Path_200" data-name="Path 200" class="cls-3" d="M449.9,307.372a1.331,1.331,0,0,1-.386,2.068,2.378,2.378,0,0,0-2.934-.106c-.579.406-.256,1.515.515,1.238,1.2-.428,2.7.17,2.206,1.664-.472,1.493-2.227,1.3-3.083.321a2.107,2.107,0,0,0-.773-.853.586.586,0,0,0-.7.917c1.39,1.451-.322,2.838-1.928,2.24a2.329,2.329,0,0,1-1.5-1.642,3.183,3.183,0,0,0-.021-1,.829.829,0,0,0,.256-.619c.128-3.734.192-7.467.256-11.2h.322a.794.794,0,0,0,.214.555,9.887,9.887,0,0,0,3.512,2.623q-.384,1.343-.835,2.689c-.149.47.32.853.749.832.149.491.621.853,1.157.47C447.822,306.9,449.02,306.283,449.9,307.372Z" transform="translate(15.74 44.07)"/>
    <path id="Path_201" data-name="Path 201" class="cls-3" d="M453.922,303.47a65.715,65.715,0,0,1-1.67,15.7,31.291,31.291,0,0,0-4.454,1.068.718.718,0,0,0-.557.7h-.322c.021-2.9.045-5.8.045-8.705a.618.618,0,0,0,.384-.064l4.755-2.349c.555-.277.32-1.023-.173-1.215a25.969,25.969,0,0,0-5.011-1.472c-.064-5.676-.171-11.352-.384-17.027a5.591,5.591,0,0,0,2.441-.555c.813-.4.237-1.813-.621-1.451a6.481,6.481,0,0,1-1.9.47.317.317,0,0,0-.6.021,5.479,5.479,0,0,1-2.334-.64c-.6-.3-1.328.491-.75.959a5.416,5.416,0,0,0,2.977,1.217q-.58,10.85-.792,21.72a.489.489,0,0,0-.258-.021,20.379,20.379,0,0,1-3.747.789.634.634,0,0,0-.427,1.068,13.492,13.492,0,0,0,4.39,3.093q-.1,7.681,0,15.362a1.05,1.05,0,0,0,.171.534,3.23,3.23,0,0,0,.064,1.493,2.144,2.144,0,0,1-1.992,1.515c-1.627.021-1.712-1.472-1.285-2.6.173-.428-.384-.791-.728-.577a1.888,1.888,0,0,0-.856,1.43,1.271,1.271,0,0,1-1.584.34c-.771-.489-.363-1.621.235-2.049a.571.571,0,0,0-.427-1.045,2.11,2.11,0,0,0-1.051.683c-.835-.106-.835-1.366-.3-1.921a2.448,2.448,0,0,1,1.627-.683,3.407,3.407,0,0,1,2.678,1.472.684.684,0,0,0,1.134-.662,3.217,3.217,0,0,0-1.926-1.983c-.386-2.049-.728-4.055-.986-6.04a7.682,7.682,0,0,0,3.619-1.345.587.587,0,0,0-.128-1.066,21.205,21.205,0,0,1-2.27-.938c-.579-.3-1.134-.683-1.712-.983a110.744,110.744,0,0,1-.408-15.043,13.159,13.159,0,0,0,4.2-1.406.485.485,0,0,0,0-.855c-1.285-.683-2.592-1.472-3.94-2.027.064-.917.192-1.855.278-2.772a11.3,11.3,0,0,0,3.875-.513.64.64,0,0,0,.152-1.153l-3.32-2.538a.746.746,0,0,0-.278-.106c.363-2.88.771-5.825,1.283-8.856,2.184-.106,4.155-.234,5.611-.277.856-.021,1.821,0,2.87,0a63.83,63.83,0,0,1,3.019,9.773,10.892,10.892,0,0,0-3.9,1.472.671.671,0,0,0,.149,1.215,20.5,20.5,0,0,0,4.539,1.472c.152,1.047.258,2.091.344,3.159a20.546,20.546,0,0,1-4.433.747.763.763,0,0,0-.386,1.408A16.417,16.417,0,0,0,453.922,303.47Z" transform="translate(10.624 23.519)"/>
    <path id="Path_202" data-name="Path 202" class="cls-5" d="M445.945,290.9c.021.513.043,1.045.064,1.557a19.087,19.087,0,0,1-2.312-1.045A17.472,17.472,0,0,0,445.945,290.9Z" transform="translate(18.472 33.362)"/>
    <path id="Path_203" data-name="Path 203" class="cls-5" d="M445.408,287.255q.16.9.32,1.791c-.342-.106-.707-.191-1.048-.319-.472-.149-.944-.364-1.414-.534C443.973,287.874,444.7,287.6,445.408,287.255Z" transform="translate(17.983 29.257)"/>
    <path id="Path_204" data-name="Path 204" class="cls-5" d="M445.143,300.293c-.171.7-.363,1.387-.555,2.07a13.2,13.2,0,0,1-1.864-1.408A23.359,23.359,0,0,0,445.143,300.293Z" transform="translate(17.368 43.956)"/>
    <path id="Path_205" data-name="Path 205" class="cls-5" d="M444.765,295.574l-3.19,1.493c0-.919-.023-1.836-.045-2.732C442.6,294.764,443.693,295.147,444.765,295.574Z" transform="translate(16.012 37.24)"/>
    <path id="Path_206" data-name="Path 206" class="cls-6" d="M447.972,280.772a19.384,19.384,0,0,0-5.118-.234,33.91,33.91,0,0,0-5.225.874,149.277,149.277,0,0,0,3.662-16.387c1.414-.021,2.806-.043,4.219-.021C446.281,270.275,447.308,275.481,447.972,280.772Z" transform="translate(11.584 4.162)"/>
    <path id="Path_207" data-name="Path 207" class="cls-5" d="M441.975,296.563c-.021.874-.021,1.77-.043,2.666a23.139,23.139,0,0,1-2.528-1.77A6.614,6.614,0,0,0,441.975,296.563Z" transform="translate(13.599 39.751)"/>
    <path id="Path_208" data-name="Path 208" class="cls-5" d="M438.212,287.094c.685.513,1.371,1.047,2.035,1.559a15.16,15.16,0,0,1-2.227.3Z" transform="translate(12.028 29.076)"/>
    <path id="Path_209" data-name="Path 209" class="cls-3" d="M445.889,268.254c1.414-.085,2.848-.151,4.262-.194A141.3,141.3,0,0,0,447,284.66a13.65,13.65,0,0,0-7.582,4.844c-2.763,3.927-1.971,9.026-.021,13.143a15.652,15.652,0,0,1-5.761-1.43,8.584,8.584,0,0,1-4.134-4.778c1.693-1.259,3.427-2.561,5.011-3.948a.589.589,0,0,0-.256-.981,19.473,19.473,0,0,0-5.633-.853,46.269,46.269,0,0,1,1.928-11.394c.021.021.085.021.107.021h.021a.624.624,0,0,0,.192.043l.9-.064a.769.769,0,0,0,.235-.043,40.154,40.154,0,0,0,4.241-.106.659.659,0,0,0,.47-1.11,10.161,10.161,0,0,0-2.912-2.2,3.5,3.5,0,0,0-2.078-.577c.3-1.023.6-1.983.837-2.817a.588.588,0,0,0,.021-1c-2.528-1.557-5.868-5.078-2.955-8.065,1.563-1.6,4-1.089,5.631.128a8.337,8.337,0,0,1,2.784,4.608.888.888,0,0,0,1.307.513.51.51,0,0,0,.192.064h.064a13.4,13.4,0,0,0,1.5,7.895.624.624,0,0,0,1.072,0A40.557,40.557,0,0,0,445.889,268.254Zm-8.588,18.67a.78.78,0,0,0,1.221-.94c-.408-.7-.386-1.579-.942-2.2A2.394,2.394,0,0,0,435.5,283a1.867,1.867,0,0,0-1.349,2.944.146.146,0,0,0,.256-.064c0-1.108,1.435-2.07,2.035-.81C436.786,285.749,436.658,286.411,437.3,286.924Zm-1.155-17.987a.658.658,0,0,0,0-1.089,4.739,4.739,0,0,0-1.565-3.242,3.031,3.031,0,0,0-3.254-.47,2.912,2.912,0,0,0-1.371,3.093,5.355,5.355,0,0,0,2.528,3.372.536.536,0,0,0,.749-.149.413.413,0,0,0,.278,0,24.371,24.371,0,0,0,2.291-1.3.55.55,0,0,0,.278-.17C436.1,268.979,436.124,268.958,436.146,268.937Z" transform="translate(1.225 1.169)"/>
    <path id="Path_210" data-name="Path 210" class="cls-5" d="M437.99,299.631a10.6,10.6,0,0,0,2.4,1.111,6.181,6.181,0,0,1-2.163.9C438.139,300.954,438.075,300.293,437.99,299.631Z" transform="translate(11.994 43.209)"/>
    <path id="Path_211" data-name="Path 211" class="cls-5" d="M437.867,290.344c.837.47,1.715.9,2.614,1.3a17.671,17.671,0,0,1-2.742,1.045C437.782,291.9,437.8,291.133,437.867,290.344Z" transform="translate(11.709 32.74)"/>
    <path id="Path_212" data-name="Path 212" class="cls-5" d="M434.169,265.415c1.283-.085,2.569-.191,3.854-.255a43.8,43.8,0,0,1-2.763,6.444A13.594,13.594,0,0,1,434.169,265.415Z" transform="translate(7.634 4.348)"/>
    <path id="Path_213" data-name="Path 213" class="cls-5" d="M434.181,295.028a49.167,49.167,0,0,0,3.214,3.8,12.5,12.5,0,0,1-5.953-2.112A11.544,11.544,0,0,1,434.181,295.028Z" transform="translate(4.559 38.02)"/>
    <path id="Path_214" data-name="Path 214" class="cls-4" d="M435.7,275.045a.78.78,0,0,1-1.221.94c-.643-.513-.515-1.174-.856-1.857-.6-1.259-2.035-.3-2.035.81a.146.146,0,0,1-.256.064,1.867,1.867,0,0,1,1.349-2.944,2.394,2.394,0,0,1,2.078.789C435.317,273.466,435.3,274.341,435.7,275.045Z" transform="translate(4.044 12.107)"/>
    <path id="Path_215" data-name="Path 215" class="cls-4" d="M435.394,267.048a.658.658,0,0,1,0,1.089c-.021.021-.043.043-.066.043a.55.55,0,0,1-.278.17,24.371,24.371,0,0,1-2.291,1.3.413.413,0,0,1-.278,0,.536.536,0,0,1-.749.149,5.355,5.355,0,0,1-2.528-3.372,2.912,2.912,0,0,1,1.371-3.093,3.031,3.031,0,0,1,3.254.47A4.739,4.739,0,0,1,435.394,267.048Zm-1.179.428a4.106,4.106,0,0,0-.856-2.391,1.664,1.664,0,0,0-2.184-.3c-1.414,1.238.491,3.136,1.285,4.055.043.042.043.106.064.149A15.991,15.991,0,0,1,434.215,267.476Z" transform="translate(1.977 1.968)"/>
    <path id="Path_216" data-name="Path 216" class="cls-5" d="M434.214,302.695a19.437,19.437,0,0,1-4.433-.3,10.433,10.433,0,0,1-.021-3.287A16.621,16.621,0,0,0,434.214,302.695Z" transform="translate(2.514 42.622)"/>
    <path id="Path_217" data-name="Path 217" class="cls-5" d="M433.339,270.59c-.88-.021-1.736-.021-2.592.021a.684.684,0,0,0-.3-.064c-.258-.021-.515-.043-.773-.043.173-.619.365-1.238.536-1.815.408.449,1.2.577,1.736.9A7.916,7.916,0,0,1,433.339,270.59Z" transform="translate(2.554 8.328)"/>
    <path id="Path_218" data-name="Path 218" class="cls-5" d="M432.8,276.8c-1.307.874-2.571,1.791-3.811,2.753a15.463,15.463,0,0,1-.429-3.521A16.828,16.828,0,0,1,432.8,276.8Z" transform="translate(1.291 16.605)"/>
  </g>
</svg>
