<svg xmlns="http://www.w3.org/2000/svg" width="100.378" height="62.879" viewBox="0 0 100.378 62.879">
  <defs>
    <style>
      .cls-1 {
        fill: #222221;
      }

      .cls-2 {
        fill: #65b1d2;
      }

      .cls-3 {
        fill: #a8d2e5;
      }
    </style>
  </defs>
  <g id="Group_8" data-name="Group 8" transform="translate(-232.556 -341.819)">
    <path id="Path_144" data-name="Path 144" class="cls-1" d="M243.495,358.529c2.6-.264,8.389,1.513,10.148.328,1.2-.822,2.384-5.854,3.783-7.416,2.663-2.976,6.479-5.147,9.7-7.416a.8.8,0,0,1,1.167.475c2.96,8.059,2.746,20.18-7.367,22.6,0,.016.016.033.016.049a8.735,8.735,0,0,0,14.851,4.408,17.746,17.746,0,0,0,4.6-6.513c1.481-3.173,2.548-6.561,4.16-9.669a24.211,24.211,0,0,1,12.4-11.791c11.232-4.588,24.125.148,30.819,10.048,5.97,8.848,7.664,23.617.148,32.135-4.6,5.213-11.281,8.256-18.321,9.571a23.994,23.994,0,0,1-16.774,9.358c-.658.082-.838-.772-.494-1.184a15.611,15.611,0,0,0,3.668-7.762c-1.184-.148-2.368-.313-3.5-.559a25.853,25.853,0,0,1-3.338,2.943c-2.73,2.007-8.223,5.345-11.826,4.555a.779.779,0,0,1-.559-.74c-.016-1.2,1.3-2.04,1.974-2.91a19.358,19.358,0,0,0,3.7-9.638c-11.578.231-26.626-7.8-26.462-20.8a18.259,18.259,0,0,1-23.32-5.213.781.781,0,0,1,.279-1.069A24.378,24.378,0,0,1,243.495,358.529Zm12.039,8.535a.832.832,0,0,1,1.151.477.676.676,0,0,1,.741.69c-.3,12.993,14.538,19.472,25.457,20.36.016,0,.033.016.049.016a.675.675,0,0,1,1.02.625A19.657,19.657,0,0,1,282,396.75c-.559,1.151-1.563,2.169-2.073,3.306a1.739,1.739,0,0,1-.987,1.051c.741-.148,1.464-.344,2.171-.559,6.908-2.171,11.709-7.154,15.476-13.123a.016.016,0,0,1,.016-.016.316.316,0,0,1,.213-.3c5.542-2.038,10.2-3.848,14.161-8.322-3.322-1.809-5.723-4.836-7.943-7.992a4.1,4.1,0,0,0-.543,2.007c-.016,1.035-1.694,1-1.579,0a5.4,5.4,0,0,1,3.5-4.622c.526-.164.823.608.362.889a5.679,5.679,0,0,0-.725.526.915.915,0,0,1,.444.312c3.635,4.95,7.039,8.469,13.387,9.063,3.98.377,7.944-.166,11.924-.149a23.431,23.431,0,0,0,1.315-8.14c-.148-18.255-19.357-34.751-36.838-23.8-10.657,6.677-9.079,22.794-20.031,28.549-6.957,3.652-13.223-.789-14.638-7.91a.709.709,0,0,1,.3-.723.323.323,0,0,1,.2-.346c4.014-1.891,6.974-4.522,8.125-9,.592-2.319,1.2-9.292-1.315-10.673-1.169-.625-6.316,3.93-6.859,4.44a16,16,0,0,0-5.114,9.9.791.791,0,0,1-.971.559,21.6,21.6,0,0,0-12.432-1.4c-3.388.674-7.631,1.266-5.2,4.621C240.4,370.485,250.255,369.614,255.534,367.064Zm58.153,12.86a11.98,11.98,0,0,1-1.284-.459c-3.453,4.422-9.34,8.518-15.212,8.271a20.112,20.112,0,0,1-3.734,6.4c13.438.971,30.82-1.776,36.082-14.636A28.592,28.592,0,0,1,313.686,379.924Zm-5.591,15.656a46.207,46.207,0,0,1-10.64.33,16.365,16.365,0,0,1-2.978,7.1A25.437,25.437,0,0,0,308.095,395.58Z" transform="translate(0)"/>
    <path id="Path_145" data-name="Path 145" class="cls-2" d="M240.342,358.373c-3.388.674-7.631,1.266-5.2,4.621,4.062,5.575,13.913,4.7,19.191,2.155a.832.832,0,0,1,1.151.477.673.673,0,0,1,.674.379l2.253-.4a.709.709,0,0,1,.3-.723.323.323,0,0,1,.2-.346c4.014-1.891,6.974-4.522,8.125-9,.592-2.319,1.2-9.292-1.315-10.673-1.169-.625-6.316,3.93-6.859,4.44a16,16,0,0,0-5.114,9.9.791.791,0,0,1-.971.559A21.605,21.605,0,0,0,240.342,358.373Z" transform="translate(1.196 1.915)"/>
    <path id="Path_146" data-name="Path 146" class="cls-2" d="M249.935,366.921c1.415,7.121,7.68,11.562,14.638,7.91,10.952-5.755,9.374-21.872,20.031-28.549,17.481-10.953,36.69,5.542,36.838,23.8a23.432,23.432,0,0,1-1.315,8.14c-3.98-.016-7.944.526-11.924.149-6.347-.594-9.751-4.112-13.387-9.063a.915.915,0,0,0-.444-.312,5.679,5.679,0,0,1,.725-.526c.461-.28.164-1.053-.362-.889a5.4,5.4,0,0,0-3.5,4.622c-.115,1,1.563,1.035,1.579,0a4.1,4.1,0,0,1,.543-2.007c2.22,3.156,4.621,6.183,7.943,7.992-3.963,4.473-8.618,6.283-14.161,8.322a.316.316,0,0,0-.213.3.016.016,0,0,0-.016.016c-3.766,5.969-8.568,10.952-15.476,13.123-.707.215-1.43.412-2.171.559a1.739,1.739,0,0,0,.987-1.051c.51-1.136,1.513-2.155,2.073-3.306a19.659,19.659,0,0,0,1.956-7.517.675.675,0,0,0-1.02-.625c-.016,0-.033-.016-.049-.016-10.919-.889-25.753-7.367-25.457-20.36a.666.666,0,0,0-.067-.312Zm57.133-2.187a1.281,1.281,0,0,1,1.958,1.135c.033.461.69.739.92.246.758-1.561-.838-3.075-2.384-2.96-1.973.131-3.091,2.073-3.24,3.848-.066.79,1.184.938,1.366.18A3.27,3.27,0,0,1,307.068,364.733Zm7.582,1.332a1.644,1.644,0,0,1,1.481-1.694,1.8,1.8,0,0,1,1.645,1.712c.033.459.789.641.871.115a2.652,2.652,0,0,0-2.515-3.092,2.777,2.777,0,0,0-2.7,3.125C313.548,366.97,314.584,366.707,314.65,366.065Z" transform="translate(9.677 0.604)"/>
    <path id="Path_147" data-name="Path 147" class="cls-3" d="M269.7,379.447c13.438.971,30.82-1.776,36.082-14.636a28.592,28.592,0,0,1-15.853.426,11.985,11.985,0,0,1-1.284-.459c-3.453,4.422-9.34,8.518-15.212,8.271A20.114,20.114,0,0,1,269.7,379.447Z" transform="translate(23.76 14.687)"/>
    <path id="Path_148" data-name="Path 148" class="cls-2" d="M273.3,374.936a16.364,16.364,0,0,1-2.978,7.1,25.436,25.436,0,0,0,13.618-7.435A46.207,46.207,0,0,1,273.3,374.936Z" transform="translate(24.158 20.975)"/>
    <path id="Path_149" data-name="Path 149" class="cls-1" d="M282.225,359.05c-.066.79,1.184.938,1.366.18a3.27,3.27,0,0,1,1.381-2.45,1.281,1.281,0,0,1,1.958,1.135c.033.461.69.74.92.246.758-1.561-.838-3.075-2.384-2.96C283.493,355.333,282.374,357.274,282.225,359.05Z" transform="translate(31.773 8.557)"/>
    <path id="Path_150" data-name="Path 150" class="cls-1" d="M290.491,355.169a2.777,2.777,0,0,0-2.7,3.125c.115.74,1.151.477,1.217-.166a1.644,1.644,0,0,1,1.481-1.694,1.8,1.8,0,0,1,1.645,1.712c.033.459.789.641.871.115A2.652,2.652,0,0,0,290.491,355.169Z" transform="translate(35.316 8.54)"/>
  </g>
</svg>
