<svg xmlns="http://www.w3.org/2000/svg" width="100" height="98.447" viewBox="0 0 100 98.447">
  <defs>
    <style>
      .cls-1 {
        fill: #575757;
      }

      .cls-2 {
        fill: #222221;
      }

      .cls-3 {
        fill: #fff;
      }

      .cls-4 {
        fill: #dca1a1;
      }
    </style>
  </defs>
  <g id="Group_106" data-name="Group 106" transform="translate(-694 -410)">
    <path id="Path_219" data-name="Path 219" class="cls-1" d="M306.6,430.317c.246,6.969-3.19,12.362-14.7,12.8-7.634.3-13.615-2.147-16.255-8.034,6.341-7.291,22.806-7.178,30.82-4.785A.281.281,0,0,0,306.6,430.317Zm-5.678,4.8a1.653,1.653,0,0,0,0-3.3A1.653,1.653,0,0,0,300.92,435.121ZM282.253,436.7c2.126.267,2.126-3.569,0-3.3l-.324.057a1.607,1.607,0,0,0,0,3.211Z" transform="translate(485.149 23.074)"/>
    <path id="Path_220" data-name="Path 220" class="cls-2" d="M290.515,425.146c1.481.057,3.115,1.483,2.887,3.077a.6.6,0,0,1-1.178.151c-.286-.816-.721-1.708-1.71-1.8a2.056,2.056,0,0,0-2.051,1.481c-.189.551-1.121.513-1.064-.133A3.085,3.085,0,0,1,290.515,425.146Z" transform="translate(495.648 19.774)"/>
    <path id="Path_221" data-name="Path 221" class="cls-3" d="M300.692,419.841c3.306,6.7,8.85,16.9,9.762,25.294-6.761-2.032-13.521-1.748-20.358-.057-3.836.951-8.6,1.937-10.938,5.241a19.739,19.739,0,0,1-1.026-6.4c-.057-6.57,1.5-13.216,2.336-19.729a.446.446,0,0,0-.227-.475.572.572,0,0,0-.248-.778c-3.647-1.766-9.439-3.895-8.734-9,.473-3.55,4.025-4.309,6.665-2.429,1.861,1.31,2.829,3.531,3.76,5.544a.478.478,0,0,0,.551.3,7.71,7.71,0,0,0-.229.949,17.353,17.353,0,0,0-5.146-6.133.547.547,0,0,0-.4-.267c-2.982-.114-2.488,3.533-1.52,5.281a9.528,9.528,0,0,0,7.007,4.728.487.487,0,0,0,.286-.057,16.873,16.873,0,0,0,3.266,5.26.392.392,0,0,0,.4.132,2.988,2.988,0,0,0,2.355.324,1.51,1.51,0,0,0,1.272-1.291,1.49,1.49,0,0,0-.114-.759,3.833,3.833,0,0,0,3.8-.286,3.91,3.91,0,0,0,1.537-4.025A5.1,5.1,0,0,0,300.692,419.841Zm7.18,21.458c.227-1.594-1.407-3.02-2.887-3.077A3.085,3.085,0,0,0,301.87,441c-.057.646.875.684,1.064.133a2.056,2.056,0,0,1,2.051-1.481c.988.095,1.424.986,1.71,1.8A.6.6,0,0,0,307.872,441.3Zm-19.352,1.026a3.326,3.326,0,0,0-3.645-3.1,2.925,2.925,0,0,0-2.431,3.722.394.394,0,0,0,.759-.21,2.064,2.064,0,0,1,2.107-2.353c1.253.095,1.842,1.2,2.355,2.183A.467.467,0,0,0,288.52,442.325Z" transform="translate(481.179 6.698)"/>
    <path id="Path_222" data-name="Path 222" class="cls-2" d="M289.746,430.411a1.653,1.653,0,0,1,0,3.3A1.653,1.653,0,0,1,289.746,430.411Z" transform="translate(496.322 24.479)"/>
    <path id="Path_223" data-name="Path 223" class="cls-2" d="M294.286,440.559a45.985,45.985,0,0,1-6.267.095,23.832,23.832,0,0,1-5.3,17.319c-.568.683-1.443-.095-1.348-.778a37.055,37.055,0,0,0-1.216-17.016c-2.126-.151-4.29-.284-6.419-.284,1.729,5.2-.911,12-2.734,16.635-.246.627-1.4.854-1.537,0a55.744,55.744,0,0,0-4.557-15.23,13.33,13.33,0,0,0-7.863,8.412.559.559,0,0,1-.208.551c-2.942,8.906-1.71,19.75,5.943,25.769a.673.673,0,0,1,.761-.189c.284-.721.589-1.443.873-2.166.381-.968,1.918-.589,1.594.437-.53,1.672-1.138,3.3-1.784,4.919a.456.456,0,0,1,.341.076,23.52,23.52,0,0,1,3.741,4.025.65.65,0,0,1,.151.437.564.564,0,0,1-.57.589,16.687,16.687,0,0,1-5.468-.913c-.475,1.026-.95,2.032-1.443,3.02-1.045,2.069-2.166,4.1-3.344,6.114-.683,1.14-1.386,2.261-2.126,3.363a5.345,5.345,0,0,0-.665.627h.019c1.367.114,2.526.949,3.836,1.367a10.792,10.792,0,0,0,1.861.437c1.575-.153,3.153-.362,4.766-.456a.833.833,0,0,1,.589.151,1.018,1.018,0,0,1,.153-.246,19.932,19.932,0,0,0,1.556-4.557,8.915,8.915,0,0,1-5.222-3.228.751.751,0,0,1,.532-1.272c1.842.095,3.721.17,5.563.379.362-1.727.665-3.455.988-5.184.456-2.526.93-5.052,1.537-7.539a.4.4,0,0,1,.778.095c.019.589.019,1.216.04,1.823a.817.817,0,0,1,.435-.057,33.762,33.762,0,0,0,4.33.324,44.318,44.318,0,0,1-4.406-15.933c-.076-.873,1.121-.854,1.4-.189a36.22,36.22,0,0,0,12.61,15.1,41.851,41.851,0,0,0,4.709-1.462,20,20,0,0,1-1.518-14.2.754.754,0,0,1,1.443,0,23.358,23.358,0,0,0,6.021,11.279.958.958,0,0,1,.151.267c.322-.172.665-.324.987-.513-.17-.343-.322-.665-.511-1.007a.762.762,0,0,1,1.31-.778c.227.362.4.721.608,1.083.53-.133,1.081.589.587.986-.019.019-.057.038-.076.057.267.57.475,1.159.7,1.748a.617.617,0,0,1,.324-.038,15.649,15.649,0,0,1,4.633,1.861.544.544,0,0,1,.248.343.629.629,0,0,1-.248.665,8.168,8.168,0,0,1-3.647,1.481,34.147,34.147,0,0,1,.646,6.608,44.124,44.124,0,0,1-.4,4.73A26.013,26.013,0,0,1,306.5,493.6a.556.556,0,0,1-.229.913,38.233,38.233,0,0,1-4.519,1.005,14.687,14.687,0,0,0,.324,4.065c1.956.151,3.95.473,5.887.778a.911.911,0,0,1,.36.17c1.216-3.037.95-7.823.153-12.8a16.272,16.272,0,0,1-4.425-1.823.6.6,0,0,1,.133-1.081,9.563,9.563,0,0,0,2.164-.759c.456-.248.875-.551,1.31-.818-.454-2.221-.949-4.387-1.424-6.343-.589-2.467-1.1-4.6-1.4-6.114a1.045,1.045,0,0,1-.17-.913l-.057-.4c-.059-.532.608-.589.911-.267,3.285-1.632,6.608-3.38,9.989-4.879a15.953,15.953,0,0,1-8.869-5.089c-4.862-5.887-3.647-15.876-1.748-24.175a11.117,11.117,0,0,1-4.69,4.006c0,.019.019.04.019.059a24.678,24.678,0,0,1-3,16.577.691.691,0,0,1-1.272-.36,33.469,33.469,0,0,0-1.823-14.471A.263.263,0,0,1,294.286,440.559Zm.133-.019a.2.2,0,0,1,.189.133,27.86,27.86,0,0,1,2.791,11.489,23.855,23.855,0,0,0,1.482-12.553A19,19,0,0,1,294.419,440.541ZM257.085,484.52q1.082-1.65,2.164-3.247c.93-1.4,1.88-2.772,2.81-4.177a15.3,15.3,0,0,1-5.2-5.07,30.175,30.175,0,0,1-7.007,7.9,7.264,7.264,0,0,1-.627.456c1.121,1.748,2.147,3.55,3.209,5.317a.664.664,0,0,1-.74.969c-2.088-.646-4.652-1.9-5.981-3.76a11.489,11.489,0,0,0-.856.8,10.117,10.117,0,0,0-1.348,2.469,55.379,55.379,0,0,0,6.553,5.336,1.1,1.1,0,0,1,.511.969c2.336-1.558,4.027-4.084,5.6-6.551.133-.21.267-.4.4-.608a.405.405,0,0,1-.324-.153,21,21,0,0,1-3.418-5.62c-.208-.532.151-1.234.8-1.026,1.748.532,3.5,1.083,5.241,1.613a.688.688,0,0,1,.3,1.1.615.615,0,0,1-.646.17c-1.291-.379-2.564-.759-3.855-1.119A35.989,35.989,0,0,0,257.085,484.52Zm71.8-61.792c9.762,12.457,21.327,39.1-2.961,42.023a32.362,32.362,0,0,1-8.355-.057,39.229,39.229,0,0,1-5.924,3.722,67.024,67.024,0,0,1,9.134,11.907.7.7,0,0,1,.265.417c.191.343.418.665.608,1.026,1.615,2.829,4.292,6.951,2.469,10.255-2.183,3.95-9.912,4.881-12.61,1.4.1.969.153,1.937.172,2.868.095,4.879-2.166,9.039-7.407,8.848a.621.621,0,0,1-.589-.341c-2.278.019-3.323-.721-3.76-4.006-.589-4.387.759-9.363.894-13.788a29.632,29.632,0,0,0-2.2-13.008c-7.672,5.487-17.565,7.121-26.8,5.792a50.493,50.493,0,0,1-3.361,17.508c-1.842,4.406-4.822,6.059-9.476,5.337-3.17-.494-7.632-1.71-6.494-5.527.988-3.266,4.349-6.932,5.983-10.008.57-1.062,1.062-2.164,1.594-3.266-2.772,5.014-6.324,10.179-11.146,10.957a9.422,9.422,0,0,1-.894.3,8.245,8.245,0,0,1-1.176.284.358.358,0,0,1-.494.189c-4.1-1.67-7.35-5.106-5.413-9.685.988-2.335,3-3.855,4.976-5.317a48.391,48.391,0,0,0,10.255-9.722c-3.152-5.924-3.323-13.882-1.272-20.358a11.357,11.357,0,0,1-9.1-5.279c-2.925-4.519-1.956-10.2.589-14.66a.818.818,0,0,1,.379-.341,4.527,4.527,0,0,1-1.386-3.571.409.409,0,0,1,.818,0,3.467,3.467,0,0,0,.93,2.412,3.789,3.789,0,0,1,.513-2.431c.475-.721,1.632-.038,1.159.684a3.524,3.524,0,0,0-.723,2.2.4.4,0,0,1-.095.248,2.85,2.85,0,0,0,.761.284,2.874,2.874,0,0,1,1.157-1.176.655.655,0,0,1,.875.892c-.057.095-.134.208-.191.3a3.749,3.749,0,0,0,1.842-1.1c.627-.665,1.577.322.988.986a4.292,4.292,0,0,1-4.217,1.5.484.484,0,0,1-.7-.172l-.17-.057a.471.471,0,0,1-.019.151c-1.6,3.97-3.152,8.185-.854,12.269a11.339,11.339,0,0,0,7.956,5.373,25.559,25.559,0,0,1,1.329-2.906,13.9,13.9,0,0,1,7.672-6.7c.038-.019.076-.019.095-.038a20.457,20.457,0,0,1,4.995-1.045,3.389,3.389,0,0,1,1.537-4.652c2.166-1.007,4.444.019,6.191,1.443a2.84,2.84,0,0,1,1.71-3.228c2.032-.74,4.841.969,6.171,2.887a3.84,3.84,0,0,1,2.868-2.887,5.01,5.01,0,0,1,4.6,1.748,4.141,4.141,0,0,1,2.923-3,4.363,4.363,0,0,1,3.438.778,5.1,5.1,0,0,1,5.184-5.108c-4.519-2.2-9.211-6.437-6.1-11.506a5.128,5.128,0,0,1,5.983-2.223c3.247.969,4.879,4.217,6.17,7.083a8.535,8.535,0,0,1,3.077-3.588,9.127,9.127,0,0,1,6.475-1.445c1.367-2.183,1.937-4.936,3.987-6.646,1.407-1.159,3.476-1.8,5.108-.7,4.368,2.942-.038,8.507-2.145,11.279a13.921,13.921,0,0,1,1.786,2.622.557.557,0,0,1,.057.189.618.618,0,0,1,.322.8c-.057.151-.151.284-.208.418A.44.44,0,0,1,328.884,422.728Zm-5.468,40.164c11.508-.437,14.944-5.83,14.7-12.8a.281.281,0,0,1-.133-.019c-8.015-2.393-24.479-2.507-30.82,4.785C309.8,460.745,315.782,463.195,323.416,462.892ZM338,448.534c-.913-8.393-6.456-18.591-9.762-25.294a5.1,5.1,0,0,1-5.943,1.367,3.91,3.91,0,0,1-1.537,4.025,3.833,3.833,0,0,1-3.8.286,1.49,1.49,0,0,1,.114.759,1.51,1.51,0,0,1-1.272,1.291,2.988,2.988,0,0,1-2.355-.324.392.392,0,0,1-.4-.132,16.873,16.873,0,0,1-3.266-5.26.487.487,0,0,1-.286.057,9.528,9.528,0,0,1-7.007-4.728c-.968-1.748-1.462-5.394,1.52-5.281a.547.547,0,0,1,.4.267,17.353,17.353,0,0,1,5.146,6.133,7.71,7.71,0,0,1,.229-.949.478.478,0,0,1-.551-.3c-.932-2.013-1.9-4.234-3.76-5.544-2.639-1.88-6.191-1.121-6.665,2.429-.7,5.108,5.088,7.237,8.734,9a.572.572,0,0,1,.248.778.446.446,0,0,1,.227.475c-.835,6.513-2.393,13.159-2.336,19.729a19.739,19.739,0,0,0,1.026,6.4c2.336-3.3,7.1-4.29,10.938-5.241C324.48,446.787,331.239,446.5,338,448.534Zm-12.173-30.858c1.575-2.412,5.506-6.437,2.6-9.077-3.4-3.1-6.135,3.609-7.71,6.229a7.992,7.992,0,0,1,1.481.492c.324-2.41,2.013-6.721,5.052-6.227,1.329.208,1.594,1.594,1.121,2.7a15.766,15.766,0,0,1-1.558,2.45c-.608.911-1.159,1.88-1.785,2.772A8.747,8.747,0,0,1,325.828,417.676Zm1.367,4.254a.019.019,0,0,0-.019-.019c-2.715-4.5-8.412-7.558-13.2-3.933-4.025,3.058-2.335,6.818-.74,10.446a.851.851,0,0,1,.208.284,1.93,1.93,0,0,0,1.407,1.121c.816.17,2.145-.456.967-1.329a.35.35,0,0,1,.076-.608.485.485,0,0,1,.74-.494,2.925,2.925,0,0,0,3.344.191c1.119-.818,1.043-2,.873-3.209a.524.524,0,0,1,.3-.513c-.36-.456.248-1.159.8-.837A3.953,3.953,0,0,0,327.2,421.931Zm-1.1-8.393c.418-.627,2.677-3.457.513-3.419-1.159.019-2.126,1.52-2.62,2.374a8.721,8.721,0,0,0-1.121,3.134,12.762,12.762,0,0,1,1.291.759C324.764,415.417,325.466,414.486,326.093,413.537Zm-3.931,73.357a8.046,8.046,0,0,0-.362-1.1,43.3,43.3,0,0,0-2.088-3.931,38.86,38.86,0,0,1-7.2,1.424.74.74,0,0,1-.646-1.1,18.932,18.932,0,0,1,4.957-5.033c-1.9-2.869-3.97-5.6-6.135-8.28-1.5.74-3,1.443-4.52,2.032.324.913.646,1.88.969,2.848,1.443-.341,2.867-.665,4.309-1.005a.608.608,0,0,1,.589,1.005,26.383,26.383,0,0,0-3.588,4.235,94.86,94.86,0,0,1,2.639,11.889.36.36,0,0,1,.341.284c.057.208.151.381.21.57.019-.019.019-.038.057-.038a23.821,23.821,0,0,0,10.1-3.647A1.5,1.5,0,0,1,322.162,486.894Zm-3.247-6.419c-.038-.057-.057-.095-.095-.151-.437-.74-.894-1.464-1.367-2.185a28.844,28.844,0,0,0-3.266,3.382C315.763,481.2,317.338,480.835,318.915,480.476Zm-9-6.267c-.835.133-1.653.267-2.488.418.189.608.38,1.216.57,1.842A24.206,24.206,0,0,1,309.914,474.209Zm-1.634,12.383c-.114-.7-.246-1.407-.379-2.109a7.3,7.3,0,0,1-1.975,1.045C306.7,485.906,307.483,486.249,308.28,486.591Zm-1.462-59.155c0-.019.019-.019.019-.038-.17-.057-.36-.114-.551-.189a.878.878,0,0,1-.987.949,4.114,4.114,0,0,0-4.008.894,4.2,4.2,0,0,0-.949,4.12.472.472,0,0,1-.038.324c0,.057.038.114.038.17.057.7-.873.8-1.216.341-.835-1.176-1.767-2.335-3.4-1.9-1.539.417-2.069,1.994-1.994,3.418v.019a.661.661,0,0,1-1.1.532c-.969-1.1-1.729-2.355-3.266-2.736a2.464,2.464,0,0,0-3.058,2.755.5.5,0,0,1-.721.532.6.6,0,0,1-.835.019c-1.178-1.1-1.9-2.412-3.438-3.153-.967-.475-2.278-.608-2.753.57a1.948,1.948,0,0,0,.3,1.994c.267.36-.208.854-.587.665a.686.686,0,0,1-.969.132c-1.348-1.064-2.715-2.374-4.557-2.336-2.126.057-2.906,1.956-2.223,3.7.362-.019.723,0,1.083-.019a.7.7,0,0,1,1.272-.17.668.668,0,0,1,.076.17c2.223.038,4.5.227,6.8.475a.314.314,0,0,1,.57-.076c.019.038.038.095.057.133,2.164.227,4.33.475,6.438.627a.794.794,0,0,1,.816.057c7.235.418,13.825-.494,17.643-7.426a.448.448,0,0,1,.4-.208C306.078,430.21,306.478,428.747,306.818,427.436Zm-1.518-5.449a9.19,9.19,0,0,0,3.664,2.088c-1.443-2.887-2.753-5.449-5.184-7.672C301.5,417.163,304.482,421.171,305.3,421.987Zm-.324,71.876c-.967-.683-1.956-1.348-2.961-2.013-.1.949-.191,1.937-.248,2.9A18.071,18.071,0,0,0,304.976,493.864Zm-3.228-15.42a6.151,6.151,0,0,0,2.507-1.14,19.9,19.9,0,0,0-3.115-1.178C301.388,476.886,301.559,477.666,301.748,478.444Zm-9.609-2.963c1.253-.494,2.488-1.062,3.741-1.67a24.061,24.061,0,0,1-5.546-8.547A21.547,21.547,0,0,0,292.139,475.481Zm-8.793-21.041a21.567,21.567,0,0,0,3.249-13.861l-2.128-.114c-1.1-.057-2.24-.153-3.4-.229A28.744,28.744,0,0,1,283.346,454.44Zm-5.506,23.985a38.944,38.944,0,0,0,7.026-.74,42.318,42.318,0,0,1-10.616-11.6A84.948,84.948,0,0,0,277.84,478.425Zm-7.331-24.972c1.6-4.292,2.982-9.287,1.615-13.521a23.564,23.564,0,0,0-6.324,1.043A43.847,43.847,0,0,1,270.509,453.453Zm-2.677,38.663c.133-.57.248-1.121.362-1.67-1.083-.04-2.166-.115-3.247-.21A26.1,26.1,0,0,0,267.832,492.116Zm-1.367-9.1a18.433,18.433,0,0,1-2.639-2.982c-.343.818-.7,1.634-1.064,2.45A17.36,17.36,0,0,0,266.465,483.02Zm-17.66.988a13.663,13.663,0,0,0,1.481.74c-.74-1.178-1.462-2.374-2.164-3.609-.551.38-1.1.759-1.634,1.14C247.266,482.85,247.969,483.514,248.805,484.009Z" transform="translate(453.633 3.298)"/>
    <path id="Path_224" data-name="Path 224" class="cls-3" d="M290.516,408.082c2.9,2.639-1.026,6.665-2.6,9.077a8.747,8.747,0,0,0-.8-.665c.627-.892,1.178-1.861,1.785-2.772a15.766,15.766,0,0,0,1.558-2.45c.473-1.1.208-2.488-1.121-2.7-3.039-.494-4.728,3.817-5.052,6.227a7.992,7.992,0,0,0-1.481-.492C284.381,411.69,287.115,404.986,290.516,408.082Z" transform="translate(491.546 3.816)"/>
    <path id="Path_225" data-name="Path 225" class="cls-1" d="M293.62,417.346a.019.019,0,0,1,.019.019,3.953,3.953,0,0,1-5.241,1.1c-.551-.322-1.159.381-.8.837a.524.524,0,0,0-.3.513c.17,1.214.246,2.391-.873,3.209a2.925,2.925,0,0,1-3.344-.191.485.485,0,0,0-.74.494.35.35,0,0,0-.076.608c1.178.873-.151,1.5-.967,1.329a1.93,1.93,0,0,1-1.407-1.121.851.851,0,0,0-.208-.284c-1.594-3.628-3.285-7.388.74-10.446C285.207,409.788,290.9,412.846,293.62,417.346Z" transform="translate(487.189 7.864)"/>
    <path id="Path_226" data-name="Path 226" class="cls-4" d="M287.68,408.506c2.164-.038-.095,2.793-.513,3.419-.627.948-1.329,1.88-1.937,2.848a12.762,12.762,0,0,0-1.291-.759,8.721,8.721,0,0,1,1.121-3.134C285.554,410.027,286.522,408.525,287.68,408.506Z" transform="translate(492.558 4.91)"/>
    <path id="Path_227" data-name="Path 227" class="cls-3" d="M290.751,456.457a8.046,8.046,0,0,1,.362,1.1,1.5,1.5,0,0,0-.362.151,23.821,23.821,0,0,1-10.1,3.647c-.038,0-.038.019-.057.038-.059-.189-.153-.362-.21-.57a.36.36,0,0,0-.341-.284,94.86,94.86,0,0,0-2.639-11.889,26.383,26.383,0,0,1,3.588-4.235.608.608,0,0,0-.589-1.005c-1.443.341-2.867.664-4.309,1.005-.324-.967-.646-1.935-.969-2.848,1.518-.589,3.02-1.291,4.52-2.032,2.164,2.677,4.235,5.411,6.135,8.28a18.932,18.932,0,0,0-4.957,5.033.74.74,0,0,0,.646,1.1,38.86,38.86,0,0,0,7.2-1.424A43.3,43.3,0,0,1,290.751,456.457Z" transform="translate(484.682 32.633)"/>
    <path id="Path_228" data-name="Path 228" class="cls-1" d="M283.989,446.617c.038.057.057.095.095.151-1.577.36-3.152.721-4.728,1.045a28.844,28.844,0,0,1,3.266-3.382C283.1,445.153,283.552,445.877,283.989,446.617Z" transform="translate(488.464 37.005)"/>
    <path id="Path_229" data-name="Path 229" class="cls-2" d="M279.636,425.686a3.326,3.326,0,0,1,3.645,3.1.467.467,0,0,1-.854.246c-.513-.986-1.1-2.088-2.355-2.183a2.064,2.064,0,0,0-2.107,2.353.394.394,0,0,1-.759.21A2.925,2.925,0,0,1,279.636,425.686Z" transform="translate(486.418 20.241)"/>
    <path id="Path_230" data-name="Path 230" class="cls-2" d="M280.017,431.249c2.126-.265,2.126,3.571,0,3.3l-.324-.036a1.607,1.607,0,0,1,0-3.211Z" transform="translate(487.385 25.216)"/>
    <path id="Path_231" data-name="Path 231" class="cls-1" d="M275.785,442.774c.835-.151,1.653-.286,2.488-.418a24.206,24.206,0,0,0-1.918,2.261C276.166,443.99,275.974,443.382,275.785,442.774Z" transform="translate(485.274 35.151)"/>
    <path id="Path_232" data-name="Path 232" class="cls-3" d="M279.518,454.6c.8,4.976,1.062,9.762-.153,12.8a.911.911,0,0,0-.36-.17c-1.937-.3-3.931-.627-5.887-.778a14.687,14.687,0,0,1-.324-4.065,38.233,38.233,0,0,0,4.519-1.005.556.556,0,0,0,.229-.913,26.013,26.013,0,0,0-4.311-3.113,44.124,44.124,0,0,0,.4-4.73,34.147,34.147,0,0,0-.646-6.608,8.168,8.168,0,0,0,3.647-1.481.629.629,0,0,0,.248-.665l.4-.1c.475,1.956.969,4.122,1.424,6.343-.435.267-.854.57-1.31.818a9.563,9.563,0,0,1-2.164.759.6.6,0,0,0-.133,1.081A16.272,16.272,0,0,0,279.518,454.6Z" transform="translate(482.586 36.423)"/>
    <path id="Path_233" data-name="Path 233" class="cls-1" d="M276.968,447.782c.133.7.265,1.4.379,2.109-.8-.343-1.575-.685-2.353-1.064A7.3,7.3,0,0,0,276.968,447.782Z" transform="translate(484.566 39.998)"/>
    <path id="Path_234" data-name="Path 234" class="cls-3" d="M308.42,450.949c-3.382,1.5-6.7,3.247-9.989,4.879-.3-.322-.969-.265-.911.267l.057.4a1.045,1.045,0,0,0,.17.913c.3,1.518.816,3.647,1.4,6.114l-.4.1a.544.544,0,0,0-.248-.343,15.649,15.649,0,0,0-4.633-1.861.617.617,0,0,0-.324.038c-.227-.589-.435-1.178-.7-1.748.019-.019.057-.038.076-.057.494-.4-.057-1.119-.587-.986-.21-.362-.381-.721-.608-1.083a.762.762,0,0,0-1.31.778c.189.343.341.665.511,1.007-.322.189-.665.341-.986.513a.958.958,0,0,0-.151-.267,23.357,23.357,0,0,1-6.021-11.279.754.754,0,0,0-1.443,0,20,20,0,0,0,1.518,14.2,41.849,41.849,0,0,1-4.709,1.462,36.22,36.22,0,0,1-12.61-15.1c-.284-.665-1.481-.684-1.4.189a44.319,44.319,0,0,0,4.406,15.933,33.763,33.763,0,0,1-4.33-.324.817.817,0,0,0-.435.057c-.021-.608-.021-1.234-.04-1.823a.4.4,0,0,0-.778-.095c-.608,2.488-1.081,5.014-1.537,7.539l-1.026-.189a.65.65,0,0,0-.151-.437,23.52,23.52,0,0,0-3.741-4.025.456.456,0,0,0-.341-.076c.646-1.615,1.253-3.247,1.784-4.919.324-1.026-1.214-1.4-1.594-.437-.284.723-.589,1.445-.873,2.166a.673.673,0,0,0-.761.189c-7.653-6.019-8.886-16.862-5.943-25.769a.559.559,0,0,0,.208-.551,13.33,13.33,0,0,1,7.863-8.412,55.745,55.745,0,0,1,4.557,15.23c.133.854,1.291.627,1.537,0,1.823-4.635,4.463-11.432,2.734-16.635,2.128,0,4.292.133,6.419.284a37.055,37.055,0,0,1,1.216,17.016c-.095.683.78,1.462,1.348.778a23.832,23.832,0,0,0,5.3-17.319,45.985,45.985,0,0,0,6.267-.095.263.263,0,0,0-.172.322,33.468,33.468,0,0,1,1.823,14.471.691.691,0,0,0,1.272.36,24.678,24.678,0,0,0,3-16.577c0-.019-.019-.04-.019-.059a11.117,11.117,0,0,0,4.69-4.006c-1.9,8.3-3.115,18.288,1.748,24.175A15.953,15.953,0,0,0,308.42,450.949Z" transform="translate(460.711 16.684)"/>
    <path id="Path_235" data-name="Path 235" class="cls-1" d="M292.72,417.722c0,.019-.019.019-.019.038-.341,1.31-.74,2.774-1.14,4.349a.448.448,0,0,0-.4.208c-3.817,6.932-10.408,7.844-17.642,7.426a.794.794,0,0,0-.816-.057c-2.107-.151-4.273-.4-6.438-.627-.019-.038-.038-.095-.057-.133a.314.314,0,0,0-.57.076c-2.3-.248-4.576-.437-6.8-.475a.669.669,0,0,0-.076-.17.7.7,0,0,0-1.272.17c-.36.019-.721,0-1.083.019-.683-1.748.1-3.647,2.223-3.7,1.842-.038,3.209,1.272,4.557,2.336a.686.686,0,0,0,.969-.132c.379.189.854-.3.587-.665a1.948,1.948,0,0,1-.3-1.994c.475-1.178,1.785-1.045,2.753-.57,1.539.74,2.261,2.051,3.438,3.153a.6.6,0,0,0,.835-.019.5.5,0,0,0,.721-.532,2.464,2.464,0,0,1,3.058-2.755c1.537.381,2.3,1.634,3.266,2.736a.661.661,0,0,0,1.1-.532v-.019c-.076-1.424.454-3,1.994-3.418,1.632-.437,2.564.721,3.4,1.9.343.456,1.272.362,1.216-.341,0-.057-.038-.114-.038-.17a.472.472,0,0,0,.038-.324,4.2,4.2,0,0,1,.949-4.12,4.114,4.114,0,0,1,4.008-.894.878.878,0,0,0,.987-.949C292.36,417.609,292.55,417.666,292.72,417.722Z" transform="translate(467.75 12.974)"/>
    <path id="Path_236" data-name="Path 236" class="cls-4" d="M279.44,419.5a9.19,9.19,0,0,1-3.664-2.088c-.818-.816-3.8-4.824-1.52-5.584C276.687,414.049,278,416.611,279.44,419.5Z" transform="translate(483.156 7.876)"/>
    <path id="Path_237" data-name="Path 237" class="cls-1" d="M273.044,451.674c1.005.665,1.994,1.329,2.961,2.013a18.071,18.071,0,0,1-3.209.892C272.853,453.611,272.947,452.623,273.044,451.674Z" transform="translate(482.604 43.475)"/>
    <path id="Path_238" data-name="Path 238" class="cls-1" d="M275.58,444.547a6.151,6.151,0,0,1-2.507,1.14c-.189-.778-.36-1.558-.608-2.318A19.9,19.9,0,0,1,275.58,444.547Z" transform="translate(482.308 36.056)"/>
    <path id="Path_239" data-name="Path 239" class="cls-1" d="M273.378,424.082a23.855,23.855,0,0,1-1.482,12.553,27.86,27.86,0,0,0-2.791-11.489.2.2,0,0,0-.189-.133A19,19,0,0,0,273.378,424.082Z" transform="translate(479.136 18.825)"/>
    <path id="Path_240" data-name="Path 240" class="cls-1" d="M272.334,446.179c-1.253.608-2.488,1.176-3.741,1.67a21.547,21.547,0,0,1-1.8-10.217A24.062,24.062,0,0,0,272.334,446.179Z" transform="translate(477.18 30.93)"/>
    <path id="Path_241" data-name="Path 241" class="cls-1" d="M267.391,424.756a21.567,21.567,0,0,1-3.249,13.861,28.743,28.743,0,0,0-2.278-14.2c1.159.076,2.3.172,3.4.229Z" transform="translate(472.837 19.121)"/>
    <path id="Path_242" data-name="Path 242" class="cls-1" d="M268.879,449.667a38.944,38.944,0,0,1-7.026.74,84.948,84.948,0,0,1-3.59-12.343A42.318,42.318,0,0,0,268.879,449.667Z" transform="translate(469.62 31.316)"/>
    <path id="Path_243" data-name="Path 243" class="cls-1" d="M260.124,424.253c1.367,4.234-.019,9.228-1.615,13.521A43.847,43.847,0,0,0,253.8,425.3,23.565,23.565,0,0,1,260.124,424.253Z" transform="translate(465.633 18.978)"/>
    <path id="Path_244" data-name="Path 244" class="cls-3" d="M261.628,447.454l1.026.189c-.324,1.729-.627,3.457-.988,5.184-1.842-.208-3.72-.284-5.563-.379a.751.751,0,0,0-.532,1.272,8.914,8.914,0,0,0,5.222,3.228,19.932,19.932,0,0,1-1.556,4.557,1.018,1.018,0,0,0-.153.246.833.833,0,0,0-.589-.151c-1.613.095-3.19.3-4.766.456a10.792,10.792,0,0,1-1.861-.437c-1.31-.418-2.469-1.253-3.836-1.367h-.019a5.345,5.345,0,0,1,.665-.627c.74-1.1,1.443-2.223,2.126-3.363,1.178-2.013,2.3-4.044,3.344-6.114.492-.988.968-1.994,1.443-3.02a16.687,16.687,0,0,0,5.468.913A.564.564,0,0,0,261.628,447.454Z" transform="translate(460.463 39.416)"/>
    <path id="Path_245" data-name="Path 245" class="cls-1" d="M256.6,451.031c-.114.549-.229,1.1-.362,1.67a26.1,26.1,0,0,1-2.886-1.88C254.43,450.916,255.513,450.991,256.6,451.031Z" transform="translate(465.23 42.713)"/>
    <path id="Path_246" data-name="Path 246" class="cls-1" d="M253.259,445.435a18.431,18.431,0,0,0,2.639,2.982,17.36,17.36,0,0,1-3.7-.532C252.557,447.069,252.916,446.253,253.259,445.435Z" transform="translate(464.199 37.901)"/>
    <path id="Path_247" data-name="Path 247" class="cls-3" d="M260.578,446.273c-.93,1.4-1.88,2.772-2.81,4.177l-.076-.038a.688.688,0,0,0-.3-1.1c-1.746-.53-3.493-1.081-5.241-1.613-.646-.208-1.005.494-.8,1.026a21,21,0,0,0,3.418,5.62.405.405,0,0,0,.324.153c-.133.208-.267.4-.4.608-1.575,2.467-3.266,4.993-5.6,6.551a1.1,1.1,0,0,0-.511-.969,55.379,55.379,0,0,1-6.553-5.336,10.117,10.117,0,0,1,1.348-2.469,11.489,11.489,0,0,1,.856-.8c1.329,1.861,3.893,3.115,5.981,3.76a.664.664,0,0,0,.74-.969c-1.062-1.767-2.088-3.569-3.209-5.317a7.264,7.264,0,0,0,.627-.456,30.175,30.175,0,0,0,7.007-7.9A15.3,15.3,0,0,0,260.578,446.273Z" transform="translate(455.113 34.121)"/>
    <path id="Path_248" data-name="Path 248" class="cls-1" d="M252.5,446.552q-1.082,1.6-2.164,3.247a35.989,35.989,0,0,1-2.412-4.234c1.291.36,2.564.74,3.855,1.119a.615.615,0,0,0,.646-.17Z" transform="translate(460.383 38.018)"/>
    <path id="Path_249" data-name="Path 249" class="cls-1" d="M247.4,449.626a13.663,13.663,0,0,1-1.481-.74c-.837-.494-1.539-1.159-2.317-1.729.532-.381,1.083-.759,1.634-1.14C245.936,447.252,246.658,448.448,247.4,449.626Z" transform="translate(456.521 38.421)"/>
  </g>
</svg>
